<?xml version="1.0" encoding="UTF-8" standalone="no"?>
<svg
   xmlns:dc="http://purl.org/dc/elements/1.1/"
   xmlns:cc="http://creativecommons.org/ns#"
   xmlns:rdf="http://www.w3.org/1999/02/22-rdf-syntax-ns#"
   xmlns:svg="http://www.w3.org/2000/svg"
   xmlns="http://www.w3.org/2000/svg"
   version="1.1"
   id="svg20791"
   viewBox="0 0 67.000001 58.000001"
   height="58"
   width="67">
  <defs
     id="defs20793" />
  <metadata
     id="metadata20796">
    <rdf:RDF>
      <cc:Work
         rdf:about="">
        <dc:format>image/svg+xml</dc:format>
        <dc:type
           rdf:resource="http://purl.org/dc/dcmitype/StillImage" />
        <dc:title></dc:title>
      </cc:Work>
    </rdf:RDF>
  </metadata>
  <g
     transform="translate(0,-994.36216)"
     id="layer1">
    <path
       d="M 0.05651015,996.71924 C 2.9340102,1009.038 16.22776,1016.678 26.14901,1022.8492 c 12.465,7.75 29.5825,15.0025 36.965,28.435 1.10875,2.0175 3.7025,0.5138 3.4275,-1.445 -0.6225,-4.405 -1.33625,-8.575 -3.14875,-12.6562 -0.86,-1.9363 -4.1925,-0.5338 -3.42625,1.4437 1.485,3.845 1.25375,7.85 1.65375,11.8825 0.79125,-0.6025 1.5825,-1.205 2.3725,-1.8075 -3.05125,-0.6837 -5.2075,-1.8887 -7.66875,-3.7312 -0.14875,1.1425 -0.3,2.285 -0.44875,3.4275 2.3725,-0.9338 4.44375,0.215 6.64,-1.05 2.095,-1.205 0.2075,-4.4463 -1.8925,-3.2375 -1.42625,0.8212 -3.985,-0.021 -5.74375,0.6712 -1.58125,0.6225 -1.79875,2.4163 -0.4475,3.4275 2.75,2.0563 5.21,3.3575 8.56625,4.1088 1.0875,0.2425 2.5,-0.5338 2.3725,-1.8088 -0.435,-4.3712 -0.18375,-8.7237 -1.78875,-12.8787 -1.1425,0.4812 -2.28375,0.9625 -3.42625,1.4437 1.6675,3.7588 2.2025,7.7275 2.77,11.7613 1.1425,-0.4813 2.28375,-0.9625 3.42625,-1.445 -6.345,-11.545 -19.64375,-18.4875 -30.50625,-25.0413 -11.02375,-6.6512 -28.9424998,-14.795 -32.1724998,-28.62746 -0.55,-2.35375 -4.16500005,-1.355 -3.61625005,0.9975"
       style="fill:#ffffff;fill-opacity:1;fill-rule:nonzero;stroke:none"
       id="path7700" />
  </g>
</svg>
