<?xml version="1.0" encoding="utf-8"?>
<!-- Generator: Adobe Illustrator 16.0.0, SVG Export Plug-In . SVG Version: 6.00 Build 0)  -->
<!DOCTYPE svg PUBLIC "-//W3C//DTD SVG 1.1//EN" "http://www.w3.org/Graphics/SVG/1.1/DTD/svg11.dtd">
<svg version="1.1" id="Capa_1" xmlns="http://www.w3.org/2000/svg" xmlns:xlink="http://www.w3.org/1999/xlink" x="0px" y="0px"
	 width="54px" height="48px" viewBox="0 0 54 48" enable-background="new 0 0 54 48" xml:space="preserve">
<path fill="#FFFFFF" d="M0.42,2.271c2.302,9.855,12.937,15.967,20.874,20.904c9.972,6.2,23.667,12.002,29.573,22.748
	c0.887,1.614,2.961,0.411,2.742-1.155c-0.498-3.524-1.07-6.86-2.52-10.125c-0.688-1.55-3.354-0.428-2.742,1.154
	c1.189,3.076,1.004,6.28,1.324,9.506c0.633-0.481,1.266-0.964,1.898-1.445c-2.441-0.547-4.166-1.512-6.137-2.985
	c-0.119,0.914-0.238,1.828-0.357,2.742c1.896-0.747,3.555,0.172,5.311-0.84c1.676-0.964,0.166-3.558-1.514-2.591
	c-1.141,0.657-3.188-0.017-4.594,0.537c-1.266,0.498-1.439,1.934-0.359,2.742c2.201,1.646,4.168,2.687,6.854,3.287
	c0.869,0.194,2-0.427,1.898-1.447C52.324,41.807,52.523,38.324,51.24,35c-0.914,0.385-1.826,0.77-2.74,1.155
	c1.334,3.007,1.762,6.182,2.215,9.409c0.914-0.385,1.828-0.771,2.742-1.156c-5.076-9.236-15.715-14.79-24.406-20.033
	C20.231,19.054,5.896,12.539,3.312,1.473C2.873-0.41-0.02,0.389,0.42,2.271"/>
</svg>
