<?xml version="1.0" encoding="utf-8"?>
<!-- Generator: Adobe Illustrator 16.0.0, SVG Export Plug-In . SVG Version: 6.00 Build 0)  -->
<!DOCTYPE svg PUBLIC "-//W3C//DTD SVG 1.0//EN" "http://www.w3.org/TR/2001/REC-SVG-20010904/DTD/svg10.dtd">
<svg version="1.0" id="Capa_1" xmlns="http://www.w3.org/2000/svg" xmlns:xlink="http://www.w3.org/1999/xlink" x="0px" y="0px"
	 width="322px" height="95px" viewBox="0 0 322 95" enable-background="new 0 0 322 95" xml:space="preserve">
<g>
	<path fill="#FFFFFF" stroke="#FFFFFF" stroke-width="6" stroke-miterlimit="10" d="M13.151,21.573
		c-1.45,2.779-2.742,4.864-3.879,6.253c-1.137,1.39-2.062,2.084-2.775,2.084c-0.981,0-1.471-1.183-1.471-3.551
		c0-2.297,0.312-4.359,0.936-6.188c0.625-1.828,1.5-3.451,2.625-4.869c1.126-1.418,2.463-2.625,4.013-3.621
		c1.549-0.996,3.244-1.816,5.083-2.461c1.839-0.645,3.784-1.119,5.835-1.424c2.051-0.304,4.157-0.457,6.32-0.457
		c2.519,0,5.05,0.193,7.591,0.579s4.982,0.929,7.323,1.631c2.341,0.701,4.526,1.549,6.555,2.542c2.028,0.994,3.795,2.093,5.3,3.297
		s2.686,2.507,3.544,3.911c0.858,1.403,1.288,2.864,1.288,4.383c0,1.81-0.374,3.596-1.12,5.358
		c-0.747,1.762-1.917,3.354-3.511,4.776c-1.594,1.421-3.634,2.591-6.12,3.507c-2.486,0.917-5.468,1.41-8.945,1.48
		c2.207,0,4.135,0.377,5.785,1.132c1.649,0.754,3.032,1.772,4.146,3.054c1.115,1.282,1.951,2.815,2.508,4.599
		c0.557,1.784,0.836,3.599,0.836,5.443c0,1.452-0.19,2.928-0.569,4.428c-0.379,1.498-0.948,2.939-1.705,4.323
		c-0.758,1.384-1.706,2.681-2.843,3.892c-1.137,1.211-2.469,2.266-3.996,3.165c-1.527,0.899-3.25,1.608-5.167,2.128
		c-1.917,0.518-4.024,0.777-6.32,0.777c-1.449,0-2.976-0.092-4.582-0.275c-1.605-0.184-3.227-0.433-4.865-0.746
		c-1.639-0.314-3.25-0.688-4.833-1.119c-1.583-0.434-3.076-0.898-4.481-1.396c-0.625-0.15-1.176-0.378-1.655-0.682
		c-0.479-0.303-0.719-0.844-0.719-1.622c0-3.938,0.094-7.972,0.284-12.101c0.189-4.129,0.574-8.215,1.154-12.261
		c0.579-4.045,1.359-7.563,2.341-10.552c0.98-2.989,2.374-5.896,4.18-8.72c1.583-1.152,3.021-1.729,4.314-1.729
		c1.627,0,2.987,0.965,4.08,2.894c-1.026,1.473-1.901,3.112-2.625,4.918c-0.725,1.806-1.276,3.41-1.655,4.812
		c-0.379,1.402-0.719,3.136-1.02,5.203c-0.301,2.067-0.541,4.086-0.719,6.058c-0.112,1.117-0.207,2.358-0.284,3.725
		c-0.079,1.366-0.15,2.702-0.217,4.009s-0.117,2.607-0.15,3.902c-0.034,1.295-0.05,2.537-0.05,3.725c0,0.191,0,0.455,0,0.79
		c0,0.336,0.028,0.683,0.083,1.042c0.055,0.359,0.128,0.689,0.217,0.988c0.089,0.299,0.223,0.521,0.401,0.664
		c1.359,0.48,2.82,0.887,4.381,1.223c1.56,0.335,3.121,0.502,4.682,0.502c1.895,0,3.734-0.245,5.518-0.736
		c1.783-0.49,3.366-1.27,4.749-2.335s2.491-2.431,3.328-4.096c0.836-1.665,1.254-3.79,1.254-6.378c0-1.389-0.246-2.544-0.736-3.466
		c-0.491-0.922-1.132-1.694-1.923-2.317c-0.792-0.623-1.694-1.12-2.708-1.492c-1.015-0.371-2.051-0.706-3.11-1.006
		c-1.059-0.299-2.096-0.591-3.11-0.877c-1.015-0.286-1.917-0.648-2.708-1.088c-0.792-0.44-1.433-0.987-1.923-1.641
		c-0.491-0.654-0.736-1.505-0.736-2.552c0-0.492,0.028-0.919,0.083-1.283c0.056-0.363,0.189-0.662,0.401-0.896
		c0.212-0.234,0.523-0.41,0.937-0.527c0.412-0.117,0.975-0.176,1.688-0.176c0.958,0,1.833,0.041,2.625,0.123
		c0.791,0.083,1.644,0.123,2.558,0.123c2.14,0,4.074-0.276,5.802-0.829c1.728-0.552,3.199-1.299,4.414-2.24
		c1.215-0.941,2.151-2.041,2.809-3.3c0.657-1.259,0.987-2.605,0.987-4.041c0-0.94-0.257-1.805-0.77-2.593
		c-0.513-0.788-1.232-1.494-2.157-2.117c-0.925-0.624-2.012-1.17-3.26-1.641c-1.249-0.47-2.608-0.865-4.08-1.182
		c-1.471-0.317-3.021-0.553-4.648-0.706c-1.628-0.152-3.277-0.229-4.949-0.229c-2.698,0-4.793,0.095-6.287,0.283
		c-2.051,0.236-3.962,0.606-5.735,1.113c-1.772,0.506-3.344,1.16-4.715,1.96S13.864,20.56,13.151,21.573z"/>
	<path fill="#FFFFFF" stroke="#FFFFFF" stroke-width="6" stroke-miterlimit="10" d="M86.386,35.606c0,0.633-0.021,1.495-0.061,2.585
		c-0.04,1.09-0.174,2.28-0.403,3.57c-0.228,1.29-0.504,2.849-0.828,4.68c-0.324,1.83-0.591,3.344-0.803,4.541
		c-0.212,1.198-0.398,2.246-0.557,3.144s-0.238,1.551-0.238,1.958c0,0.66,0.009,1.266,0.029,1.818
		c0.019,0.553,0.077,1.035,0.173,1.447s0.246,0.729,0.448,0.953c0.203,0.223,0.497,0.334,0.883,0.334
		c0.49,0,1.086-0.129,1.789-0.387c0.702-0.26,1.449-0.606,2.24-1.042c0.791-0.435,1.6-0.93,2.425-1.481
		c0.824-0.553,1.61-1.136,2.357-1.748c0.747-0.611,1.426-1.217,2.04-1.817c0.613-0.6,1.109-1.159,1.488-1.677
		c0,0.777,0.005,1.482,0.017,2.118s0.017,1.241,0.017,1.817c0,0.577,0.005,1.171,0.017,1.783c0.011,0.611,0.017,1.293,0.017,2.047
		c-0.491,0.508-1.098,1.052-1.822,1.63c-0.725,0.578-1.527,1.157-2.408,1.735c-0.881,0.578-1.817,1.133-2.809,1.664
		c-0.992,0.531-1.99,1-2.993,1.405c-1.003,0.405-1.983,0.729-2.94,0.972c-0.958,0.242-1.845,0.363-2.663,0.363
		c-0.833,0-1.545-0.172-2.137-0.52c-0.592-0.346-1.101-0.832-1.528-1.456c-0.428-0.624-0.789-1.368-1.085-2.235
		s-0.553-1.831-0.772-2.895c-0.804,1.087-1.652,2.088-2.545,3.001c-0.893,0.913-1.803,1.706-2.729,2.376
		c-0.926,0.671-1.864,1.197-2.812,1.578c-0.949,0.383-1.87,0.572-2.762,0.572c-0.732,0-1.421-0.128-2.065-0.386
		c-0.644-0.257-1.216-0.69-1.715-1.3s-0.894-1.412-1.183-2.408c-0.288-0.995-0.433-2.23-0.433-3.707
		c0.023-3.069,0.246-5.424,0.669-7.064c0.667-2.392,1.29-5.957,1.869-10.694c0.061-0.346,0.143-0.819,0.248-1.419
		c0.104-0.6,0.263-1.251,0.475-1.955c0.211-0.703,0.473-1.418,0.786-2.145c0.312-0.726,0.68-1.383,1.104-1.969
		c0.423-0.585,0.92-1.066,1.488-1.441c0.568-0.375,1.209-0.574,1.923-0.598c1.181,0.06,2.028,0.262,2.542,0.604
		c0.513,0.343,0.769,0.768,0.769,1.275c-0.201,1.581-0.426,3.1-0.676,4.558c-0.25,1.458-0.501,2.927-0.754,4.407
		c-0.253,1.479-0.535,3.125-0.844,4.937c-0.31,1.812-0.558,3.265-0.745,4.357c-0.187,1.094-0.338,1.977-0.453,2.651
		s-0.172,1.023-0.172,1.048c0,0.436,0.039,0.853,0.118,1.252c0.078,0.398,0.195,0.756,0.352,1.07
		c0.157,0.313,0.358,0.568,0.604,0.762s0.537,0.289,0.873,0.289c0.492,0,0.996-0.137,1.511-0.411
		c0.514-0.274,0.995-0.674,1.443-1.198c0.47-0.478,0.884-1.098,1.242-1.861c0.358-0.74,0.626-1.6,0.806-2.577l3.687-19.159
		c0.107-0.562,0.543-1.037,1.307-1.424c0.764-0.387,1.631-0.58,2.6-0.58c1.097,0,1.969,0.211,2.615,0.633
		C86.062,34.411,86.386,34.951,86.386,35.606z"/>
	<path fill="#FFFFFF" stroke="#FFFFFF" stroke-width="6" stroke-miterlimit="10" d="M104.928,68.371
		c-2.082,0-3.903-0.404-5.464-1.217c-1.561-0.811-2.862-1.902-3.903-3.273c-1.041-1.371-1.822-2.958-2.342-4.76
		c-0.521-1.801-0.781-3.691-0.781-5.672c0-1.295,0.232-2.839,0.698-4.632s0.948-3.383,1.447-4.771
		c0.498-1.388,1.125-2.712,1.879-3.973s1.635-2.371,2.644-3.331c1.009-0.96,2.14-1.724,3.393-2.29
		c1.253-0.567,2.644-0.851,4.174-0.851c1.25,0,2.41,0.211,3.481,0.632c1.071,0.421,2.003,1.012,2.795,1.773
		c0.792,0.761,1.412,1.68,1.858,2.757s0.67,2.282,0.67,3.616c0,1.421-0.453,3.014-1.357,4.778c-0.905,1.764-1.96,3.277-3.167,4.537
		c-1.207,1.262-2.642,2.385-4.306,3.369c-1.665,0.986-3.468,1.754-5.412,2.304c0.335,0.619,0.666,1.135,0.99,1.548
		c0.324,0.412,0.654,0.732,0.99,0.962c0.335,0.229,0.688,0.39,1.057,0.481c0.369,0.092,0.766,0.137,1.192,0.137
		c1.337,0,2.747-0.273,4.23-0.824c1.482-0.551,2.926-1.238,4.331-2.062c1.404-0.826,2.73-1.725,3.979-2.699
		c1.248-0.974,2.307-1.896,3.177-2.768l4.314,4.607c-1.962,2.196-4.046,4.139-6.253,5.828c-0.959,0.725-1.99,1.438-3.093,2.137
		c-1.104,0.7-2.263,1.322-3.478,1.865c-1.215,0.543-2.475,0.977-3.779,1.303S106.267,68.371,104.928,68.371z M100.464,51.627
		c0.806,0,1.684-0.211,2.635-0.635s1.834-0.969,2.652-1.633c0.816-0.666,1.617-1.559,2.4-2.682c0.783-1.123,1.175-2.051,1.175-2.784
		c0-1.031-0.185-1.879-0.554-2.544s-0.822-0.997-1.359-0.997c-0.962,0-1.785,0.184-2.467,0.55c-0.683,0.367-1.253,0.842-1.712,1.427
		s-0.828,1.249-1.108,1.994c-0.28,0.745-0.604,1.667-0.973,2.767c-0.37,1.1-0.576,2.006-0.622,2.715
		C100.486,50.516,100.464,51.123,100.464,51.627z"/>
	<path fill="#FFFFFF" stroke="#FFFFFF" stroke-width="6" stroke-miterlimit="10" d="M118.923,61.023
		c0-1.547,0.089-3.334,0.268-5.361c0.178-2.026,0.401-4.254,0.669-6.68c0.268-2.425,0.568-4.61,0.903-6.556
		c0.334-1.945,0.657-3.609,0.97-4.992c0.245-1.078,0.719-1.98,1.421-2.707c0.702-0.726,1.655-1.09,2.859-1.09
		c1.204,0,2.04,0.387,2.508,1.16s0.702,1.805,0.702,3.094c0,0.352-0.033,0.826-0.1,1.424s-0.151,1.254-0.251,1.969
		c-0.1,0.715-0.207,1.454-0.318,2.215c-0.112,0.762-0.217,1.629-0.317,2.602c-0.101,0.973-0.184,1.7-0.251,2.179
		c-0.067,0.48-0.1,0.804-0.1,0.967h0.668c0.134-0.258,0.346-0.673,0.636-1.248c0.289-0.574,0.624-1.4,1.003-2.479
		c0.379-1.078,0.786-2.033,1.221-2.865c0.435-0.832,0.841-1.629,1.221-2.391c0.379-0.761,0.724-1.436,1.037-2.021
		c0.312-0.585,0.546-1.02,0.702-1.301c0.713-1.266,1.527-2.132,2.441-2.602c0.914-0.469,1.928-0.703,3.043-0.703
		c1.114,0,2,0.492,2.658,1.477s0.987,2.344,0.987,4.078c0,0.258-0.05,0.691-0.15,1.301c-0.101,0.61-0.229,1.336-0.385,2.18
		c-0.156,0.844-0.329,1.934-0.519,3.27s-0.362,2.531-0.518,3.585c-0.156,1.055-0.284,2.098-0.385,3.129
		c-0.1,1.032-0.15,1.981-0.15,2.848c0,1.454,0.172,2.649,0.519,3.586c0.345,0.938,0.886,1.406,1.622,1.406
		c0.268,0,0.646-0.105,1.137-0.316c0.735-0.281,1.204-0.527,1.404-0.738c0.981-0.796,1.494-1.183,1.539-1.16
		c0.067,0.023,0.813-0.444,2.24-1.406c1.783-1.195,3.913-2.659,6.387-4.395l-0.033,7.875l-1.672,1.336
		c-0.134,0.118-1.182,0.727-3.143,1.828c-2.832,1.595-4.604,2.555-5.317,2.883c-1.739,0.821-2.82,1.289-3.244,1.406
		c-1.115,0.375-2.286,0.562-3.511,0.562c-1.227,0-2.257-0.932-3.093-2.795s-1.254-4.588-1.254-8.174
		c0-1.406,0.089-2.923,0.268-4.553c0.178-1.629,0.401-3.38,0.668-5.255h-0.535l-8.762,18.281c-0.468,0.984-0.97,1.641-1.505,1.969
		c-0.558,0.352-1.204,0.527-1.939,0.527c-0.915,0-1.65-0.205-2.207-0.615c-0.558-0.409-0.986-0.961-1.288-1.652
		c-0.301-0.69-0.501-1.477-0.602-2.355C118.974,62.869,118.923,61.961,118.923,61.023z"/>
	<path fill="#FFFFFF" stroke="#FFFFFF" stroke-width="6" stroke-miterlimit="10" d="M171.693,60.883
		c-0.803,0.773-1.801,1.6-2.994,2.479c-1.192,0.879-2.479,1.688-3.861,2.426c-1.383,0.738-2.793,1.354-4.23,1.846
		c-1.438,0.492-2.804,0.738-4.097,0.738c-1.159,0-2.135-0.17-2.926-0.51c-0.792-0.339-1.433-0.813-1.923-1.424
		c-0.491-0.609-0.842-1.354-1.054-2.232s-0.317-1.846-0.317-2.9c0-1.477,0.156-3.199,0.468-5.168
		c0.643-4.072,1.055-6.359,1.239-6.862c0.304-1.001,0.911-3.218,1.823-6.653c0.846-2.799,1.369-4.621,1.568-5.466
		c0.109-0.592,0.416-1.126,0.92-1.6c0.46-0.426,0.98-0.776,1.56-1.049c0.581-0.272,1.183-0.474,1.808-0.604
		c0.624-0.13,1.188-0.195,1.692-0.195c0.919,0,1.543,0.182,1.873,0.545c0.328,0.364,0.493,0.85,0.493,1.459
		c0,0.516-0.115,1.244-0.344,2.186c-0.229,0.942-0.49,2.015-0.783,3.219s-0.726,2.752-1.3,4.646
		c-0.575,1.893-0.967,3.507-1.178,4.842c-0.211,1.336-0.476,2.663-0.797,3.98c-0.321,1.318-0.481,2.516-0.481,3.594
		c0,1.055,0.111,1.893,0.334,2.513c0.223,0.62,0.68,0.931,1.371,0.931c0.803,0,1.694-0.293,2.675-0.879
		c0.98-0.585,1.973-1.295,2.977-2.127c1.003-0.831,1.983-1.692,2.942-2.584c0.958-0.891,1.806-1.652,2.542-2.285V60.883z
		 M156.745,23.99c0-0.544,0.111-1.159,0.334-1.845c0.223-0.686,0.585-1.331,1.087-1.934c0.502-0.604,1.17-1.112,2.006-1.526
		c0.836-0.414,1.878-0.621,3.126-0.621c0.781,0,1.516,0.095,2.207,0.284c0.691,0.189,1.293,0.479,1.807,0.869
		c0.512,0.39,0.92,0.905,1.221,1.544c0.301,0.639,0.451,1.396,0.451,2.271c0,0.805-0.123,1.585-0.368,2.343
		c-0.245,0.757-0.636,1.431-1.171,2.022s-1.209,1.07-2.022,1.438c-0.813,0.367-1.789,0.55-2.927,0.55
		c-1.961,0-3.41-0.491-4.347-1.473C157.213,26.929,156.745,25.622,156.745,23.99z"/>
	<path fill="#FFFFFF" stroke="#FFFFFF" stroke-width="6" stroke-miterlimit="10" d="M168.389,55.104
		c1.249-1.138,2.264-2.086,3.043-2.844c0.781-0.758,1.561-1.641,2.342-2.646c0.779-1.008,1.398-1.831,1.855-2.471
		c0.457-0.639,0.998-1.397,1.622-2.274c0.624-0.877,1.382-1.949,2.274-3.216c0.891-1.267,2.051-2.849,3.478-4.745
		c0.289-0.426,0.612-0.84,0.97-1.244c0.356-0.402,0.752-0.764,1.188-1.083c0.434-0.32,0.914-0.58,1.438-0.782
		c0.523-0.201,1.109-0.302,1.756-0.302c1.07,0,1.896,0.125,2.477,0.374c0.578,0.249,1.002,0.551,1.27,0.906
		c0.268,0.355,0.424,0.729,0.469,1.12s0.066,0.729,0.066,1.013c0,0.569-0.212,1.197-0.635,1.883
		c-0.424,0.687-0.893,1.351-1.404,1.99c-0.514,0.64-0.998,1.227-1.455,1.759s-0.719,0.93-0.787,1.19
		c0,0.734,0.051,1.403,0.152,2.008c0.104,0.604,0.239,1.196,0.41,1.776c0.17,0.58,0.347,1.196,0.529,1.848
		c0.182,0.652,0.355,1.404,0.523,2.257c0.167,0.853,0.189,2.026,0.066,3.519s-0.184,2.997-0.184,4.514
		c0.803-0.569,1.666-1.084,2.592-1.547c0.924-0.461,1.889-0.941,2.893-1.439c1.003-0.497,2.033-1.047,3.093-1.652
		c1.059-0.604,2.124-1.332,3.194-2.186l0.033,7.961c-1.383,1.084-2.982,2.102-4.799,3.051c-1.817,0.949-3.729,1.786-5.732,2.51
		c-2.004,0.723-4.025,1.293-6.065,1.711s-3.975,0.627-5.802,0.627c-1.316,0-2.542-0.123-3.679-0.369
		c-1.138-0.246-2.136-0.633-2.993-1.16c-0.858-0.527-1.555-1.217-2.09-2.068s-0.858-1.883-0.97-3.094
		c-0.312,0.072-0.618,0.119-0.92,0.143c-0.301,0.024-0.597,0.036-0.886,0.036c-0.357,0-0.691-0.012-1.004-0.035
		c-0.312-0.024-0.58-0.112-0.803-0.267s-0.4-0.402-0.535-0.746c-0.133-0.344-0.2-0.836-0.2-1.475c0-0.569,0.134-1.097,0.401-1.582
		c0.268-0.486,0.58-0.918,0.937-1.297s0.714-0.711,1.069-0.995C167.943,55.494,168.211,55.269,168.389,55.104z M172.562,59.651
		c0.268,0,0.562,0.178,0.887,0.533c0.322,0.355,0.695,0.747,1.119,1.173s0.914,0.817,1.473,1.173
		c0.557,0.355,1.191,0.532,1.905,0.532c0.87,0,1.589-0.153,2.157-0.461c0.568-0.309,1.02-0.717,1.354-1.227
		c0.335-0.51,0.569-1.102,0.703-1.776c0.133-0.675,0.2-1.38,0.2-2.115c0-0.64-0.039-1.29-0.116-1.954
		c-0.079-0.663-0.067-1.486,0.033-2.47c0.1-0.983,0.078-1.741-0.067-2.274s-0.272-0.989-0.384-1.368L172.562,59.651z"/>
	<path fill="#FFFFFF" stroke="#FFFFFF" stroke-width="6" stroke-miterlimit="10" d="M218.51,60.883
		c-0.803,0.773-1.801,1.6-2.993,2.479s-2.479,1.688-3.862,2.426s-2.792,1.354-4.23,1.846c-1.438,0.492-2.803,0.738-4.096,0.738
		c-1.16,0-2.135-0.17-2.926-0.51c-0.793-0.339-1.434-0.813-1.924-1.424c-0.49-0.609-0.842-1.354-1.053-2.232
		c-0.213-0.879-0.318-1.846-0.318-2.9c0-1.477,0.156-3.199,0.469-5.168c0.643-4.072,1.055-6.359,1.239-6.862
		c0.304-1.001,0.911-3.218,1.823-6.653c0.846-2.799,1.368-4.621,1.567-5.466c0.108-0.592,0.415-1.126,0.92-1.6
		c0.46-0.426,0.979-0.776,1.56-1.049c0.581-0.272,1.184-0.474,1.809-0.604c0.623-0.13,1.188-0.195,1.691-0.195
		c0.92,0,1.544,0.182,1.873,0.545c0.328,0.364,0.492,0.85,0.492,1.459c0,0.516-0.114,1.244-0.344,2.186
		c-0.229,0.942-0.49,2.015-0.782,3.219c-0.293,1.204-0.727,2.752-1.301,4.646c-0.575,1.893-0.968,3.507-1.178,4.842
		c-0.211,1.336-0.476,2.663-0.797,3.98c-0.321,1.318-0.481,2.516-0.481,3.594c0,1.055,0.111,1.893,0.335,2.513
		c0.223,0.62,0.68,0.931,1.371,0.931c0.803,0,1.694-0.293,2.675-0.879c0.981-0.585,1.974-1.295,2.977-2.127
		c1.004-0.831,1.984-1.692,2.943-2.584c0.958-0.891,1.805-1.652,2.541-2.285V60.883z M203.562,23.99c0-0.544,0.11-1.159,0.334-1.845
		c0.223-0.686,0.585-1.331,1.086-1.934c0.502-0.604,1.171-1.112,2.007-1.526c0.837-0.414,1.878-0.621,3.127-0.621
		c0.78,0,1.516,0.095,2.207,0.284c0.69,0.189,1.292,0.479,1.806,0.869c0.513,0.39,0.92,0.905,1.221,1.544
		c0.301,0.639,0.451,1.396,0.451,2.271c0,0.805-0.123,1.585-0.367,2.343c-0.246,0.757-0.636,1.431-1.171,2.022
		s-1.21,1.07-2.022,1.438c-0.814,0.367-1.789,0.55-2.927,0.55c-1.962,0-3.411-0.491-4.347-1.473
		C204.029,26.929,203.562,25.622,203.562,23.99z"/>
	<path fill="#FFFFFF" stroke="#FFFFFF" stroke-width="6" stroke-miterlimit="10" d="M230.08,61.99c0-0.307,0.021-0.742,0.066-1.307
		s0.111-1.212,0.201-1.941c0.088-0.729,0.189-1.501,0.301-2.312c0.111-0.812,0.223-1.619,0.334-2.419
		c0.246-1.883,0.547-3.907,0.903-6.073h-0.501c-0.268,0.354-0.574,0.884-0.92,1.591c-0.346,0.709-0.831,1.746-1.455,3.113
		c-0.625,1.368-1.422,3.143-2.391,5.324c-0.971,2.182-2.225,4.854-3.762,8.016c-0.447,0.934-0.965,1.564-1.556,1.895
		s-1.243,0.494-1.956,0.494c-0.914,0-1.65-0.198-2.207-0.597c-0.558-0.397-0.986-0.933-1.287-1.604
		c-0.302-0.671-0.502-1.433-0.603-2.285c-0.101-0.854-0.15-1.735-0.15-2.646c0-0.967,0.056-2.11,0.167-3.433
		c0.111-1.321,0.256-2.713,0.435-4.176s0.44-3.133,0.786-5.008c0.346-1.876,0.646-3.512,0.902-4.908
		c0.256-1.395,0.52-2.673,0.786-3.832c0.268-1.159,0.513-2.105,0.735-2.839c0.223-0.757,0.436-1.36,0.636-1.81
		c0.2-0.45,0.429-0.798,0.686-1.047c0.257-0.248,0.563-0.414,0.92-0.497c0.356-0.082,0.813-0.124,1.371-0.124
		c0.847,0,1.51,0.03,1.989,0.089c0.479,0.06,0.836,0.201,1.07,0.426s0.373,0.55,0.418,0.976c0.045,0.426,0.066,1.006,0.066,1.739
		c0,0.402-0.016,0.863-0.049,1.384c-0.034,0.521-0.084,1.077-0.151,1.667c-0.045,0.592-0.112,1.195-0.2,1.81
		c-0.156,1.183-0.246,1.798-0.268,1.845c-0.312,1.609-0.636,3.407-0.971,5.394l0.369,0.426c0.044-0.071,0.339-0.698,0.886-1.881
		c0.546-1.183,1.137-2.354,1.772-3.513c0.635-1.159,1.32-2.372,2.057-3.638c0.735-1.266,1.438-2.383,2.106-3.353
		c0.646-0.97,1.332-1.774,2.057-2.413c0.724-0.638,1.589-0.958,2.592-0.958c0.937,0,1.739,0.29,2.407,0.87
		c0.669,0.58,1.004,1.401,1.004,2.466c0,0.923-0.057,1.798-0.168,2.625c-0.133,1.065-0.268,1.87-0.4,2.414
		c-0.156,0.615-0.335,1.372-0.535,2.271c-0.156,0.781-0.436,1.905-0.836,3.372c-0.067,0.236-0.135,0.579-0.201,1.029
		c-0.022,0.142-0.033,0.237-0.033,0.284l0.367,0.426c0.045-0.071,0.357-0.691,0.938-1.863c0.578-1.171,1.209-2.336,1.889-3.495
		s1.404-2.377,2.174-3.655c0.77-1.277,1.488-2.401,2.156-3.371c0.646-0.946,1.293-1.745,1.939-2.395s1.438-0.976,2.375-0.976
		c1.047,0,1.934,0.29,2.658,0.87s1.087,1.401,1.087,2.466c0,1.632-0.078,3.182-0.233,4.648c-0.156,1.466-0.391,3.087-0.703,4.861
		s-0.547,3.389-0.702,4.844c-0.156,1.455-0.233,2.998-0.233,4.631c0,1.277,0.155,2.318,0.468,3.123
		c0.312,0.803,0.69,1.205,1.137,1.205c0.468,0,0.958-0.105,1.472-0.318c0.513-0.213,1.037-0.485,1.572-0.816
		c0.534-0.331,1.059-0.715,1.57-1.153c0.514-0.437,1.004-0.893,1.473-1.366c1.092-1.088,2.173-2.318,3.243-3.689l0.568,8.334
		c-0.981,0.797-1.956,1.621-2.926,2.475s-1.995,1.627-3.077,2.32c-1.081,0.693-2.268,1.263-3.561,1.707
		c-1.293,0.443-2.754,0.664-4.381,0.664c-0.803,0-1.478-0.27-2.023-0.809c-0.547-0.539-0.986-1.291-1.32-2.256
		c-0.335-0.965-0.574-2.102-0.72-3.41s-0.218-2.732-0.218-4.271c0-1.49,0.051-3.069,0.15-4.736c0.102-1.668,0.24-3.354,0.419-5.057
		h-0.502l-6.788,18.06c-0.58,0.978-1.227,1.636-1.939,1.974c-0.714,0.338-1.539,0.506-2.475,0.506c-0.714,0-1.283-0.198-1.706-0.597
		c-0.423-0.397-0.752-0.909-0.986-1.535c-0.233-0.626-0.39-1.313-0.468-2.065C230.119,63.424,230.08,62.695,230.08,61.99z"/>
	<path fill="#FFFFFF" stroke="#FFFFFF" stroke-width="6" stroke-miterlimit="10" d="M279.939,41.266
		c0.646,1.359,1.132,2.795,1.455,4.307c0.322,1.512,0.484,3.216,0.484,5.115c0,1.384-0.145,2.777-0.434,4.184
		c-0.291,1.406-0.709,2.766-1.254,4.078c-0.547,1.313-1.216,2.544-2.008,3.691c-0.791,1.148-1.693,2.145-2.708,2.988
		s-2.124,1.512-3.327,2.004c-1.204,0.492-2.486,0.738-3.846,0.738c-1.963,0-3.641-0.451-5.033-1.354
		c-1.394-0.901-2.536-2.079-3.428-3.533c-0.892-1.453-1.544-3.094-1.956-4.922c-0.413-1.828-0.618-3.679-0.618-5.555
		c0-3.094,0.367-5.759,1.104-7.998c0.735-2.238,1.789-4.184,3.16-5.836s3.048-2.953,5.032-3.902s4.214-1.424,6.688-1.424
		c2.117,0,4.102,0.346,5.952,1.037c1.851,0.691,3.583,1.617,5.2,2.777c1.616,1.16,3.121,2.619,4.515,4.377
		c1.393,1.758,2.692,3.434,3.896,5.027l-0.635,4.957c-0.603-0.844-1.416-1.758-2.441-2.742s-2.113-2.074-3.261-3.269
		c-1.148-1.195-2.28-2.209-3.394-3.041c-1.115-0.832-2.074-1.529-2.877-2.092L279.939,41.266z M269.607,61.621
		c0.757,0,1.492-0.404,2.207-1.213c0.713-0.809,1.337-1.828,1.872-3.059s0.964-2.719,1.288-4.465
		c0.322-1.745,0.484-3.299,0.484-4.658c0-1.077-0.078-2.079-0.234-3.005c-0.156-0.926-0.391-1.728-0.702-2.408
		c-0.312-0.68-0.714-1.218-1.204-1.617c-0.49-0.398-1.082-0.598-1.771-0.598c-0.915,0-1.784,0.41-2.609,1.23
		c-0.824,0.821-1.549,1.869-2.174,3.146c-0.624,1.278-1.114,2.689-1.471,4.236c-0.357,1.547-0.535,3.293-0.535,5.238
		c0,0.984,0.089,1.911,0.268,2.777c0.178,0.867,0.457,1.623,0.836,2.268c0.379,0.646,0.881,1.16,1.505,1.547
		S268.737,61.621,269.607,61.621z"/>
	<path fill="#FFFFFF" stroke="#FFFFFF" stroke-width="6" stroke-miterlimit="10" d="M302.68,62.479
		c-0.045,0.086-0.084,0.287-0.117,0.606s-0.111,0.702-0.234,1.147c-0.122,0.447-0.295,0.914-0.518,1.404
		c-0.223,0.488-0.552,0.94-0.986,1.354c-0.436,0.415-0.986,0.761-1.656,1.036c-0.668,0.277-1.504,0.414-2.508,0.414
		c-0.824,0-1.571-0.1-2.24-0.303c-0.668-0.201-1.243-0.516-1.723-0.94c-0.479-0.425-0.852-0.967-1.119-1.626
		s-0.402-1.445-0.402-2.359c0-0.766,0.117-1.516,0.352-2.249s0.596-1.387,1.087-1.961c0.49-0.573,1.126-1.03,1.906-1.371
		c0.78-0.34,1.706-0.511,2.775-0.511c1.739,0,3.077,0.447,4.013,1.34c0.937,0.893,1.404,2.168,1.404,3.826
		C302.713,62.373,302.701,62.436,302.68,62.479z M296.861,50.371c0.223-2.413,0.557-4.904,1.003-7.47s1.005-5.12,1.676-7.66
		s1.339-5.064,2.001-7.571s1.298-4.912,1.906-7.215s1.182-4.471,1.719-6.504c0.537-2.032,1.02-3.862,1.449-5.488
		c0.305-1.125,0.744-2.033,1.318-2.725c0.574-0.691,1.213-1.23,1.916-1.617c0.704-0.387,1.448-0.65,2.233-0.791
		s1.542-0.211,2.269-0.211c0.375,0,0.727,0.047,1.055,0.141c0.328,0.094,0.609,0.264,0.844,0.51s0.413,0.586,0.536,1.02
		c0.122,0.434,0.185,0.991,0.185,1.67c0,0.469-0.029,0.985-0.084,1.549c-0.057,0.563-0.15,1.234-0.285,2.013
		c-0.77,2.696-1.551,5.432-2.344,8.206c-0.794,2.774-1.84,5.73-3.137,8.868c-1.299,3.138-2.776,6.588-4.434,10.353
		c-1.657,3.765-3.506,8.073-5.546,12.924c-0.045,0.259-0.162,0.498-0.351,0.721c-0.19,0.224-0.418,0.41-0.686,0.562
		c-0.268,0.153-0.559,0.27-0.87,0.352c-0.312,0.083-0.613,0.123-0.903,0.123c-0.424,0-0.785-0.093-1.086-0.281
		c-0.301-0.188-0.451-0.504-0.451-0.949C296.795,50.781,296.816,50.605,296.861,50.371z"/>
</g>
<g>
	<path fill="#CE6A2E" d="M11.194,22.999c-1.458,2.695-2.759,4.715-3.902,6.062c-1.144,1.348-2.074,2.021-2.792,2.021
		c-0.986,0-1.48-1.147-1.48-3.443c0-2.227,0.314-4.227,0.942-5.999s1.508-3.346,2.641-4.721c1.133-1.375,2.478-2.544,4.037-3.511
		c1.559-0.966,3.263-1.761,5.113-2.386c1.851-0.625,3.807-1.084,5.871-1.38C23.686,9.348,25.805,9.2,27.981,9.2
		c2.534,0,5.08,0.188,7.636,0.561c2.557,0.374,5.013,0.901,7.368,1.582s4.553,1.502,6.594,2.465
		c2.041,0.963,3.818,2.029,5.332,3.196c1.514,1.167,2.703,2.431,3.566,3.792s1.295,2.777,1.295,4.25
		c0,1.754-0.376,3.486-1.127,5.195c-0.752,1.708-1.929,3.252-3.532,4.63c-1.604,1.378-3.656,2.512-6.157,3.4
		c-2.501,0.889-5.5,1.367-8.999,1.436c2.221,0,4.16,0.366,5.82,1.097c1.659,0.731,3.05,1.718,4.171,2.961
		c1.121,1.243,1.962,2.729,2.523,4.458c0.561,1.73,0.841,3.489,0.841,5.277c0,1.408-0.191,2.84-0.572,4.293
		s-0.953,2.852-1.715,4.191c-0.763,1.342-1.716,2.6-2.86,3.773c-1.144,1.174-2.484,2.197-4.02,3.068
		c-1.537,0.872-3.269,1.56-5.198,2.062c-1.929,0.504-4.048,0.755-6.358,0.755c-1.458,0-2.994-0.089-4.609-0.267
		c-1.615-0.18-3.247-0.42-4.895-0.725s-3.269-0.666-4.861-1.085c-1.592-0.421-3.095-0.871-4.508-1.353
		c-0.628-0.147-1.183-0.367-1.665-0.661c-0.483-0.294-0.724-0.818-0.724-1.573c0-3.818,0.095-7.729,0.286-11.732
		c0.19-4.002,0.577-7.965,1.161-11.887c0.583-3.922,1.368-7.333,2.355-10.231c0.986-2.898,2.389-5.717,4.205-8.454
		C20.927,22.559,22.374,22,23.675,22c1.637,0,3.005,0.936,4.104,2.806c-1.032,1.429-1.912,3.018-2.641,4.769
		c-0.729,1.751-1.284,3.306-1.666,4.665c-0.381,1.359-0.723,3.041-1.026,5.044s-0.544,3.961-0.723,5.874
		c-0.113,1.083-0.208,2.287-0.286,3.611c-0.079,1.324-0.151,2.62-0.219,3.887c-0.067,1.268-0.118,2.528-0.151,3.783
		c-0.034,1.256-0.05,2.459-0.05,3.611c0,0.186,0,0.441,0,0.766c0,0.326,0.028,0.662,0.084,1.011
		c0.056,0.349,0.129,0.668,0.219,0.958c0.089,0.29,0.224,0.505,0.404,0.645c1.368,0.465,2.837,0.859,4.407,1.185
		s3.14,0.487,4.71,0.487c1.906,0,3.756-0.238,5.551-0.715c1.794-0.476,3.386-1.23,4.777-2.264c1.39-1.033,2.506-2.357,3.347-3.971
		c0.841-1.613,1.262-3.675,1.262-6.184c0-1.346-0.247-2.467-0.74-3.361c-0.494-0.893-1.139-1.642-1.935-2.246
		c-0.796-0.604-1.705-1.086-2.725-1.446c-1.021-0.36-2.064-0.685-3.129-0.975c-1.065-0.291-2.108-0.574-3.128-0.851
		c-1.021-0.277-1.929-0.628-2.725-1.055c-0.796-0.427-1.441-0.957-1.935-1.591c-0.494-0.634-0.74-1.459-0.74-2.474
		c0-0.478,0.028-0.892,0.084-1.244c0.056-0.352,0.19-0.642,0.403-0.869c0.213-0.227,0.527-0.397,0.942-0.512
		c0.415-0.113,0.98-0.17,1.699-0.17c0.964,0,1.844,0.04,2.641,0.12c0.796,0.08,1.654,0.119,2.574,0.119
		c2.153,0,4.099-0.268,5.837-0.804c1.738-0.536,3.218-1.26,4.44-2.172c1.222-0.912,2.164-1.979,2.826-3.199
		c0.661-1.22,0.992-2.526,0.992-3.917c0-0.912-0.258-1.75-0.773-2.515c-0.517-0.764-1.24-1.448-2.17-2.052
		c-0.931-0.604-2.024-1.135-3.28-1.591c-1.256-0.456-2.624-0.838-4.104-1.146c-1.48-0.308-3.04-0.536-4.676-0.684
		c-1.638-0.148-3.297-0.223-4.979-0.223c-2.714,0-4.822,0.092-6.325,0.274c-2.063,0.229-3.986,0.588-5.77,1.079
		c-1.783,0.491-3.364,1.125-4.743,1.901C12.96,21.138,11.911,22.017,11.194,22.999z"/>
	<path fill="#CE6A2E" d="M84.869,36.604c0,0.614-0.021,1.45-0.061,2.506c-0.041,1.057-0.175,2.211-0.405,3.461
		c-0.229,1.25-0.507,2.763-0.833,4.537c-0.326,1.774-0.595,3.242-0.809,4.403s-0.4,2.177-0.56,3.048
		c-0.16,0.869-0.24,1.503-0.24,1.898c0,0.639,0.009,1.227,0.029,1.762c0.02,0.537,0.078,1.004,0.175,1.403
		c0.097,0.399,0.247,0.707,0.451,0.924c0.204,0.217,0.5,0.325,0.888,0.325c0.493,0,1.094-0.125,1.8-0.376
		c0.707-0.251,1.458-0.588,2.254-1.011c0.795-0.421,1.609-0.9,2.439-1.436c0.829-0.537,1.62-1.102,2.372-1.694
		c0.751-0.593,1.435-1.181,2.052-1.763c0.617-0.581,1.115-1.123,1.497-1.625c0,0.753,0.005,1.438,0.017,2.053
		c0.011,0.617,0.017,1.204,0.017,1.763c0,0.56,0.005,1.135,0.017,1.728c0.011,0.594,0.017,1.256,0.017,1.985
		c-0.493,0.493-1.104,1.021-1.833,1.581c-0.729,0.561-1.537,1.121-2.422,1.682c-0.886,0.561-1.828,1.098-2.826,1.613
		c-0.999,0.516-2.002,0.971-3.011,1.363s-1.995,0.706-2.958,0.941c-0.963,0.235-1.856,0.354-2.678,0.354
		c-0.838,0-1.555-0.168-2.15-0.504c-0.595-0.336-1.108-0.807-1.538-1.412c-0.43-0.605-0.794-1.328-1.091-2.168
		s-0.557-1.775-0.777-2.807c-0.809,1.055-1.662,2.024-2.56,2.91c-0.898,0.886-1.813,1.654-2.746,2.304
		c-0.932,0.65-1.875,1.161-2.83,1.53c-0.955,0.37-1.88,0.555-2.778,0.555c-0.737,0-1.43-0.125-2.078-0.374
		c-0.647-0.25-1.223-0.67-1.726-1.261s-0.899-1.369-1.189-2.334s-0.435-2.164-0.435-3.595c0.023-2.976,0.248-5.259,0.673-6.849
		c0.671-2.319,1.298-5.775,1.879-10.369c0.061-0.335,0.144-0.794,0.25-1.375c0.105-0.582,0.264-1.213,0.478-1.895
		c0.213-0.682,0.477-1.375,0.791-2.079c0.314-0.704,0.684-1.341,1.11-1.909c0.426-0.567,0.925-1.034,1.497-1.397
		c0.572-0.363,1.216-0.556,1.934-0.579c1.189,0.058,2.041,0.253,2.557,0.585c0.516,0.333,0.773,0.745,0.773,1.236
		c-0.202,1.533-0.429,3.005-0.68,4.419s-0.504,2.838-0.759,4.273c-0.254,1.435-0.538,3.03-0.849,4.786
		c-0.312,1.757-0.561,3.165-0.75,4.225c-0.188,1.061-0.34,1.917-0.456,2.57c-0.116,0.654-0.173,0.992-0.173,1.016
		c0,0.423,0.039,0.828,0.118,1.214c0.079,0.387,0.196,0.733,0.354,1.038s0.36,0.551,0.608,0.738s0.54,0.281,0.878,0.281
		c0.495,0,1.001-0.133,1.52-0.398c0.517-0.267,1.001-0.654,1.452-1.163c0.473-0.462,0.889-1.063,1.249-1.804
		c0.36-0.718,0.63-1.551,0.811-2.499l3.709-18.575c0.108-0.545,0.547-1.006,1.315-1.381c0.769-0.375,1.641-0.562,2.615-0.562
		c1.104,0,1.981,0.205,2.631,0.614C84.544,35.446,84.869,35.969,84.869,36.604z"/>
	<path fill="#CE6A2E" d="M103.522,68.371c-2.094,0-3.927-0.393-5.497-1.18c-1.571-0.785-2.879-1.844-3.927-3.174
		c-1.047-1.33-1.833-2.867-2.356-4.614c-0.523-1.746-0.785-3.579-0.785-5.499c0-1.256,0.234-2.752,0.703-4.491
		c0.468-1.738,0.954-3.28,1.456-4.626c0.501-1.345,1.132-2.629,1.89-3.852c0.759-1.222,1.646-2.298,2.66-3.229
		c1.015-0.931,2.153-1.671,3.413-2.22c1.261-0.55,2.661-0.825,4.2-0.825c1.257,0,2.425,0.205,3.502,0.613
		c1.078,0.408,2.015,0.981,2.812,1.719c0.797,0.737,1.42,1.628,1.869,2.672c0.449,1.044,0.674,2.213,0.674,3.506
		c0,1.378-0.455,2.922-1.366,4.633c-0.91,1.711-1.972,3.178-3.186,4.399c-1.214,1.222-2.658,2.311-4.332,3.267
		c-1.675,0.955-3.489,1.699-5.445,2.232c0.337,0.601,0.67,1.101,0.996,1.5c0.326,0.4,0.658,0.711,0.996,0.934
		c0.337,0.223,0.692,0.378,1.063,0.467s0.771,0.133,1.199,0.133c1.346,0,2.764-0.266,4.255-0.8c1.491-0.533,2.944-1.2,4.357-2
		c1.413-0.8,2.747-1.671,4.003-2.616c1.256-0.943,2.321-1.838,3.196-2.683l4.339,4.466c-1.974,2.13-4.07,4.014-6.291,5.651
		c-0.965,0.702-2.002,1.394-3.112,2.071c-1.11,0.68-2.277,1.281-3.499,1.809c-1.223,0.525-2.489,0.947-3.801,1.263
		C106.199,68.214,104.869,68.371,103.522,68.371z M99.031,52.137c0.811,0,1.694-0.204,2.651-0.615
		c0.957-0.412,1.846-0.939,2.668-1.584c0.821-0.645,1.626-1.511,2.414-2.599c0.788-1.089,1.182-1.989,1.182-2.7
		c0-1-0.186-1.822-0.557-2.466c-0.372-0.645-0.827-0.967-1.368-0.967c-0.968,0-1.796,0.178-2.482,0.534
		c-0.687,0.356-1.261,0.816-1.722,1.383c-0.461,0.566-0.833,1.21-1.114,1.933c-0.282,0.722-0.608,1.617-0.979,2.683
		c-0.372,1.066-0.58,1.943-0.625,2.633S99.031,51.648,99.031,52.137z"/>
	<path fill="#CE6A2E" d="M117.602,61.248c0-1.5,0.089-3.232,0.269-5.198c0.179-1.966,0.404-4.124,0.673-6.476
		c0.269-2.353,0.572-4.471,0.908-6.357c0.336-1.886,0.662-3.499,0.976-4.84c0.247-1.045,0.724-1.92,1.43-2.625
		c0.707-0.704,1.666-1.057,2.876-1.057c1.211,0,2.052,0.375,2.523,1.125c0.471,0.75,0.706,1.75,0.706,3
		c0,0.341-0.034,0.801-0.101,1.38c-0.067,0.58-0.151,1.216-0.252,1.909c-0.101,0.693-0.208,1.409-0.32,2.147
		c-0.112,0.739-0.218,1.58-0.319,2.522s-0.185,1.647-0.252,2.114c-0.067,0.465-0.101,0.777-0.101,0.937h0.673
		c0.135-0.249,0.348-0.653,0.639-1.21s0.628-1.357,1.009-2.403c0.381-1.045,0.791-1.971,1.228-2.778
		c0.438-0.807,0.846-1.579,1.228-2.318c0.381-0.738,0.729-1.392,1.043-1.96c0.313-0.568,0.549-0.989,0.707-1.261
		c0.717-1.227,1.536-2.067,2.456-2.522c0.919-0.454,1.94-0.682,3.062-0.682c1.121,0,2.013,0.477,2.674,1.432
		c0.661,0.955,0.993,2.272,0.993,3.954c0,0.25-0.051,0.67-0.151,1.261c-0.101,0.591-0.23,1.295-0.387,2.113
		c-0.157,0.818-0.331,1.875-0.521,3.17c-0.19,1.295-0.365,2.454-0.521,3.477c-0.157,1.023-0.286,2.034-0.387,3.033
		c-0.101,1.001-0.151,1.922-0.151,2.762c0,1.409,0.173,2.568,0.521,3.477c0.348,0.909,0.892,1.363,1.632,1.363
		c0.269,0,0.65-0.102,1.144-0.307c0.74-0.272,1.211-0.512,1.413-0.716c0.986-0.772,1.502-1.147,1.547-1.124
		c0.067,0.021,0.818-0.432,2.254-1.364c1.794-1.159,3.936-2.579,6.426-4.261l-0.034,7.635l-1.682,1.296
		c-0.135,0.114-1.189,0.704-3.162,1.772c-2.849,1.545-4.632,2.477-5.349,2.795c-1.75,0.795-2.837,1.25-3.263,1.363
		c-1.122,0.363-2.299,0.545-3.533,0.545s-2.271-0.902-3.112-2.709c-0.841-1.807-1.261-4.448-1.261-7.926
		c0-1.363,0.089-2.834,0.269-4.414c0.179-1.578,0.404-3.277,0.673-5.096h-0.538l-8.814,17.725c-0.471,0.955-0.976,1.592-1.514,1.909
		c-0.561,0.341-1.211,0.511-1.951,0.511c-0.92,0-1.66-0.198-2.22-0.596c-0.561-0.397-0.993-0.932-1.295-1.603
		c-0.303-0.67-0.504-1.431-0.605-2.284C117.652,63.037,117.602,62.156,117.602,61.248z"/>
	<path fill="#CE6A2E" d="M170.688,61.111c-0.807,0.75-1.811,1.551-3.011,2.403s-2.495,1.636-3.886,2.352s-2.809,1.312-4.255,1.79
		c-1.446,0.477-2.821,0.715-4.121,0.715c-1.167,0-2.148-0.164-2.943-0.494c-0.796-0.328-1.441-0.789-1.935-1.38
		c-0.494-0.591-0.847-1.312-1.06-2.165c-0.213-0.852-0.32-1.789-0.32-2.812c0-1.432,0.157-3.103,0.471-5.011
		c0.646-3.947,1.062-6.166,1.247-6.653c0.306-0.97,0.917-3.121,1.834-6.45c0.851-2.714,1.377-4.48,1.577-5.3
		c0.11-0.574,0.418-1.091,0.926-1.551c0.462-0.413,0.985-0.752,1.569-1.017s1.19-0.459,1.818-0.586
		c0.627-0.126,1.195-0.189,1.702-0.189c0.925,0,1.553,0.176,1.884,0.528c0.33,0.353,0.496,0.824,0.496,1.415
		c0,0.5-0.115,1.206-0.346,2.119c-0.23,0.913-0.493,1.954-0.788,3.121c-0.295,1.167-0.731,2.669-1.309,4.504
		c-0.579,1.834-0.973,3.4-1.185,4.694c-0.212,1.296-0.479,2.582-0.802,3.859c-0.323,1.279-0.483,2.439-0.483,3.484
		c0,1.021,0.112,1.834,0.336,2.436c0.224,0.603,0.684,0.903,1.379,0.903c0.807,0,1.704-0.284,2.691-0.853
		c0.986-0.567,1.985-1.255,2.993-2.062c1.01-0.807,1.996-1.642,2.961-2.505s1.816-1.603,2.557-2.217V61.111z M155.65,25.342
		c0-0.527,0.112-1.124,0.336-1.789s0.589-1.291,1.094-1.875c0.504-0.584,1.177-1.078,2.018-1.479
		c0.841-0.401,1.889-0.602,3.146-0.602c0.785,0,1.524,0.092,2.221,0.275c0.694,0.184,1.3,0.465,1.816,0.843
		c0.516,0.378,0.925,0.877,1.228,1.497c0.303,0.62,0.454,1.354,0.454,2.202c0,0.78-0.123,1.537-0.37,2.271s-0.64,1.388-1.177,1.961
		c-0.539,0.574-1.217,1.038-2.036,1.394c-0.819,0.355-1.8,0.533-2.943,0.533c-1.974,0-3.432-0.476-4.374-1.428
		C156.121,28.191,155.65,26.924,155.65,25.342z"/>
	<path fill="#CE6A2E" d="M167.364,55.507c1.256-1.103,2.276-2.021,3.062-2.756s1.569-1.591,2.354-2.566
		c0.785-0.977,1.407-1.774,1.867-2.395c0.46-0.62,1.003-1.355,1.632-2.205c0.627-0.85,1.391-1.889,2.287-3.118
		c0.896-1.229,2.063-2.762,3.499-4.6c0.292-0.413,0.616-0.814,0.976-1.206c0.358-0.391,0.757-0.741,1.194-1.051
		s0.919-0.562,1.446-0.758c0.527-0.195,1.115-0.293,1.767-0.293c1.077,0,1.907,0.121,2.491,0.362
		c0.582,0.241,1.009,0.534,1.278,0.878c0.269,0.345,0.426,0.707,0.471,1.085c0.045,0.379,0.067,0.706,0.067,0.982
		c0,0.551-0.213,1.16-0.639,1.826c-0.427,0.667-0.898,1.31-1.414,1.93c-0.516,0.621-1.004,1.189-1.463,1.706
		c-0.46,0.517-0.724,0.901-0.792,1.154c0,0.712,0.051,1.361,0.153,1.947c0.104,0.586,0.24,1.16,0.412,1.722
		c0.172,0.563,0.35,1.16,0.533,1.793c0.182,0.631,0.357,1.36,0.525,2.188c0.169,0.826,0.191,1.964,0.068,3.41
		c-0.124,1.448-0.186,2.906-0.186,4.377c0.808-0.552,1.676-1.051,2.607-1.5c0.93-0.447,1.9-0.912,2.91-1.395
		c1.009-0.482,2.046-1.016,3.111-1.602c1.064-0.586,2.137-1.293,3.213-2.119l0.033,7.717c-1.391,1.053-3,2.039-4.827,2.959
		c-1.828,0.92-3.75,1.731-5.767,2.432c-2.016,0.701-4.05,1.255-6.102,1.66c-2.053,0.405-3.998,0.607-5.837,0.607
		c-1.323,0-2.558-0.119-3.7-0.357c-1.145-0.24-2.148-0.614-3.012-1.125s-1.564-1.18-2.103-2.006
		c-0.538-0.825-0.863-1.824-0.976-2.998c-0.314,0.068-0.622,0.115-0.925,0.138c-0.303,0.023-0.601,0.034-0.892,0.034
		c-0.359,0-0.695-0.011-1.01-0.033c-0.314-0.023-0.583-0.109-0.807-0.259c-0.225-0.149-0.404-0.391-0.539-0.724
		s-0.201-0.811-0.201-1.43c0-0.552,0.135-1.062,0.403-1.533c0.27-0.472,0.583-0.891,0.942-1.258
		c0.358-0.367,0.717-0.689,1.076-0.965S167.185,55.668,167.364,55.507z M171.562,59.917c0.27,0,0.566,0.173,0.892,0.517
		c0.325,0.346,0.7,0.725,1.127,1.138c0.426,0.413,0.919,0.792,1.479,1.137s1.2,0.517,1.918,0.517c0.875,0,1.598-0.148,2.17-0.447
		s1.026-0.695,1.363-1.189c0.336-0.494,0.571-1.068,0.706-1.723c0.134-0.654,0.202-1.338,0.202-2.05c0-0.62-0.04-1.251-0.118-1.895
		c-0.079-0.644-0.067-1.442,0.034-2.396c0.101-0.953,0.078-1.688-0.068-2.205c-0.146-0.516-0.274-0.959-0.387-1.326L171.562,59.917z
		"/>
	<path fill="#CE6A2E" d="M217.786,61.111c-0.808,0.75-1.812,1.551-3.011,2.403c-1.2,0.853-2.496,1.636-3.886,2.352
		c-1.392,0.716-2.81,1.312-4.256,1.79c-1.446,0.477-2.821,0.715-4.121,0.715c-1.167,0-2.147-0.164-2.943-0.494
		c-0.796-0.328-1.441-0.789-1.935-1.38c-0.494-0.591-0.847-1.312-1.06-2.165c-0.214-0.852-0.319-1.789-0.319-2.812
		c0-1.432,0.156-3.103,0.471-5.011c0.646-3.947,1.062-6.166,1.246-6.653c0.307-0.97,0.918-3.121,1.834-6.45
		c0.852-2.714,1.377-4.48,1.578-5.3c0.109-0.574,0.418-1.091,0.926-1.551c0.462-0.413,0.984-0.752,1.568-1.017
		s1.19-0.459,1.818-0.586c0.628-0.126,1.195-0.189,1.703-0.189c0.924,0,1.553,0.176,1.883,0.528c0.33,0.353,0.496,0.824,0.496,1.415
		c0,0.5-0.115,1.206-0.346,2.119c-0.23,0.913-0.492,1.954-0.787,3.121c-0.295,1.167-0.73,2.669-1.309,4.504
		c-0.578,1.834-0.973,3.4-1.186,4.694c-0.211,1.296-0.479,2.582-0.801,3.859c-0.323,1.279-0.484,2.439-0.484,3.484
		c0,1.021,0.112,1.834,0.337,2.436c0.224,0.603,0.685,0.903,1.38,0.903c0.807,0,1.703-0.284,2.691-0.853
		c0.986-0.567,1.984-1.255,2.993-2.062s1.996-1.642,2.96-2.505c0.965-0.863,1.817-1.603,2.558-2.217V61.111z M202.748,25.342
		c0-0.527,0.112-1.124,0.336-1.789c0.225-0.665,0.59-1.291,1.094-1.875c0.505-0.584,1.178-1.078,2.019-1.479
		c0.841-0.401,1.89-0.602,3.146-0.602c0.785,0,1.525,0.092,2.221,0.275c0.695,0.184,1.301,0.465,1.816,0.843
		c0.516,0.378,0.926,0.877,1.229,1.497c0.303,0.62,0.453,1.354,0.453,2.202c0,0.78-0.123,1.537-0.369,2.271
		c-0.248,0.734-0.64,1.388-1.178,1.961c-0.539,0.574-1.217,1.038-2.035,1.394c-0.819,0.355-1.801,0.533-2.943,0.533
		c-1.975,0-3.432-0.476-4.374-1.428C203.219,28.191,202.748,26.924,202.748,25.342z"/>
	<path fill="#CE6A2E" d="M229.426,62.185c0-0.297,0.022-0.719,0.067-1.267c0.045-0.547,0.112-1.176,0.202-1.883
		s0.189-1.455,0.303-2.242c0.111-0.787,0.224-1.568,0.336-2.345c0.246-1.825,0.55-3.788,0.908-5.888h-0.504
		c-0.27,0.344-0.578,0.857-0.926,1.543c-0.348,0.687-0.836,1.692-1.463,3.019c-0.629,1.326-1.43,3.047-2.406,5.162
		c-0.975,2.115-2.236,4.706-3.784,7.771c-0.448,0.904-0.97,1.518-1.563,1.837c-0.596,0.32-1.251,0.479-1.969,0.479
		c-0.92,0-1.66-0.192-2.221-0.578s-0.992-0.904-1.295-1.556c-0.303-0.65-0.504-1.39-0.605-2.216
		c-0.101-0.828-0.151-1.683-0.151-2.564c0-0.938,0.056-2.047,0.169-3.328c0.111-1.281,0.257-2.631,0.437-4.049
		c0.179-1.418,0.442-3.037,0.79-4.855c0.348-1.819,0.65-3.405,0.909-4.758c0.257-1.353,0.521-2.592,0.79-3.715
		c0.27-1.124,0.516-2.042,0.74-2.752c0.225-0.734,0.438-1.319,0.64-1.755s0.431-0.774,0.689-1.015
		c0.257-0.241,0.565-0.401,0.925-0.482c0.359-0.08,0.818-0.12,1.379-0.12c0.854,0,1.52,0.028,2.002,0.086s0.842,0.195,1.077,0.413
		c0.235,0.218,0.375,0.533,0.421,0.946c0.044,0.413,0.066,0.975,0.066,1.686c0,0.39-0.017,0.837-0.051,1.342
		c-0.033,0.505-0.084,1.044-0.15,1.617c-0.045,0.574-0.113,1.158-0.202,1.754c-0.157,1.147-0.247,1.743-0.269,1.789
		c-0.314,1.56-0.64,3.303-0.977,5.229l0.37,0.413c0.045-0.068,0.342-0.677,0.892-1.823c0.549-1.146,1.145-2.282,1.783-3.406
		c0.639-1.124,1.328-2.3,2.068-3.527s1.447-2.31,2.12-3.251c0.649-0.94,1.34-1.72,2.069-2.339c0.729-0.619,1.598-0.929,2.606-0.929
		c0.942,0,1.749,0.281,2.423,0.843c0.672,0.562,1.009,1.359,1.009,2.391c0,0.895-0.056,1.743-0.169,2.546
		c-0.134,1.032-0.269,1.812-0.402,2.34c-0.158,0.596-0.337,1.33-0.539,2.202c-0.157,0.757-0.438,1.846-0.841,3.269
		c-0.067,0.229-0.135,0.562-0.202,0.997c-0.022,0.138-0.033,0.229-0.033,0.275l0.369,0.413c0.045-0.068,0.359-0.671,0.943-1.807
		c0.582-1.135,1.216-2.265,1.9-3.388c0.684-1.124,1.412-2.305,2.187-3.543c0.773-1.239,1.497-2.328,2.17-3.269
		c0.649-0.917,1.3-1.691,1.951-2.322c0.649-0.631,1.446-0.946,2.388-0.946c1.055,0,1.946,0.281,2.676,0.843
		c0.729,0.562,1.093,1.359,1.093,2.391c0,1.583-0.079,3.085-0.235,4.507c-0.157,1.422-0.393,2.993-0.707,4.713
		c-0.314,1.72-0.549,3.286-0.706,4.696s-0.235,2.906-0.235,4.489c0,1.239,0.156,2.248,0.471,3.028
		c0.314,0.779,0.695,1.169,1.145,1.169c0.471,0,0.963-0.103,1.479-0.31c0.516-0.207,1.043-0.471,1.581-0.791
		c0.539-0.32,1.064-0.693,1.582-1.118c0.516-0.424,1.009-0.866,1.479-1.325c1.099-1.055,2.187-2.247,3.263-3.577l0.572,8.081
		c-0.986,0.771-1.968,1.571-2.943,2.398c-0.976,0.828-2.008,1.578-3.096,2.25c-1.088,0.673-2.281,1.225-3.582,1.654
		s-2.771,0.645-4.407,0.645c-0.808,0-1.485-0.262-2.035-0.784s-0.993-1.252-1.329-2.187c-0.336-0.936-0.578-2.037-0.723-3.307
		c-0.146-1.27-0.219-2.65-0.219-4.142c0-1.444,0.051-2.976,0.15-4.593c0.102-1.617,0.241-3.25,0.421-4.902h-0.505l-6.828,17.51
		c-0.584,0.949-1.234,1.587-1.951,1.914c-0.719,0.327-1.549,0.49-2.49,0.49c-0.718,0-1.29-0.192-1.715-0.578
		c-0.428-0.386-0.758-0.883-0.993-1.488c-0.235-0.607-0.393-1.274-0.472-2.002C229.465,63.574,229.426,62.869,229.426,62.185z"/>
	<path fill="#CE6A2E" d="M279.585,42.092c0.65,1.318,1.138,2.71,1.464,4.175c0.324,1.466,0.487,3.12,0.487,4.959
		c0,1.342-0.146,2.693-0.438,4.057s-0.712,2.682-1.261,3.953c-0.551,1.273-1.223,2.467-2.02,3.58
		c-0.796,1.113-1.704,2.078-2.725,2.896s-2.137,1.466-3.348,1.943c-1.211,0.477-2.5,0.715-3.868,0.715
		c-1.974,0-3.661-0.437-5.063-1.312c-1.402-0.874-2.551-2.016-3.447-3.425c-0.898-1.409-1.555-2.999-1.969-4.772
		c-0.415-1.771-0.623-3.566-0.623-5.385c0-3,0.371-5.584,1.111-7.754s1.799-4.056,3.179-5.658s3.066-2.863,5.063-3.784
		c1.996-0.92,4.238-1.38,6.729-1.38c2.13,0,4.125,0.335,5.987,1.005c1.861,0.67,3.604,1.568,5.231,2.693
		c1.626,1.125,3.14,2.54,4.541,4.244c1.402,1.704,2.709,3.329,3.92,4.874l-0.639,4.806c-0.606-0.817-1.426-1.703-2.457-2.658
		s-2.125-2.011-3.279-3.17c-1.156-1.159-2.293-2.142-3.415-2.948s-2.085-1.483-2.894-2.028L279.585,42.092z M269.189,61.827
		c0.763,0,1.502-0.392,2.221-1.176c0.717-0.784,1.346-1.772,1.884-2.966s0.97-2.635,1.296-4.328
		c0.324-1.693,0.487-3.199,0.487-4.517c0-1.045-0.079-2.017-0.235-2.915c-0.157-0.897-0.393-1.675-0.707-2.334
		s-0.718-1.182-1.211-1.568c-0.494-0.386-1.088-0.58-1.783-0.58c-0.92,0-1.795,0.398-2.623,1.193
		c-0.83,0.796-1.56,1.812-2.188,3.051c-0.628,1.239-1.121,2.607-1.48,4.107c-0.358,1.5-0.537,3.193-0.537,5.079
		c0,0.954,0.089,1.853,0.269,2.692c0.179,0.842,0.46,1.574,0.841,2.199s0.886,1.124,1.514,1.499S268.314,61.827,269.189,61.827z"/>
	<path fill="#CE6A2E" d="M302.461,62.658c-0.045,0.083-0.084,0.279-0.117,0.588s-0.113,0.68-0.236,1.112s-0.297,0.887-0.521,1.36
		c-0.224,0.475-0.555,0.913-0.992,1.314c-0.438,0.402-0.992,0.737-1.665,1.005c-0.673,0.269-1.514,0.401-2.522,0.401
		c-0.83,0-1.582-0.098-2.254-0.293c-0.674-0.196-1.251-0.5-1.732-0.912c-0.483-0.412-0.858-0.938-1.127-1.576
		c-0.27-0.64-0.404-1.402-0.404-2.289c0-0.741,0.117-1.468,0.354-2.18c0.235-0.711,0.6-1.345,1.093-1.9
		c0.493-0.557,1.132-1,1.918-1.33c0.784-0.33,1.716-0.494,2.792-0.494c1.75,0,3.096,0.433,4.037,1.298
		c0.941,0.866,1.413,2.103,1.413,3.71C302.495,62.555,302.483,62.617,302.461,62.658z M296.607,50.92
		c0.225-2.34,0.561-4.755,1.01-7.243c0.448-2.488,1.01-4.963,1.686-7.427c0.675-2.463,1.346-4.91,2.013-7.341
		c0.667-2.431,1.306-4.762,1.918-6.995c0.612-2.233,1.188-4.335,1.729-6.306c0.539-1.971,1.025-3.745,1.457-5.321
		c0.307-1.091,0.748-1.971,1.326-2.642c0.578-0.67,1.221-1.193,1.929-1.568s1.456-0.63,2.246-0.767
		c0.79-0.136,1.551-0.204,2.282-0.204c0.377,0,0.73,0.045,1.061,0.136s0.613,0.255,0.85,0.494c0.235,0.239,0.416,0.568,0.539,0.988
		c0.123,0.421,0.186,0.96,0.186,1.619c0,0.455-0.029,0.955-0.085,1.501s-0.151,1.197-0.286,1.952
		c-0.774,2.614-1.561,5.267-2.359,7.957c-0.797,2.69-1.85,5.556-3.154,8.598c-1.307,3.042-2.793,6.388-4.46,10.038
		c-1.667,3.65-3.527,7.827-5.579,12.531c-0.045,0.25-0.163,0.482-0.354,0.699c-0.191,0.216-0.42,0.397-0.689,0.545
		c-0.27,0.148-0.561,0.262-0.875,0.341c-0.314,0.08-0.617,0.119-0.908,0.119c-0.426,0-0.791-0.091-1.094-0.272
		s-0.453-0.488-0.453-0.92C296.541,51.318,296.562,51.147,296.607,50.92z"/>
</g>
</svg>
