<?xml version="1.0" encoding="utf-8"?>
<!-- Generator: Adobe Illustrator 16.0.0, SVG Export Plug-In . SVG Version: 6.00 Build 0)  -->
<!DOCTYPE svg PUBLIC "-//W3C//DTD SVG 1.0//EN" "http://www.w3.org/TR/2001/REC-SVG-20010904/DTD/svg10.dtd">
<svg version="1.0" id="Capa_1" xmlns="http://www.w3.org/2000/svg" xmlns:xlink="http://www.w3.org/1999/xlink" x="0px" y="0px"
	 width="24px" height="24px" viewBox="0 0 24 24" enable-background="new 0 0 24 24" xml:space="preserve">
<g>
	<path opacity="0.7" fill-rule="evenodd" clip-rule="evenodd" fill="#CACAFC" d="M5.857,13.21c-0.001-1.304,0.009-2.608-0.005-3.911
		C5.845,8.506,6.07,7.576,4.99,7.366C4.698,7.308,4.629,6.97,4.66,6.653c0.042-0.442,0.327-0.572,0.663-0.587
		C5.74,6.045,6.161,6.011,6.575,6.053C7.423,6.141,8.038,5.789,8.238,4.84C8.53,3.46,9.322,3.094,10.455,3.19
		c0.675,0.058,1.36,0.057,2.036,0c0.972-0.08,1.695,0.359,1.93,1.395c0.306,1.35,1.07,1.55,2.111,1.481
		c0.48-0.032,1.132-0.292,1.417,0.377c0.357,0.843-0.356,0.889-0.787,1.169c-0.506,0.328-0.322,0.95-0.325,1.455
		c-0.016,2.786,0.008,5.57-0.013,8.355c-0.016,2.075-0.395,2.482-2.212,2.488c-2.247,0.007-4.492-0.013-6.739,0.005
		c-1.361,0.012-2.033-0.709-2.019-2.264C5.867,16.172,5.857,14.69,5.857,13.21"/>
	<path fill-rule="evenodd" clip-rule="evenodd" fill="#E7E6E6" d="M15.571,12.994c0,1.417-0.024,2.835,0.01,4.251
		c0.022,0.907-0.297,1.269-1.103,1.255c-2.03-0.034-4.061-0.023-6.091-0.006c-0.82,0.008-1.28-0.346-1.277-1.339
		c0.008-2.834,0.012-5.668-0.005-8.502C7.099,7.85,7.353,7.457,8.102,7.464c2.133,0.021,4.269,0.03,6.402-0.006
		c0.83-0.014,1.096,0.405,1.077,1.284C15.549,10.158,15.571,11.576,15.571,12.994"/>
	<path fill-rule="evenodd" clip-rule="evenodd" fill="#E8E8E8" d="M11.221,6.046C10.747,5.72,9.57,6.629,9.54,5.483
		c-0.032-1.253,1.169-0.75,1.881-0.854c0.206-0.031,0.418,0.008,0.625-0.006c0.583-0.036,1.139,0.142,1.15,0.868
		c0.016,0.863-0.678,0.457-1.075,0.544C11.871,6.092,11.602,6.046,11.221,6.046"/>
	<path fill-rule="evenodd" clip-rule="evenodd" fill="#F9FAFA" d="M13.078,12.987c0-0.885-0.016-1.77,0.005-2.653
		c0.013-0.51,0.195-0.95,0.701-1c0.509-0.049,0.799,0.33,0.809,0.852c0.029,1.826,0.026,3.654,0.006,5.482
		c-0.006,0.51-0.354,0.673-0.763,0.67c-0.411-0.003-0.729-0.187-0.742-0.697c-0.023-0.883-0.007-1.769-0.007-2.652H13.078z"/>
	<path fill-rule="evenodd" clip-rule="evenodd" fill="#FFFFFF" d="M8.368,12.817c0-0.88-0.004-1.761,0.002-2.642
		c0.002-0.362,0.042-0.753,0.426-0.82c0.427-0.072,0.748,0.253,0.758,0.685c0.045,1.875,0.039,3.755,0.029,5.631
		c-0.003,0.399-0.237,0.637-0.61,0.625c-0.373-0.012-0.578-0.267-0.585-0.661c-0.019-0.938-0.006-1.878-0.006-2.818H8.368z"/>
	<path fill-rule="evenodd" clip-rule="evenodd" fill="#FBFBFA" d="M10.87,12.739c0-0.763-0.016-1.526,0.006-2.288
		c0.013-0.441-0.108-1.046,0.492-1.093c0.513-0.041,0.726,0.424,0.731,0.932c0.02,1.76,0.013,3.522,0.003,5.282
		c-0.003,0.384-0.156,0.686-0.536,0.722c-0.46,0.044-0.671-0.258-0.678-0.736c-0.015-0.939-0.005-1.878-0.005-2.818H10.87z"/>
</g>
</svg>
