<?xml version="1.0" encoding="utf-8"?>
<!-- Generator: Adobe Illustrator 16.0.0, SVG Export Plug-In . SVG Version: 6.00 Build 0)  -->
<!DOCTYPE svg PUBLIC "-//W3C//DTD SVG 1.1//EN" "http://www.w3.org/Graphics/SVG/1.1/DTD/svg11.dtd">
<svg version="1.1" id="Capa_1" xmlns="http://www.w3.org/2000/svg" xmlns:xlink="http://www.w3.org/1999/xlink" x="0px" y="0px"
	 width="20px" height="20px" viewBox="0 0 20 20" enable-background="new 0 0 20 20" xml:space="preserve">
<g opacity="0.7">
	<path fill-rule="evenodd" clip-rule="evenodd" fill="#FFFFFF" d="M20,16.122c-0.037,1.078-0.979,2.47-2.875,3.308
		c-1.938,0.856-3.896,0.752-5.662-0.339c-0.711-0.439-1.39-0.598-2.227-0.585c-2.002,0.029-4.004,0.023-6.006,0.005
		c-1.913-0.018-3.198-1.101-3.219-2.731C-0.014,13.674,0.017,11.568,0,9.464c-0.008-0.859,0.298-1.64,1.134-2.078
		C2.012,6.925,2.136,6.328,2.074,5.57C1.947,3.981,2.375,2.549,3.777,1.404c1.75-1.426,3.793-1.762,6.008-1.026
		c2.182,0.725,3.319,2.188,3.545,4.161c0.045,0.396,0.055,0.801,0.01,1.196c-0.082,0.707,0.133,1.2,0.9,1.618
		c0.973,0.531,1.262,1.428,1.152,2.394c-0.076,0.662,0.143,0.999,0.99,1.234C18.705,11.629,20.01,13.314,20,16.122z"/>
	<path fill-rule="evenodd" clip-rule="evenodd" fill="#2E4A9A" d="M2.071,12.57c-0.001-0.944,0.032-1.89-0.011-2.832
		c-0.036-0.787,0.419-1.18,1.271-1.186c2.938-0.023,5.876-0.02,8.814,0.01c0.627,0.006,1.205,0.227,1.172,0.901
		c-0.029,0.597,0.295,1.236-0.752,1.605c-2.444,0.862-3.569,2.513-3.326,4.757c0.088,0.812-0.229,0.978-1.099,0.945
		c-1.531-0.056-3.066-0.029-4.599-0.013c-1.016,0.012-1.493-0.379-1.476-1.249C2.085,14.53,2.071,13.55,2.071,12.57z"/>
	<path fill-rule="evenodd" clip-rule="evenodd" fill="#2E4A9A" d="M18.744,15.368c-0.018,1.929-1.926,3.56-4.152,3.548
		c-2.305-0.013-4.177-1.677-4.135-3.67c0.043-1.923,1.977-3.524,4.213-3.488C16.92,11.795,18.762,13.428,18.744,15.368z"/>
	<path fill-rule="evenodd" clip-rule="evenodd" fill="#2E4A9A" d="M7.588,6.778c-0.425,0-0.85,0-1.274,0
		c-2.393,0-2.408-0.015-2.17-2.052c0.215-1.84,1.647-3.047,3.589-3.023c1.952,0.023,3.425,1.365,3.531,3.215
		c0.01,0.181-0.025,0.366,0.008,0.543c0.191,1.03-0.27,1.461-1.521,1.331C9.04,6.718,8.308,6.778,7.588,6.778z"/>
	<path fill-rule="evenodd" clip-rule="evenodd" fill="#FFFFFF" d="M9.3,11.41c-0.839,0.979-0.451,2.281-0.597,3.523
		c-0.052,0.441-0.394,0.717-0.942,0.729c-0.602,0.015-0.98-0.258-1.053-0.755c-0.062-0.429-0.024-0.867-0.033-1.303
		C6.664,12.998,6.703,12.42,6.27,11.84c-0.375-0.503-0.277-1.145,0.279-1.602c0.501-0.409,1.116-0.493,1.777-0.28
		C9.015,10.181,9.292,10.628,9.3,11.41z"/>
	<path fill-rule="evenodd" clip-rule="evenodd" fill="#FFFFFF" d="M16.588,14.051c-0.033,0.543-0.195,1.027-0.713,1.357
		c-0.371,0.238-0.797,0.414-0.76,0.911c0.018,0.238-0.15,0.418-0.475,0.388c-0.27-0.026-0.336-0.226-0.328-0.4
		c0.025-0.533-0.322-1.179,0.695-1.399c0.492-0.106,0.719-0.498,0.613-0.957c-0.082-0.359-0.365-0.584-0.77-0.644
		c-0.543-0.081-0.865,0.175-1.082,0.586c-0.139,0.265-0.207,0.758-0.75,0.458c-0.387-0.214-0.203-0.591-0.033-0.887
		c0.422-0.737,1.111-1.09,2.076-0.931C16.035,12.691,16.477,13.266,16.588,14.051z"/>
	<path fill-rule="evenodd" clip-rule="evenodd" fill="#FFFFFF" d="M14.762,17.326c0.289,0.027,0.48,0.181,0.48,0.408
		c0.002,0.228-0.182,0.398-0.475,0.405c-0.305,0.007-0.451-0.163-0.453-0.402S14.453,17.338,14.762,17.326z"/>
</g>
</svg>
