<?xml version="1.0" encoding="utf-8"?>
<!-- Generator: Adobe Illustrator 16.0.0, SVG Export Plug-In . SVG Version: 6.00 Build 0)  -->
<!DOCTYPE svg PUBLIC "-//W3C//DTD SVG 1.1//EN" "http://www.w3.org/Graphics/SVG/1.1/DTD/svg11.dtd">
<svg version="1.1" id="Capa_1" xmlns="http://www.w3.org/2000/svg" xmlns:xlink="http://www.w3.org/1999/xlink" x="0px" y="0px"
	 width="38px" height="38px" viewBox="0 0 38 38" enable-background="new 0 0 38 38" xml:space="preserve">
<g opacity="0.7">
	<g>
		<defs>
			<rect id="SVGID_1_" x="0.174" y="1" width="37.651" height="34.291"/>
		</defs>
		<clipPath id="SVGID_2_">
			<use xlink:href="#SVGID_1_"  overflow="visible"/>
		</clipPath>
		<g clip-path="url(#SVGID_2_)">
			<defs>
				<rect id="SVGID_3_" x="0.174" y="1" width="37.651" height="34.289"/>
			</defs>
			<clipPath id="SVGID_4_">
				<use xlink:href="#SVGID_3_"  overflow="visible"/>
			</clipPath>
			<path clip-path="url(#SVGID_4_)" fill="#5D2E82" d="M37.825,18.146c0,9.468-8.43,17.146-18.826,17.146
				c-10.397,0-18.825-7.678-18.825-17.146C0.174,8.676,8.602,1,18.999,1C29.396,1,37.825,8.676,37.825,18.146"/>
		</g>
	</g>
</g>
<path fill="#F6EAD5" d="M26.394,13.84l-1.711,0.574c-0.256,0.112-0.947,0.916-2.148,2.465c-1.275,1.604-1.93,2.637-2.039,3.154
	l-0.072,1.432l-0.037,0.859l0.146,2.178l2.258,0.059l-0.037,1.09h-3.678l-3.278,0.057l0.109-1.031l1.057-0.059
	c0.545-0.057,0.873-0.174,0.982-0.344c0.072-0.113,0.108-0.805,0.108-2.008v-0.744l-0.036-1.49
	c-0.072-0.344-0.655-1.605-1.783-3.784c-1.165-2.235-1.93-3.554-2.295-4.012l-2.11-0.46v-0.975c0.108-0.113,1.274-0.113,3.423-0.057
	c1.493-0.057,2.73-0.057,3.713,0.057l-0.074,0.804l-2.22,0.345c0.692,1.604,1.747,3.84,3.167,6.648
	c1.857-2.237,2.84-3.668,2.877-4.299l-1.893-0.459l-0.146-1.032h3.168l2.984,0.058L26.394,13.84z"/>
</svg>
