<?xml version="1.0" encoding="utf-8"?>
<!-- Generator: Adobe Illustrator 16.0.0, SVG Export Plug-In . SVG Version: 6.00 Build 0)  -->
<!DOCTYPE svg PUBLIC "-//W3C//DTD SVG 1.1//EN" "http://www.w3.org/Graphics/SVG/1.1/DTD/svg11.dtd">
<svg version="1.1" id="Capa_1" xmlns="http://www.w3.org/2000/svg" xmlns:xlink="http://www.w3.org/1999/xlink" x="0px" y="0px"
	 width="38px" height="38px" viewBox="0 0 38 38" enable-background="new 0 0 38 38" xml:space="preserve">
<path fill="#BB4D53" d="M37.826,19.835c0,9.469-8.43,17.147-18.826,17.147c-10.397,0-18.826-7.678-18.826-17.147
	C0.174,10.367,8.603,2.69,19,2.69C29.396,2.69,37.826,10.367,37.826,19.835"/>
<path fill="#F5F5F6" d="M20.934,11.133c0.174,0.104,0.369,0.25,0.585,0.445c0.209,0.205,0.414,0.455,0.612,0.752
	c0.191,0.281,0.361,0.611,0.51,0.994c0.121,0.381,0.182,0.828,0.182,1.336c-0.016,0.934-0.234,1.681-0.655,2.242
	c-0.207,0.271-0.423,0.521-0.655,0.75c-0.255,0.229-0.527,0.463-0.814,0.701c-0.166,0.161-0.318,0.342-0.458,0.547
	c-0.164,0.212-0.247,0.458-0.247,0.738c0,0.273,0.085,0.498,0.254,0.675c0.144,0.17,0.283,0.318,0.419,0.445l0.938,0.727
	c0.582,0.449,1.094,0.945,1.533,1.488c0.414,0.553,0.629,1.273,0.648,2.164c0,1.266-0.594,2.385-1.776,3.363
	c-1.227,1.012-2.999,1.531-5.312,1.566c-1.938-0.018-3.384-0.408-4.34-1.17c-0.964-0.711-1.445-1.562-1.445-2.555
	c0-0.482,0.156-1.021,0.471-1.613c0.304-0.594,0.854-1.115,1.654-1.564c0.894-0.48,1.835-0.805,2.821-0.965
	c0.977-0.135,1.787-0.213,2.433-0.229c-0.2-0.248-0.375-0.512-0.534-0.795c-0.183-0.271-0.271-0.602-0.271-0.984
	c0-0.23,0.033-0.423,0.104-0.576c0.061-0.162,0.118-0.312,0.168-0.449c-0.313,0.035-0.61,0.053-0.889,0.053
	c-1.473-0.018-2.594-0.455-3.368-1.312c-0.807-0.799-1.211-1.729-1.211-2.789c0-1.281,0.572-2.443,1.717-3.488
	c0.787-0.61,1.604-1.009,2.451-1.197c0.841-0.16,1.627-0.242,2.358-0.242h5.532l-1.709,0.941H20.934z M22.001,26.16
	c0-0.664-0.229-1.24-0.686-1.732c-0.484-0.467-1.243-1.039-2.272-1.721c-0.176-0.016-0.385-0.023-0.621-0.023
	c-0.141-0.018-0.502,0-1.084,0.049c-0.572,0.078-1.158,0.201-1.757,0.371c-0.142,0.051-0.338,0.127-0.594,0.229
	c-0.255,0.111-0.516,0.268-0.779,0.471c-0.256,0.213-0.472,0.477-0.647,0.791c-0.203,0.332-0.306,0.73-0.306,1.197
	c0,0.918,0.441,1.672,1.322,2.268c0.838,0.594,1.981,0.9,3.435,0.916c1.304-0.016,2.298-0.289,2.985-0.816
	C21.667,27.641,22.001,26.975,22.001,26.16 M18.146,18.508c0.729-0.025,1.334-0.272,1.819-0.74c0.236-0.332,0.386-0.672,0.452-1.021
	c0.041-0.349,0.061-0.641,0.061-0.881c0-1.027-0.279-2.066-0.837-3.111c-0.262-0.502-0.605-0.912-1.033-1.226
	c-0.438-0.296-0.938-0.455-1.504-0.472c-0.749,0.017-1.371,0.303-1.869,0.855c-0.42,0.578-0.621,1.225-0.602,1.939
	c0,0.943,0.293,1.925,0.877,2.947c0.285,0.475,0.65,0.879,1.099,1.211C17.056,18.342,17.568,18.508,18.146,18.508"/>
<polygon fill="#F5F5F6" points="31.84,13.043 28.938,13.043 28.938,10.305 27.532,10.305 27.532,13.043 24.63,13.043 24.63,14.372 
	27.532,14.372 27.532,17.11 28.938,17.11 28.938,14.372 31.84,14.372 "/>
</svg>
