<?xml version="1.0" encoding="utf-8"?>
<!-- Generator: Adobe Illustrator 16.0.0, SVG Export Plug-In . SVG Version: 6.00 Build 0)  -->
<!DOCTYPE svg PUBLIC "-//W3C//DTD SVG 1.1//EN" "http://www.w3.org/Graphics/SVG/1.1/DTD/svg11.dtd">
<svg version="1.1" id="Capa_1" xmlns="http://www.w3.org/2000/svg" xmlns:xlink="http://www.w3.org/1999/xlink" x="0px" y="0px"
	 width="20px" height="20px" viewBox="0 0 20 20" enable-background="new 0 0 20 20" xml:space="preserve">
<g>
	<path fill-rule="evenodd" clip-rule="evenodd" fill="#FFFFFF" d="M10.036,18.248c-2.679,0-5.358,0-8.037,0
		c-1.549,0-1.994-0.377-1.995-1.732C-0.001,11.973-0.001,7.431,0.005,2.89c0-1.221,0.468-1.652,1.794-1.653
		C7.251,1.23,12.702,1.228,18.154,1.232c1.415,0.002,1.842,0.399,1.842,1.688C20,7.46,20.002,12.002,19.999,16.545
		c0,1.32-0.42,1.693-1.927,1.697c-2.679,0.006-5.357,0.002-8.036,0.002V18.248z M1.429,5.406c5.751,0,11.451,0,17.154,0
		c0-0.967,0-1.855,0-2.799c-0.361-0.016-0.668-0.041-0.975-0.041c-2.423-0.004-4.848,0.021-7.271-0.018
		C9.612,2.538,9.12,2.663,8.934,3.345C8.791,3.863,8.403,4.011,7.81,4C6.017,3.964,4.221,3.985,2.427,3.99
		c-0.33,0.001-0.66,0.03-0.998,0.047C1.429,4.548,1.429,4.958,1.429,5.406z M14.343,10.5c0.017-2.36-1.923-4.304-4.302-4.31
		c-2.383-0.005-4.367,1.922-4.384,4.258c-0.017,2.319,1.976,4.313,4.323,4.329C12.352,14.793,14.326,12.857,14.343,10.5z
		 M18.602,15.455c-5.764,0-11.446,0-17.117,0c-0.262,1.457-0.261,1.459,1.228,1.459c4.946,0.002,9.893,0.002,14.84,0.004
		c0.337,0,0.673,0,1.05,0C18.602,16.387,18.602,15.971,18.602,15.455z M2.874,1.855c0,0.516,0,0.969,0,1.468c1.43,0,2.802,0,4.206,0
		c0-0.505,0-0.957,0-1.429C6.812,1.878,6.627,1.857,6.441,1.857C5.308,1.853,4.175,1.855,2.874,1.855z"/>
	<path fill-rule="evenodd" clip-rule="evenodd" fill="#FFFFFF" d="M7.165,10.463c0.023-1.562,1.306-2.826,2.858-2.818
		c1.604,0.009,2.851,1.304,2.817,2.929c-0.032,1.563-1.308,2.731-2.943,2.692C8.338,13.229,7.142,12.002,7.165,10.463z
		 M8.554,10.837c0.146-0.104,0.309-0.159,0.321-0.234c0.11-0.681,0.485-1.127,1.264-1.287c0.094-0.02,0.229-0.254,0.192-0.33
		c-0.062-0.131-0.229-0.279-0.378-0.307c-0.775-0.145-1.956,1.057-1.732,1.758C8.264,10.574,8.421,10.683,8.554,10.837z"/>
</g>
</svg>
