<?xml version="1.0" encoding="utf-8"?>
<!-- Generator: Adobe Illustrator 16.0.0, SVG Export Plug-In . SVG Version: 6.00 Build 0)  -->
<!DOCTYPE svg PUBLIC "-//W3C//DTD SVG 1.1//EN" "http://www.w3.org/Graphics/SVG/1.1/DTD/svg11.dtd">
<svg version="1.1" id="Capa_1" xmlns="http://www.w3.org/2000/svg" xmlns:xlink="http://www.w3.org/1999/xlink" x="0px" y="0px"
	 width="26px" height="26px" viewBox="0 0 26 26" enable-background="new 0 0 26 26" xml:space="preserve">
<g>
	<path fill-rule="evenodd" clip-rule="evenodd" fill="#FFFFFF" d="M24.703,0.548c0.381,0,0.762,0,1.143,0c0,0.374,0,0.749,0,1.123
		c-0.191,0.7-0.395,1.397-0.572,2.1c-1.76,6.929-3.518,13.858-5.27,20.79c-0.137,0.541-0.311,1.035-0.895,1.259
		c-0.115,0-0.229,0-0.344,0c-0.297-0.224-0.619-0.421-0.883-0.678c-1.582-1.537-3.154-3.086-4.719-4.64
		c-0.168-0.168-0.275-0.395-0.444-0.643c-0.237,0.303-0.345,0.43-0.441,0.563c-0.87,1.203-1.732,2.411-2.609,3.608
		c-0.262,0.357-0.52,0.841-1.051,0.725c-0.561-0.123-0.506-0.697-0.563-1.119c-0.286-2.092-0.557-4.186-0.801-6.281
		c-0.04-0.348-0.176-0.467-0.492-0.559c-1.857-0.534-3.703-1.105-5.562-1.633c-0.52-0.148-0.883-0.402-1.046-0.913
		c0-0.075,0-0.149,0-0.225c0.294-0.297,0.536-0.685,0.89-0.876c3.139-1.703,6.296-3.375,9.45-5.052
		C15.23,5.58,19.967,3.064,24.703,0.548z M20.543,6.657C20.57,6.68,20.6,6.701,20.629,6.725c-2.613,3.571-5.227,7.145-7.792,10.654
		c1.888,1.853,3.726,3.658,5.605,5.501c1.637-6.447,3.281-12.911,4.957-19.509c-6.639,3.538-13.14,7.001-19.764,10.53
		c1.441,0.429,2.748,0.801,4.044,1.212c0.417,0.131,0.724,0.086,1.087-0.171C12.683,12.17,16.615,9.416,20.543,6.657z"/>
</g>
</svg>
