<?xml version="1.0" encoding="utf-8"?>
<!-- Generator: Adobe Illustrator 16.0.0, SVG Export Plug-In . SVG Version: 6.00 Build 0)  -->
<!DOCTYPE svg PUBLIC "-//W3C//DTD SVG 1.1//EN" "http://www.w3.org/Graphics/SVG/1.1/DTD/svg11.dtd">
<svg version="1.1" id="Capa_1" xmlns="http://www.w3.org/2000/svg" xmlns:xlink="http://www.w3.org/1999/xlink" x="0px" y="0px"
	 width="25px" height="25px" viewBox="0 0 25 25" enable-background="new 0 0 25 25" xml:space="preserve">
<g>
	<path fill-rule="evenodd" clip-rule="evenodd" fill="#FFFFFF" d="M2.192,21.791c0.04-3.014,1.361-5.359,3.792-7.086
		c0.287-0.203,0.823-0.256,1.167-0.145c1.409,0.457,2.776,0.459,4.189,0.014c0.369-0.117,0.944-0.043,1.253,0.18
		c2.392,1.725,3.735,4.035,3.739,7.037C11.62,21.791,6.906,21.791,2.192,21.791z"/>
	<path fill-rule="evenodd" clip-rule="evenodd" fill="#FFFFFF" d="M18.689,3.209c0.658,0.233,1.374,0.37,1.96,0.722
		c1.232,0.74,2.104,2.125,0.764,3.741c-0.296,0.356-0.331,0.927-0.456,1.305c-1.816,0-3.689,0-5.395,0
		c-0.184-0.452-0.312-1.059-0.642-1.522c-1.055-1.481-0.054-3.521,2.012-4.009c0.302-0.071,0.601-0.157,0.9-0.236
		C18.119,3.209,18.404,3.209,18.689,3.209z"/>
	<path fill-rule="evenodd" clip-rule="evenodd" fill="#FFFFFF" d="M14.051,9.159c-0.012,2.508-2.179,4.531-4.83,4.524
		c-2.688-0.007-4.811-2.209-4.868-4.531c-0.06-2.44,2.543-4.871,5.07-4.628C12.041,4.775,14.115,6.527,14.051,9.159z"/>
</g>
</svg>
