<?xml version="1.0" encoding="utf-8"?>
<!-- Generator: Adobe Illustrator 16.0.0, SVG Export Plug-In . SVG Version: 6.00 Build 0)  -->
<!DOCTYPE svg PUBLIC "-//W3C//DTD SVG 1.1//EN" "http://www.w3.org/Graphics/SVG/1.1/DTD/svg11.dtd">
<svg version="1.1" id="Capa_1" xmlns="http://www.w3.org/2000/svg" xmlns:xlink="http://www.w3.org/1999/xlink" x="0px" y="0px"
	 width="25px" height="25px" viewBox="0 0 25 25" enable-background="new 0 0 25 25" xml:space="preserve">
<g>
	<path fill-rule="evenodd" clip-rule="evenodd" fill="#FFFFFF" d="M16.168,14.045c-0.117-0.291-0.234-0.582-0.359-0.892
		c1.021-1.156,1.533-2.537,1.375-4.144c-0.105-1.066,0.523-1.131,1.223-1.098c2.064,0.099,3.451,2.953,2.455,5.175
		c-0.317,0.709-0.896,1.283-1.391,1.965c2.067,0.462,3.736,1.693,4.846,3.732c0,0.496,0,0.99,0,1.484
		c-1.678,0.125-2.982,0.108-3.568-2.277c-0.54-2.197-2.471-3.433-4.61-3.98L16.168,14.045z"/>
	<path fill-rule="evenodd" clip-rule="evenodd" fill="#FFFFFF" d="M16.138,14.01c0.793,0.543,1.635,1.02,2.368,1.643
		c1.334,1.131,2.223,2.568,2.367,4.531c-5.214,0-10.329,0-15.441,0c-0.317-2.795,2.34-5.496,6.109-6.408
		c-0.618-0.99-1.493-1.958-1.884-3.111c-0.859-2.54,0.455-5.045,2.811-5.837c1.304-0.438,2.253,0.248,3.059,1.147
		c1.987,2.21,1.461,5.562-1.313,7.769c0.746,0.116,1.352,0.21,1.957,0.304C16.168,14.045,16.138,14.01,16.138,14.01z"/>
	<path fill-rule="evenodd" clip-rule="evenodd" fill="#FFFFFF" d="M1.592,20.051c0.774-3.299,2.714-4.668,5.168-5.031
		c-0.528-0.781-1.239-1.58-1.669-2.523c-0.966-2.119,0.875-4.836,3.051-4.56c0.296,0.038,0.798,0.491,0.782,0.719
		c-0.114,1.698,0.333,3.162,1.526,4.543c-0.42,0.32-0.743,0.668-1.133,0.845c-2.299,1.044-3.949,2.681-4.524,5.373
		c-0.05,0.234-0.274,0.595-0.436,0.604C3.497,20.083,2.632,20.051,1.592,20.051z"/>
</g>
</svg>
