<?xml version="1.0" encoding="utf-8"?>
<!-- Generator: Adobe Illustrator 16.0.0, SVG Export Plug-In . SVG Version: 6.00 Build 0)  -->
<!DOCTYPE svg PUBLIC "-//W3C//DTD SVG 1.1//EN" "http://www.w3.org/Graphics/SVG/1.1/DTD/svg11.dtd">
<svg version="1.1" id="Capa_1" xmlns="http://www.w3.org/2000/svg" xmlns:xlink="http://www.w3.org/1999/xlink" x="0px" y="0px"
	 width="24px" height="24px" viewBox="0 0 24 24" enable-background="new 0 0 24 24" xml:space="preserve">
<path fill="#EB6A24" d="M13.5,0.67c0,0,0.74,2.65,0.74,4.8c0,2.06-1.35,3.73-3.41,3.73C8.76,9.2,7.2,7.53,7.2,5.47l0.03-0.36
	C5.21,7.51,4,10.62,4,14c0,4.42,3.58,8,8,8s8-3.58,8-8C20,8.61,17.41,3.8,13.5,0.67z M11.71,19c-1.78,0-3.22-1.4-3.22-3.141
	c0-1.619,1.05-2.76,2.81-3.119c1.771-0.36,3.601-1.21,4.62-2.58c0.391,1.29,0.59,2.65,0.59,4.04C16.51,16.85,14.359,19,11.71,19z"/>
<path fill="none" d="M0,0h24v24H0V0z"/>
</svg>
