<?xml version="1.0" encoding="utf-8"?>
<!-- Generator: Adobe Illustrator 16.0.0, SVG Export Plug-In . SVG Version: 6.00 Build 0)  -->
<!DOCTYPE svg PUBLIC "-//W3C//DTD SVG 1.1//EN" "http://www.w3.org/Graphics/SVG/1.1/DTD/svg11.dtd">
<svg version="1.1" id="Capa_1" xmlns="http://www.w3.org/2000/svg" xmlns:xlink="http://www.w3.org/1999/xlink" x="0px" y="0px"
	 width="35px" height="35px" viewBox="0 0 35 35" enable-background="new 0 0 35 35" xml:space="preserve">
<g id="layer1" transform="translate(0,-1032.3622)">
	<g id="g16658" transform="matrix(1.4591218,0,0,-1.4718081,12.087365,1049.4572)">
		<path id="path16660" fill="#EB6A24" d="M1.029-4.458C0.86-4.4,0.717-4.312,0.524-4.288C0.021-4.219-0.497-4.17-1.019-4.126
			C-1.22-4.109-1.446-4.128-1.658-4.129C-1.747-4.13-1.844-4.159-1.864-4.268c-0.04-0.234-0.068-0.462-0.082-0.685
			c-0.003-0.044,0.073-0.07,0.134-0.064c0.153,0.02,0.331,0.092,0.473,0.096c0.471,0.008,0.924-0.016,1.399,0
			C0.282-4.916,0.537-4.86,0.79-4.788C1.002-4.73,1.086-4.595,1.029-4.458 M2.793-2.572c0.028,0.074,0.046,0.13,0.07,0.186
			c0.106,0.244,0.248,0.498,0.312,0.73c0.037,0.131,0.153,0.242,0.209,0.358C3.49-1.094,3.566-0.894,3.664-0.689
			c0.041,0.085,0.096,0.175,0.149,0.26c0.143,0.236,0.285,0.474,0.427,0.71c0.071,0.113,0.127,0.224,0.195,0.338
			c0.056,0.09,0.126,0.206-0.016,0.164C4.3,0.749,4.142,0.749,4.033,0.548C3.849,0.542,3.655,0.522,3.485,0.53
			C3.328,0.538,3.196,0.579,3.007,0.615C2.882,0.277,2.77-0.015,2.67-0.303c-0.147-0.41-0.288-0.822-0.426-1.23
			c-0.107-0.309-0.21-0.618-0.305-0.925C1.922-2.511,1.931-2.583,1.97-2.588c0.22-0.027,0.452-0.037,0.685-0.046
			C2.683-2.636,2.742-2.596,2.793-2.572 M12.171,2.871c-0.424-0.167-0.839-0.33-1.254-0.496c-0.802-0.318-1.588-0.574-2.352-0.754
			C8.424,1.585,8.316,1.498,8.242,1.378c-0.218-0.354-0.439-0.71-0.64-1.064C7.411-0.023,7.235-0.36,7.059-0.693
			C6.848-1.097,6.64-1.5,6.439-1.902C6.42-1.939,6.45-2.004,6.474-1.999c0.257,0.068,0.511,0.123,0.774,0.222
			c0.699,0.256,1.401,0.528,2.102,0.799c0.226,0.09,0.455,0.186,0.685,0.292c0.133,0.058,0.253,0.14,0.325,0.282
			c0.27,0.524,0.55,1.051,0.83,1.578c0.143,0.269,0.293,0.537,0.448,0.806C11.809,2.278,11.993,2.575,12.171,2.871 M-3.631-0.708
			c0.002,0.064,0.004,0.103,0.009,0.141c0.131,1.221,0.222,2.423,0.207,3.579c0.003,0.109-0.048,0.166-0.183,0.139
			c-0.199-0.038-0.414-0.106-0.604-0.13c-0.607-0.075-1.263-0.33-1.917-0.572c-0.071-0.028-0.139-0.06-0.218-0.093
			C-6.339,2.299-6.343,2.253-6.343,2.21c-0.006-0.703,0.001-1.403-0.014-2.112C-6.367-0.372-6.4-0.854-6.44-1.334
			c-0.009-0.138,0.031-0.171,0.222-0.09c0.667,0.291,1.298,0.458,1.909,0.561C-4.095-0.826-3.868-0.762-3.631-0.708 M0.005,3.468
			c0.009,0.11,0.025,0.187,0.021,0.256C-0.01,4.623-0.045,5.519-0.088,6.414c-0.013,0.24-0.053,0.429-0.453,0.36
			c-0.577-0.102-1.097-0.088-1.66-0.161C-2.628,6.56-3.083,6.446-3.522,6.363c0.043-1.056,0.084-2.098,0.127-3.158
			C-2.224,3.407-1.086,3.496,0.005,3.468 M10.361,5.132c-0.57-0.154-1.116-0.318-1.649-0.444c-0.586-0.137-1.158-0.233-1.74-0.358
			c-0.373-0.08-0.419-0.11-0.62-0.456c-0.564-0.977-1.115-1.95-1.677-2.927C4.588,0.8,4.624,0.756,4.77,0.78
			c0.34,0.053,0.676,0.1,1.016,0.152C5.827,0.94,5.874,0.958,5.917,0.968c0.268,0.067,0.535,0.133,0.802,0.201
			c0.438,0.113,0.878,0.228,1.316,0.343c0.13,0.035,0.25,0.099,0.325,0.233c0.163,0.292,0.321,0.582,0.494,0.874
			c0.456,0.765,0.92,1.528,1.381,2.294C10.272,4.974,10.306,5.038,10.361,5.132 M2.74-2.686c-0.052-0.086-0.1-0.157-0.134-0.222
			C2.162-3.805,1.715-4.702,1.278-5.599c-0.08-0.165-0.129-0.324-0.173-0.48c-0.037-0.142,0.028-0.211,0.19-0.196
			c0.143,0.015,0.292,0.031,0.428,0.032c0.784,0.007,1.659,0.228,2.559,0.495c0.154,0.045,0.262,0.126,0.332,0.272
			c0.201,0.419,0.408,0.84,0.614,1.259c0.328,0.661,0.655,1.322,0.984,1.983c0.056,0.107,0.031,0.134-0.086,0.106
			c-0.345-0.085-0.691-0.17-1.029-0.238c-0.38-0.076-0.763-0.151-1.132-0.199C3.552-2.62,3.155-2.649,2.74-2.686 M-0.454-0.564
			c-0.999,0.052-2.013,0.038-3.14-0.179C-3.674-1.325-3.738-1.89-3.83-2.466c-0.081-0.499-0.203-1.013-0.291-1.515
			c-0.053-0.313,0.005-0.336,0.39-0.247c0.224,0.049,0.45,0.11,0.658,0.131c0.478,0.045,0.947,0.074,1.415,0.105
			C-1.54-3.986-1.434-3.998-1.276-4c0.286,1.153,0.562,2.273,0.847,3.424c0.885-0.129,1.755-0.267,2.407-0.681
			C2.033-1.078,2.059-0.916,2.102-0.75c0.11,0.44,0.24,0.881,0.338,1.314C2.523,0.93,2.559,1.277,2.632,1.642
			c0.081,0.384,0.18,0.772,0.263,1.157c0.012,0.064-0.004,0.141-0.054,0.157C2.011,3.231,1.149,3.471,0.049,3.418
			C-0.041,2.123-0.11,0.853-0.454-0.564 M-7.256-5.416c0.121,0.633,0.24,1.254,0.356,1.874c0.009,0.053-0.018,0.094-0.01,0.15
			c0.021,0.169,0.052,0.344,0.076,0.515c0.062,0.468,0.135,0.94,0.183,1.403c0.064,0.605,0.155,1.224,0.146,1.793
			c-0.007,1.007-0.071,1.988-0.134,2.966C-6.681,4-6.764,4.697-6.823,5.406C-6.83,5.501-6.807,5.613-6.797,5.719
			c0.263,0.082,0.504,0.174,0.729,0.226c1.137,0.269,2.276,0.545,3.4,0.783C-2.16,6.835-1.681,6.873-1.2,6.921
			c0.957,0.1,1.843,0.08,2.704,0.021C2.457,6.879,3.337,6.73,3.983,6.3c0.371-0.243,0.432-0.689,0.359-1.212
			c-0.027-0.193-0.076-0.396-0.12-0.597C4.165,4.233,4.222,4.148,4.509,4.181c0.355,0.037,0.736,0.122,1.08,0.143
			c0.803,0.047,1.696,0.29,2.545,0.437c0.566,0.098,1.181,0.301,1.78,0.47c0.517,0.146,1.036,0.282,1.562,0.472
			c0.503,0.183,1.019,0.419,1.53,0.656c0.482,0.223,0.968,0.475,1.454,0.713c0.064,0.033,0.131,0.052,0.216,0.086
			c-0.165-0.305-0.313-0.583-0.466-0.861c-0.531-0.951-1.064-1.903-1.592-2.854c-0.273-0.487-0.545-0.975-0.803-1.461
			c-0.182-0.335-0.337-0.668-0.519-1.003c-0.114-0.206-0.282-0.418-0.383-0.619c-0.288-0.57-0.564-1.137-0.831-1.703
			C9.748-2.051,9.435-2.753,9.099-3.457C9.008-3.655,8.871-3.858,8.751-4.061c-0.095-0.162-0.24-0.292-0.427-0.37
			c-0.63-0.257-1.261-0.512-1.889-0.775C5.617-5.549,4.843-5.741,4.07-5.938C3.343-6.126,2.63-6.252,1.938-6.345
			C0.641-6.52-0.468-6.413-1.489-6.166c-0.728,0.174-0.839,0.721-0.593,1.525c0.039,0.123,0.058,0.246,0.072,0.36
			c0.015,0.15-0.117,0.149-0.271,0.135c-1.05-0.073-2.189-0.368-3.36-0.751C-6.179-5.075-6.714-5.241-7.256-5.416"/>
	</g>
</g>
</svg>
