<?xml version="1.0" encoding="utf-8"?>
<!-- Generator: Adobe Illustrator 16.0.0, SVG Export Plug-In . SVG Version: 6.00 Build 0)  -->
<!DOCTYPE svg PUBLIC "-//W3C//DTD SVG 1.1//EN" "http://www.w3.org/Graphics/SVG/1.1/DTD/svg11.dtd">
<svg version="1.1" id="Capa_1" xmlns="http://www.w3.org/2000/svg" xmlns:xlink="http://www.w3.org/1999/xlink" x="0px" y="0px"
	 width="25px" height="25px" viewBox="0 0 25 25" enable-background="new 0 0 25 25" xml:space="preserve">
<g>
	<path fill-rule="evenodd" clip-rule="evenodd" fill="#FFFFFF" d="M5.324,21.497c0.04-3.138,1.32-5.581,3.679-7.38
		c0.278-0.211,0.799-0.268,1.133-0.15c1.366,0.476,2.693,0.477,4.064,0.014c0.358-0.121,0.916-0.045,1.215,0.188
		c2.32,1.797,3.624,4.203,3.628,7.329C14.469,21.497,9.897,21.497,5.324,21.497z"/>
	<path fill-rule="evenodd" clip-rule="evenodd" fill="#FFFFFF" d="M16.827,8.421c-0.036,2.596-2.178,4.674-4.76,4.63
		c-2.593-0.044-4.645-2.403-4.651-4.8c-0.005-2.491,2.449-4.947,4.895-4.736C14.783,3.729,16.926,5.536,16.827,8.421z"/>
</g>
</svg>
