<?xml version="1.0" encoding="UTF-8" standalone="no"?>
<svg
   xmlns:dc="http://purl.org/dc/elements/1.1/"
   xmlns:cc="http://creativecommons.org/ns#"
   xmlns:rdf="http://www.w3.org/1999/02/22-rdf-syntax-ns#"
   xmlns:svg="http://www.w3.org/2000/svg"
   xmlns="http://www.w3.org/2000/svg"
   version="1.1"
   id="svg21410"
   viewBox="0 0 63.999999 59.000001"
   height="59"
   width="64">
  <defs
     id="defs21412">
    <clipPath
       id="clipPath7706"
       clipPathUnits="userSpaceOnUse">
      <path
         id="path7708"
         d="m 1229,4373.17 51,0 0,-47 -51,0 0,47 z" />
    </clipPath>
    <clipPath
       id="clipPath7710"
       clipPathUnits="userSpaceOnUse">
      <path
         id="path7712"
         d="m 1229,4326.167 51,0 0,47 -51,0 0,-47 z" />
    </clipPath>
  </defs>
  <metadata
     id="metadata21415">
    <rdf:RDF>
      <cc:Work
         rdf:about="">
        <dc:format>image/svg+xml</dc:format>
        <dc:type
           rdf:resource="http://purl.org/dc/dcmitype/StillImage" />
        <dc:title></dc:title>
      </cc:Work>
    </rdf:RDF>
  </metadata>
  <g
     transform="translate(0,-993.3622)"
     id="layer1">
    <g
       style="opacity:0.89999402"
       id="g7716"
       clip-path="url(#clipPath7706)"
       transform="matrix(1.254902,0,0,-1.2553993,-1542.2745,6483.4329)">
      <g
         id="g7718">
        <g
           id="g7720"
           clip-path="url(#clipPath7710)">
          <path
             id="path7722"
             style="fill:#395a97;fill-opacity:1;fill-rule:evenodd;stroke:none"
             d="m 1229,4326.167 51,0 0,47 -51,0 0,-47 z" />
        </g>
      </g>
    </g>
    <path
       d="m 42.400738,1023.9706 0.711529,-4.8936 -5.470117,0 0,-3.1259 c 0,-1.4149 0.448,-2.3802 2.740706,-2.3802 l 2.922666,0 0,-4.3752 c -0.505725,-0.059 -2.238745,-0.1933 -4.262902,-0.1933 -4.217725,0 -7.104,2.2798 -7.104,6.4703 l 0,3.6081 -4.772392,0 0,4.8935 4.772392,0 0,12.5565 5.70353,0 0,-12.5565 4.758588,0 z"
       style="fill:#f6f5f6;fill-opacity:1;fill-rule:nonzero;stroke:none"
       id="path7750" />
  </g>
</svg>
