<?xml version="1.0" encoding="utf-8"?>
<!-- Generator: Adobe Illustrator 16.0.0, SVG Export Plug-In . SVG Version: 6.00 Build 0)  -->
<!DOCTYPE svg PUBLIC "-//W3C//DTD SVG 1.0//EN" "http://www.w3.org/TR/2001/REC-SVG-20010904/DTD/svg10.dtd">
<svg version="1.0" id="Capa_1" xmlns="http://www.w3.org/2000/svg" xmlns:xlink="http://www.w3.org/1999/xlink" x="0px" y="0px"
	 width="14px" height="14px" viewBox="0 0 14 14" enable-background="new 0 0 14 14" xml:space="preserve">
<path fill-rule="evenodd" clip-rule="evenodd" fill="#86868A" d="M1.705,6.399c0-2.426,2.017-4.434,4.451-4.43
	c2.454,0.004,4.433,1.996,4.431,4.461c-0.002,2.449-1.987,4.425-4.44,4.419C3.687,10.846,1.707,8.861,1.705,6.399 M9.105,6.885
	C9.082,6.88,9.059,6.874,9.036,6.868C8.938,6.84,8.796,6.844,8.752,6.779C8.581,6.523,8.408,6.258,8.293,5.974
	c-0.219-0.54-0.646-0.808-1.215-0.71C6.76,5.318,6.615,5.239,6.5,4.958C6.482,4.917,6.437,4.856,6.406,4.856
	C6.203,4.861,6,4.873,5.799,4.897C5.696,4.91,5.598,4.979,5.5,4.973c-0.162-0.009-0.245,0.072-0.323,0.19
	c-0.073,0.11-0.139,0.236-0.239,0.313c-0.444,0.342-0.535,0.829-0.202,1.28C4.853,6.914,5.01,7.047,5.168,7.168
	c0.069,0.053,0.19,0.077,0.277,0.059c0.179-0.037,0.35-0.109,0.55-0.177c0.017,0.332,0.244,0.089,0.348,0.129
	c0.055,0.199,0.066-3.156,0.16-3.01C6.65,4.399,6.722,8.172,6.647,8.443C6.616,8.559,6.587,8.701,6.625,8.807
	C6.729,9.1,6.868,9.377,7.009,9.691c0.055-0.01,0.171-0.023,0.288-0.045C7.634,9.588,7.9,9.338,8,9.086
	c0.097-0.24,0.23-0.428,0.368-0.631c0.049-0.074,0.088-0.188,0.07-0.268c-0.074-0.327,0.09-0.548,0.285-0.774
	C8.865,7.25,8.979,7.062,9.105,6.885 M6.901,3.26C6.93,3.264,6.959,3.269,6.987,3.273C6.97,3.375,6.984,3.503,6.929,3.575
	c-0.096,0.123-0.226,0.08-0.325-0.027C6.478,3.41,6.367,3.447,6.239,3.553c-0.117,0.099-0.247,0.19-0.384,0.26
	c-0.117,0.06-0.236,0.085-0.183,0.269C5.685,4.121,5.59,4.209,5.528,4.248C5.468,4.284,5.385,4.282,5.312,4.298
	C5.115,4.343,5.193,4.507,5.173,4.626C5.155,4.735,5.194,4.793,5.315,4.833c0.245,0.079,0.389-0.021,0.527-0.21
	c0.272-0.375,0.57-0.386,0.874-0.058c0.041,0.044,0.116,0.057,0.174,0.083c0.012-0.02,0.022-0.039,0.033-0.058
	C6.829,4.479,6.736,4.367,6.643,4.254c0.023-0.022,0.047-0.044,0.069-0.067C6.885,4.341,7.056,4.496,7.229,4.65
	c0.039-0.006,0.117-0.006,0.186-0.032c0.091-0.034,0.247-0.08,0.252-0.132C7.699,4.167,7.95,4.202,8.076,4.151
	C8.214,4.28,8.312,4.371,8.408,4.46C8.169,4.499,7.957,4.521,7.752,4.573C7.705,4.585,7.641,4.698,7.65,4.752
	c0.042,0.217,0.24,0.34,0.451,0.299c0.005,0.06,0.036,0.137,0.011,0.175C7.999,5.396,8.122,5.498,8.198,5.62
	c0.171,0.277,0.33,0.562,0.509,0.834C8.743,6.506,8.873,6.555,8.921,6.53c0.228-0.114,0.441-0.255,0.696-0.408
	C9.489,5.999,9.423,5.888,9.324,5.848c-0.187-0.077-0.193-0.06-0.249-0.264c0.46,0.226,1.001,0.384,1.132,1.016
	c0.044-1.471-0.521-2.631-1.681-3.5C8.42,3.021,8.323,2.929,8.169,3.012C8.13,3.033,8.016,2.978,7.984,2.927
	C7.879,2.76,7.734,2.741,7.56,2.764c-0.11,0.014-0.23,0.044-0.331,0.015C6.909,2.686,6.645,2.845,6.371,2.944
	C6.286,2.976,6.238,3.101,6.172,3.183C6.186,3.199,6.2,3.213,6.214,3.229c0.147-0.044,0.234-0.002,0.297,0.145
	c0.055,0.13,0.209,0.123,0.297,0.009C6.84,3.342,6.87,3.3,6.901,3.26 M2.17,7.309c0.037,0.143,0.061,0.243,0.092,0.34
	C2.465,8.285,2.8,8.84,3.282,9.301c0.062,0.061,0.194,0.057,0.294,0.059c0.027,0.002,0.071-0.08,0.081-0.131
	c0.03-0.154,0.036-0.314,0.074-0.469c0.035-0.141,0.031-0.246-0.12-0.309C3.509,8.408,3.41,8.355,3.317,8.299
	C3.224,8.242,3.086,8.191,3.056,8.107C2.909,7.691,2.548,7.528,2.17,7.309 M2.111,6.212C2.115,5.838,2.246,5.506,2.456,5.2
	c0.051-0.073,0.106-0.146,0.141-0.227C2.618,4.925,2.601,4.86,2.601,4.785c0.356-0.289,0.356-0.289,0.261-0.78
	C2.384,4.678,2.115,5.398,2.111,6.212 M3.354,3.471C3.612,3.606,3.776,3.545,3.933,3.36c0.155-0.188,0.333-0.355,0.509-0.525
	C4.508,2.77,4.592,2.725,4.67,2.67C4.162,2.825,3.724,3.077,3.354,3.471 M8.967,8.166C8.851,8.299,8.696,8.41,8.639,8.559
	C8.582,8.703,8.432,8.869,8.576,9.051C8.894,8.873,9.053,8.514,8.967,8.166 M5.353,3.539C5.341,3.53,5.329,3.522,5.316,3.514
	C5.269,3.578,5.223,3.641,5.175,3.705c0.062,0.013,0.131,0.014,0.187,0.04C5.546,3.83,5.677,3.741,5.829,3.641
	c-0.09-0.117-0.166-0.217-0.245-0.314C5.496,3.217,5.425,3.28,5.379,3.364C5.353,3.412,5.361,3.48,5.353,3.539"/>
</svg>
