<?xml version="1.0" encoding="utf-8"?>
<!-- Generator: Adobe Illustrator 16.0.0, SVG Export Plug-In . SVG Version: 6.00 Build 0)  -->
<!DOCTYPE svg PUBLIC "-//W3C//DTD SVG 1.1//EN" "http://www.w3.org/Graphics/SVG/1.1/DTD/svg11.dtd">
<svg version="1.1" id="Capa_1" xmlns="http://www.w3.org/2000/svg" xmlns:xlink="http://www.w3.org/1999/xlink" x="0px" y="0px"
	 width="25px" height="25px" viewBox="0 0 25 25" enable-background="new 0 0 25 25" xml:space="preserve">
<g>
	<path fill-rule="evenodd" clip-rule="evenodd" fill="#FFFFFF" d="M16.992,1.057c0,1.096,0,2.061,0,3.185c-3.443,0-6.808,0-10.271,0
		c0,5.909,0,11.657,0,17.551c3.394,0,6.768,0,10.247,0c0,1.15,0,2.156,0,3.27c-3.573,0-7.088,0.082-10.599-0.035
		c-1.665-0.056-2.76-1.68-2.761-3.646C3.602,15.795,3.603,10.207,3.606,4.62c0.002-1.963,0.999-3.469,2.665-3.526
		C9.821,0.974,13.377,1.057,16.992,1.057z"/>
	<path fill-rule="evenodd" clip-rule="evenodd" fill="#FFFFFF" d="M15.801,7.081c0,0.776,0,1.551,0,2.472c1.66,0,3.242,0,4.928,0
		c0,2.185,0,4.229,0,6.447c-1.548,0-3.131,0-4.799,0c-0.076,1.105-0.14,2.052-0.227,3.338c-1.908-2.059-3.611-3.861-5.263-5.721
		c-0.211-0.238-0.339-0.988-0.197-1.15c1.691-1.93,3.441-3.794,5.175-5.675C15.547,6.887,15.674,6.984,15.801,7.081z"/>
</g>
</svg>
