<?xml version="1.0" encoding="utf-8"?>
<!-- Generator: Adobe Illustrator 16.0.0, SVG Export Plug-In . SVG Version: 6.00 Build 0)  -->
<!DOCTYPE svg PUBLIC "-//W3C//DTD SVG 1.1//EN" "http://www.w3.org/Graphics/SVG/1.1/DTD/svg11.dtd">
<svg version="1.1" id="Capa_1" xmlns="http://www.w3.org/2000/svg" xmlns:xlink="http://www.w3.org/1999/xlink" x="0px" y="0px"
	 width="38px" height="38px" viewBox="0 0 38 38" enable-background="new 0 0 38 38" xml:space="preserve">
<path fill="#EF8341" d="M37.825,19.836c0,9.471-8.431,17.146-18.826,17.146c-10.396,0-18.824-7.676-18.824-17.146
	c0-9.469,8.428-17.146,18.824-17.146C29.395,2.69,37.825,10.367,37.825,19.836"/>
<path fill="#FFFFFF" d="M15.059,20.797c0.328-1.128,0.653-2.258,0.985-3.384c0.268-0.906,0.516-1.818,0.822-2.708
	c0.321-0.935,0.941-1.385,1.779-1.386c0.781,0,1.414,0.465,1.712,1.405c0.557,1.739,1.055,3.499,1.586,5.249
	c0.078,0.262,0.105,0.549,0.336,0.842c0.365-1.323,0.709-2.59,1.068-3.852c0.246-0.869,0.422-1.764,0.786-2.592
	c0.337-0.762,0.915-1.108,1.673-1.084c0.75,0.025,1.326,0.402,1.664,1.142c0.229,0.497,0.217,1.034,0.064,1.541
	c-0.967,3.19-1.999,6.358-3.076,9.506c-0.203,0.597-0.533,1.121-1.037,1.478c-1.14,0.807-2.543,0.317-3.078-1.146
	c-0.515-1.41-0.933-2.861-1.392-4.295c-0.089-0.275-0.185-0.55-0.397-0.818c-0.319,1.065-0.644,2.132-0.96,3.197
	c-0.207,0.693-0.408,1.389-0.707,2.045c-0.398,0.875-1.031,1.394-1.948,1.385c-0.913-0.012-1.549-0.547-1.949-1.404
	c-0.463-0.996-0.729-2.077-1.077-3.123c-0.679-2.035-1.331-4.08-1.983-6.126c-0.121-0.38-0.23-0.774-0.28-1.172
	c-0.126-1.048,0.354-1.817,1.285-2.12c0.911-0.297,1.743,0.07,2.155,1.012c0.482,1.103,0.695,2.306,1.034,3.462
	c0.286,0.974,0.547,1.958,0.817,2.937C14.981,20.79,15.021,20.794,15.059,20.797"/>
</svg>
