<?xml version="1.0" encoding="utf-8"?>
<!-- Generator: Adobe Illustrator 16.0.0, SVG Export Plug-In . SVG Version: 6.00 Build 0)  -->
<!DOCTYPE svg PUBLIC "-//W3C//DTD SVG 1.0//EN" "http://www.w3.org/TR/2001/REC-SVG-20010904/DTD/svg10.dtd">
<svg version="1.0" id="Capa_1" xmlns="http://www.w3.org/2000/svg" xmlns:xlink="http://www.w3.org/1999/xlink" x="0px" y="0px"
	 width="14px" height="14px" viewBox="0 0 14 14" enable-background="new 0 0 14 14" xml:space="preserve">
<path fill-rule="evenodd" clip-rule="evenodd" fill="#ADADB1" d="M9.812,0.527c0.222,0.104,0.461,0.183,0.664,0.317
	c0.354,0.236,0.565,0.599,0.578,1.014c0.029,0.887,0.01,1.774,0.01,2.716c-0.321-0.278-0.613-0.519-0.889-0.778
	c-0.057-0.053-0.073-0.169-0.075-0.257C10.094,3.069,10.1,2.6,10.096,2.13c-0.002-0.423-0.192-0.62-0.612-0.62
	c-2.254-0.002-4.506-0.002-6.759,0C2.3,1.51,2.105,1.703,2.105,2.125c-0.001,3.25-0.001,6.5,0,9.75c0,0.424,0.195,0.615,0.619,0.617
	c2.253,0.002,4.505,0.002,6.759-0.002c0.42,0,0.61-0.197,0.612-0.619c0.004-0.461-0.01-0.922,0.009-1.383
	c0.006-0.123,0.071-0.271,0.158-0.359c0.237-0.236,0.501-0.445,0.787-0.691c0.011,0.098,0.023,0.164,0.023,0.23
	c0.002,0.645,0.001,1.285,0.001,1.928c0,1.123-0.234,1.475-1.262,1.877c-2.475,0-4.948,0-7.422,0
	c-0.042-0.018-0.083-0.043-0.127-0.055c-0.69-0.191-1.13-0.73-1.132-1.447c-0.007-3.312-0.007-6.628,0-9.942
	c0.002-0.717,0.442-1.256,1.132-1.446C2.307,0.57,2.348,0.545,2.39,0.527C4.864,0.527,7.338,0.527,9.812,0.527z"/>
<path fill-rule="evenodd" clip-rule="evenodd" fill="#ADADB1" d="M7.611,8.475c-0.329,0-0.614,0-0.9,0
	c-0.689,0-1.379,0.004-2.069-0.002c-0.333-0.002-0.517-0.18-0.52-0.513c-0.009-0.642-0.009-1.284,0-1.926
	C4.126,5.701,4.312,5.528,4.65,5.526c0.872-0.004,1.744-0.002,2.616-0.002c0.103,0,0.204,0,0.346,0c0-0.385-0.001-0.736,0.001-1.088
	C7.614,4.303,7.61,4.166,7.634,4.036c0.049-0.258,0.306-0.381,0.495-0.22C9.357,4.867,10.576,5.929,11.813,7
	c-1.229,1.065-2.435,2.114-3.648,3.155c-0.227,0.195-0.512,0.049-0.537-0.283C7.604,9.566,7.615,9.26,7.611,8.953
	C7.611,8.811,7.611,8.668,7.611,8.475z"/>
</svg>
