<?xml version="1.0" encoding="utf-8"?>
<!-- Generator: Adobe Illustrator 16.0.0, SVG Export Plug-In . SVG Version: 6.00 Build 0)  -->
<!DOCTYPE svg PUBLIC "-//W3C//DTD SVG 1.1//EN" "http://www.w3.org/Graphics/SVG/1.1/DTD/svg11.dtd">
<svg version="1.1" id="Capa_1" xmlns="http://www.w3.org/2000/svg" xmlns:xlink="http://www.w3.org/1999/xlink" x="0px" y="0px"
	 width="38px" height="38px" viewBox="0 0 38 38" enable-background="new 0 0 38 38" xml:space="preserve">
<g opacity="0.9">
	<defs>
		<rect id="SVGID_1_" x="0.175" y="1.162" opacity="0.9" width="37.651" height="34.29"/>
	</defs>
	<clipPath id="SVGID_2_">
		<use xlink:href="#SVGID_1_"  overflow="visible"/>
	</clipPath>
	<g clip-path="url(#SVGID_2_)">
		<g>
			<defs>
				<rect id="SVGID_3_" x="0.175" y="1.162" width="37.651" height="34.29"/>
			</defs>
			<clipPath id="SVGID_4_">
				<use xlink:href="#SVGID_3_"  overflow="visible"/>
			</clipPath>
			<path clip-path="url(#SVGID_4_)" fill="#395A97" d="M37.826,18.307c0,9.47-8.43,17.146-18.825,17.146
				c-10.399,0-18.825-7.676-18.825-17.146c0-9.469,8.426-17.146,18.825-17.146C29.396,1.162,37.826,8.838,37.826,18.307"/>
		</g>
	</g>
</g>
<path fill="#F5F5F6" d="M24.328,19.598l0.529-3.556H20.79v-2.271c0-1.028,0.332-1.729,2.037-1.729l2.174-0.002V8.86
	c-0.375-0.043-1.665-0.141-3.17-0.141c-3.136,0-5.282,1.656-5.282,4.7v2.622h-3.548v3.555h3.548v9.125h4.241v-9.125h3.538V19.598z"
	/>
</svg>
