<?xml version="1.0" encoding="UTF-8" standalone="no"?>
<!-- Generator: Adobe Illustrator 16.0.0, SVG Export Plug-In . SVG Version: 6.00 Build 0)  -->

<svg
   xmlns:dc="http://purl.org/dc/elements/1.1/"
   xmlns:cc="http://creativecommons.org/ns#"
   xmlns:rdf="http://www.w3.org/1999/02/22-rdf-syntax-ns#"
   xmlns:svg="http://www.w3.org/2000/svg"
   xmlns="http://www.w3.org/2000/svg"
   xmlns:xlink="http://www.w3.org/1999/xlink"
   xmlns:sodipodi="http://sodipodi.sourceforge.net/DTD/sodipodi-0.dtd"
   xmlns:inkscape="http://www.inkscape.org/namespaces/inkscape"
   version="1.1"
   id="Capa_1"
   x="0px"
   y="0px"
   width="38px"
   height="38px"
   viewBox="0 0 38 38"
   enable-background="new 0 0 38 38"
   xml:space="preserve"
   inkscape:version="0.91 r13725"
   sodipodi:docname="icon-yahoo.svg"><metadata
     id="metadata29"><rdf:RDF><cc:Work
         rdf:about=""><dc:format>image/svg+xml</dc:format><dc:type
           rdf:resource="http://purl.org/dc/dcmitype/StillImage" /></cc:Work></rdf:RDF></metadata><defs
     id="defs27"><defs
       id="defs7"><rect
         id="SVGID_1_"
         x="0.17399999"
         y="1"
         width="37.651001"
         height="34.291" /></defs><clipPath
       id="SVGID_2_"><use
         xlink:href="#SVGID_1_"
         overflow="visible"
         id="use11"
         style="overflow:visible"
         x="0"
         y="0"
         width="100%"
         height="100%" /></clipPath><defs
       id="defs15"><rect
         height="34.289001"
         width="37.651001"
         y="1"
         x="0.17399999"
         id="SVGID_3_" /></defs><clipPath
       id="SVGID_4_"><use
         height="100%"
         width="100%"
         y="0"
         x="0"
         style="overflow:visible"
         id="use19"
         overflow="visible"
         xlink:href="#SVGID_3_" /></clipPath></defs><sodipodi:namedview
     pagecolor="#ffffff"
     bordercolor="#666666"
     borderopacity="1"
     objecttolerance="10"
     gridtolerance="10"
     guidetolerance="10"
     inkscape:pageopacity="0"
     inkscape:pageshadow="2"
     inkscape:window-width="1444"
     inkscape:window-height="791"
     id="namedview25"
     showgrid="false"
     inkscape:zoom="6.2105263"
     inkscape:cx="-1.0953899"
     inkscape:cy="19"
     inkscape:window-x="49"
     inkscape:window-y="34"
     inkscape:window-maximized="0"
     inkscape:current-layer="Capa_1" /><path
     style="fill:#5d2e82"
     inkscape:connector-curvature="0"
     id="path21"
     d="m 37.825,18.146 c 0,9.468 -8.43,17.146 -18.826,17.146 C 8.602,35.292 0.174,27.614 0.174,18.146 0.174,8.676 8.602,1 18.999,1 29.396,1 37.825,8.676 37.825,18.146"
     clip-path="url(#SVGID_4_)"
     transform="matrix(1.0092693,0,0,1.1082271,-0.17561287,-1.1082271)" /><path
     d="m 26.463042,14.229636 -1.72686,0.636123 c -0.258373,0.124121 -0.955778,1.015136 -2.16791,2.731779 -1.286819,1.777597 -1.94789,2.922395 -2.0579,3.495349 l -0.07267,1.586981 -0.03734,0.951967 0.147354,2.413718 2.27893,0.06539 -0.03734,1.207967 -3.712093,0 -3.308385,0.06317 0.110011,-1.142582 1.066797,-0.06538 c 0.550052,-0.06317 0.881092,-0.192832 0.991103,-0.38123 0.07267,-0.12523 0.109001,-0.892123 0.109001,-2.22532 l 0,-0.824521 -0.03633,-1.651259 C 17.93674,20.710548 17.348339,19.313074 16.209883,16.898247 15.034084,14.42136 14.261993,12.959608 13.89361,12.45204 l -2.129559,-0.509784 0,-1.080522 c 0.109002,-0.12523 1.28581,-0.12523 3.454729,-0.06317 1.50684,-0.06317 2.755306,-0.06317 3.747417,0.06317 l -0.07468,0.891015 -2.240578,0.382338 c 0.698414,1.777596 1.763193,4.255592 3.196356,7.367494 1.874213,-2.479104 2.866325,-4.064977 2.903668,-4.764269 l -1.910547,-0.508676 -0.147354,-1.14369 3.197366,0 3.011659,0.06428 -0.439032,1.079413 z"
     id="path23"
     inkscape:connector-curvature="0"
     style="fill:#f6ead5" /></svg>
