<?xml version="1.0" encoding="UTF-8" standalone="no"?>
<!-- Generator: Adobe Illustrator 16.0.0, SVG Export Plug-In . SVG Version: 6.00 Build 0)  -->

<svg
   xmlns:dc="http://purl.org/dc/elements/1.1/"
   xmlns:cc="http://creativecommons.org/ns#"
   xmlns:rdf="http://www.w3.org/1999/02/22-rdf-syntax-ns#"
   xmlns:svg="http://www.w3.org/2000/svg"
   xmlns="http://www.w3.org/2000/svg"
   xmlns:sodipodi="http://sodipodi.sourceforge.net/DTD/sodipodi-0.dtd"
   xmlns:inkscape="http://www.inkscape.org/namespaces/inkscape"
   version="1.1"
   id="Capa_1"
   x="0px"
   y="0px"
   width="38"
   height="38"
   viewBox="0 0 38 38"
   enable-background="new 0 0 38 38"
   xml:space="preserve"
   inkscape:version="0.91 r13725"
   sodipodi:docname="icon-ww.svg"><metadata
     id="metadata11"><rdf:RDF><cc:Work
         rdf:about=""><dc:format>image/svg+xml</dc:format><dc:type
           rdf:resource="http://purl.org/dc/dcmitype/StillImage" /><dc:title></dc:title></cc:Work></rdf:RDF></metadata><defs
     id="defs9" /><sodipodi:namedview
     pagecolor="#ffffff"
     bordercolor="#666666"
     borderopacity="1"
     objecttolerance="10"
     gridtolerance="10"
     guidetolerance="10"
     inkscape:pageopacity="0"
     inkscape:pageshadow="2"
     inkscape:window-width="1632"
     inkscape:window-height="735"
     id="namedview7"
     showgrid="false"
     inkscape:zoom="6.2105263"
     inkscape:cx="19"
     inkscape:cy="19"
     inkscape:window-x="49"
     inkscape:window-y="34"
     inkscape:window-maximized="0"
     inkscape:current-layer="Capa_1" /><path
     d="M 38,19 C 38,29.493993 29.491634,38 18.99899,38 8.506348,38 0,29.493993 0,19 0,8.5071154 8.506348,0 18.99899,0 29.491634,0 38,8.5071154 38,19"
     id="path3"
     inkscape:connector-curvature="0"
     style="fill:#cd7f48" /><path
     d="m 15.022364,20.064913 c 0.331049,-1.249971 0.65907,-2.502158 0.994156,-3.749913 0.270492,-1.003965 0.520798,-2.01458 0.829642,-3.000816 0.323984,-1.036102 0.949747,-1.53476 1.795538,-1.535868 0.78826,0 1.426135,0.51528 1.728924,1.556922 0.561169,1.927039 1.063799,3.877348 1.600744,5.816576 0.07872,0.29033 0.105976,0.608364 0.338114,0.931938 0.369403,-1.466057 0.716601,-2.870058 1.078938,-4.26741 0.248287,-0.962965 0.425922,-1.954742 0.793306,-2.872274 0.339124,-0.844395 0.923506,-1.227807 1.688553,-1.201212 0.755963,0.0277 1.338327,0.445467 1.67846,1.265484 0.231128,0.550741 0.220026,1.145807 0.06561,1.707628 -0.975989,3.534936 -2.017582,7.045492 -3.104595,10.534994 -0.204886,0.660446 -0.537954,1.241106 -1.04664,1.636708 -1.150597,0.894261 -2.56664,0.351277 -3.106613,-1.269917 -0.519787,-1.562463 -0.941674,-3.17036 -1.40494,-4.75831 -0.08982,-0.305845 -0.186719,-0.609472 -0.40069,-0.907559 -0.321966,1.181267 -0.649987,2.362534 -0.968925,3.5438 -0.208924,0.767934 -0.411793,1.538084 -0.713573,2.265018 -0.4017,0.969614 -1.040583,1.544734 -1.966108,1.534761 -0.921488,-0.01219 -1.5634,-0.606148 -1.967119,-1.555815 -0.467308,-1.103698 -0.73578,-2.301587 -1.087015,-3.460691 -0.685313,-2.255045 -1.343374,-4.521171 -2.0014347,-6.788405 -0.1221248,-0.42109 -0.2321381,-0.857693 -0.2826029,-1.298729 -0.1271713,-1.16132 0.3572909,-2.013472 1.2969456,-2.349236 0.919468,-0.329115 1.759203,0.07757 2.175034,1.121428 0.48648,1.222267 0.70146,2.555348 1.043611,3.836347 0.288659,1.079318 0.552086,2.16861 0.824595,3.254578 0.03937,0.0023 0.07974,0.0067 0.118088,0.01"
     id="path5"
     inkscape:connector-curvature="0"
     style="clip-rule:evenodd;fill:#ffffff;fill-rule:evenodd" /></svg>
