<?xml version="1.0" encoding="UTF-8" standalone="no"?>
<svg
   xmlns:dc="http://purl.org/dc/elements/1.1/"
   xmlns:cc="http://creativecommons.org/ns#"
   xmlns:rdf="http://www.w3.org/1999/02/22-rdf-syntax-ns#"
   xmlns:svg="http://www.w3.org/2000/svg"
   xmlns="http://www.w3.org/2000/svg"
   version="1.1"
   id="svg19348"
   viewBox="0 0 74.000001 65.000001"
   height="65"
   width="74">
  <defs
     id="defs19350" />
  <metadata
     id="metadata19353">
    <rdf:RDF>
      <cc:Work
         rdf:about="">
        <dc:format>image/svg+xml</dc:format>
        <dc:type
           rdf:resource="http://purl.org/dc/dcmitype/StillImage" />
        <dc:title></dc:title>
      </cc:Work>
    </rdf:RDF>
  </metadata>
  <g
     transform="translate(0,-987.36216)"
     id="layer1">
    <g
       transform="translate(459.9336,424.57596)"
       id="g19996">
      <path
         id="path12017"
         style="fill:#ec6b25;fill-opacity:1;fill-rule:evenodd;stroke:none"
         d="m -388.02661,582.60472 c 1.615,3.31 2.31875,6.84125 2.24,10.51 -0.1775,7.9525 -3.5075,14.39625 -9.33625,19.56375 -0.83125,0.73375 -1.14125,1.47125 -1.055,2.58625 0.3,4.13125 0.75125,8.215 2.4875,12.0325 0.0525,0.115 0.0625,0.245 0.0925,0.37625 -0.385,0.215 -0.6675,-0.0475 -0.95125,-0.1525 -4.32875,-1.59375 -8.45,-3.61 -12.21375,-6.32125 -0.60875,-0.44 -1.155,-0.55125 -1.915,-0.34 -3.6925,1.01625 -7.41875,1.84625 -11.255,2.085 -5.4625,0.345 -10.805,-0.29 -16.03625,-1.84375 -1.41625,-0.4225 -2.47375,-0.27375 -3.71375,0.59375 -3.8525,2.7025 -8.06625,4.67625 -12.58875,5.945 -0.2075,0.0575 -0.44625,0.2775 -0.62875,0.035 -0.1625,-0.21625 0.0225,-0.4525 0.1275,-0.6475 0.37375,-0.7075 0.72875,-1.42875 1.1475,-2.1075 1.9325,-3.1275 2.685,-6.59 2.85875,-10.2275 0.0263,-0.535 -0.1925,-0.87125 -0.55375,-1.2075 -1.485,-1.38 -3.045,-2.69125 -4.40375,-4.19 -4.35875,-4.8225 -6.355,-10.6 -6.20125,-17.105 0.19,-7.6575 3.51,-13.87125 8.925,-18.98 6.175,-5.8275 13.605,-8.95625 21.8875,-10.11 7.42,-1.0275 14.665,-0.295 21.7175,2.305 0.395,0.145 0.83125,0.22 1.15875,0.53 -0.5225,0.4175 -0.99375,0.0125 -1.48125,-0.1025 -0.3075,-0.0712 -0.63,-0.32 -0.825,0.16625 -0.23,0.56875 -0.7275,0.585 -1.23,0.6275 -1.04,0.0775 -2.115,-0.12125 -3.115,0.3325 -1.04125,0.0875 -2.01875,-0.3175 -3.03875,-0.3975 -0.525,-0.19875 -1.08625,-0.0825 -1.61375,-0.21 -0.645,-0.205 -1.3075,-0.0875 -1.9625,-0.12125 -0.28,0 -0.56625,-0.0138 -0.8375,-0.0775 -1.1125,-0.215 -2.2175,-0.1525 -3.3275,0.0137 -0.39,0.07 -0.7875,0.0638 -1.18375,0.0688 -1.44625,-0.055 -2.84625,0.3075 -4.25125,0.5675 -1.19375,0.13125 -2.34,0.46375 -3.485,0.80875 -0.385,0.1025 -0.7575,0.25875 -1.1475,0.35125 -0.48,0.0425 -0.92625,0.225 -1.36375,0.41625 -1.135,0.34125 -2.195,0.87375 -3.27125,1.3675 -0.30125,0.0937 -0.59375,0.19625 -0.85375,0.385 -0.15125,0.10125 -0.3075,0.19 -0.4775,0.26 -0.76125,0.2975 -1.48375,0.67875 -2.1625,1.1475 -0.73375,0.34375 -1.39875,0.80375 -2.06125,1.27875 -1.65625,1.07125 -3.1775,2.31375 -4.7825,3.71875 0.7075,0.33125 1.30125,0.195 1.8675,0.2575 3.64875,0.4075 7.30375,0.79625 10.90875,1.53625 0.25875,0.0538 0.52375,0.035 0.7825,0.0675 2.2525,0.445 4.48375,0.96375 6.68875,1.61625 0.095,0.0188 0.19375,0.0475 0.29,0.0813 0.805,0.315 1.6575,0.47375 2.46625,0.785 0.21875,0.0825 0.4425,0.155 0.66625,0.22875 0.39375,0.14375 0.79625,0.2725 1.1975,0.3975 0.58125,0.2225 1.18125,0.39625 1.77,0.605 3.785,1.4725 7.41,3.2825 10.82125,5.51875 0.695,0.45625 1.5425,0.77875 1.9075,1.65 -0.10875,0.7425 -0.65625,1.1975 -1.06875,1.74625 -0.7975,1.07125 -0.71875,2.35 0.2,2.8825 0.415,0.24 0.8825,0.4225 1.3575,0.54875 1.7625,0.0588 3.52125,-0.0575 5.28,0.0625 0.99125,0.44 1.56625,1.3125 2.17875,2.155 1.33,1.69625 2.37375,3.58125 3.3975,5.4825 0.6825,1.405 1.2325,2.865 1.6475,4.375 0.17625,0.64375 0.3875,0.675 0.82,0.2175 0.57375,-0.59875 1.06,-1.26375 1.5075,-1.96125 0.075,-0.1175 0.16625,-0.21875 0.26125,-0.3075 0.28875,-0.215 0.4525,-0.51375 0.56625,-0.84625 0.38625,-0.53875 0.82125,-1.0525 1.045,-1.69875 0.26875,-0.5425 0.59,-1.06125 0.71125,-1.6675 0.35375,-0.86625 0.855,-1.6725 1.01875,-2.61875 0.32375,-1.26625 0.72875,-2.51875 0.68875,-3.85375 0.1325,-1.2175 0.41125,-2.4375 0.10875,-3.67375 -0.0613,-0.32 -0.0838,-0.64125 0.08,-0.93875 0.43,-0.21125 0.2725,-0.60875 0.29375,-0.955 0.0863,-1.29375 0,-2.595 0.13,-3.89125 0.0525,-0.56125 0.12375,-1.0575 0.86,-1.10125 0.35625,-0.0225 -0.175,-0.5375 0.23125,-0.63125" />
      <path
         id="path12021"
         style="fill:#ea6925;fill-opacity:1;fill-rule:evenodd;stroke:none"
         d="m -388.02661,582.60472 c -0.0575,0.3875 0.0962,0.70375 -0.5275,0.99125 -0.62,0.28625 -0.42375,1.36375 -0.3625,2.0675 0.0863,1.15 -0.0962,2.27625 -0.135,3.41625 -0.0188,0.56875 -0.2475,0.0238 -0.3775,0.0325 -0.2075,-0.145 -0.2675,-0.38125 -0.3475,-0.6 -0.0325,-0.09 -0.0537,-0.18125 -0.0675,-0.275 -0.0362,-0.32375 -0.04,-0.6525 -0.165,-0.9625 -0.15,-0.45125 -0.24625,-0.92 -0.38875,-1.375 -0.255,-0.87375 -0.535,-1.74 -0.94625,-2.55625 -0.22125,-0.71 -0.5425,-1.37 -0.95875,-1.98875 -0.185,-0.3475 -0.3625,-0.70625 -0.60125,-1.0275 -0.24625,-0.40125 -0.47125,-0.82 -0.8325,-1.13125 -0.22375,-0.215 -0.40125,-0.47 -0.57875,-0.72 -0.385,-0.67375 -0.8575,-1.27125 -1.435,-1.78125 -3.195,-3.58625 -7.145,-6.02125 -11.51,-7.82625 -0.38875,-0.1625 -0.82875,-0.25 -1.03125,-0.7 0.10625,-0.51 0.53375,-0.39375 0.8625,-0.4325 0.32125,-0.04 0.6625,0.015 0.96375,-0.1175 0.3025,-0.1375 0.425,-0.34125 0.0875,-0.58125 -0.49,-0.35 -1.55625,-0.19 -1.82125,0.35125 -0.25625,0.51375 -0.61125,0.63875 -1.1025,0.6225 -0.64,-0.0713 -1.25375,-0.25625 -1.86875,-0.45 -0.5025,-0.20625 -1.065,-0.225 -1.555,-0.48125 -0.0925,-0.0687 -0.12125,-0.15625 -0.0888,-0.2675 0.92875,-0.8175 2.05375,-0.3075 3.08125,-0.43125 0.94625,-0.11625 1.02375,-0.10625 1.00625,-1.15 0.8625,0.14375 1.60125,0.725 2.49,0.70375 l -0.0163,-0.0125 c 0.8975,0.46875 1.8025,0.92 2.76125,1.23625 4.15625,1.96 7.75375,4.68375 10.80375,8.1475 1.92125,2.17875 3.57625,4.555 4.66125,7.29375" />
      <path
         id="path12025"
         style="fill:#ec6b25;fill-opacity:1;fill-rule:evenodd;stroke:none"
         d="m -403.49174,567.16409 c -1.03875,-0.1375 -1.95,-0.57625 -2.76125,-1.23625 0.9875,0.2625 1.88875,0.7225 2.76125,1.23625" />
      <path
         id="path12029"
         style="fill:#ffffff;fill-opacity:1;fill-rule:evenodd;stroke:none"
         d="m -436.68261,597.73297 c 0.575,-1.86875 1.14875,-3.74125 1.73375,-5.60875 0.47375,-1.49875 0.91125,-3.01125 1.45,-4.4875 0.5625,-1.55 1.65875,-2.295 3.13375,-2.295 1.375,0 2.48875,0.7675 3.0175,2.32625 0.97875,2.88375 1.86,5.79875 2.79,8.6975 0.14375,0.43875 0.19,0.915 0.59125,1.39875 0.64625,-2.1925 1.25375,-4.2925 1.885,-6.385 0.43375,-1.4425 0.74375,-2.9225 1.3875,-4.295 0.59,-1.26375 1.61125,-1.835 2.945,-1.79625 1.32125,0.0388 2.33625,0.665 2.9325,1.89375 0.4,0.8225 0.3825,1.71625 0.11,2.55375 -1.70125,5.2875 -3.51625,10.5375 -5.41625,15.7575 -0.35875,0.985 -0.93875,1.855 -1.825,2.4475 -2.0125,1.33625 -4.48375,0.525 -5.42625,-1.90375 -0.90375,-2.33375 -1.6375,-4.74375 -2.45,-7.1175 -0.15625,-0.455 -0.3225,-0.90875 -0.695,-1.355 -0.56875,1.76625 -1.13625,3.5325 -1.695,5.30125 -0.365,1.14625 -0.7225,2.30125 -1.24625,3.3875 -0.7025,1.44875 -1.81625,2.31 -3.4325,2.29375 -1.61,-0.015 -2.72875,-0.90375 -3.43125,-2.3275 -0.8175,-1.64875 -1.2825,-3.44375 -1.9,-5.17375 -1.19375,-3.37125 -2.34375,-6.76625 -3.49125,-10.16 -0.2175,-0.62625 -0.40875,-1.2775 -0.4925,-1.935 -0.22875,-1.74 0.62,-3.015 2.2625,-3.51625 1.6075,-0.4925 3.07,0.11375 3.79625,1.675 0.8475,1.8275 1.22125,3.82375 1.8225,5.73875 0.5025,1.615 0.9625,3.24625 1.44,4.86625 0.0675,0.0125 0.135,0.0125 0.20375,0.0188" />
      <path
         id="path12033"
         style="fill:#ffffff;fill-opacity:1;fill-rule:evenodd;stroke:none"
         d="m -409.30961,594.71172 c -0.0812,-0.2125 -0.26875,-0.25625 -0.45875,-0.32375 -1.5125,-0.54125 -1.955,-1.915 -1.0275,-3.2625 0.42875,-0.6225 0.91375,-1.20125 1.37125,-1.80375 0.0862,-0.20875 0.18125,-0.41875 0.345,-0.58 0.89,-0.96625 1.71125,-1.99125 2.53875,-3.01 0.7,-0.68375 1.2175,-1.50375 1.6325,-2.38125 0.35,-0.74625 0.19,-1.41875 -0.325,-1.5575 -0.7225,-0.18875 -0.99875,0.31875 -1.20375,0.89125 -0.145,0.41 -0.26125,0.8275 -0.40875,1.2375 -0.035,0.0912 -0.085,0.17625 -0.13375,0.26 -0.285,0.3475 -0.5725,0.685 -0.9825,0.89625 -1.38875,0.435 -2.06375,0.2075 -3,-1.005 -0.70875,-1.6275 -0.0675,-3.07625 0.56375,-4.525 0.55375,-0.5675 1.1225,-1.12125 1.72,-1.64 0.57125,-0.30625 1.13375,-0.625 1.73625,-0.86125 1.4325,-0.39625 2.835,-0.36125 4.20625,0.28 1.72625,0.80625 2.8075,2.125 3.20375,4.01875 0.11,0.6625 0.0775,1.325 0.04,1.9875 -0.0662,0.36 -0.17,0.71125 -0.2575,1.065 -0.2475,0.5775 -0.5325,1.1375 -0.81875,1.6975 -0.31625,0.50375 -0.695,0.9675 -1.02625,1.46625 -0.29125,0.3575 -0.61125,0.69 -0.8425,1.09 -0.3075,0.43125 -0.7725,0.72375 -1.08,1.26875 0.93125,0.35125 1.895,-0.0238 2.7875,0.2525 0.59125,0.25 1.04625,0.65875 1.375,1.22125 0.44,0.9375 0.22625,1.78 -0.3575,2.57125 -0.885,0.885 -1.99625,0.95875 -3.12125,0.82375 -2.16125,-0.26 -4.3175,-0.14125 -6.47625,-0.0775" />
      <path
         id="path12037"
         style="fill:#ed803d;fill-opacity:1;fill-rule:evenodd;stroke:none"
         d="m -410.76099,584.06347 c 0.77,0.97 1.74375,1.18875 2.88,0.80375 0.37,-0.17125 0.65125,-0.4275 0.80125,-0.8225 l -0.005,0 c 1.08875,0.5075 1.23125,0.92125 0.64125,1.87375 -0.785,1.0775 -1.6275,2.09875 -2.57625,3.02375 0.03,-1.10375 -1.0125,-1.33 -1.60375,-1.82375 -1.38875,-1.15875 -2.80125,-2.35375 -4.55375,-2.94125 -1.71875,-0.58125 -3.145,-1.78625 -4.875,-2.33 -0.12625,-0.0438 -0.2975,-0.075 -0.33875,-0.19125 -0.38875,-1.05125 -1.5425,-1.18875 -2.195,-1.92375 -0.32,-0.36125 -0.755,-0.53625 -1.20875,-0.6525 -0.35625,-0.09 -0.71,-0.1925 -0.9875,-0.43625 -0.7025,-0.60625 -1.365,-1.2425 -2.40125,-1.165 -0.2725,0.0213 -0.59375,-0.19625 -0.7425,-0.455 -0.5025,-0.89 -1.3025,-1.27875 -2.23875,-1.47375 -0.0663,-0.0125 -0.13,-0.0437 -0.18125,-0.0862 -1.49625,-1.3475 -3.49125,-1.855 -5.0575,-3.0925 -0.705,-0.5625 -1.515,-0.915 -2.42875,-0.9725 -0.79875,-0.045 -0.98625,-0.66375 -1.16375,-1.29375 0.0325,-0.29375 0.30375,-0.3575 0.47,-0.525 1.0875,-0.55875 2.1775,-1.10125 3.3675,-1.4075 -0.265,0.63 -0.06,1.09 0.4425,1.5125 1.31375,1.1 2.80625,1.85375 4.36375,2.5125 0.14875,0.065 0.3675,0.03 0.4675,0.145 1.26125,1.5275 3.3425,1.76875 4.7025,3.0125 1.12375,1.025 2.5975,1.29125 3.6525,2.32375 0.3875,0.375 0.9725,0.35125 1.43625,0.64 1.11375,0.69125 2.075,1.66875 3.26125,2.15875 1.505,0.62375 2.6475,1.84875 4.18625,2.38125 0.4925,0.1725 0.98125,0.0325 1.45625,0.1725 0.14375,0.33875 0.14875,0.74625 0.42875,1.0325" />
      <path
         id="path12041"
         style="fill:#ec7e37;fill-opacity:1;fill-rule:evenodd;stroke:none"
         d="m -438.92024,569.98634 c 0.40625,0.62375 0.5575,1.495 1.71625,1.16125 0.28625,-0.0825 1.13625,0.28875 1.48875,0.66125 0.625,0.66375 1.66125,0.69875 2.12375,1.55875 0.0663,0.1225 0.2975,0.25625 0.42,0.23 1.15125,-0.2525 1.6225,0.69875 2.33125,1.2675 0.315,0.25625 0.65875,0.53375 1.125,0.57625 0.79375,0.07 1.41375,0.44125 1.7875,1.20625 0.2175,0.4575 0.7175,0.80875 1.105,0.685 0.785,-0.25 1.1525,0.19375 1.60625,0.63875 0.4125,0.41125 0.84375,0.735 1.48875,0.8375 0.45375,0.0725 0.975,0.27 1.32,0.7525 0.5675,0.79 1.9375,0.71 2.11,1.96875 0.005,0.04 0.1025,0.0763 0.165,0.0963 2.50125,0.8125 4.67875,2.33625 7.115,3.3125 0.63375,0.25125 1.15125,0.85125 1.6775,1.345 0.55875,0.53 1.41,0.665 1.7625,1.49625 0.13625,0.315 0.60625,0.31 0.99625,0.1675 -0.0463,0.42125 -0.53125,0.5775 -0.43875,0.995 -0.08,0.18625 -0.1475,0.38625 -0.40375,0.3775 -1.565,-1.43875 -3.40375,-2.46125 -5.2425,-3.45875 -2.28,-1.2375 -4.57625,-2.46 -7.04,-3.30875 -0.13875,-0.0488 -0.25625,-0.18625 -0.39375,-0.285 -0.35875,-0.3225 -0.7075,-0.63125 -1.02875,-1.0175 -0.5975,-0.72375 -1.53,-0.91 -2.4275,-0.89375 -0.82625,0.02 -1.46125,-0.22 -1.9975,-0.8575 -0.31625,-0.38125 -0.7,-0.70875 -1.1825,-0.88375 -0.12125,-0.0425 -0.2275,-0.13 -0.35,-0.18625 -0.46375,-0.2175 -0.3425,-1.1325 -1.2625,-0.925 -0.4775,0.1075 -1.13375,-0.3525 -1.60125,-0.62375 -1.12625,-0.66875 -2.325,-1.23875 -3.33875,-2.09125 -0.28625,-0.23875 -0.545,-0.46125 -0.9325,-0.52 -1.50375,-0.24 -2.61125,-1.215 -3.675,-2.1925 -0.92,-0.8475 -0.83875,-1.15625 0.1875,-1.89 0.1325,-0.0675 0.26,-0.13875 0.3925,-0.20375 0.13125,-0.11375 0.26625,-0.11625 0.39625,0" />
      <path
         id="path12045"
         style="fill:#f3995f;fill-opacity:1;fill-rule:evenodd;stroke:none"
         d="m -399.73924,581.29009 c -0.9375,-3.23625 -3.805,-4.87625 -7.30875,-4.02625 0.11125,-0.74875 0.79125,-0.50625 1.30125,-0.76375 -2.49625,-1.345 -4.8125,-2.88875 -7.23875,-4.24625 -3.0475,-1.7075 -6.0425,-3.50875 -8.985,-5.39125 -0.2475,-0.1575 -0.59375,-0.305 -0.51625,-0.65625 0.095,-0.4425 0.50875,-0.3575 0.82375,-0.3425 0.45375,0.0238 0.91875,-0.1075 1.36375,0.0875 0.25875,0 0.51875,0 0.78125,0 0.0587,0.08 0.0612,0.1625 0.01,0.245 -0.38875,0.475 0.265,0.545 0.33875,0.57875 1.77,0.7325 3.435,1.6275 4.9275,2.8625 0.17375,0.14625 0.44125,0.1125 0.655,0.19375 1.50625,0.37 2.81875,1.26 3.96875,2.16125 1.6375,1.2925 3.50625,2.17625 5.25375,3.18375 2.08125,1.21375 4.14625,2.52 6.30125,3.63875 1.48375,0.7675 3.16375,1.45 4.33875,2.83875 0.6425,0.7725 1.23625,0.56375 1.525,-0.4225 0.53625,0.56875 0.86625,1.23875 0.99125,2.0175 0.11375,0.20375 0.1375,0.43625 0.23625,0.65 0.13125,0.27875 0.425,0.5875 0.0775,0.9 -0.30875,0.2725 -0.665,0.0888 -0.915,-0.0738 -1.12625,-0.75 -2.32875,-1.36125 -3.47125,-2.07375 -1.395,-0.86625 -2.8225,-1.66875 -4.25125,-2.50875 -0.0762,0.4025 0.165,0.83375 -0.2075,1.14375" />
      <path
         id="path12049"
         style="fill:#f19459;fill-opacity:1;fill-rule:evenodd;stroke:none"
         d="m -420.29961,565.95072 c -0.165,0 -0.3325,-0.02 -0.49375,0.0125 -0.52125,0.10625 -1.28875,-0.325 -1.49875,0.29625 -0.1,0.30875 0.74875,0.59875 1.17625,0.85375 1.46,0.88 2.94875,1.71125 4.31,2.74375 0.5025,0.3825 1.08125,0.54 1.6125,0.815 1.60625,0.825 3.17125,1.735 4.6525,2.7925 0.72,0.50875 1.4925,0.97125 2.30125,1.305 1.0225,0.42 1.76625,1.35625 2.8975,1.56125 0.11375,0.0175 0.205,0.16 0.165,0.3175 -0.0462,0.16125 -0.19125,0.16875 -0.3175,0.175 -0.555,0.0163 -1.1225,-0.015 -1.5525,0.4425 -0.52875,0.2725 -1.05,0.5425 -1.57625,0.815 -0.13,-0.21 -0.0125,-0.3625 0.11,-0.5125 0.0575,-0.0675 0.2025,-0.16 0.13125,-0.2225 -0.73375,-0.6625 -1.38,-1.5 -2.27375,-1.87875 -0.79125,-0.335 -1.58375,-0.6825 -2.27125,-1.16125 -1.24875,-0.8775 -2.5975,-1.5875 -3.92875,-2.25375 -1.84375,-0.9225 -3.38625,-2.3125 -5.2925,-3.15125 -1.12,-0.4975 -2.32375,-1.06375 -3.235,-1.99875 -0.20625,-0.20875 -0.58375,-0.42625 -0.2225,-0.82125 0.24625,-0.0325 0.49,-0.0125 0.73875,-0.02 0.395,-0.0462 0.80875,0.1175 1.1875,-0.11375 1.12625,-0.28375 2.25375,-0.2975 3.38,0" />
      <path
         id="path12053"
         style="fill:#ee7a34;fill-opacity:1;fill-rule:evenodd;stroke:none"
         d="m -428.23049,580.25372 c -1.80125,-0.4175 -3.60625,-0.8375 -5.41125,-1.2575 -0.50375,-0.12 -1.01,-0.23625 -1.51375,-0.3525 -1.01375,-0.34 -2.09125,-0.45125 -3.01625,-1.09625 -0.46375,-0.32875 -1.0775,0.0163 -1.63125,-0.0425 -0.89,-0.09 -1.795,0 -1.99,-1.2675 -0.0688,-0.45375 -0.5975,-0.415 -0.99625,-0.4275 -0.91875,-0.0388 -1.00375,-0.1325 -0.79125,-1.04875 0.095,-0.41125 -0.13625,-0.61625 -0.3225,-0.8825 -0.31125,-0.4325 -0.54625,-0.87125 0.035,-1.27875 0.5325,-0.6225 1.21,-0.99125 1.9775,-1.2125 0.25875,0.50375 0.60875,0.8675 1.21375,0.87875 0.0962,0 0.245,0 0.27625,0.0738 0.33875,0.765 1.245,0.84125 1.6575,1.3275 0.5175,0.61125 1.105,0.85125 1.73,1.17375 0.60625,0.30875 1.215,0.6 1.75375,1.0675 0.45875,0.40125 1.11875,0.53375 1.76625,0.50875 0.34,-0.0163 0.73875,-0.0163 0.89125,0.30125 0.45125,0.955 1.5725,0.9175 2.1625,1.58125 0.67,0.7525 1.82375,0.89875 2.20875,1.95375" />
      <path
         id="path12057"
         style="fill:#ef823f;fill-opacity:1;fill-rule:evenodd;stroke:none"
         d="m -411.22486,583.07597 c -1.385,0.6 -2.3625,-0.41625 -3.38125,-1.0075 -0.60625,-0.3525 -1.2175,-0.715 -1.81,-1.07875 -0.92875,-0.5725 -2.005,-0.93625 -2.7875,-1.84625 -0.305,-0.36375 -1.04625,-0.60375 -1.56625,-0.9175 -1.41375,-0.85125 -3.04125,-1.27625 -4.26,-2.54 -0.5125,-0.52625 -1.345,-0.8975 -2.0775,-1.22375 -1.02625,-0.4675 -1.93375,-0.99 -2.80875,-1.775 -0.59625,-0.5375 -1.645,-0.805 -2.4825,-1.19875 -1.23125,-0.57125 -2.30625,-1.34625 -3.2175,-2.3725 -0.705,-0.7925 0.665,-0.45375 0.46,-0.94375 0.43125,-0.2325 0.86375,-0.48 1.3825,-0.405 -0.035,0.48875 -0.3675,0.4525 -0.68875,0.44375 0.11875,0.185 0.38,0.28875 0.45875,0.545 0.465,1.06375 1.23875,1.72125 2.39375,1.81875 0.885,0.0738 1.37625,0.84375 2.04125,1.26625 0.605,0.37625 1.08875,0.5425 1.7325,0.4525 0.12625,0.0663 0.22375,0.16875 0.29,0.2975 0.0688,0.34875 0.0587,0.76625 0.60375,0.69375 0.1675,-0.0237 0.345,0.0325 0.4475,0.16125 0.8175,0.97375 2.05875,0.87 3.09,1.2975 0.635,0 1.11,0.27 1.52875,0.7675 0.53375,0.6325 1.35,1.0225 2.04625,1.235 1.28625,0.39 2.265,1.1725 3.31375,1.90125 0.19125,0.1325 0.33375,0.37125 0.55625,0.415 1.46375,0.26375 2.3625,1.5025 3.6075,2.15 0.3025,0.15625 0.5125,0.22 0.805,0.0275 0.18125,-0.12 0.39875,-0.44375 0.63,-0.0375 -0.3075,0.59125 -0.0738,1.26875 -0.3075,1.87375" />
      <path
         id="path12061"
         style="fill:#ee8744;fill-opacity:1;fill-rule:evenodd;stroke:none"
         d="m -411.22486,583.07597 c 0.0175,-0.67625 -0.025,-1.36 0.2075,-2.015 -0.15,-0.3925 -0.3975,-0.63625 -0.83125,-0.74375 -1.74875,-0.43625 -3.20125,-1.475 -4.65625,-2.48125 -0.28125,-0.195 -0.5825,-0.3 -0.89,-0.42 -0.89375,-0.35625 -1.73625,-0.80375 -2.39375,-1.5375 -0.1825,-0.1975 -0.3625,-0.41125 -0.62125,-0.48375 -1.55125,-0.4175 -2.9125,-1.325 -4.17125,-2.19625 -1.625,-1.12625 -3.53625,-1.74125 -5.00875,-3.0975 -0.24625,-0.22625 -0.555,-0.4125 -0.87125,-0.45 -0.99875,-0.11375 -1.5075,-1.02375 -2.32625,-1.43375 -0.42,-0.20625 -0.1975,-0.565 0.005,-0.84625 1.175,-0.3375 2.34375,-0.68375 3.55875,-0.8075 0.0613,0.52875 -0.33625,0.55125 -0.68125,0.63625 -0.19125,0.0263 -0.39,0.0463 -0.61,0.0975 0.56875,-0.001 1.0175,0.15 1.1725,0.7775 0.0575,0.22875 0.25,0.43375 0.49625,0.43375 1.07875,-0.0125 1.76125,0.725 2.5175,1.33125 0.41125,0.33 0.8775,0.5825 1.38125,0.755 0.62,0.215 1.18125,0.45875 1.5925,1.06125 0.30625,0.45125 0.9625,0.45875 1.44375,0.69125 1.09625,0.53375 1.8725,1.515 3.015,1.99125 0.74,0.3075 1.485,0.7575 2.11,1.24125 1.83125,1.4225 4.10625,1.98375 5.92875,3.375 0.2175,0.1625 0.5275,0.085 0.70875,0.3125 0.0375,0.0987 0.0263,0.185 -0.0375,0.265 -0.0138,0.62875 -0.45375,1.09125 -0.615,1.675 -0.265,0.96625 -0.29625,1.90875 0.04,2.85625 -0.405,-0.21 -0.435,-0.59625 -0.46375,-0.9875" />
      <path
         id="path12065"
         style="fill:#f08e4e;fill-opacity:1;fill-rule:evenodd;stroke:none"
         d="m -410.18611,579.53222 c -0.0113,-0.0925 -0.025,-0.18625 -0.04,-0.2875 0.11,-0.44625 0.0863,-0.78 -0.47875,-0.905 -0.99125,-0.22125 -1.7575,-0.88625 -2.59375,-1.42625 -0.7925,-0.52 -1.5075,-1.2075 -2.56,-1.18125 -0.29125,0.0125 -0.5325,-0.25875 -0.75,-0.46 -1.50125,-1.38 -3.32,-2.26625 -5.10875,-3.12875 -1.17125,-0.56625 -2.07875,-1.52375 -3.2825,-1.96 -1.74125,-0.645 -2.9625,-2.1625 -4.68875,-2.8175 -0.1775,-0.07 -0.3875,-0.12 -0.32,-0.4025 0.33375,0.0187 0.635,-0.035 0.79125,-0.4 1.43625,-0.32375 2.87,-0.6475 4.35125,-0.6025 0.0675,0.0425 0.09,0.0875 0.0637,0.13125 -0.0187,0.0425 -0.0425,0.065 -0.0637,0.065 -0.26,0.0125 -0.525,0.0125 -0.7875,0.0125 -0.41125,0.43875 -1.01375,0.3725 -1.735,0.55625 0.9575,0.36625 1.78,0.58 2.225,1.3725 0.0288,0.0562 0.10375,0.0838 0.17,0.095 1.775,0.2525 2.95875,1.6575 4.49875,2.3525 1.0175,0.46375 1.90875,0.99875 2.575,1.9125 0.235,0.3225 0.60125,0.3525 0.95,0.46 1.0275,0.33375 2.0775,0.6425 2.84375,1.4975 0.13625,0.15375 0.28125,0.32125 0.4875,0.30875 1.00375,-0.0412 1.57625,0.68875 2.30375,1.1975 0.73,0.515 1.4975,1.00375 2.355,1.3125 0.22,0.0788 0.42625,0.1775 0.54125,0.405 -0.0588,0.1475 -0.125,0.295 -0.185,0.44125 -0.53,0.47875 -0.91375,1.11625 -1.5625,1.45625" />
      <path
         id="path12069"
         style="fill:#ee7a34;fill-opacity:1;fill-rule:evenodd;stroke:none"
         d="m -401.51299,596.76247 c -0.5975,-0.66625 -1.195,-1.335 -1.79125,-2.00375 0.9125,-0.26125 1.88625,0.0637 2.8,-0.30375 0.24,-0.0963 0.635,0.13375 0.57125,0.3925 -0.3275,1.33375 0.81875,1.5575 1.49625,1.7925 1.5025,0.52 2.7975,1.39375 4.0975,2.23 0.61875,0.40125 1.24,0.74125 1.915,0.92375 0.46625,0.1225 0.84875,0.29875 1.20625,0.59125 -0.1475,0.5975 -0.40125,1.14375 -0.79,1.615 -0.37625,0.65125 -0.7975,1.0575 -1.62625,0.60625 -0.38375,-0.20375 -0.88625,-0.11625 -1.3425,0.0712 -0.73,0.30625 -1.5525,0.0275 -1.64375,-0.6975 -0.15875,-1.25625 -1.135,-1.34 -1.94375,-1.61875 -0.445,-0.15625 -0.7875,-0.34375 -0.97875,-0.745 -0.51125,-1.05875 -1.2025,-1.98125 -1.97,-2.85375" />
      <path
         id="path12073"
         style="fill:#ef8442;fill-opacity:1;fill-rule:evenodd;stroke:none"
         d="m -432.78249,567.37034 c 0.03,0.24 -0.25875,0.655 0.0863,0.695 0.66625,0.0725 0.85125,0.83 1.29,0.93625 1.91125,0.46125 3.11875,2.25625 5.055,2.6125 0.0625,0 0.155,0.0125 0.18125,0.0537 0.89,1.36375 2.585,1.49625 3.70375,2.51625 0.29375,0.27 0.73625,0.43125 1.1375,0.51625 1.1825,0.2575 1.82,1.33125 2.81125,1.8625 1.78875,0.95625 3.56125,1.94375 5.27375,3.04875 0.44875,0.29 1.1075,0.44875 1.72125,0.53 0.3875,0.0525 0.8575,0.32125 0.505,0.91875 -0.54125,0.5525 -0.825,0.845 -1.77,0.19 -0.96875,-0.675 -1.795,-1.725 -3.195,-1.92875 -0.83375,-0.12625 -1.49,-1.175 -2.3575,-1.6425 -0.565,-0.3075 -1.48125,-0.39125 -1.68375,-0.6325 -0.62625,-0.77125 -1.81125,-0.59625 -2.24,-1.59875 -0.19625,-0.455 -0.74,-0.47875 -1.2175,-0.43 -1.24125,-1.05875 -2.905,-1.37375 -4.155,-2.41625 -0.0688,-0.0662 -0.13125,-0.13375 -0.19875,-0.20125 -1.435,-0.845 -3.0025,-1.4675 -4.3425,-2.465 -0.6375,-0.47 -1.3875,-0.67125 -1.98875,-1.16 -1.1225,-0.84625 0.30625,-0.655 0.39625,-1.00875 0.32875,-0.13125 0.66,-0.26375 0.9875,-0.39625" />
      <path
         id="path12077"
         style="fill:#ec7e37;fill-opacity:1;fill-rule:evenodd;stroke:none"
         d="m -391.21749,600.38559 c -0.9825,-0.09 -2.35875,-0.98625 -3.21125,-1.325 -0.69375,-0.27375 -1.06375,-1.27125 -1.99375,-0.945 -0.66,-1.14 -2.13,-0.83125 -2.9525,-1.68875 -0.15625,-0.16625 -0.34625,-0.4 -0.535,-0.415 -0.64875,-0.0438 -0.6175,-0.415 -0.3875,-0.8025 0.4175,-0.68875 -0.12375,-0.68875 -0.455,-0.59125 -0.8525,0.24 -1.70625,0.06 -2.55125,0.14125 -2.00125,-0.0162 -4.00375,-0.03 -6.00625,-0.0475 0.22875,-0.37625 0.59125,-0.21 0.895,-0.21 2.13125,0 4.2625,0 6.39625,0.015 0.84625,0.0125 1.6225,-0.17125 2.25875,-0.78 0.37875,-0.41 0.595,-0.92875 0.8175,-1.37375 0.14,-0.0363 0.22125,-0.03 0.24625,0.0325 0.855,2.10375 3.085,2.31875 4.63875,3.44875 0.61875,0.4475 1.125,1.11125 1.98125,1.19 0.20375,0.0187 0.32125,0.31875 0.3925,0.54375 0.22625,0.7175 0.5675,0.86125 1.09625,0.26125 0.0888,-0.0962 0.2225,-0.13 0.35625,-0.0712 -0.0725,0.97375 -0.67375,1.74125 -0.98625,2.6175" />
      <path
         id="path12081"
         style="fill:#ef8845;fill-opacity:1;fill-rule:evenodd;stroke:none"
         d="m -401.75711,587.48997 c 0.26125,-0.52625 0.61625,-0.97875 1.015,-1.405 0.15125,-0.135 0.2475,-0.315 0.32875,-0.495 0.275,-0.60625 0.48,-0.88 1.2825,-0.46 0.7525,0.39875 1.48375,0.82 2.19875,1.2775 0.13625,0.0875 0.26625,0.22875 0.4275,0.24875 1.5075,0.20625 2.425,1.52625 3.74375,2.0475 1.015,0.40375 1.80375,1.14875 2.71625,1.73125 0.35125,-0.68 -0.0713,-1.39375 0.4075,-1.92375 0.2325,0.14625 0.1825,0.38625 0.2075,0.60125 -10e-4,0.3325 -0.004,0.66625 -0.007,1.0025 0.2,0.75375 0.1175,1.52625 0.0675,2.2825 -0.0562,0.78875 -0.40375,0.9975 -1.1375,0.64625 -0.78125,-0.3725 -1.5475,-0.7975 -2.31875,-1.2 -2.5625,-1.3275 -5.03375,-2.8375 -7.52875,-4.295 -0.52875,-0.31 -0.9475,0.10625 -1.4025,-0.0588" />
      <path
         id="path12085"
         style="fill:#eb7b35;fill-opacity:1;fill-rule:evenodd;stroke:none"
         d="m -428.23049,580.25372 c -0.46125,-0.34625 -0.8075,-0.88125 -1.5,-0.8325 -0.23375,0.015 -0.47125,-0.125 -0.2175,-0.44875 0.0987,-0.13 0.0188,-0.30625 -0.11625,-0.30375 -0.78125,0.0125 -1.16125,-0.925 -1.9725,-0.84875 -0.24375,0.0213 -0.4775,-0.1325 -0.50125,-0.395 -0.0813,-0.79875 -0.53875,-0.7425 -1.17875,-0.7625 -0.7475,-0.0213 -1.4925,-0.2175 -2.1175,-0.86875 -0.47375,-0.4875 -1.25375,-0.665 -1.905,-0.9725 -0.0537,-0.025 -0.1675,0.0213 -0.19,-0.0125 -0.59,-0.915 -1.89,-0.97 -2.35625,-1.98625 -0.15875,-0.34875 -0.26375,-0.30375 -0.56375,-0.28375 -0.75,0.0425 -1.04125,-0.44 -1.04125,-1.155 0.59375,-0.65625 1.39125,-0.92 2.18125,-1.20125 -0.73125,0.88125 -0.6825,1.52 0.50875,2.25625 0.66125,0.4075 1.21125,1.02875 1.98625,1.24 1.90125,0.52875 3.3725,1.83 5.01,2.83875 0.58,0.36 1.31375,0.3125 1.8925,0.80875 0.4625,0.3975 0.38875,-0.40375 0.84875,-0.65875 -0.3525,1.73625 1.31125,1.665 1.96375,2.5275 0.54375,0.7225 1.27,0.8725 2.1925,0.92625 0.99625,0.0688 2.2925,0.0838 2.71625,1.51625 0.04,0.14875 0.58375,0.185 0.49,0.62625 -0.63375,-0.0675 -1.23125,-0.255 -1.775,-0.6025 -0.36125,-0.24625 -0.79625,-0.25375 -1.1875,-0.405 -0.2175,-0.0125 -0.45375,0.0412 -0.595,-0.19625 -0.815,-0.41875 -1.71875,-0.54125 -2.5725,-0.81125 l 0,10e-4 z" />
      <path
         id="path12089"
         style="fill:#ed782d;fill-opacity:1;fill-rule:evenodd;stroke:none"
         d="m -443.86774,572.59984 c -0.31625,0.5375 -0.1225,0.91125 0.31375,1.2925 0.34375,0.29875 0.71625,0.69375 0.10875,1.12875 -0.17125,0.12375 -0.1825,0.27 -0.0512,0.42 0.1375,0.1675 0.33875,0.19625 0.54,0.1625 0.87,-0.14625 1.62,-0.14 1.5025,1.11 -0.0238,0.26 0.21625,0.29875 0.40375,0.35375 0.755,0.24125 1.52625,0.2525 2.29375,0.0975 0.18875,-0.035 0.4125,-0.205 0.54375,-0.0438 0.805,0.9625 2.12375,0.8375 3.0575,1.5225 -1.6475,-0.23625 -3.31625,-0.3775 -4.9375,-0.73375 -1.805,-0.39125 -3.635,-0.4275 -5.44375,-0.67 -0.97625,-0.13375 -1.95,-0.27125 -2.94125,-0.2275 -0.24875,0.0125 -0.5625,-0.0738 -0.63,-0.37625 -0.0638,-0.2925 0.24625,-0.34625 0.4175,-0.48 1.315,-1.05 2.6275,-2.1025 3.9425,-3.15 0.26,-0.21 0.54125,-0.37625 0.88,-0.40625" />
      <path
         id="path12093"
         style="fill:#ed803c;fill-opacity:1;fill-rule:evenodd;stroke:none"
         d="m -390.23124,597.76834 c -0.1875,0.09 -0.335,0.2275 -0.3825,0.435 -0.0687,0.34875 -0.31,0.38 -0.59375,0.36625 -0.29375,-0.0175 -0.55125,-0.13 -0.57125,-0.44375 -0.0537,-0.7625 -0.4075,-1.02625 -1.17125,-1.0775 -0.61875,-0.0438 -0.84625,-0.85 -1.48,-1.12375 -0.7025,-0.295 -1.29625,-0.855 -2.06875,-1.0725 -1.195,-0.33625 -1.84625,-1.27125 -2.43,-2.645 0.085,0.94875 -0.375,1.23625 -0.83125,1.52875 0.41125,-0.75375 0.49625,-1.54125 0.21625,-2.36125 -0.01,-0.35375 -0.75375,-0.60125 -0.2175,-1.0025 0.56125,-0.4225 1.23125,-0.12875 1.43375,0.3675 0.56375,1.37375 1.85125,1.665 2.90625,2.3425 1.16125,0.75125 2.3675,1.40875 3.54875,2.12125 0.0275,0.0163 0.0513,0.0412 0.0775,0.0612 1.16375,0.83375 1.56125,0.69375 1.84125,-0.6325 0.0275,-0.13 0.0412,-0.26375 0.0725,-0.39375 0.085,-0.2225 0.0775,-0.535 0.4425,-0.49625 -0.045,1.38875 -0.315,2.72875 -0.7925,4.02625" />
      <path
         id="path12097"
         style="fill:#ef8341;fill-opacity:1;fill-rule:evenodd;stroke:none"
         d="m -389.43899,593.74247 c -0.22875,0.14625 -0.1875,0.385 -0.1975,0.6025 -0.2825,0.49375 -0.77,0.48375 -1.12375,0.25 -0.7225,-0.48125 -1.4625,-0.825 -2.30625,-1.0475 -0.49625,-0.1275 -0.94625,-0.5625 -1.4075,-0.85875 -2.06,-1.345 -4.14125,-2.64 -6.28875,-3.84 -0.0575,-0.03 -0.13375,-0.055 -0.16125,-0.1125 -0.385,-0.82125 -0.885,-0.54125 -1.39875,-0.1475 -0.0987,0.001 -0.18125,-0.0337 -0.24625,-0.10625 0.1875,-0.3975 0.45875,-0.72875 0.8125,-0.9925 0.58375,-0.62125 1.07125,-0.34875 1.755,-0.0225 1.81625,0.8675 3.34625,2.235 5.1725,3.02625 0.78,0.3425 1.475,1.0075 2.165,1.1475 0.9575,0.1975 1.5075,0.85625 2.28,1.22375 0.61,0.29375 0.86625,0.0125 0.90625,-0.5425 0.0537,-0.73375 0.0337,-1.4725 0.0412,-2.2075 0.3375,0.95375 0.2575,1.92375 0.0562,2.88375 -0.0575,0.24875 -0.21125,0.48 -0.0587,0.74375" />
      <path
         id="path12101"
         style="fill:#f29f68;fill-opacity:1;fill-rule:evenodd;stroke:none"
         d="m -412.81424,566.81259 c 10e-4,0.05 0.0125,0.10375 0.0188,0.15125 -0.21625,0.27 -0.54375,0.19 -0.92375,0.30125 1.21125,0.21625 2.05375,0.91375 2.86,1.66625 0.27,0.2525 0.5625,0.43 0.91375,0.55875 0.875,0.3175 1.66,0.81125 2.3575,1.43125 0.45375,0.405 1.01,0.6075 1.50375,0.91625 1.245,0.78 2.72875,1.14625 3.79125,2.235 0.34375,0.35375 0.81875,0.4125 1.20875,0.6375 0.6025,0.3575 1.54875,0.42375 1.44125,1.5075 -0.3075,0.4375 -0.60375,0.18 -0.93625,0.0175 -1.89875,-0.95 -3.76875,-1.99125 -5.58375,-3.07375 -1.71,-1.02125 -3.4975,-1.93625 -5.13125,-3.10125 -0.6425,-0.46375 -1.28875,-1.035 -2.16625,-1.055 -1.6125,-0.15875 -2.73375,-1.25875 -3.9375,-2.18875 -0.14875,-0.11625 -0.3575,-0.35125 -0.0238,-0.54875 0.49375,0.0325 0.99625,-0.1025 1.47875,0.0838 1.0725,-0.0575 2.07,0.39375 3.12875,0.46125" />
      <path
         id="path12105"
         style="fill:#ed7932;fill-opacity:1;fill-rule:evenodd;stroke:none"
         d="m -401.51299,596.76247 c 0.87375,0.59125 1.385,1.4725 1.8775,2.38 0.26875,0.49625 0.44875,1.10875 1.29125,0.91 0.4575,-0.11 0.68625,0.59375 1.2525,0.6175 0.60375,0.025 0.64,0.5075 0.59375,1.09125 -0.0462,0.5825 0.8875,1.0575 1.35625,0.71 0.53375,-0.39625 1.2225,-0.3475 1.57125,-0.1325 0.73875,0.45875 1.07875,-0.0888 1.5625,-0.33875 -0.0537,0.75625 -0.675,1.2 -0.995,1.81 -0.34875,0.1525 -0.40875,0.52875 -0.59,0.8075 -0.0688,0.0662 -0.1325,0.13375 -0.19875,0.2 -0.47625,0.30375 -0.9425,0.34625 -1.3325,-0.115 -0.85875,-1.0275 -2.12,-1.53875 -3.02125,-2.50125 -1.12625,-1.81375 -2.24625,-3.62625 -3.3675,-5.43875" />
      <path
         id="path12109"
         style="fill:#ed782c;fill-opacity:1;fill-rule:evenodd;stroke:none"
         d="m -398.14499,602.20072 c 0.4875,-0.0325 0.9175,0.0137 1.04375,0.6375 0.0275,0.13 0.22,0.31625 0.33625,0.31625 0.955,0 1.355,0.74125 1.80875,1.38625 0.33125,0.47625 0.78,0.18625 1.16375,0.2775 -0.48,0.965 -1.2025,1.73375 -1.945,2.4875 -0.4075,0.41625 -0.58875,0.265 -0.7025,-0.2225 -0.3925,-1.69125 -1.125,-3.26125 -1.705,-4.8825" />
      <path
         id="path12113"
         style="fill:#ee7a34;fill-opacity:1;fill-rule:evenodd;stroke:none"
         d="m -428.23049,580.25247 c 0.91125,0.10125 1.81625,0.2 2.5725,0.81125 -0.87125,-0.2175 -1.7775,-0.34 -2.5725,-0.81125" />
      <path
         id="path12117"
         style="fill:#ed782c;fill-opacity:1;fill-rule:evenodd;stroke:none"
         d="m -393.59299,604.61772 c -0.0225,-0.43625 0.0775,-0.7775 0.595,-0.8075 -0.165,0.29625 -0.23875,0.66 -0.595,0.8075" />
      <path
         id="path12121"
         style="fill:#ee7a34;fill-opacity:1;fill-rule:evenodd;stroke:none"
         d="m -425.06274,581.25959 c 0.4425,-0.0187 0.87625,0.0125 1.1875,0.405 -0.435,-0.0225 -0.84375,-0.115 -1.1875,-0.405" />
      <path
         id="path12125"
         style="fill:#eb7b35;fill-opacity:1;fill-rule:evenodd;stroke:none"
         d="m -438.92024,569.98634 c -0.13125,0 -0.265,0 -0.39625,0 0.20625,-0.25625 0.47875,-0.37125 0.795,-0.4025 -0.0725,0.1925 -0.2075,0.32875 -0.39875,0.40625" />
      <path
         id="path12129"
         style="fill:#f2a66f;fill-opacity:1;fill-rule:evenodd;stroke:none"
         d="m -408.23786,568.16634 c 2.17125,0.96375 4.3625,1.87125 6.385,3.1475 2.3325,1.47375 4.51625,3.13 6.295,5.28375 0.1875,0.8275 -0.36125,0.53 -0.68375,0.42375 -0.825,-0.26375 -1.53,-0.78 -2.23875,-1.2525 -1.70375,-1.13875 -3.64,-1.85125 -5.30375,-3.05125 -1.71625,-1.2375 -3.6275,-2.1025 -5.45875,-3.11875 -1.02,-0.56875 -2.0225,-1.215 -2.82375,-2.13625 0.3025,-0.2725 0.57375,-0.24125 0.84625,-0.0925 0.65625,0.1375 1.31,0.275 1.96375,0.41 0.3175,0.18625 0.7725,0.0125 1.01875,0.38625" />
      <path
         id="path12133"
         style="fill:#f19d64;fill-opacity:1;fill-rule:evenodd;stroke:none"
         d="m -417.93749,566.16559 c 0.0888,0.1575 0.235,0.18625 0.39625,0.19125 1.27875,0.99375 2.43125,2.22125 4.15625,2.41875 6.7,4.28125 13.785,7.89375 20.50375,12.21 0.0387,-0.29125 -0.145,-0.5575 0.09,-0.76125 0.35125,0.2425 0.50625,0.61 0.5925,1.01375 -0.04,0.385 0.48875,0.92125 -0.135,1.135 -0.62,0.215 -1.3225,-0.0163 -1.6425,-0.58125 -0.3675,-0.65875 -0.91625,-0.97625 -1.52625,-1.16875 -0.62375,-0.19125 -1.08125,-0.5625 -1.5925,-0.92 -1.24375,-0.8725 -2.5925,-1.55625 -3.97625,-2.19 -0.7875,-0.36125 -1.44625,-1.0125 -2.1675,-1.5325 -0.27125,-0.205 -0.48375,-0.785 -0.89,-0.13625 -0.0838,0.12875 -0.2225,0.12375 -0.31375,-0.025 -0.79625,-1.31125 -2.19,-2.00375 -3.4475,-2.37625 -1.0775,-0.31625 -1.515,-1.24625 -2.47375,-1.63375 -1.11125,-0.44625 -2.11,-1.2725 -3.22125,-1.8225 -0.80375,-0.54875 -1.71,-0.95375 -2.46,-1.56125 -0.7975,-0.645 -1.66875,-1.0475 -2.60375,-1.34875 -0.47,-0.14625 -0.745,-0.39125 -0.67625,-0.92 0.465,0.0125 0.9275,0.0125 1.3875,0.0125" />
      <path
         id="path12137"
         style="fill:#f2a26b;fill-opacity:1;fill-rule:evenodd;stroke:none"
         d="m -411.21999,567.37034 -0.79,0 c 1.38625,0.885 2.49125,1.765 3.8125,2.42875 1.69,0.8525 3.47875,1.6475 4.91125,2.95875 0.54125,0.49875 1.2,0.68375 1.8125,0.9775 1.87375,0.90875 3.50625,2.2375 5.3975,3.1075 0.3575,0.16625 0.4725,0.125 0.515,-0.24125 0.61125,0.48375 1.12375,1.0525 1.39875,1.8025 0.0637,0.2925 -0.14125,0.365 -0.335,0.3525 -0.89375,-0.0512 -1.91,-0.11625 -2.47125,-0.8075 -0.71,-0.87 -1.60625,-1.07875 -2.55,-1.34125 -0.1375,-0.0875 -0.2575,-0.1875 -0.2125,-0.38 -0.0975,-0.99875 -0.9825,-1.09375 -1.62875,-1.3575 -0.49875,-0.20125 -0.98625,-0.305 -1.26125,-0.8325 -0.07,-0.13125 -0.245,-0.24 -0.39125,-0.2875 -1.295,-0.39375 -2.27,-1.41 -3.585,-1.82625 -0.7875,-0.24875 -1.3525,-1.2125 -2.1425,-1.49 -1.855,-0.64625 -2.99375,-2.50625 -4.965,-2.8925 -0.18625,-0.035 -0.305,-0.1825 -0.31125,-0.345 -0.005,-0.315 0.2625,-0.21875 0.43125,-0.22875 0.265,-0.0188 0.52625,0 0.78875,0 0.56375,-0.015 1.09,0.12 1.57625,0.40625" />
      <path
         id="path12141"
         style="fill:#f19459;fill-opacity:1;fill-rule:evenodd;stroke:none"
         d="m -399.73924,581.29009 c 0.195,-0.5525 -0.325,-1.085 -0.0437,-1.64 0.43375,0.27625 0.86625,0.5625 1.31125,0.8325 2.12125,1.2975 4.36875,2.38375 6.37375,3.88125 0.1975,0.14875 0.48875,0.17125 0.71875,0.27875 0.15375,0.0675 0.28,0.20125 0.42875,0.0175 0.1225,-0.1525 0.0638,-0.3075 -0.0125,-0.46 -0.15,-0.29375 -0.3025,-0.595 -0.245,-0.9475 0.57125,0.7825 0.81,1.6925 0.98125,2.6275 0.10875,0.4525 0.30375,0.94875 -0.18875,1.2675 -0.51625,0.33125 -0.93625,10e-4 -1.33375,-0.31875 -0.7475,-0.6075 -1.56125,-1.095 -2.46,-1.4575 -1.23375,-0.49625 -2.28375,-1.32625 -3.3675,-2.085 -0.29875,-0.205 -0.595,-0.4075 -0.91875,-0.57875 -0.5425,-0.27875 -0.79625,-0.1075 -0.83625,0.485 -0.0225,0.1025 -0.07,0.19125 -0.13125,0.27 -0.0913,0.0775 -0.1775,0.08 -0.2725,0.0125 -0.002,-0.725 -0.004,-1.4575 -0.004,-2.1825" />
      <path
         id="path12145"
         style="fill:#f08e4e;fill-opacity:1;fill-rule:evenodd;stroke:none"
         d="m -399.53174,583.47634 c 0,-0.0675 0.001,-0.1325 0.001,-0.2 1.24875,0.445 2.425,1.0225 3.48375,1.8425 0.10375,0.0813 0.20125,0.18875 0.3325,0.2025 1.58875,0.16125 2.5575,1.555 3.9875,2.085 0.6025,0.2225 0.97125,1.0675 1.82375,0.83125 0.0937,-0.015 0.18,0 0.24875,0.0725 0.006,0.0688 0.0113,0.1375 0.0175,0.1975 0,0.34 0.0387,0.6775 -0.009,1.0025 -0.0562,0.44125 0.27125,1.085 -0.20375,1.26125 -0.2775,0.10375 -0.92375,-0.265 -1.13125,-0.59875 -0.6625,-1.08375 -1.975,-1.02875 -2.815,-1.80875 -0.3975,-0.37625 -1.07875,-0.40875 -1.3275,-1.0425 -0.0412,-0.11125 -0.275,-0.215 -0.415,-0.205 -1.08875,0.095 -1.72875,-0.695 -2.49125,-1.255 -0.275,-0.19875 -0.65125,-0.27625 -0.99125,-0.34875 -0.32875,-0.0725 -0.6925,-0.0525 -0.61875,-0.59875 -0.565,0.28625 -0.58,0.9725 -1.10125,1.17125 0.25,-0.54 0.50625,-1.07625 0.76375,-1.61625 0.24625,-0.2875 0.14875,-0.73375 0.445,-0.9925" />
      <path
         id="path12149"
         style="fill:#f19e67;fill-opacity:1;fill-rule:evenodd;stroke:none"
         d="m -399.73074,576.22784 c 0.0688,0.0638 0.135,0.13 0.19875,0.19875 1,0.565 1.99875,1.12125 2.96875,1.745 0.83,0.53375 1.76,1.385 2.96875,0.8875 0.42625,0.27375 0.64375,0.7025 0.80375,1.1675 -0.0462,0.465 0.4575,0.81 0.31625,1.34125 -1.73,-1.28125 -3.665,-2.11625 -5.3875,-3.30125 -0.8775,-0.60625 -1.83125,-1.06375 -2.695,-1.70375 -1.115,-0.8325 -2.3725,-1.455 -3.6475,-2.02625 -1.6675,-0.7475 -3.15625,-1.8275 -4.73375,-2.7375 -1.25,-0.715 -2.26,-1.83625 -3.68875,-2.2675 -0.3475,-0.1075 -0.57625,-0.4275 -0.75875,-0.75625 0.8425,-0.1775 1.31,0.5625 1.915,0.89 1.5025,0.7975 3.02375,1.6275 4.39625,2.58875 1.37625,0.96625 2.92875,1.535 4.30625,2.47875 0.89625,0.61625 1.8575,1.3575 3.0375,1.495" />
      <path
         id="path12153"
         style="fill:#f09054;fill-opacity:1;fill-rule:evenodd;stroke:none"
         d="m -389.83211,588.30784 c -0.42625,0.78625 -0.97625,-0.075 -1.44625,0.1075 -0.23375,-1.29625 -1.57125,-1.10625 -2.315,-1.7325 -0.64625,-0.53875 -1.53625,-0.8525 -2.29375,-1.23 -0.6575,-0.32875 -1.495,-0.615 -2.0625,-1.1575 -0.48125,-0.455 -1.2325,-0.4025 -1.58125,-1.01875 0,-0.23625 -10e-4,-0.46625 0.004,-0.70375 0.015,-0.465 0.18625,-0.53 0.63125,-0.3675 1.0575,0.39 1.8625,1.17875 2.7875,1.76875 0.91,0.57875 1.8275,1.0825 2.8175,1.5 0.58875,0.2475 1.10875,0.68875 1.6275,1.09 0.335,0.25875 0.6025,0.69375 1.09,0.47375 0.51125,-0.23 0.29875,-0.74875 0.3475,-1.1575 0.27125,0.43375 0.33,0.9325 0.3925,1.42375 0.15,0.33625 0.145,0.6675 10e-4,1.00375" />
      <path
         id="path12157"
         style="fill:#f29f68;fill-opacity:1;fill-rule:evenodd;stroke:none"
         d="m -393.59424,579.05859 c -0.13375,0.685 -0.615,0.46625 -1.00875,0.3775 -0.59,-0.1375 -1.31125,-0.42625 -1.6275,-0.73375 -0.98625,-0.96875 -2.39875,-1.2375 -3.30125,-2.275 1.03625,0.135 1.9375,0.3125 2.69375,1.30625 0.53375,0.6975 1.66375,0.91125 2.67625,0.67375 0.185,0.2125 0.37875,0.435 0.5675,0.65125" />
      <path
         id="path12161"
         style="fill:#ec6b25;fill-opacity:1;fill-rule:evenodd;stroke:none"
         d="m -408.23786,568.16634 c -0.36125,-0.0688 -0.71875,-0.14875 -1.01875,-0.38625 0.3575,-0.035 0.7425,0.12 0.77875,-0.54875 0.0225,-0.43375 0.59125,-0.7125 0.99125,-0.62875 0.52375,0.11125 1.23875,-0.23875 1.56875,0.43125 0.345,0.71625 -0.26875,0.80625 -0.7225,0.9225 -0.52,0.1325 -1.10375,-0.185 -1.5975,0.21" />
      <path
         id="path12165"
         style="fill:#ef8845;fill-opacity:1;fill-rule:evenodd;stroke:none"
         d="m -389.83211,588.30784 c 0,-0.33625 -10e-4,-0.6675 -10e-4,-1.00375 0.3225,0.2875 0.16,0.665 0.18,1.00625 -0.0588,0 -0.12,0 -0.17875,0" />
      <path
         id="path12169"
         style="fill:#ee813f;fill-opacity:1;fill-rule:evenodd;stroke:none"
         d="m -402.30399,588.50809 c 0.47125,-0.725 0.8075,-1.0275 1.48375,-0.0512 0.36625,0.5325 1.22,0.8675 1.85125,1.14625 1.325,0.57625 2.2675,1.805 3.76,2.0875 0.55375,0.10375 0.6925,1.1275 1.5125,0.94625 0.60125,1.23625 2.275,0.62625 2.97,1.7725 0.11125,0.185 0.73625,0.23625 1.09,-0.0638 -0.0538,0.19375 -0.1175,0.38375 -0.16,0.58125 -0.27,1.27625 -0.325,1.35125 -0.615,1.115 -0.44,-0.35375 -1.17125,0.235 -1.46125,-0.52875 -0.0575,-0.1525 -0.3075,-0.235 -0.47625,-0.33375 -1.7475,-1.02 -3.47875,-2.06375 -5.25,-3.0375 -0.345,-0.18875 -0.61,-0.2975 -0.615,-0.73125 -10e-4,-0.12375 -0.0662,-0.26375 -0.13625,-0.375 -0.2825,-0.44625 -0.68875,-0.77625 -1.21125,-0.56875 -0.60125,0.24125 0.23625,0.5925 0.0138,0.9075 -0.3675,-0.4 -0.7375,-0.78875 -1.2375,-1.02375 0.2175,-0.31875 0.53875,-0.3425 0.77875,-0.3225 -0.47875,-0.41 -1.47375,-0.3825 -1.47375,-1.4475 -0.115,0.0875 -0.006,0.2625 -0.0513,0.405 -0.0637,0.19625 -0.145,0.4225 -0.37125,0.38125 -0.49375,-0.0838 -0.4325,-0.48875 -0.40125,-0.85875" />
      <path
         id="path12173"
         style="fill:#ed8744;fill-opacity:1;fill-rule:evenodd;stroke:none"
         d="m -406.44336,585.91897 c 0.545,-0.89 -0.22,-1.32375 -0.64125,-1.87375 0.1875,-0.6075 0.34875,-1.22125 0.5625,-1.815 0.24,-0.66125 0.75375,-0.95125 1.41625,-0.74625 0.7325,0.2275 0.80625,0.86875 0.62,1.48 -0.36875,1.1675 -1.08625,2.1225 -1.9575,2.955" />
      <path
         id="path12177"
         style="fill:#ed803c;fill-opacity:1;fill-rule:evenodd;stroke:none"
         d="m -402.30399,588.50809 c 0.125,0.24125 0.23875,0.4825 0.3825,0.77125 0.33,-0.3075 0.1425,-0.79125 0.5775,-1.025 -0.245,1.2425 1.18875,0.98125 1.4525,1.78375 -0.24125,0.27 -0.57,0.27875 -0.89375,0.3125 l -3.36125,0 c 0.52875,-0.85125 1.035,-1.37375 1.5775,-1.86875 0.09,0.0125 0.1775,0.0187 0.265,0.0263" />
      <path
         id="path12181"
         style="fill:#ed8744;fill-opacity:1;fill-rule:evenodd;stroke:none"
         d="m -407.07936,584.04522 c -0.009,0.53625 -0.28875,0.7925 -0.8025,0.82125 0.26875,-0.27125 0.53875,-0.54875 0.8025,-0.82125" />
      <path
         id="path12185"
         style="fill:#f09054;fill-opacity:1;fill-rule:evenodd;stroke:none"
         d="m -399.53174,583.47634 c -0.1025,0.35125 -0.09,0.75875 -0.445,0.9925 0.0788,-0.33125 0.15875,-0.6625 0.24125,-0.99625 0.0663,0 0.135,0 0.20375,0" />
      <path
         id="path12189"
         style="fill:#f19c62;fill-opacity:1;fill-rule:evenodd;stroke:none"
         d="m -419.32299,566.15697 c 0.25,0.32625 0.3675,0.79125 0.8925,0.8225 1.07125,0.0638 1.815,0.75375 2.5925,1.39125 0.37125,0.30125 0.74,0.63375 1.28875,0.62 0.63625,-0.0163 0.5275,0.775 0.965,0.995 -0.46125,0.0213 -0.805,-0.11 -1.20625,-0.4425 -1.29625,-1.0625 -2.73875,-1.90375 -4.35625,-2.38375 -0.46875,-0.13875 -0.47,-0.8025 -1.0525,-0.8075 0.2375,-0.295 0.475,-0.14875 0.68125,-0.195 l 0.195,0" />
      <path
         id="path12193"
         style="fill:#f09054;fill-opacity:1;fill-rule:evenodd;stroke:none"
         d="m -408.43799,577.63534 c -1.4525,-0.33875 -2.66125,-1.145 -3.77125,-2.1275 -0.1475,-0.1325 -0.29875,-0.37875 -0.445,-0.37625 -1.5925,0.0238 -2.445,-1.62 -3.83,-1.82625 -1.34,-0.2 -1.9525,-1.07125 -2.725,-1.935 -0.2375,-0.275 -0.77875,-0.26125 -1.16,-0.41875 -0.8225,-0.33875 -1.6275,-0.80375 -2.18,-1.45 -0.64,-0.755 -1.5975,-0.46875 -2.29625,-1.00625 -0.24875,-0.19125 -0.59875,-0.0413 -0.7775,-0.6075 -0.16625,-0.5275 -0.96,-0.5875 -1.5125,-0.79375 -0.215,-0.0825 -0.6325,-0.0288 -0.59125,-0.39375 0.0437,-0.38375 0.43375,-0.30875 0.71875,-0.34375 0.45375,-0.0512 0.90125,-0.12625 1.355,-0.1925 0.38875,1.0625 1.4725,1.21375 2.265,1.70625 1.23625,0.77875 2.54,1.42375 3.8175,2.12625 0.0588,0.0288 0.1475,0.0288 0.17625,0.0738 0.7975,1.16875 2.1625,1.48 3.27875,2.0775 1.82,0.98 3.43,2.35125 5.4475,2.9775 0.8375,0.2575 1.33375,1.1125 2.02125,1.65375 0.26,0.205 0.51625,0.3675 0.82,0.50875 -0.1075,0.30375 -0.37125,0.30375 -0.61125,0.3475" />
      <path
         id="path12197"
         style="fill:#ef8240;fill-opacity:1;fill-rule:evenodd;stroke:none"
         d="m -434.16674,568.77547 c 1.35875,0.15625 2.3175,1.035 3.37125,1.81 0.47625,0.35 1.09125,0.6675 1.71375,0.8175 0.585,0.1375 0.98625,0.46375 1.24625,1 -1.2325,0.895 -2,-0.41125 -2.65125,-0.89625 -0.685,-0.5025 -1.38625,-0.62125 -2.07875,-0.9125 -0.8325,-0.3475 -1.38125,-0.925 -1.60125,-1.81875" />
      <path
         id="path12201"
         style="fill:#ef8240;fill-opacity:1;fill-rule:evenodd;stroke:none"
         d="m -427.63599,572.60109 c 0.41625,-0.0762 0.86,-0.235 1.0175,0.39625 0.1,0.41375 0.48375,0.44125 0.77875,0.50375 0.98375,0.205 1.7975,0.64875 2.35875,1.5175 -1.0175,-0.5925 -2.475,-0.19875 -3.19125,-1.4775 -0.0313,-0.0538 -0.19125,-0.09 -0.26625,-0.0588 -1.0975,0.41375 -0.865,-0.26125 -0.6975,-0.88125" />
      <path
         id="path12205"
         style="fill:#ef8847;fill-opacity:1;fill-rule:evenodd;stroke:none"
         d="m -430.01149,566.96384 c 1.16625,0.72875 2.61625,0.98375 3.46125,2.275 0.34,0.52125 1.105,0.255 1.66,0.64625 1.54375,1.09375 3.095,2.34 4.84375,2.92125 1.5575,0.5175 2.4675,1.77125 3.8075,2.46 0.2925,0.1475 0.515,0.27875 0.87625,0.3075 1.20125,0.0925 1.9875,1.06875 2.9525,1.66125 0.84875,0.51375 1.66875,1.035 2.7175,1.035 -0.0875,0.34375 -0.22625,0.705 -0.53375,0.97375 -0.9,0.415 -1.2525,-0.56 -1.90375,-0.8 -1.19625,-0.44125 -2.16875,-1.42625 -3.495,-1.61 -0.31,-0.0462 -0.56875,-0.20375 -0.6225,-0.55 -0.0212,-0.1325 -0.005,-0.31125 -0.14375,-0.33625 -1.3225,-0.20625 -2.13,-1.40625 -3.36125,-1.775 -0.18875,-0.0562 -0.45625,-0.0738 -0.54625,-0.20625 -0.7575,-1.1375 -1.89625,-1.61875 -3.14125,-1.86 -0.48375,-0.0925 0.03,-0.58125 -0.48375,-0.7825 -0.76625,-0.29875 -1.5175,-0.71625 -2.30625,-0.9575 -0.51125,-0.15375 -0.2425,-0.8825 -0.81,-0.865 -0.7275,0.0163 -1.03875,-1.275 -1.97125,-0.65 -0.03,0.0162 -0.2275,-0.14875 -0.27625,-0.25875 -0.35375,-0.7525 -0.85875,-1.26875 -1.82,-1.175 0.365,-0.345 0.7025,-0.46875 1.09625,-0.45375" />
    </g>
  </g>
</svg>
