<?xml version="1.0" encoding="utf-8"?>
<!-- Generator: Adobe Illustrator 16.0.0, SVG Export Plug-In . SVG Version: 6.00 Build 0)  -->
<!DOCTYPE svg PUBLIC "-//W3C//DTD SVG 1.1//EN" "http://www.w3.org/Graphics/SVG/1.1/DTD/svg11.dtd">
<svg version="1.1" id="Capa_1" xmlns="http://www.w3.org/2000/svg" xmlns:xlink="http://www.w3.org/1999/xlink" x="0px" y="0px"
	 width="25px" height="25px" viewBox="0 0 25 25" enable-background="new 0 0 25 25" xml:space="preserve">
<g>
	<path fill-rule="evenodd" clip-rule="evenodd" fill="#FFFFFF" d="M4.259,21.019c0.142-0.257,0.255-0.491,0.396-0.709
		c0.501-0.771,0.673-1.632,0.719-2.524c0.005-0.092-0.073-0.209-0.147-0.279c-0.405-0.39-0.844-0.747-1.229-1.154
		c-0.816-0.867-1.292-1.92-1.417-3.076c-0.23-2.117,0.427-3.946,2-5.454c1.521-1.457,3.347-2.284,5.421-2.646
		c1.11-0.193,2.228-0.22,3.34-0.092c1.952,0.223,3.745,0.868,5.301,2.075c1.299,1.009,2.256,2.255,2.646,3.853
		c0.471,1.92,0.027,3.667-1.18,5.226c-0.336,0.433-0.758,0.804-1.156,1.186c-0.123,0.117-0.166,0.223-0.155,0.383
		c0.073,1.059,0.173,2.109,0.638,3.09c0.012,0.027,0.014,0.059,0.037,0.16c-0.422-0.162-0.807-0.277-1.159-0.455
		c-0.73-0.369-1.446-0.766-2.159-1.166c-0.187-0.104-0.344-0.16-0.566-0.1c-1.164,0.318-2.348,0.529-3.56,0.531
		c-1.249,0.004-2.469-0.201-3.661-0.555c-0.18-0.053-0.308-0.028-0.46,0.076c-1.075,0.734-2.244,1.28-3.506,1.631
		C4.376,21.024,4.349,21.019,4.259,21.019z"/>
</g>
</svg>
