<?xml version="1.0" encoding="utf-8"?>
<!-- Generator: Adobe Illustrator 16.0.0, SVG Export Plug-In . SVG Version: 6.00 Build 0)  -->
<!DOCTYPE svg PUBLIC "-//W3C//DTD SVG 1.1//EN" "http://www.w3.org/Graphics/SVG/1.1/DTD/svg11.dtd">
<svg version="1.1" id="Capa_1" xmlns="http://www.w3.org/2000/svg" xmlns:xlink="http://www.w3.org/1999/xlink" x="0px" y="0px"
	 width="50px" height="50px" viewBox="0 0 50 50" enable-background="new 0 0 50 50" xml:space="preserve">
<g>
	<path fill-rule="evenodd" clip-rule="evenodd" fill="#FFFFFF" d="M25.603,30.37c-0.295,0.045-0.599,0.066-0.817,0.324
		c-0.116,0.183-0.287,0.177-0.466,0.139c-1.105,0.424-2.067,1.168-3.11,1.678c-2.329,1.139-4.196,2.912-6.106,4.652
		c-0.23,0.211-0.495,0.268-0.793,0.168c-0.97-0.125-1.469-0.789-1.681-1.785c-1.478-6.983-2.956-13.967-4.436-20.95
		c-0.163-0.763-0.052-1.437,0.478-1.944c3.168-3.029,6.521-5.719,10.671-7.032c3.202-1.014,6.437-0.833,9.706-0.049
		c0.807,0.193,1.617,0.373,2.406,0.639c2.473,0.831,4.543-0.115,6.527-1.446c1.543-1.033,2.867-2.372,4.23-3.657
		c1.312-1.236,2.669-0.692,3.079,1.234c1.501,7.042,2.976,14.09,4.489,21.131c0.231,1.078,0,1.838-0.751,2.52
		c-2.134,1.94-4.418,3.614-6.957,4.871c-0.153,0.236-0.386,0.201-0.61,0.189c-0.885,0.189-1.771,0.379-2.656,0.568
		c-0.2,0.084-0.392,0.236-0.62,0.054c-1.763-0.087-3.426-0.791-5.133-1.224c-1.497-0.381-2.985-0.795-4.535-0.465
		c-0.308,0.065-0.735-0.132-1.109-0.002C26.829,30.216,26.226,30.337,25.603,30.37z"/>
	<path fill-rule="evenodd" clip-rule="evenodd" fill="#F9F9F9" d="M10.845,49.521c-0.587-0.312-0.634-0.935-0.756-1.51
		C7.644,36.465,5.193,24.919,2.768,13.368c-0.134-0.633-0.381-1.03-0.886-1.354c-1.658-1.066-2.23-3.354-1.308-5.095
		C1.521,5.133,3.553,4.604,5.184,5.72c1.646,1.125,2.245,3.425,1.221,5.125c-0.442,0.734-0.478,1.373-0.299,2.206
		c2.438,11.421,4.853,22.846,7.271,34.271c0.122,0.577,0.321,1.165-0.078,1.688C12.534,49.445,11.722,49.636,10.845,49.521z"/>
	<path fill-rule="evenodd" clip-rule="evenodd" fill="#FFFFFF" d="M23.039,8.957c0.597-0.552,1.332-0.294,2.001-0.265
		c2.039,0.088,4.045,0.568,6.01,1.212c1.875,0.614,3.757,0.503,5.465-0.084c2.029-0.698,3.856-1.994,5.484-3.528
		c0.434-0.41,0.613-0.477,0.77,0.279c1.127,5.428,2.286,10.849,3.433,16.273c0.062,0.293,0.197,0.597-0.093,0.85
		c-2.312,2.014-4.675,3.908-7.81,4.169c-0.806,0.066-1.571-0.152-2.344-0.385c-2.2-0.666-4.401-1.345-6.683-1.398
		c-3.703-0.087-6.999,1.236-10.096,3.185c-1.15,0.725-2.244,1.56-3.346,2.372c-0.348,0.256-0.527,0.377-0.656-0.241
		c-1.121-5.365-2.258-10.727-3.405-16.086c-0.085-0.401,0.017-0.627,0.28-0.865c2.158-1.957,4.425-3.725,7.098-4.796
		c0.363,0.05,0.676-0.079,0.955-0.309c0.203-0.114,0.458-0.065,0.646-0.224c0.059-0.015,0.117-0.028,0.175-0.043
		c0.362,0.073,0.687-0.149,1.044-0.118C22.326,8.995,22.677,8.78,23.039,8.957z"/>
</g>
</svg>
