<?xml version="1.0" encoding="utf-8"?>
<!-- Generator: Adobe Illustrator 16.0.0, SVG Export Plug-In . SVG Version: 6.00 Build 0)  -->
<!DOCTYPE svg PUBLIC "-//W3C//DTD SVG 1.1//EN" "http://www.w3.org/Graphics/SVG/1.1/DTD/svg11.dtd">
<svg version="1.1" id="Capa_1" xmlns="http://www.w3.org/2000/svg" xmlns:xlink="http://www.w3.org/1999/xlink" x="0px" y="0px"
	 width="89px" height="63px" viewBox="0 0 89 63" enable-background="new 0 0 89 63" xml:space="preserve">
<g>
	<g>
		<path fill-rule="evenodd" clip-rule="evenodd" fill="#456D9D" d="M0.121,31.123c3.377-5.468,6.766-10.931,10.131-16.406
			c2.863-4.662,5.738-9.319,8.518-14.03c0.641-1.083,1.129-1.074,2.121-0.486c2.367,1.405,4.762,2.781,7.23,4.013
			c1.396,0.695,1.758,1.384,0.697,2.584c-0.174,0.196-0.238,0.481-0.406,0.843c2.529-0.394,4.908-0.826,7.305-1.119
			c2.861-0.35,5.762-0.9,8.488,0.64c0.221,0.123,0.598,0.159,0.826,0.066c4.176-1.692,8.338-0.527,12.51-0.006
			c1.012,0.127,1.982,0.615,3.057,0.396c-1.004-2.565-1.004-2.565,1.68-4.059c2.107-1.176,4.23-2.323,6.311-3.542
			c0.773-0.453,1.156-0.343,1.613,0.413c6.086,10.031,12.201,20.045,18.311,30.064c0.232,0.383,0.535,0.754,0.254,1.234
			c-2.723,1.481-5.51,2.866-8.146,4.48c-1.447,0.89-2.219,0.737-2.83-0.764c-0.184-0.452-0.543-0.838-0.912-1.39
			c-0.865,1.533-1.447,3.054-2.527,4.297c-0.33,0.385-0.064,0.868-0.014,1.302c0.357,3.089-1.066,5.519-4.068,6.644
			c-0.922,0.344-1.348,0.785-1.576,1.715c-0.498,2.002-1.895,3.315-3.938,3.878c-0.809,0.223-1.283,0.535-1.523,1.351
			c-0.789,2.696-2.781,4.163-5.535,4.744c-0.711,0.151-1.227,0.387-1.68,1.008c-2.328,3.205-5.729,4.122-9.463,2.461
			c-1.648-0.734-3.102-1.247-5.055-0.813c-2.553,0.568-4.807-0.431-6.242-2.679c-0.355-0.555-0.709-0.751-1.389-0.669
			c-3.25,0.387-5.713-0.659-6.912-3.761c-0.262-0.674-0.721-0.567-1.24-0.574c-4.121-0.056-5.68-1.219-6.49-5.018
			c-0.188-0.883-0.789-0.822-1.373-0.953c-3.633-0.809-6.016-4.175-4.643-7.482c0.934-2.246-0.168-3.529-1.006-5.166
			c-0.137,0.109-0.244,0.162-0.307,0.251c-1.764,2.456-1.764,2.459-4.553,0.907c-2.412-1.34-4.814-2.691-7.223-4.037
			C0.121,31.348,0.121,31.235,0.121,31.123z"/>
		<path fill-rule="evenodd" clip-rule="evenodd" fill="#FFFFFF" d="M52.6,57.431c-1.395,1.405-2.957,1.738-4.602,0.861
			c-2.74-1.46-5.412-3.034-8.135-4.521c-0.666-0.362-0.773-0.821-0.758-1.507c0.09-3.642-1.82-5.899-5.549-6.51
			c-0.863-0.141-1.244-0.433-1.512-1.262c-0.725-2.221-2.41-3.543-4.771-3.895c-0.926-0.136-1.195-0.478-1.428-1.292
			c-0.982-3.425-4.367-5.344-7.951-4.488c-0.984,0.236-1.488,0.06-1.891-0.794c-1.004-2.129-1.379-4.159,0.035-6.35
			c2.539-3.938,5.014-7.923,7.305-11.998c1.262-2.245,3.096-3.59,5.498-4.292c3.67-1.074,7.443-1.58,11.449-1.729
			c-0.371,0.803-1.053,1.046-1.576,1.416c-4.092,2.902-7.682,6.306-10.824,10.139c-1.572,1.918-1.555,4.187-0.125,6.233
			c1.389,1.987,3.582,2.861,5.861,2.367c0.875-0.193,1.588-0.664,2.311-1.13c3.518-2.269,7.008-4.577,10.557-6.799
			c2.48-1.553,3.68-1.345,5.68,0.721c5.465,5.646,11.105,11.112,17.264,16.066c1.047,0.842,1.938,1.657,1.104,3.096
			c-0.748,1.29-2.357,1.901-3.906,1.344c-0.748-0.27-1.428-0.731-2.109-1.15c-0.732-0.449-1.414-0.977-2.152-1.422
			c-0.98-0.59-2.049-1.071-2.908,0.105c-0.838,1.148-0.047,2.014,0.801,2.744c1.217,1.05,2.615,1.869,4.102,2.504
			c1.201,0.514,1.033,1.168,0.408,1.953c-0.756,0.945-1.783,1.217-2.947,0.936c-1.193-0.289-2.262-0.85-3.26-1.539
			c-0.662-0.454-1.318-0.915-2.018-1.314c-0.922-0.523-1.895-0.712-2.635,0.254c-0.748,0.971-0.24,1.818,0.516,2.52
			c1.137,1.059,2.51,1.791,3.922,2.455c1.717,0.809,1.812,1.789,0.18,2.802c-1.439,0.89-3.012,1.198-4.59,0.29
			c-1.041-0.6-2.051-1.262-3.033-1.949c-1.088-0.761-2.158-1.519-3.303-0.156c-0.846,1.005-0.48,1.82,1.217,2.899
			C50.074,55.833,51.33,56.625,52.6,57.431z"/>
		<path fill-rule="evenodd" clip-rule="evenodd" fill="#FFFFFF" d="M56.365,21.805c0.67,0,1.121-0.033,1.566,0.007
			c1.002,0.086,1.742-0.246,1.953-1.234c0.246-1.156-0.457-1.804-1.508-2.092c-3.141-0.862-6.33-1.296-9.613-1.03
			c-1.75,0.141-3.219,0.828-4.629,1.739c-3.367,2.182-6.746,4.343-10.098,6.544c-1.045,0.686-2.061,1.168-3.068,0.051
			c-1.006-1.114-0.645-2.115,0.34-3.09c3.752-3.724,7.332-7.597,11.871-10.525c3.127-2.017,6.346-2.764,10.035-2.06
			c2.666,0.51,5.4,0.68,7.996,1.529c1.764,0.576,3.104,1.562,4.055,3.188c2.504,4.279,5.145,8.486,7.719,12.726
			c1.225,2.01,0.73,6.242-0.898,7.877c-0.771,0.774-1.119-0.102-1.508-0.418C65.627,30.955,60.98,26.587,56.365,21.805z"/>
		<path fill-rule="evenodd" clip-rule="evenodd" fill="#FFFFFF" d="M22.445,40.674c0.031,1.491-1.633,2.897-3.436,2.902
			c-1.496,0.005-2.502-0.964-2.51-2.418c-0.008-1.599,1.455-3.065,3.057-3.062C21.086,38.103,22.418,39.288,22.445,40.674z"/>
		<path fill-rule="evenodd" clip-rule="evenodd" fill="#FFFFFF" d="M28.754,46.336c-0.051,1.584-2.094,3.315-3.848,3.234
			c-1.207-0.056-1.998-0.641-2.059-1.839c-0.08-1.61,2.053-3.699,3.664-3.681C27.812,44.065,28.793,45.065,28.754,46.336z"/>
		<path fill-rule="evenodd" clip-rule="evenodd" fill="#FFFFFF" d="M30.363,52.126c0.074-1.817,1.344-3.006,2.787-2.924
			c1.309,0.075,2.482,1.233,2.41,2.376c-0.082,1.261-1.631,2.469-3.088,2.357C31.139,53.831,30.354,53.172,30.363,52.126z"/>
	</g>
</g>
</svg>
