<?xml version="1.0" encoding="utf-8"?>
<!-- Generator: Adobe Illustrator 16.0.0, SVG Export Plug-In . SVG Version: 6.00 Build 0)  -->
<!DOCTYPE svg PUBLIC "-//W3C//DTD SVG 1.1//EN" "http://www.w3.org/Graphics/SVG/1.1/DTD/svg11.dtd">
<svg version="1.1" id="Capa_1" xmlns="http://www.w3.org/2000/svg" xmlns:xlink="http://www.w3.org/1999/xlink" x="0px" y="0px"
	 width="38px" height="38px" viewBox="0 0 38 38" enable-background="new 0 0 38 38" xml:space="preserve">
<path fill="#CD7F48" d="M37.825,19.836c0,9.47-8.43,17.146-18.826,17.146S0.175,29.306,0.175,19.836
	c0-9.469,8.428-17.146,18.824-17.146S37.825,10.367,37.825,19.836"/>
<path fill-rule="evenodd" clip-rule="evenodd" fill="#FFFFFF" d="M15.059,20.797c0.328-1.128,0.653-2.258,0.985-3.384
	c0.268-0.906,0.516-1.818,0.822-2.708c0.321-0.935,0.941-1.385,1.779-1.386c0.781,0,1.413,0.465,1.713,1.405
	c0.556,1.739,1.054,3.499,1.586,5.249c0.078,0.262,0.105,0.549,0.335,0.841c0.366-1.323,0.71-2.59,1.069-3.851
	c0.246-0.869,0.422-1.764,0.786-2.592c0.336-0.762,0.915-1.108,1.673-1.084c0.749,0.025,1.326,0.402,1.663,1.142
	c0.229,0.497,0.218,1.034,0.065,1.541c-0.967,3.19-1.999,6.358-3.076,9.507c-0.203,0.596-0.533,1.12-1.037,1.477
	c-1.14,0.807-2.543,0.317-3.078-1.146c-0.515-1.41-0.933-2.861-1.392-4.294c-0.089-0.276-0.185-0.55-0.397-0.819
	c-0.319,1.066-0.644,2.132-0.96,3.198c-0.207,0.693-0.408,1.388-0.707,2.044c-0.398,0.875-1.031,1.394-1.948,1.385
	c-0.913-0.011-1.549-0.547-1.949-1.404c-0.463-0.996-0.729-2.077-1.077-3.123c-0.679-2.035-1.331-4.08-1.983-6.126
	c-0.121-0.38-0.23-0.774-0.28-1.172c-0.126-1.048,0.354-1.817,1.285-2.12c0.911-0.297,1.743,0.07,2.155,1.012
	c0.482,1.103,0.695,2.306,1.034,3.462c0.286,0.974,0.547,1.957,0.817,2.937C14.981,20.79,15.021,20.794,15.059,20.797"/>
</svg>
