<?xml version="1.0" encoding="utf-8"?>
<!-- Generator: Adobe Illustrator 16.0.0, SVG Export Plug-In . SVG Version: 6.00 Build 0)  -->
<!DOCTYPE svg PUBLIC "-//W3C//DTD SVG 1.1//EN" "http://www.w3.org/Graphics/SVG/1.1/DTD/svg11.dtd">
<svg version="1.1" id="Capa_1" xmlns="http://www.w3.org/2000/svg" xmlns:xlink="http://www.w3.org/1999/xlink" x="0px" y="0px"
	 width="87px" height="80px" viewBox="0 0 87 80" enable-background="new 0 0 87 80" xml:space="preserve">
<path fill-rule="evenodd" clip-rule="evenodd" fill="#C66831" d="M10.422,32.971c1.479-1.643,2.932-3.253,4.369-4.867
	c0.125-0.145,0.139-0.338,0.26-0.486c0.369-0.466,0.771-0.925,1.148-1.391c1.031-1.282,2.092-2.553,3.078-3.852
	c1.289-1.696,2.67-3.372,3.721-5.136c1.877-3.1,3.57-6.256,5.264-9.403c1.242-2.301,2.363-4.632,3.557-6.942
	C31.973,0.588,32.242,0.302,32.465,0c0.779,0.383,1.525,0.688,2.16,1.076c3.211,1.93,6.438,3.845,9.559,5.838
	c1.406,0.899,2.621,1.945,3.855,2.963c2.461,2.016,4.531,4.222,6.469,6.484c2.145,2.507,3.959,5.092,4.686,7.973
	c0.422,1.645-0.271,3.156-1.43,4.579c-0.426,0.53-0.926,1.028-1.408,1.536c-0.617,0.656-0.639,1.055,0.098,1.65
	c0.916,0.741,1.982,1.407,2.838,2.179c1.998,1.804,4.582,3.221,6.875,4.825c1.531,1.073,3.375,1.941,5.117,2.877
	c1.506,0.804,2.994,1.643,4.605,2.336c1.539,0.66,3.211,1.185,4.869,1.698c1.566,0.492,3.195,0.896,4.797,1.339
	c0.219,0.06,0.414,0.164,0.678,0.265c-0.967,0.533-1.84,1.024-2.73,1.501c-3.049,1.629-6.111,3.25-9.156,4.886
	c-1.564,0.833-3.127,1.669-4.662,2.526c-1.061,0.588-2.055,1.232-3.119,1.813c-0.658,0.357-1.455,0.601-2.074,0.968
	c-1.76,1.048-3.48,2.118-5.184,3.201c-2.119,1.354-4.186,2.742-6.311,4.089c-0.592,0.38-1.295,0.678-1.961,1.001
	c-0.535,0.266-1.121,0.317-1.715,0.098c-1.984-0.734-3.963-1.483-5.951-2.198c-2.584-0.935-4.789-2.224-6.998-3.491
	c-2.084-1.188-4.02-2.529-5.836-3.92c-3.414-2.604-5.852-5.623-7.812-8.85c-1.402-2.299-0.643-4.247,1.457-6.107
	c0.326-0.286,0.602-0.607,0.846-0.927c0.32-0.421,0-0.738-0.387-1.073C22,38.817,18.746,36.962,15.234,35.3
	C13.621,34.539,12.037,33.75,10.422,32.971 M35.721,34.6c-2.277-2.582-4.715-4.992-7.801-7.062
	c-1.287,1.591-2.496,3.167-3.805,4.706c-1.129,1.33-2.381,2.609-3.537,3.935c-0.719,0.831-0.621,1.037,0.463,1.703
	c0.621,0.388,1.275,0.753,1.811,1.192c1.223,1.017,2.389,2.064,3.562,3.107c0.291,0.262,0.52,0.551,0.889,0.946
	c2.852-2.839,5.617-5.6,8.455-8.432c1.863,2.536,3.672,5.066,4.443,7.914c0.471-0.411,0.836-0.839,1.254-1.248
	c1.084-1.073,2.229-2.114,3.273-3.201c0.885-0.925,1.629-1.899,2.484-2.835c0.914-0.98,1.885-1.926,2.803-2.906
	c0.146-0.164,0.256-0.437,0.172-0.604c-1.455-2.861-3.059-5.68-5.771-8.188C41.76,27.371,39.215,31.097,35.721,34.6 M39.324,48.836
	c-0.281,0.139-0.525,0.235-0.732,0.357c-2.744,1.666-5.498,3.331-8.227,5.016c-0.5,0.311-0.914,0.678-1.309,1.054
	c-0.361,0.344-0.332,0.716,0.078,1.06c0.369,0.306,0.752,0.611,1.08,0.939c1.875,1.881,4.377,3.326,7.014,4.687
	c0.451,0.234,0.861,0.25,1.307-0.029c1.268-0.798,2.551-1.581,3.83-2.362c2.021-1.234,4.041-2.463,6.066-3.687
	c0.334-0.196,0.326-0.342-0.004-0.536c-0.979-0.58-1.961-1.154-2.891-1.762c-1.049-0.692-2.1-1.393-3.07-2.139
	C41.383,50.602,40.383,49.724,39.324,48.836 M72.164,43.362c-1.648-0.909-3.256-1.732-4.764-2.639
	c-1.648-1.001-3.188-2.086-4.805-3.114c-1.039-0.663-1.205-0.682-2.334-0.107c-3.18,1.621-6.322,3.267-9.498,4.899
	c-0.48,0.241-0.48,0.462-0.09,0.738c0.91,0.663,1.799,1.329,2.705,1.997c0.113,0.077,0.26,0.138,0.381,0.209
	c0.76,0.443,1.52,0.891,2.283,1.325c1.254,0.716,2.514,1.433,3.771,2.14c0.375,0.209,0.781,0.302,1.211,0.074
	c0.938-0.495,1.863-1.003,2.822-1.476c2.525-1.237,5.064-2.452,7.598-3.677C71.652,43.632,71.855,43.523,72.164,43.362 M44.4,23.365
	c0.23-0.312,0.414-0.511,0.531-0.73c1.609-2.835,3.209-5.666,4.793-8.507c0.426-0.767,0.682-1.444-0.398-2.202
	c-1.561-1.084-2.773-2.389-4.248-3.531c-1.117-0.873-2.412-1.629-3.615-2.433c-1.885,3.337-3.744,6.628-5.641,9.978
	C38.99,18.157,41.857,20.643,44.4,23.365 M27.904,27.342c0.121-0.187,0.195-0.303,0.283-0.411c2.607-3.412,5.086-6.877,7.229-10.447
	c0.207-0.328,0.199-0.623-0.174-0.872c-0.549-0.365-1.182-0.678-1.686-1.066c-1.584-1.236-3.621-2.048-5.637-2.891
	c-0.215-0.086-0.439-0.156-0.688-0.246c-0.111,0.172-0.209,0.299-0.291,0.433c-1.336,2.142-2.639,4.299-4.004,6.431
	c-0.91,1.416-1.893,2.809-2.893,4.188c-0.283,0.398-0.25,0.598,0.354,0.81c2.137,0.727,3.943,1.743,5.598,2.903
	C26.576,26.58,27.232,26.934,27.904,27.342 M72.209,54.671c-1.324-0.518-2.615-1.024-3.914-1.523
	c-2.506-0.968-4.854-2.09-7.014-3.388c-0.402-0.234-0.824-0.227-1.223-0.036c-1.186,0.554-2.379,1.112-3.525,1.71
	c-1.092,0.562-2.137,1.17-3.184,1.766c-1.262,0.723-2.514,1.453-3.752,2.195c-0.117,0.07-0.166,0.338-0.094,0.383
	c0.732,0.418,1.445,0.861,2.25,1.195c2.145,0.91,4.326,1.777,6.506,2.646c0.707,0.275,1.43,0.533,2.172,0.768
	c0.43,0.138,0.869,0.183,1.305-0.074c1.631-0.951,3.285-1.89,4.945-2.82c0.844-0.478,1.705-0.936,2.578-1.382
	C70.234,55.613,71.23,55.147,72.209,54.671 M39.668,48.612c0.203-0.161,0.35-0.286,0.512-0.399c0.715-0.488,1.527-0.926,2.113-1.479
	c0.34-0.315,0.816-0.369,1.176-0.588c0.639-0.369,1.199-0.798,1.812-1.186c0.26-0.164,0.561-0.303,0.848-0.438
	c0.781-0.376,1.568-0.755,2.348-1.134c0.377-0.178,0.727-0.377,1.1-0.562c0.303-0.142,0.684-0.328,0.27-0.544
	c-0.342-0.183-0.719-0.562-1.357-0.216c-0.453-0.43-0.949-0.835-1.34-1.275c-0.354-0.402-0.592-0.849-0.975-1.415
	c-0.934,0.73-1.746,1.356-2.533,1.99c-1.117,0.904-2.227,1.817-3.326,2.735c-0.832,0.691-1.662,1.385-2.465,2.093
	c-0.139,0.119-0.252,0.366-0.17,0.477c0.475,0.612,1.006,1.208,1.543,1.8C39.291,48.545,39.502,48.563,39.668,48.612 M31.924,50.11
	c-0.289-0.585-0.471-1.196-0.877-1.743c-1.068-1.428-2.209-2.836-3.371-4.229c-0.443-0.54-1.012-1.028-1.521-1.54
	c-0.217-0.212-0.5-0.36-0.752-0.07c-0.531,0.616-1.031,1.246-1.482,1.89c-0.09,0.131,0.041,0.398,0.199,0.526
	c0.402,0.306,0.959,0.518,1.299,0.849c1.141,1.118,2.168,2.288,3.33,3.392c0.541,0.521,1.252,0.968,1.986,1.363
	C31.352,50.878,31.803,50.669,31.924,50.11"/>
<g>
	<path fill-rule="evenodd" clip-rule="evenodd" fill="#C66831" d="M53.975,41.332c1.211,2.701,1.742,5.58,1.682,8.572
		c-0.135,6.487-2.635,11.744-7.014,15.959c-0.623,0.599-0.857,1.201-0.795,2.109c0.227,3.37,0.566,6.701,1.871,9.815
		c0.039,0.094,0.047,0.202,0.068,0.308c-0.287,0.174-0.5-0.039-0.715-0.126c-3.25-1.298-6.348-2.94-9.176-5.153
		c-0.457-0.359-0.869-0.451-1.439-0.28c-2.773,0.831-5.574,1.507-8.459,1.704c-4.102,0.279-8.117-0.238-12.047-1.507
		c-1.064-0.343-1.859-0.222-2.789,0.485c-2.895,2.203-6.062,3.812-9.461,4.85c-0.156,0.048-0.334,0.227-0.473,0.029
		c-0.123-0.178,0.02-0.369,0.098-0.527c0.277-0.578,0.547-1.168,0.861-1.721c1.451-2.553,2.018-5.375,2.146-8.343
		c0.021-0.437-0.145-0.711-0.416-0.985c-1.113-1.125-2.287-2.194-3.307-3.419c-3.275-3.932-4.775-8.645-4.658-13.953
		c0.139-6.245,2.637-11.314,6.703-15.481c4.639-4.755,10.221-7.308,16.443-8.246c5.578-0.838,11.023-0.241,16.32,1.88
		c0.297,0.119,0.625,0.179,0.871,0.431c-0.393,0.345-0.746,0.008-1.111-0.083c-0.23-0.058-0.475-0.26-0.621,0.135
		c-0.172,0.465-0.547,0.479-0.926,0.512c-0.783,0.063-1.586-0.097-2.34,0.272c-0.783,0.07-1.518-0.259-2.285-0.325
		c-0.391-0.161-0.814-0.066-1.211-0.169c-0.482-0.17-0.98-0.074-1.475-0.1c-0.211-0.003-0.422-0.012-0.625-0.065
		c-0.838-0.173-1.672-0.122-2.504,0.011c-0.293,0.06-0.59,0.053-0.887,0.058c-1.09-0.044-2.139,0.252-3.195,0.462
		c-0.898,0.107-1.76,0.381-2.621,0.66c-0.287,0.086-0.566,0.213-0.859,0.288c-0.363,0.036-0.695,0.183-1.025,0.341
		c-0.854,0.275-1.648,0.712-2.459,1.111c-0.225,0.079-0.445,0.162-0.643,0.315c-0.113,0.083-0.23,0.157-0.355,0.212
		c-0.576,0.242-1.117,0.555-1.625,0.938c-0.553,0.281-1.055,0.656-1.551,1.044c-1.242,0.875-2.389,1.886-3.594,3.032
		c0.533,0.271,0.98,0.16,1.402,0.209c2.744,0.334,5.486,0.65,8.197,1.254c0.195,0.044,0.393,0.029,0.59,0.055
		c1.691,0.365,3.369,0.787,5.025,1.319c0.07,0.017,0.143,0.039,0.215,0.067c0.605,0.256,1.248,0.384,1.855,0.639
		c0.166,0.064,0.332,0.127,0.5,0.186c0.297,0.12,0.6,0.223,0.9,0.327c0.438,0.182,0.887,0.323,1.326,0.493
		c2.848,1.2,5.57,2.677,8.133,4.5c0.523,0.374,1.158,0.635,1.434,1.348c-0.078,0.604-0.492,0.977-0.801,1.424
		c-0.602,0.873-0.543,1.918,0.148,2.352c0.314,0.196,0.662,0.346,1.021,0.448c1.324,0.048,2.645-0.049,3.967,0.052
		c0.744,0.356,1.178,1.069,1.639,1.756c0.998,1.385,1.781,2.924,2.551,4.47c0.514,1.149,0.926,2.341,1.238,3.57
		c0.133,0.528,0.289,0.552,0.617,0.179c0.43-0.487,0.797-1.03,1.133-1.601c0.055-0.094,0.121-0.176,0.197-0.25
		c0.213-0.176,0.338-0.42,0.422-0.691c0.291-0.44,0.621-0.857,0.787-1.385c0.201-0.442,0.441-0.864,0.535-1.36
		c0.264-0.708,0.643-1.364,0.762-2.136c0.242-1.032,0.551-2.056,0.52-3.142c0.1-0.997,0.309-1.992,0.082-2.998
		c-0.045-0.263-0.062-0.523,0.061-0.767c0.324-0.173,0.205-0.496,0.223-0.776c0.062-1.058,0-2.119,0.096-3.178
		c0.039-0.459,0.092-0.861,0.648-0.896C54.07,41.829,53.668,41.407,53.975,41.332"/>
	<path fill-rule="evenodd" clip-rule="evenodd" fill="#C56731" d="M53.975,41.332c-0.045,0.315,0.072,0.574-0.396,0.808
		c-0.465,0.234-0.318,1.11-0.275,1.687c0.068,0.94-0.07,1.857-0.098,2.787c-0.016,0.466-0.188,0.021-0.285,0.026
		c-0.156-0.116-0.199-0.31-0.262-0.488c-0.025-0.074-0.039-0.149-0.049-0.226c-0.027-0.264-0.033-0.533-0.125-0.784
		c-0.113-0.368-0.184-0.75-0.293-1.122c-0.189-0.714-0.4-1.42-0.709-2.086c-0.17-0.579-0.41-1.118-0.721-1.619
		c-0.139-0.285-0.273-0.579-0.451-0.842c-0.184-0.325-0.355-0.667-0.629-0.922c-0.166-0.176-0.299-0.383-0.434-0.587
		c-0.287-0.549-0.643-1.036-1.076-1.452c-2.4-2.925-5.369-4.912-8.648-6.387c-0.293-0.13-0.623-0.203-0.777-0.569
		c0.082-0.416,0.402-0.323,0.65-0.354c0.24-0.029,0.494,0.014,0.723-0.096c0.227-0.113,0.32-0.276,0.066-0.474
		c-0.369-0.284-1.17-0.156-1.371,0.289c-0.189,0.419-0.459,0.522-0.824,0.505c-0.484-0.058-0.945-0.207-1.406-0.365
		c-0.377-0.172-0.801-0.182-1.168-0.395c-0.068-0.056-0.092-0.126-0.068-0.216c0.701-0.667,1.545-0.251,2.316-0.353
		c0.713-0.096,0.77-0.087,0.758-0.939c0.646,0.118,1.201,0.592,1.869,0.574l-0.012-0.005c0.674,0.38,1.354,0.748,2.076,1.008
		c3.119,1.599,5.824,3.821,8.115,6.646C51.916,37.162,53.158,39.098,53.975,41.332"/>
	<path fill-rule="evenodd" clip-rule="evenodd" fill="#C66831" d="M42.354,28.735c-0.779-0.112-1.463-0.47-2.074-1.008
		C41.02,27.941,41.697,28.316,42.354,28.735"/>
	<path fill-rule="evenodd" clip-rule="evenodd" fill="#FFFFFF" d="M17.414,53.673c0.434-1.524,0.865-3.053,1.305-4.577
		c0.355-1.223,0.684-2.456,1.088-3.658c0.424-1.267,1.246-1.874,2.355-1.874c1.033-0.003,1.869,0.628,2.266,1.899
		c0.738,2.352,1.398,4.73,2.1,7.096c0.105,0.354,0.141,0.744,0.443,1.139c0.484-1.789,0.939-3.501,1.414-5.208
		c0.326-1.173,0.561-2.384,1.041-3.501c0.445-1.033,1.213-1.5,2.217-1.467c0.99,0.033,1.752,0.541,2.203,1.543
		c0.301,0.672,0.287,1.399,0.082,2.084c-1.277,4.312-2.643,8.594-4.07,12.853c-0.27,0.804-0.705,1.515-1.373,1.997
		c-1.51,1.092-3.365,0.429-4.074-1.551c-0.682-1.902-1.232-3.869-1.842-5.806c-0.117-0.373-0.244-0.742-0.523-1.106
		c-0.426,1.441-0.85,2.881-1.271,4.325c-0.273,0.935-0.543,1.876-0.938,2.765c-0.527,1.18-1.365,1.881-2.578,1.868
		c-1.209-0.013-2.051-0.738-2.58-1.897c-0.613-1.347-0.963-2.809-1.424-4.222c-0.9-2.751-1.764-5.52-2.627-8.286
		c-0.16-0.512-0.305-1.043-0.369-1.58c-0.17-1.42,0.469-2.46,1.699-2.867c1.207-0.404,2.309,0.094,2.854,1.365
		c0.637,1.49,0.92,3.117,1.369,4.682c0.377,1.319,0.723,2.648,1.082,3.971C17.311,53.664,17.363,53.668,17.414,53.673"/>
	<path fill-rule="evenodd" clip-rule="evenodd" fill="#FFFFFF" d="M37.982,51.207c-0.062-0.172-0.199-0.208-0.346-0.263
		c-1.137-0.44-1.465-1.562-0.771-2.663c0.322-0.508,0.689-0.979,1.031-1.47c0.064-0.172,0.133-0.343,0.26-0.475
		c0.668-0.788,1.285-1.622,1.906-2.453c0.525-0.559,0.914-1.229,1.227-1.942c0.264-0.611,0.145-1.16-0.244-1.27
		c-0.543-0.158-0.75,0.258-0.904,0.724c-0.109,0.335-0.197,0.677-0.309,1.011c-0.025,0.076-0.061,0.144-0.1,0.211
		c-0.213,0.285-0.43,0.56-0.734,0.732c-1.047,0.354-1.555,0.169-2.26-0.82c-0.529-1.326-0.047-2.508,0.426-3.691
		c0.418-0.463,0.842-0.914,1.295-1.339c0.428-0.247,0.85-0.508,1.303-0.702c1.076-0.322,2.129-0.294,3.16,0.229
		c1.295,0.658,2.109,1.733,2.408,3.278c0.082,0.54,0.059,1.082,0.027,1.622c-0.047,0.293-0.129,0.579-0.191,0.869
		c-0.184,0.472-0.4,0.928-0.615,1.385c-0.238,0.412-0.525,0.788-0.773,1.197c-0.215,0.289-0.457,0.559-0.631,0.889
		c-0.23,0.351-0.58,0.59-0.814,1.035c0.701,0.286,1.426-0.021,2.098,0.207c0.445,0.201,0.785,0.537,1.031,0.994
		c0.336,0.764,0.174,1.45-0.266,2.097c-0.664,0.722-1.5,0.782-2.348,0.671C41.225,51.059,39.605,51.156,37.982,51.207"/>
	<path fill-rule="evenodd" clip-rule="evenodd" fill="#CB7C45" d="M36.893,42.521c0.576,0.792,1.311,0.971,2.164,0.657
		c0.275-0.141,0.488-0.353,0.602-0.671h-0.002c0.816,0.411,0.924,0.75,0.479,1.529c-0.588,0.879-1.221,1.711-1.936,2.465
		c0.023-0.901-0.762-1.085-1.203-1.488c-1.043-0.944-2.105-1.92-3.424-2.4c-1.291-0.472-2.361-1.455-3.66-1.9
		c-0.096-0.033-0.225-0.061-0.256-0.154c-0.291-0.857-1.16-0.972-1.648-1.57c-0.24-0.294-0.568-0.438-0.91-0.533
		c-0.266-0.072-0.533-0.156-0.742-0.355c-0.525-0.492-1.023-1.013-1.803-0.949c-0.205,0.017-0.447-0.161-0.559-0.371
		c-0.381-0.725-0.979-1.045-1.684-1.203c-0.047-0.01-0.096-0.034-0.133-0.068c-1.125-1.101-2.625-1.516-3.803-2.524
		c-0.529-0.457-1.135-0.746-1.822-0.792c-0.602-0.037-0.742-0.545-0.875-1.057c0.021-0.24,0.229-0.292,0.355-0.426
		c0.814-0.457,1.635-0.901,2.527-1.15c-0.197,0.513-0.047,0.889,0.332,1.233c0.986,0.896,2.109,1.513,3.279,2.051
		c0.111,0.051,0.277,0.023,0.35,0.118c0.949,1.245,2.514,1.44,3.535,2.458c0.842,0.833,1.953,1.052,2.744,1.895
		c0.291,0.306,0.732,0.285,1.08,0.521c0.832,0.563,1.561,1.363,2.447,1.761c1.133,0.509,1.99,1.507,3.148,1.941
		c0.369,0.141,0.736,0.029,1.094,0.141C36.68,41.957,36.684,42.288,36.893,42.521"/>
	<path fill-rule="evenodd" clip-rule="evenodd" fill="#CA7940" d="M15.736,31.037c0.303,0.511,0.416,1.223,1.287,0.948
		c0.213-0.067,0.854,0.234,1.119,0.54c0.469,0.541,1.248,0.568,1.596,1.27c0.051,0.102,0.223,0.211,0.314,0.19
		c0.867-0.209,1.219,0.569,1.752,1.035c0.234,0.206,0.494,0.434,0.844,0.468c0.6,0.059,1.064,0.36,1.342,0.983
		c0.166,0.373,0.545,0.659,0.834,0.559c0.59-0.204,0.865,0.157,1.205,0.522c0.312,0.333,0.635,0.6,1.119,0.683
		c0.338,0.058,0.734,0.22,0.992,0.611c0.428,0.647,1.457,0.581,1.586,1.608c0.004,0.031,0.078,0.061,0.125,0.077
		c1.877,0.664,3.516,1.907,5.346,2.702c0.477,0.206,0.865,0.695,1.26,1.099c0.418,0.433,1.062,0.543,1.326,1.22
		c0.102,0.259,0.455,0.254,0.748,0.136c-0.037,0.345-0.4,0.473-0.332,0.813c-0.061,0.153-0.111,0.314-0.303,0.31
		c-1.176-1.177-2.557-2.008-3.941-2.822c-1.713-1.011-3.436-2.007-5.283-2.701c-0.109-0.041-0.197-0.149-0.297-0.23
		c-0.271-0.263-0.535-0.516-0.775-0.831c-0.449-0.59-1.15-0.742-1.824-0.728c-0.623,0.015-1.098-0.182-1.5-0.702
		c-0.238-0.311-0.525-0.577-0.889-0.719c-0.094-0.036-0.172-0.108-0.262-0.153c-0.35-0.178-0.26-0.925-0.951-0.754
		c-0.359,0.087-0.85-0.286-1.201-0.511c-0.85-0.543-1.748-1.008-2.512-1.704c-0.215-0.195-0.412-0.376-0.697-0.426
		c-1.133-0.193-1.963-0.99-2.762-1.788c-0.693-0.689-0.633-0.941,0.141-1.541c0.096-0.055,0.195-0.112,0.293-0.165
		C15.537,30.943,15.635,30.941,15.736,31.037"/>
	<path fill-rule="evenodd" clip-rule="evenodd" fill="#D59460" d="M45.172,40.258c-0.701-2.639-2.857-3.977-5.49-3.28
		c0.084-0.613,0.592-0.417,0.979-0.625c-1.875-1.097-3.617-2.358-5.439-3.464c-2.291-1.391-4.539-2.863-6.75-4.397
		c-0.188-0.128-0.445-0.25-0.389-0.536c0.07-0.36,0.383-0.29,0.619-0.279c0.342,0.02,0.691-0.086,1.023,0.069
		c0.195,0.003,0.391,0.003,0.586,0.005c0.045,0.066,0.051,0.133,0.008,0.199c-0.291,0.388,0.201,0.446,0.258,0.472
		c1.328,0.596,2.58,1.33,3.697,2.335c0.135,0.119,0.334,0.093,0.496,0.158c1.131,0.303,2.117,1.029,2.982,1.764
		c1.23,1.052,2.635,1.775,3.945,2.6c1.566,0.986,3.119,2.053,4.738,2.966c1.113,0.628,2.377,1.182,3.256,2.317
		c0.486,0.629,0.93,0.46,1.148-0.347c0.4,0.466,0.65,1.012,0.744,1.646c0.084,0.165,0.104,0.356,0.178,0.53
		c0.098,0.227,0.32,0.479,0.059,0.734c-0.232,0.221-0.502,0.072-0.689-0.062c-0.846-0.612-1.748-1.109-2.609-1.689
		c-1.045-0.708-2.119-1.362-3.193-2.047C45.271,39.654,45.453,40.006,45.172,40.258"/>
	<path fill-rule="evenodd" clip-rule="evenodd" fill="#D38F5B" d="M29.725,27.745c-0.123,0.003-0.252-0.016-0.371,0.011
		c-0.391,0.086-0.969-0.268-1.125,0.241c-0.078,0.251,0.561,0.49,0.883,0.696c1.098,0.715,2.219,1.395,3.24,2.239
		c0.377,0.312,0.811,0.44,1.211,0.663c1.207,0.674,2.383,1.415,3.496,2.279c0.539,0.415,1.119,0.793,1.727,1.065
		c0.768,0.34,1.328,1.106,2.178,1.271c0.086,0.017,0.158,0.132,0.123,0.26c-0.033,0.133-0.143,0.141-0.236,0.144
		c-0.418,0.014-0.844-0.011-1.168,0.363c-0.395,0.22-0.791,0.44-1.184,0.662c-0.096-0.171-0.01-0.296,0.082-0.419
		c0.043-0.054,0.152-0.129,0.1-0.18c-0.551-0.54-1.037-1.223-1.709-1.532c-0.592-0.274-1.189-0.558-1.705-0.949
		c-0.939-0.714-1.953-1.294-2.953-1.839c-1.385-0.752-2.545-1.885-3.975-2.57c-0.844-0.403-1.748-0.867-2.434-1.629
		c-0.154-0.171-0.439-0.349-0.166-0.67c0.184-0.027,0.369-0.01,0.555-0.016c0.297-0.04,0.607,0.095,0.893-0.094
		C28.031,27.511,28.879,27.499,29.725,27.745"/>
	<path fill-rule="evenodd" clip-rule="evenodd" fill="#CA763E" d="M23.766,39.414c-1.355-0.34-2.709-0.686-4.064-1.026
		c-0.381-0.099-0.76-0.192-1.141-0.288c-0.76-0.276-1.568-0.367-2.262-0.895c-0.352-0.268-0.812,0.015-1.229-0.034
		c-0.666-0.073-1.348,0-1.494-1.032c-0.053-0.373-0.449-0.339-0.75-0.35c-0.689-0.031-0.754-0.109-0.594-0.855
		c0.07-0.336-0.102-0.503-0.242-0.719c-0.234-0.354-0.41-0.712,0.025-1.046c0.4-0.506,0.91-0.809,1.488-0.987
		c0.191,0.411,0.455,0.708,0.91,0.715c0.072,0.002,0.184,0,0.207,0.062c0.254,0.621,0.936,0.686,1.246,1.084
		c0.387,0.495,0.832,0.693,1.299,0.954c0.457,0.254,0.914,0.491,1.318,0.874c0.344,0.324,0.844,0.433,1.328,0.412
		c0.254-0.013,0.553-0.013,0.668,0.247c0.34,0.778,1.182,0.749,1.627,1.289C22.607,38.434,23.479,38.553,23.766,39.414"/>
	<path fill-rule="evenodd" clip-rule="evenodd" fill="#CD7F48" d="M36.545,41.717c-1.043,0.489-1.773-0.341-2.541-0.822
		c-0.457-0.289-0.916-0.583-1.359-0.881c-0.701-0.467-1.51-0.761-2.096-1.506c-0.232-0.297-0.787-0.493-1.18-0.748
		c-1.061-0.694-2.281-1.041-3.201-2.073c-0.383-0.428-1.01-0.73-1.557-0.997c-0.771-0.38-1.455-0.805-2.111-1.448
		c-0.447-0.438-1.234-0.656-1.867-0.977c-0.924-0.468-1.73-1.099-2.416-1.937c-0.531-0.646,0.498-0.37,0.344-0.77
		c0.326-0.188,0.65-0.39,1.043-0.331c-0.029,0.398-0.279,0.369-0.52,0.364c0.088,0.148,0.283,0.235,0.346,0.444
		c0.35,0.865,0.93,1.403,1.795,1.483c0.67,0.059,1.037,0.688,1.537,1.029c0.451,0.311,0.816,0.445,1.299,0.371
		c0.098,0.054,0.172,0.138,0.221,0.243c0.051,0.285,0.043,0.624,0.453,0.566c0.125-0.019,0.258,0.028,0.336,0.131
		c0.611,0.793,1.545,0.708,2.322,1.06c0.475,0,0.832,0.218,1.146,0.625c0.4,0.517,1.016,0.834,1.539,1.008
		c0.965,0.319,1.701,0.957,2.49,1.551c0.143,0.107,0.252,0.304,0.416,0.338c1.102,0.215,1.775,1.227,2.709,1.754
		c0.229,0.129,0.387,0.179,0.607,0.021c0.137-0.098,0.299-0.361,0.473-0.029C36.545,40.67,36.719,41.225,36.545,41.717"/>
	<path fill-rule="evenodd" clip-rule="evenodd" fill="#CE834D" d="M36.545,41.717c0.01-0.554-0.021-1.111,0.154-1.645
		c-0.115-0.319-0.299-0.52-0.625-0.606c-1.314-0.355-2.404-1.202-3.5-2.024c-0.211-0.157-0.436-0.244-0.666-0.342
		c-0.672-0.292-1.305-0.655-1.801-1.254c-0.133-0.163-0.271-0.337-0.465-0.396c-1.166-0.34-2.188-1.082-3.133-1.791
		c-1.223-0.918-2.658-1.421-3.764-2.526c-0.186-0.184-0.416-0.338-0.656-0.367c-0.752-0.094-1.133-0.836-1.748-1.172
		c-0.314-0.168-0.146-0.459,0.004-0.689c0.881-0.273,1.762-0.557,2.676-0.658c0.043,0.43-0.254,0.451-0.512,0.521
		c-0.146,0.018-0.293,0.037-0.461,0.079c0.428-0.003,0.766,0.121,0.881,0.632c0.045,0.188,0.189,0.354,0.375,0.354
		c0.811-0.005,1.318,0.592,1.891,1.087c0.309,0.269,0.658,0.475,1.037,0.615c0.465,0.177,0.889,0.375,1.197,0.866
		c0.229,0.367,0.723,0.373,1.084,0.564c0.824,0.436,1.408,1.234,2.266,1.624c0.555,0.25,1.117,0.619,1.584,1.013
		c1.377,1.158,3.086,1.618,4.457,2.753c0.162,0.135,0.395,0.068,0.533,0.256c0.029,0.08,0.018,0.15-0.029,0.216
		c-0.012,0.512-0.342,0.891-0.463,1.363c-0.199,0.79-0.223,1.559,0.029,2.332C36.588,42.351,36.564,42.035,36.545,41.717"/>
	<path fill-rule="evenodd" clip-rule="evenodd" fill="#D08953" d="M37.324,38.826c-0.01-0.077-0.018-0.154-0.029-0.234
		c0.082-0.365,0.064-0.638-0.361-0.739c-0.744-0.182-1.322-0.724-1.949-1.163c-0.594-0.423-1.131-0.985-1.922-0.963
		c-0.219,0.005-0.402-0.213-0.564-0.375c-1.129-1.127-2.494-1.852-3.84-2.554c-0.877-0.461-1.561-1.244-2.463-1.602
		c-1.312-0.522-2.229-1.76-3.525-2.297c-0.133-0.057-0.293-0.098-0.24-0.326c0.252,0.013,0.48-0.029,0.592-0.327
		c1.08-0.264,2.158-0.527,3.273-0.491c0.049,0.034,0.064,0.073,0.049,0.107c-0.016,0.036-0.033,0.054-0.049,0.054
		c-0.199,0.002-0.395,0.002-0.594,0.002c-0.309,0.362-0.76,0.307-1.301,0.458c0.719,0.298,1.336,0.472,1.668,1.119
		c0.023,0.044,0.08,0.068,0.131,0.075c1.332,0.207,2.225,1.354,3.379,1.92c0.766,0.379,1.434,0.819,1.934,1.562
		c0.176,0.261,0.455,0.286,0.713,0.374c0.773,0.273,1.564,0.523,2.139,1.223c0.102,0.124,0.213,0.26,0.367,0.253
		c0.752-0.036,1.186,0.559,1.73,0.976c0.545,0.419,1.127,0.819,1.768,1.071c0.164,0.063,0.324,0.144,0.41,0.329
		c-0.047,0.121-0.096,0.241-0.141,0.361C38.1,38.028,37.812,38.548,37.324,38.826"/>
	<path fill-rule="evenodd" clip-rule="evenodd" fill="#CA763E" d="M43.842,52.881c-0.451-0.544-0.898-1.09-1.346-1.635
		c0.686-0.215,1.416,0.051,2.104-0.247c0.18-0.081,0.479,0.106,0.428,0.319c-0.246,1.087,0.613,1.271,1.123,1.463
		c1.129,0.424,2.105,1.137,3.082,1.819c0.465,0.327,0.932,0.604,1.436,0.75c0.352,0.103,0.639,0.246,0.908,0.486
		c-0.109,0.486-0.299,0.932-0.594,1.313c-0.283,0.534-0.598,0.865-1.223,0.496c-0.287-0.166-0.664-0.095-1.008,0.061
		c-0.551,0.248-1.166,0.021-1.234-0.572c-0.119-1.022-0.854-1.091-1.463-1.318c-0.334-0.127-0.588-0.281-0.732-0.607
		C44.936,54.347,44.416,53.594,43.842,52.881"/>
	<path fill-rule="evenodd" clip-rule="evenodd" fill="#CE814A" d="M20.346,28.904c0.023,0.195-0.195,0.535,0.066,0.567
		c0.5,0.058,0.637,0.676,0.969,0.764c1.434,0.374,2.344,1.84,3.795,2.13c0.049,0.008,0.119,0.011,0.139,0.045
		c0.666,1.112,1.941,1.221,2.783,2.051c0.221,0.221,0.553,0.354,0.854,0.424c0.887,0.211,1.367,1.086,2.115,1.518
		c1.342,0.784,2.674,1.588,3.961,2.487c0.338,0.238,0.832,0.367,1.293,0.433c0.291,0.042,0.643,0.262,0.381,0.751
		c-0.408,0.45-0.621,0.688-1.332,0.153c-0.729-0.55-1.348-1.407-2.398-1.573c-0.629-0.103-1.121-0.958-1.773-1.339
		c-0.426-0.25-1.113-0.318-1.264-0.517c-0.473-0.629-1.365-0.487-1.684-1.303c-0.148-0.374-0.559-0.393-0.916-0.353
		c-0.934-0.864-2.182-1.119-3.121-1.972c-0.051-0.055-0.1-0.11-0.148-0.162c-1.08-0.69-2.258-1.2-3.266-2.012
		c-0.479-0.383-1.041-0.548-1.494-0.946c-0.842-0.688,0.232-0.535,0.299-0.823C19.852,29.121,20.098,29.013,20.346,28.904"/>
	<path fill-rule="evenodd" clip-rule="evenodd" fill="#CA7940" d="M51.576,55.837c-0.738-0.073-1.771-0.805-2.414-1.081
		c-0.52-0.223-0.799-1.037-1.496-0.773c-0.496-0.929-1.6-0.677-2.219-1.373c-0.117-0.138-0.26-0.329-0.402-0.341
		c-0.484-0.036-0.465-0.338-0.291-0.653c0.314-0.562-0.094-0.562-0.342-0.484c-0.639,0.198-1.281,0.049-1.916,0.115
		c-1.506-0.013-3.008-0.026-4.512-0.039c0.17-0.306,0.443-0.169,0.67-0.17c1.602-0.006,3.203,0,4.807,0.012
		c0.637,0.006,1.219-0.139,1.697-0.639c0.283-0.333,0.445-0.754,0.615-1.119c0.104-0.03,0.166-0.023,0.184,0.029
		c0.645,1.715,2.316,1.889,3.486,2.812c0.465,0.363,0.844,0.904,1.488,0.97c0.154,0.015,0.242,0.261,0.295,0.444
		c0.17,0.586,0.426,0.701,0.822,0.214c0.066-0.083,0.168-0.108,0.27-0.059C52.264,54.495,51.811,55.121,51.576,55.837"/>
	<path fill-rule="evenodd" clip-rule="evenodd" fill="#CF844D" d="M43.656,45.316c0.197-0.43,0.465-0.798,0.766-1.146
		c0.111-0.109,0.182-0.258,0.244-0.404c0.209-0.495,0.363-0.716,0.965-0.373c0.564,0.325,1.113,0.668,1.652,1.04
		c0.104,0.071,0.201,0.188,0.318,0.203c1.133,0.168,1.824,1.242,2.816,1.671c0.762,0.329,1.354,0.937,2.041,1.413
		c0.264-0.555-0.055-1.139,0.305-1.57c0.174,0.117,0.137,0.313,0.156,0.489c0,0.272-0.002,0.544-0.002,0.817
		c0.145,0.617,0.084,1.246,0.047,1.863c-0.043,0.645-0.303,0.812-0.854,0.527c-0.588-0.304-1.162-0.651-1.744-0.979
		c-1.924-1.086-3.781-2.314-5.656-3.503C44.312,45.11,43.998,45.451,43.656,45.316"/>
	<path fill-rule="evenodd" clip-rule="evenodd" fill="#C9773F" d="M23.766,39.414c-0.348-0.283-0.607-0.719-1.129-0.678
		c-0.174,0.011-0.354-0.104-0.164-0.368c0.078-0.106,0.018-0.248-0.084-0.245c-0.588,0.006-0.871-0.756-1.482-0.695
		c-0.184,0.02-0.359-0.107-0.377-0.32c-0.059-0.653-0.406-0.606-0.887-0.622c-0.561-0.021-1.121-0.179-1.594-0.71
		c-0.352-0.397-0.939-0.541-1.426-0.793c-0.043-0.021-0.129,0.017-0.143-0.008c-0.447-0.746-1.422-0.792-1.771-1.619
		c-0.121-0.284-0.199-0.248-0.422-0.232c-0.568,0.036-0.785-0.359-0.783-0.941c0.441-0.536,1.043-0.751,1.637-0.98
		c-0.549,0.719-0.512,1.241,0.381,1.839c0.498,0.335,0.91,0.84,1.494,1.015c1.428,0.433,2.535,1.492,3.766,2.314
		c0.436,0.292,0.986,0.253,1.42,0.66c0.35,0.324,0.293-0.33,0.639-0.538c-0.266,1.418,0.984,1.357,1.473,2.062
		c0.41,0.592,0.955,0.711,1.65,0.759c0.748,0.053,1.723,0.066,2.039,1.236c0.033,0.117,0.439,0.146,0.373,0.51
		c-0.479-0.058-0.928-0.21-1.338-0.493c-0.27-0.201-0.6-0.207-0.893-0.329c-0.164-0.006-0.338,0.03-0.445-0.161
		c-0.611-0.341-1.291-0.439-1.934-0.662V39.414z"/>
	<path fill-rule="evenodd" clip-rule="evenodd" fill="#C97339" d="M12.018,33.169c-0.238,0.439-0.094,0.747,0.234,1.056
		c0.258,0.244,0.537,0.564,0.082,0.921c-0.127,0.101-0.139,0.222-0.041,0.343c0.107,0.137,0.258,0.158,0.408,0.133
		c0.654-0.121,1.215-0.113,1.127,0.904c-0.018,0.212,0.164,0.243,0.303,0.29c0.57,0.196,1.148,0.204,1.727,0.079
		c0.141-0.03,0.311-0.167,0.408-0.036c0.605,0.787,1.596,0.684,2.295,1.241c-1.236-0.193-2.49-0.308-3.711-0.596
		c-1.354-0.322-2.729-0.35-4.09-0.547c-0.73-0.11-1.463-0.223-2.205-0.188c-0.189,0.007-0.424-0.061-0.477-0.308
		c-0.049-0.237,0.186-0.281,0.316-0.391c0.986-0.856,1.973-1.713,2.957-2.57C11.549,33.331,11.76,33.195,12.018,33.169"/>
	<path fill-rule="evenodd" clip-rule="evenodd" fill="#CB7C44" d="M52.318,53.702c-0.143,0.075-0.252,0.186-0.287,0.353
		c-0.055,0.286-0.234,0.311-0.447,0.3c-0.219-0.013-0.412-0.106-0.43-0.36c-0.039-0.624-0.305-0.837-0.879-0.881
		c-0.463-0.037-0.635-0.691-1.115-0.915c-0.523-0.243-0.971-0.698-1.553-0.876c-0.896-0.273-1.387-1.036-1.824-2.156
		c0.062,0.773-0.281,1.008-0.625,1.244c0.309-0.615,0.373-1.256,0.158-1.926c-0.004-0.288-0.564-0.489-0.16-0.816
		c0.422-0.345,0.926-0.105,1.078,0.3c0.424,1.12,1.391,1.356,2.184,1.913c0.873,0.609,1.781,1.146,2.666,1.729
		c0.02,0.014,0.039,0.033,0.059,0.051c0.873,0.679,1.174,0.565,1.383-0.518c0.02-0.105,0.033-0.215,0.053-0.321
		c0.066-0.18,0.059-0.437,0.334-0.402C52.875,51.548,52.676,52.643,52.318,53.702"/>
	<path fill-rule="evenodd" clip-rule="evenodd" fill="#CD8049" d="M52.912,50.419c-0.174,0.118-0.143,0.311-0.148,0.491
		c-0.215,0.402-0.578,0.395-0.844,0.202c-0.541-0.394-1.098-0.674-1.734-0.854c-0.371-0.104-0.709-0.46-1.055-0.701
		c-1.547-1.097-3.113-2.153-4.727-3.132c-0.043-0.025-0.102-0.045-0.119-0.091c-0.293-0.67-0.666-0.443-1.053-0.122
		c-0.074,0.003-0.135-0.026-0.186-0.087c0.145-0.325,0.346-0.594,0.609-0.809c0.441-0.506,0.805-0.285,1.32-0.018
		c1.365,0.707,2.514,1.821,3.887,2.47c0.586,0.278,1.107,0.821,1.627,0.935c0.719,0.16,1.133,0.697,1.709,0.997
		c0.461,0.241,0.652,0.01,0.684-0.442c0.041-0.6,0.025-1.202,0.035-1.801c0.248,0.779,0.191,1.569,0.039,2.353
		C52.914,50.016,52.797,50.203,52.912,50.419"/>
	<path fill-rule="evenodd" clip-rule="evenodd" fill="#D69A69" d="M35.348,28.45c0.004,0.041,0.01,0.085,0.016,0.123
		c-0.16,0.222-0.408,0.154-0.693,0.245c0.91,0.176,1.541,0.746,2.148,1.358c0.203,0.207,0.422,0.354,0.686,0.457
		c0.658,0.257,1.248,0.662,1.773,1.169c0.338,0.327,0.76,0.494,1.129,0.745c0.934,0.637,2.049,0.935,2.85,1.823
		c0.26,0.289,0.613,0.336,0.906,0.521c0.455,0.293,1.166,0.347,1.082,1.229c-0.23,0.36-0.453,0.147-0.701,0.015
		c-1.43-0.774-2.834-1.623-4.195-2.508c-1.285-0.833-2.629-1.579-3.854-2.531c-0.484-0.378-0.971-0.845-1.631-0.857
		c-1.213-0.132-2.053-1.029-2.959-1.786c-0.111-0.096-0.268-0.288-0.018-0.447c0.371,0.025,0.748-0.085,1.111,0.068
		C33.807,28.025,34.557,28.396,35.348,28.45"/>
	<path fill-rule="evenodd" clip-rule="evenodd" fill="#C9753C" d="M43.842,52.881c0.654,0.482,1.041,1.2,1.41,1.939
		c0.201,0.408,0.336,0.906,0.971,0.743c0.342-0.089,0.516,0.484,0.941,0.505c0.453,0.021,0.48,0.412,0.445,0.891
		c-0.037,0.475,0.664,0.861,1.018,0.578c0.402-0.322,0.922-0.283,1.178-0.108c0.561,0.374,0.814-0.072,1.178-0.278
		c-0.043,0.621-0.506,0.98-0.748,1.479c-0.26,0.126-0.307,0.429-0.443,0.658c-0.049,0.053-0.1,0.109-0.15,0.164
		c-0.354,0.247-0.709,0.281-1-0.096c-0.645-0.838-1.592-1.254-2.271-2.04L43.842,52.881"/>
	<path fill-rule="evenodd" clip-rule="evenodd" fill="#C97338" d="M46.369,57.316c0.371-0.026,0.693,0.012,0.787,0.52
		c0.02,0.106,0.166,0.259,0.252,0.259c0.719-0.002,1.02,0.606,1.357,1.132c0.252,0.387,0.586,0.149,0.875,0.226
		c-0.357,0.789-0.902,1.414-1.461,2.03c-0.307,0.338-0.443,0.216-0.525-0.184C47.359,59.92,46.809,58.639,46.369,57.316"/>
	<path fill-rule="evenodd" clip-rule="evenodd" fill="#CA763E" d="M23.766,39.412c0.682,0.083,1.365,0.164,1.934,0.662
		C25.043,39.896,24.363,39.797,23.766,39.412"/>
	<path fill-rule="evenodd" clip-rule="evenodd" fill="#C97338" d="M49.791,59.288c-0.014-0.354,0.061-0.634,0.445-0.658
		C50.115,58.87,50.059,59.168,49.791,59.288"/>
	<path fill-rule="evenodd" clip-rule="evenodd" fill="#CA763E" d="M26.145,40.235c0.334-0.016,0.658,0.005,0.893,0.329
		C26.711,40.548,26.404,40.471,26.145,40.235"/>
	<path fill-rule="evenodd" clip-rule="evenodd" fill="#C9773F" d="M15.736,31.037c-0.102,0-0.201-0.001-0.301-0.001
		c0.154-0.212,0.361-0.302,0.598-0.329C15.977,30.863,15.877,30.974,15.736,31.037"/>
	<path fill-rule="evenodd" clip-rule="evenodd" fill="#D8A170" d="M38.789,29.554c1.629,0.786,3.277,1.525,4.797,2.567
		c1.752,1.205,3.393,2.555,4.729,4.311c0.141,0.677-0.271,0.432-0.514,0.346c-0.617-0.217-1.148-0.638-1.68-1.024
		c-1.281-0.926-2.74-1.509-3.986-2.485c-1.289-1.011-2.727-1.717-4.104-2.546c-0.766-0.462-1.518-0.992-2.123-1.743
		c0.23-0.221,0.432-0.196,0.641-0.074c0.49,0.111,0.982,0.224,1.473,0.335C38.262,29.39,38.602,29.249,38.789,29.554"/>
	<path fill-rule="evenodd" clip-rule="evenodd" fill="#D59765" d="M31.502,27.921c0.064,0.13,0.176,0.155,0.297,0.159
		c0.961,0.808,1.822,1.811,3.121,1.971c5.033,3.491,10.357,6.438,15.406,9.961c0.029-0.238-0.109-0.453,0.068-0.621
		c0.266,0.197,0.381,0.496,0.445,0.824c-0.031,0.316,0.363,0.754-0.102,0.927c-0.465,0.175-0.992-0.011-1.232-0.473
		c-0.277-0.538-0.691-0.798-1.148-0.954c-0.465-0.156-0.812-0.458-1.195-0.748c-0.936-0.714-1.951-1.271-2.99-1.787
		c-0.592-0.295-1.088-0.827-1.627-1.253c-0.207-0.166-0.365-0.638-0.67-0.108c-0.062,0.104-0.166,0.101-0.236-0.021
		c-0.598-1.072-1.645-1.635-2.59-1.938c-0.811-0.259-1.139-1.018-1.857-1.333c-0.836-0.364-1.586-1.039-2.42-1.489
		c-0.605-0.446-1.287-0.775-1.852-1.273c-0.598-0.524-1.252-0.854-1.957-1.099c-0.354-0.12-0.557-0.318-0.504-0.749
		C30.807,27.918,31.152,27.918,31.502,27.921"/>
	<path fill-rule="evenodd" clip-rule="evenodd" fill="#D79D6C" d="M36.549,28.904h-0.594c1.039,0.722,1.869,1.439,2.863,1.981
		c1.271,0.694,2.613,1.345,3.691,2.414c0.408,0.405,0.9,0.558,1.359,0.8c1.41,0.738,2.633,1.822,4.057,2.531
		c0.27,0.137,0.355,0.103,0.389-0.197c0.459,0.397,0.842,0.859,1.049,1.475c0.049,0.236-0.105,0.295-0.252,0.286
		c-0.672-0.042-1.434-0.096-1.857-0.661c-0.531-0.707-1.207-0.88-1.912-1.094c-0.107-0.07-0.197-0.153-0.162-0.311
		c-0.072-0.813-0.738-0.89-1.223-1.106c-0.377-0.164-0.742-0.25-0.951-0.681c-0.051-0.105-0.182-0.195-0.293-0.232
		c-0.973-0.32-1.705-1.152-2.693-1.491c-0.592-0.202-1.016-0.987-1.609-1.213c-1.395-0.53-2.248-2.046-3.73-2.358
		c-0.141-0.031-0.229-0.151-0.232-0.282c-0.004-0.259,0.195-0.181,0.324-0.188c0.195-0.012,0.395-0.003,0.592-0.003
		C35.787,28.562,36.182,28.672,36.549,28.904"/>
	<path fill-rule="evenodd" clip-rule="evenodd" fill="#D38F5B" d="M45.172,40.258c0.148-0.449-0.242-0.885-0.031-1.336
		c0.326,0.226,0.65,0.459,0.982,0.679c1.596,1.057,3.285,1.944,4.793,3.167c0.148,0.122,0.367,0.138,0.541,0.228
		c0.111,0.056,0.209,0.162,0.318,0.015c0.096-0.125,0.049-0.252-0.01-0.377c-0.111-0.241-0.223-0.485-0.182-0.772
		c0.428,0.638,0.609,1.382,0.738,2.146c0.082,0.366,0.227,0.77-0.145,1.03c-0.385,0.271-0.703,0.002-1-0.261
		c-0.566-0.495-1.174-0.89-1.852-1.188c-0.924-0.403-1.713-1.079-2.527-1.699c-0.225-0.169-0.445-0.333-0.691-0.472
		c-0.41-0.228-0.6-0.089-0.629,0.396c-0.018,0.08-0.055,0.154-0.1,0.221c-0.064,0.061-0.133,0.064-0.203,0.008
		C45.174,41.447,45.172,40.851,45.172,40.258"/>
	<path fill-rule="evenodd" clip-rule="evenodd" fill="#D08953" d="M45.33,42.043c0-0.057,0.002-0.109,0.002-0.164
		c0.938,0.363,1.82,0.836,2.615,1.503c0.08,0.066,0.154,0.155,0.248,0.165c1.195,0.133,1.926,1.269,2.998,1.701
		c0.451,0.183,0.729,0.871,1.371,0.678c0.072-0.013,0.135,0.005,0.188,0.059c0.006,0.057,0.008,0.112,0.012,0.164
		c0,0.274,0.027,0.552-0.006,0.816c-0.043,0.359,0.201,0.884-0.152,1.03c-0.209,0.084-0.697-0.217-0.85-0.491
		c-0.5-0.883-1.488-0.838-2.115-1.475c-0.299-0.306-0.812-0.334-0.998-0.852c-0.033-0.09-0.209-0.175-0.312-0.164
		c-0.818,0.077-1.297-0.567-1.871-1.024c-0.205-0.164-0.488-0.227-0.746-0.285c-0.246-0.062-0.518-0.041-0.463-0.488
		c-0.426,0.233-0.438,0.794-0.83,0.954c0.189-0.439,0.383-0.878,0.574-1.318C45.18,42.619,45.105,42.255,45.33,42.043"/>
	<path fill-rule="evenodd" clip-rule="evenodd" fill="#D69968" d="M45.182,36.129c0.051,0.054,0.1,0.108,0.146,0.164
		c0.752,0.459,1.502,0.912,2.23,1.423c0.627,0.438,1.324,1.127,2.232,0.724c0.318,0.226,0.48,0.572,0.604,0.954
		c-0.037,0.378,0.344,0.658,0.238,1.091c-1.301-1.046-2.758-1.726-4.049-2.691c-0.66-0.495-1.377-0.868-2.023-1.391
		c-0.84-0.679-1.783-1.187-2.742-1.652c-1.252-0.608-2.369-1.491-3.557-2.232c-0.939-0.586-1.697-1.5-2.771-1.851
		c-0.262-0.089-0.436-0.347-0.57-0.615c0.633-0.147,0.986,0.459,1.441,0.726c1.127,0.65,2.27,1.326,3.303,2.111
		c1.033,0.786,2.199,1.253,3.232,2.02C43.57,35.41,44.293,36.017,45.182,36.129"/>
	<path fill-rule="evenodd" clip-rule="evenodd" fill="#D18C57" d="M52.617,45.984c-0.32,0.642-0.732-0.061-1.086,0.088
		c-0.174-1.059-1.18-0.902-1.74-1.414c-0.486-0.441-1.152-0.697-1.723-1.005c-0.494-0.267-1.125-0.501-1.549-0.939
		c-0.361-0.376-0.928-0.331-1.188-0.835c0-0.19-0.004-0.38,0.002-0.571c0.01-0.382,0.139-0.434,0.475-0.301
		c0.793,0.315,1.398,0.96,2.094,1.44c0.684,0.475,1.371,0.883,2.115,1.225c0.445,0.203,0.834,0.564,1.223,0.891
		c0.254,0.208,0.451,0.565,0.82,0.385c0.385-0.188,0.221-0.609,0.262-0.941c0.203,0.354,0.248,0.758,0.293,1.162
		C52.73,45.438,52.727,45.711,52.617,45.984"/>
	<path fill-rule="evenodd" clip-rule="evenodd" fill="#D69A69" d="M49.791,38.439c-0.102,0.559-0.465,0.38-0.758,0.307
		c-0.443-0.111-0.986-0.35-1.223-0.598c-0.744-0.789-1.803-1.012-2.48-1.855c0.777,0.111,1.453,0.253,2.025,1.066
		c0.398,0.568,1.248,0.743,2.008,0.547C49.506,38.083,49.648,38.262,49.791,38.439"/>
	<path fill-rule="evenodd" clip-rule="evenodd" fill="#C66831" d="M38.789,29.554c-0.271-0.058-0.543-0.12-0.768-0.314
		c0.266-0.029,0.559,0.099,0.586-0.45c0.016-0.35,0.447-0.578,0.744-0.511c0.393,0.093,0.932-0.196,1.178,0.353
		c0.262,0.583-0.201,0.658-0.539,0.752C39.6,29.491,39.158,29.23,38.789,29.554"/>
	<path fill-rule="evenodd" clip-rule="evenodd" fill="#CF844D" d="M52.617,45.984c0-0.273-0.002-0.546-0.002-0.816
		c0.242,0.23,0.121,0.54,0.137,0.816C52.707,45.984,52.662,45.984,52.617,45.984"/>
	<path fill-rule="evenodd" clip-rule="evenodd" fill="#CD7E47" d="M43.248,46.147c0.352-0.592,0.607-0.839,1.113-0.042
		c0.275,0.434,0.916,0.709,1.391,0.937c0.996,0.47,1.705,1.47,2.824,1.701c0.418,0.085,0.521,0.919,1.139,0.771
		c0.449,1.008,1.707,0.51,2.23,1.445c0.084,0.152,0.553,0.193,0.818-0.05c-0.039,0.158-0.088,0.311-0.119,0.471
		c-0.203,1.043-0.244,1.104-0.463,0.914c-0.332-0.291-0.879,0.188-1.098-0.434c-0.043-0.122-0.23-0.191-0.357-0.272
		c-1.312-0.833-2.615-1.684-3.945-2.478c-0.26-0.154-0.455-0.242-0.463-0.596c-0.004-0.104-0.047-0.215-0.1-0.306
		c-0.213-0.366-0.52-0.634-0.912-0.464c-0.449,0.195,0.178,0.482,0.01,0.738c-0.275-0.324-0.553-0.644-0.928-0.834
		c0.162-0.262,0.402-0.279,0.584-0.264c-0.359-0.336-1.105-0.312-1.107-1.18c-0.088,0.07-0.006,0.213-0.039,0.328
		c-0.047,0.163-0.107,0.346-0.275,0.313C43.176,46.779,43.221,46.449,43.248,46.147"/>
	<path fill-rule="evenodd" clip-rule="evenodd" fill="#CD844D" d="M40.135,44.037c0.41-0.728-0.164-1.081-0.479-1.529
		c0.139-0.496,0.26-0.997,0.424-1.482c0.18-0.538,0.561-0.777,1.062-0.608c0.549,0.186,0.605,0.712,0.463,1.208
		C41.332,42.577,40.793,43.357,40.135,44.037"/>
	<path fill-rule="evenodd" clip-rule="evenodd" fill="#CB7C44" d="M43.248,46.147c0.09,0.197,0.18,0.395,0.285,0.627
		c0.25-0.245,0.107-0.642,0.436-0.835c-0.186,1.014,0.891,0.802,1.092,1.454c-0.18,0.223-0.43,0.228-0.672,0.257h-2.525
		c0.396-0.693,0.775-1.121,1.184-1.524C43.113,46.133,43.182,46.141,43.248,46.147"/>
	<path fill-rule="evenodd" clip-rule="evenodd" fill="#CD844D" d="M39.658,42.508c-0.006,0.437-0.217,0.645-0.602,0.669
		C39.258,42.954,39.459,42.73,39.658,42.508"/>
	<path fill-rule="evenodd" clip-rule="evenodd" fill="#D18C57" d="M45.33,42.043c-0.078,0.286-0.068,0.619-0.336,0.809
		c0.059-0.268,0.121-0.539,0.182-0.811C45.227,42.041,45.279,42.043,45.33,42.043"/>
	<path fill-rule="evenodd" clip-rule="evenodd" fill="#D59663" d="M30.459,27.916c0.188,0.264,0.277,0.644,0.67,0.67
		c0.805,0.051,1.361,0.615,1.949,1.136c0.277,0.243,0.557,0.518,0.969,0.505c0.477-0.016,0.396,0.632,0.725,0.811
		c-0.35,0.018-0.605-0.089-0.908-0.36c-0.973-0.866-2.057-1.553-3.273-1.944c-0.352-0.113-0.354-0.654-0.791-0.658
		c0.18-0.242,0.357-0.122,0.512-0.16C30.361,27.914,30.408,27.914,30.459,27.916"/>
	<path fill-rule="evenodd" clip-rule="evenodd" fill="#D18C57" d="M38.639,37.277c-1.096-0.277-2.002-0.935-2.834-1.734
		c-0.115-0.109-0.225-0.311-0.336-0.309c-1.195,0.021-1.836-1.32-2.877-1.487c-1.006-0.166-1.471-0.876-2.047-1.581
		c-0.18-0.223-0.586-0.211-0.875-0.343c-0.615-0.272-1.219-0.652-1.633-1.183c-0.484-0.613-1.203-0.379-1.73-0.819
		c-0.184-0.153-0.447-0.034-0.58-0.493c-0.127-0.432-0.725-0.48-1.139-0.649c-0.16-0.067-0.473-0.024-0.443-0.32
		c0.033-0.314,0.324-0.253,0.539-0.281c0.342-0.041,0.68-0.104,1.02-0.159c0.291,0.869,1.105,0.991,1.701,1.396
		c0.928,0.632,1.91,1.16,2.869,1.73c0.043,0.026,0.109,0.026,0.133,0.062c0.6,0.953,1.625,1.208,2.463,1.694
		c1.367,0.798,2.576,1.918,4.092,2.431c0.631,0.21,1.002,0.907,1.52,1.348c0.195,0.167,0.387,0.301,0.617,0.417
		C39.016,37.241,38.818,37.242,38.639,37.277"/>
	<path fill-rule="evenodd" clip-rule="evenodd" fill="#CD7F48" d="M19.305,30.051c1.023,0.126,1.742,0.844,2.535,1.476
		c0.355,0.285,0.82,0.546,1.285,0.669c0.439,0.111,0.742,0.377,0.938,0.814c-0.928,0.729-1.502-0.336-1.992-0.729
		c-0.514-0.413-1.041-0.51-1.561-0.746C19.883,31.252,19.471,30.779,19.305,30.051"/>
	<path fill-rule="evenodd" clip-rule="evenodd" fill="#CD7F48" d="M24.213,33.171c0.312-0.06,0.646-0.192,0.764,0.324
		c0.076,0.336,0.363,0.36,0.586,0.411c0.738,0.167,1.352,0.528,1.771,1.236c-0.764-0.482-1.859-0.161-2.396-1.205
		c-0.023-0.044-0.145-0.071-0.199-0.047C23.91,34.227,24.086,33.678,24.213,33.171"/>
	<path fill-rule="evenodd" clip-rule="evenodd" fill="#CF854F" d="M22.428,28.573c0.877,0.596,1.965,0.805,2.598,1.855
		c0.258,0.425,0.836,0.21,1.248,0.528c1.162,0.891,2.328,1.907,3.641,2.382c1.172,0.423,1.854,1.443,2.863,2.006
		c0.219,0.122,0.385,0.228,0.654,0.251c0.906,0.076,1.494,0.873,2.223,1.355c0.635,0.419,1.252,0.844,2.043,0.844
		c-0.068,0.28-0.176,0.575-0.402,0.797c-0.676,0.336-0.943-0.458-1.434-0.654c-0.9-0.36-1.627-1.163-2.625-1.314
		c-0.23-0.035-0.426-0.165-0.467-0.447c-0.016-0.107-0.004-0.254-0.109-0.273c-0.992-0.169-1.598-1.149-2.525-1.447
		c-0.143-0.047-0.344-0.062-0.41-0.172c-0.57-0.926-1.424-1.318-2.359-1.516c-0.363-0.076,0.023-0.474-0.363-0.638
		c-0.574-0.244-1.139-0.585-1.732-0.781c-0.385-0.126-0.184-0.72-0.609-0.708c-0.545,0.017-0.779-1.038-1.482-0.527
		c-0.021,0.014-0.17-0.121-0.209-0.212c-0.266-0.612-0.645-1.034-1.363-0.959C21.875,28.661,22.131,28.562,22.428,28.573"/>
</g>
</svg>
