<?xml version="1.0" encoding="UTF-8" standalone="no"?>
<!-- Generator: Adobe Illustrator 16.0.0, SVG Export Plug-In . SVG Version: 6.00 Build 0)  -->

<svg
   xmlns:dc="http://purl.org/dc/elements/1.1/"
   xmlns:cc="http://creativecommons.org/ns#"
   xmlns:rdf="http://www.w3.org/1999/02/22-rdf-syntax-ns#"
   xmlns:svg="http://www.w3.org/2000/svg"
   xmlns="http://www.w3.org/2000/svg"
   xmlns:xlink="http://www.w3.org/1999/xlink"
   xmlns:sodipodi="http://sodipodi.sourceforge.net/DTD/sodipodi-0.dtd"
   xmlns:inkscape="http://www.inkscape.org/namespaces/inkscape"
   version="1.1"
   id="Capa_1"
   x="0px"
   y="0px"
   width="38px"
   height="38px"
   viewBox="0 0 38 38"
   enable-background="new 0 0 38 38"
   xml:space="preserve"
   inkscape:version="0.91 r13725"
   sodipodi:docname="icon-facebook.svg"><metadata
     id="metadata29"><rdf:RDF><cc:Work
         rdf:about=""><dc:format>image/svg+xml</dc:format><dc:type
           rdf:resource="http://purl.org/dc/dcmitype/StillImage" /></cc:Work></rdf:RDF></metadata><defs
     id="defs27"><defs
       id="defs7"><rect
         id="SVGID_1_"
         x="0.175"
         y="1.1619999"
         width="37.651001"
         height="34.290001" /></defs><clipPath
       id="SVGID_2_"><use
         xlink:href="#SVGID_1_"
         overflow="visible"
         id="use11"
         style="overflow:visible"
         x="0"
         y="0"
         width="100%"
         height="100%" /></clipPath><defs
       id="defs15"><rect
         height="34.290001"
         width="37.651001"
         y="1.1619999"
         x="0.175"
         id="SVGID_3_" /></defs><clipPath
       id="SVGID_4_"><use
         height="100%"
         width="100%"
         y="0"
         x="0"
         style="overflow:visible"
         id="use19"
         overflow="visible"
         xlink:href="#SVGID_3_" /></clipPath></defs><sodipodi:namedview
     pagecolor="#ffffff"
     bordercolor="#666666"
     borderopacity="1"
     objecttolerance="10"
     gridtolerance="10"
     guidetolerance="10"
     inkscape:pageopacity="0"
     inkscape:pageshadow="2"
     inkscape:window-width="1469"
     inkscape:window-height="749"
     id="namedview25"
     showgrid="false"
     inkscape:zoom="6.2105263"
     inkscape:cx="-17.631356"
     inkscape:cy="19"
     inkscape:window-x="49"
     inkscape:window-y="34"
     inkscape:window-maximized="0"
     inkscape:current-layer="Capa_1" /><path
     style="fill:#44578d"
     inkscape:connector-curvature="0"
     id="path21"
     d="m 37.826,18.307 c 0,9.47 -8.43,17.146 -18.825,17.146 C 8.602,35.453 0.176,27.777 0.176,18.307 0.176,8.838 8.602,1.161 19.001,1.161 29.396,1.162 37.826,8.838 37.826,18.307"
     clip-path="url(#SVGID_4_)"
     transform="matrix(1.0092961,0,0,1.1081948,-0.17763612,-1.2877223)" /><path
     d="m 24.376521,20.429571 0.533917,-3.939633 -4.104807,0 0,-2.51671 c 0,-1.139224 0.335086,-1.916069 2.055936,-1.916069 l 2.19421,-0.0022 0,-3.5240597 c -0.378486,-0.047652 -1.680478,-0.1562554 -3.199469,-0.1562554 -3.165153,0 -5.331102,1.8351701 -5.331102,5.2085151 l 0,2.905687 -3.580983,0 0,3.939632 3.580983,0 0,10.11117 4.280425,0 0,-10.11117 3.57089,0 z"
     id="path23"
     inkscape:connector-curvature="0"
     style="fill:#f5f5f6" /></svg>
