<?xml version="1.0" encoding="UTF-8" standalone="no"?>
<!-- Generator: Adobe Illustrator 16.0.0, SVG Export Plug-In . SVG Version: 6.00 Build 0)  -->

<svg
   xmlns:dc="http://purl.org/dc/elements/1.1/"
   xmlns:cc="http://creativecommons.org/ns#"
   xmlns:rdf="http://www.w3.org/1999/02/22-rdf-syntax-ns#"
   xmlns:svg="http://www.w3.org/2000/svg"
   xmlns="http://www.w3.org/2000/svg"
   xmlns:sodipodi="http://sodipodi.sourceforge.net/DTD/sodipodi-0.dtd"
   xmlns:inkscape="http://www.inkscape.org/namespaces/inkscape"
   version="1.1"
   id="Capa_1"
   x="0px"
   y="0px"
   width="38px"
   height="38px"
   viewBox="0 0 38 38"
   enable-background="new 0 0 38 38"
   xml:space="preserve"
   inkscape:version="0.91 r13725"
   sodipodi:docname="icon-google.svg"><metadata
     id="metadata13"><rdf:RDF><cc:Work
         rdf:about=""><dc:format>image/svg+xml</dc:format><dc:type
           rdf:resource="http://purl.org/dc/dcmitype/StillImage" /></cc:Work></rdf:RDF></metadata><defs
     id="defs11" /><sodipodi:namedview
     pagecolor="#ffffff"
     bordercolor="#666666"
     borderopacity="1"
     objecttolerance="10"
     gridtolerance="10"
     guidetolerance="10"
     inkscape:pageopacity="0"
     inkscape:pageshadow="2"
     inkscape:window-width="1363"
     inkscape:window-height="850"
     id="namedview9"
     showgrid="false"
     inkscape:zoom="6.2105263"
     inkscape:cx="-17.631356"
     inkscape:cy="19"
     inkscape:window-x="426"
     inkscape:window-y="34"
     inkscape:window-maximized="0"
     inkscape:current-layer="Capa_1" /><path
     d="M 38,18.998892 C 38,29.491777 29.492085,38 19,38 8.5069053,38 0,29.491777 0,18.998892 0,8.5071154 8.5069053,0 19,0 29.492085,0 38,8.5071154 38,18.998892"
     id="path3"
     inkscape:connector-curvature="0"
     style="fill:#dc4e41;fill-opacity:1" /><path
     inkscape:connector-curvature="0"
     style="fill:#ffffff"
     d="m 32.332249,17.492308 -2.827869,0 0,-2.827763 -2.262297,0 0,2.827763 -2.827869,0 0,2.262351 2.827869,0 0,2.827828 2.262297,0 0,-2.827828 2.827869,0 m -18.098367,-2.82789 0,3.529155 4.931805,0 c -0.378935,2.126563 -2.222706,3.676265 -4.931805,3.676265 -2.986231,0 -5.4125422,-2.528108 -5.4125422,-5.514366 0,-2.986257 2.4263112,-5.508608 5.4125422,-5.508608 1.346066,0 2.550738,0.463778 3.500903,1.368693 l 0,0.0064 2.550739,-2.55075 c -1.56664,-1.459198 -3.608362,-2.3584198 -6.051642,-2.3584198 -4.9996737,0 -9.0491828,4.0494748 -9.0491828,9.0490848 0,4.999674 4.0495091,9.049214 9.0491828,9.049214 5.225904,0 8.687216,-3.676202 8.687216,-8.845563 0,-0.661737 -0.06221,-1.295203 -0.175327,-1.900335 0,0 -8.511889,0 -8.511889,0 z"
     id="path22166" /></svg>
