<?xml version="1.0" encoding="utf-8"?>
<!-- Generator: Adobe Illustrator 16.0.0, SVG Export Plug-In . SVG Version: 6.00 Build 0)  -->
<!DOCTYPE svg PUBLIC "-//W3C//DTD SVG 1.1//EN" "http://www.w3.org/Graphics/SVG/1.1/DTD/svg11.dtd">
<svg version="1.1" id="Capa_1" xmlns="http://www.w3.org/2000/svg" xmlns:xlink="http://www.w3.org/1999/xlink" x="0px" y="0px"
	 width="74px" height="69px" viewBox="0 0 74 69" enable-background="new 0 0 74 69" xml:space="preserve">
<g>
	<path fill-rule="evenodd" clip-rule="evenodd" fill="#C66831" d="M71.979,21.387c1.618,3.497,2.325,7.224,2.244,11.097
		c-0.178,8.397-3.517,15.202-9.363,20.66c-0.834,0.773-1.143,1.554-1.06,2.729c0.302,4.362,0.756,8.676,2.495,12.707
		c0.053,0.12,0.063,0.26,0.094,0.396c-0.384,0.227-0.669-0.05-0.955-0.163c-4.34-1.68-8.475-3.806-12.25-6.671
		c-0.611-0.464-1.159-0.583-1.92-0.362c-3.705,1.075-7.443,1.952-11.295,2.206c-5.474,0.361-10.835-0.308-16.082-1.951
		c-1.421-0.443-2.481-0.286-3.724,0.629c-3.862,2.853-8.091,4.936-12.627,6.277c-0.21,0.062-0.447,0.293-0.631,0.039
		c-0.164-0.23,0.026-0.479,0.129-0.684c0.371-0.748,0.73-1.512,1.151-2.228c1.937-3.304,2.691-6.958,2.865-10.8
		c0.027-0.564-0.193-0.92-0.555-1.275c-1.488-1.457-3.056-2.841-4.416-4.425c-4.373-5.091-6.375-11.19-6.218-18.062
		c0.184-8.085,3.519-14.646,8.948-20.04c6.193-6.156,13.646-9.461,21.954-10.675c7.446-1.087,14.714-0.313,21.786,2.433
		c0.396,0.153,0.834,0.232,1.16,0.559c-0.523,0.445-0.996,0.008-1.482-0.108c-0.309-0.074-0.635-0.336-0.829,0.175
		c-0.23,0.602-0.729,0.619-1.235,0.662c-1.045,0.083-2.118-0.124-3.123,0.352c-1.045,0.092-2.027-0.334-3.05-0.421
		c-0.524-0.208-1.088-0.086-1.618-0.217c-0.646-0.222-1.311-0.097-1.967-0.13c-0.283-0.004-0.565-0.016-0.838-0.084
		c-1.115-0.225-2.229-0.159-3.339,0.014C35.834,4.103,35.438,4.094,35.04,4.1c-1.453-0.058-2.854,0.326-4.265,0.599
		c-1.198,0.138-2.349,0.491-3.497,0.854c-0.386,0.11-0.757,0.273-1.149,0.372c-0.483,0.046-0.927,0.237-1.368,0.44
		c-1.14,0.357-2.201,0.922-3.284,1.439c-0.299,0.103-0.594,0.21-0.855,0.408c-0.153,0.107-0.309,0.204-0.477,0.275
		c-0.768,0.313-1.49,0.717-2.169,1.213c-0.737,0.363-1.406,0.85-2.07,1.351c-1.66,1.132-3.188,2.442-4.797,3.925
		c0.71,0.352,1.309,0.209,1.872,0.271c3.663,0.434,7.326,0.843,10.943,1.624c0.262,0.057,0.525,0.038,0.788,0.07
		c2.257,0.474,4.499,1.019,6.708,1.708c0.097,0.021,0.192,0.051,0.288,0.087c0.81,0.332,1.668,0.497,2.478,0.828
		c0.221,0.084,0.444,0.164,0.667,0.24c0.396,0.155,0.8,0.288,1.203,0.423c0.583,0.234,1.184,0.418,1.771,0.639
		c3.801,1.553,7.437,3.465,10.857,5.825c0.698,0.483,1.546,0.822,1.913,1.743c-0.107,0.784-0.656,1.266-1.07,1.845
		c-0.803,1.131-0.723,2.48,0.199,3.044c0.42,0.254,0.885,0.447,1.362,0.58c1.769,0.062,3.531-0.062,5.297,0.065
		c0.994,0.463,1.572,1.387,2.187,2.273c1.335,1.793,2.379,3.786,3.406,5.787c0.685,1.487,1.236,3.029,1.651,4.622
		c0.179,0.684,0.388,0.714,0.823,0.231c0.576-0.632,1.066-1.334,1.514-2.072c0.072-0.121,0.162-0.229,0.264-0.324
		c0.284-0.227,0.449-0.543,0.564-0.895c0.388-0.57,0.826-1.109,1.051-1.793c0.268-0.572,0.589-1.118,0.713-1.762
		c0.352-0.915,0.857-1.766,1.019-2.764c0.321-1.337,0.733-2.66,0.692-4.066c0.133-1.291,0.412-2.579,0.109-3.882
		c-0.061-0.34-0.085-0.677,0.082-0.992c0.432-0.223,0.272-0.642,0.297-1.004c0.083-1.37,0-2.744,0.125-4.114
		c0.055-0.593,0.125-1.115,0.866-1.162C72.104,22.031,71.568,21.484,71.979,21.387"/>
	<path fill-rule="evenodd" clip-rule="evenodd" fill="#C56731" d="M71.979,21.387c-0.06,0.408,0.096,0.743-0.531,1.046
		c-0.619,0.302-0.424,1.437-0.367,2.184c0.093,1.216-0.095,2.403-0.129,3.606c-0.021,0.604-0.251,0.027-0.383,0.034
		c-0.207-0.149-0.264-0.4-0.35-0.632c-0.032-0.096-0.051-0.192-0.064-0.291c-0.037-0.342-0.043-0.69-0.165-1.016
		c-0.153-0.477-0.247-0.971-0.392-1.452c-0.254-0.925-0.535-1.838-0.947-2.7c-0.225-0.75-0.547-1.447-0.964-2.097
		c-0.185-0.369-0.363-0.751-0.6-1.089c-0.247-0.422-0.477-0.863-0.84-1.193c-0.222-0.228-0.399-0.496-0.58-0.761
		c-0.384-0.71-0.857-1.341-1.437-1.879c-3.205-3.786-7.168-6.359-11.547-8.269c-0.391-0.168-0.83-0.262-1.035-0.736
		c0.109-0.539,0.535-0.418,0.867-0.458c0.322-0.04,0.66,0.018,0.967-0.125c0.301-0.146,0.426-0.357,0.088-0.613
		c-0.492-0.367-1.562-0.202-1.83,0.375c-0.255,0.541-0.612,0.675-1.102,0.653c-0.646-0.075-1.262-0.269-1.877-0.473
		c-0.505-0.223-1.07-0.236-1.559-0.511c-0.093-0.072-0.123-0.163-0.09-0.28c0.934-0.863,2.061-0.323,3.093-0.456
		c0.948-0.123,1.024-0.112,1.01-1.216c0.862,0.153,1.603,0.766,2.493,0.744l-0.016-0.007c0.902,0.492,1.809,0.968,2.773,1.305
		c4.164,2.069,7.775,4.945,10.834,8.604C69.23,15.988,70.889,18.494,71.979,21.387"/>
	<path fill-rule="evenodd" clip-rule="evenodd" fill="#C66831" d="M56.465,5.081c-1.042-0.145-1.953-0.609-2.771-1.305
		C54.684,4.053,55.589,4.537,56.465,5.081"/>
	<path fill-rule="evenodd" clip-rule="evenodd" fill="#FFFFFF" d="M23.171,37.361c0.578-1.974,1.155-3.951,1.742-5.924
		c0.471-1.582,0.91-3.181,1.45-4.736c0.567-1.639,1.664-2.426,3.146-2.426c1.378-0.003,2.494,0.812,3.025,2.458
		c0.983,3.046,1.866,6.124,2.802,9.186c0.142,0.46,0.188,0.964,0.592,1.474c0.647-2.315,1.255-4.531,1.888-6.74
		c0.437-1.519,0.748-3.086,1.39-4.533c0.594-1.338,1.619-1.941,2.957-1.898c1.324,0.043,2.342,0.701,2.941,1.996
		c0.404,0.871,0.384,1.813,0.109,2.699c-1.705,5.582-3.526,11.126-5.432,16.638c-0.361,1.04-0.943,1.961-1.833,2.585
		c-2.015,1.414-4.492,0.556-5.438-2.008c-0.911-2.463-1.646-5.009-2.46-7.515c-0.157-0.483-0.327-0.961-0.7-1.433
		c-0.566,1.866-1.132,3.729-1.696,5.599c-0.366,1.211-0.725,2.428-1.251,3.579c-0.705,1.527-1.823,2.436-3.443,2.418
		c-1.613-0.016-2.738-0.955-3.442-2.456c-0.818-1.743-1.288-3.636-1.902-5.464c-1.201-3.562-2.353-7.146-3.507-10.727
		c-0.214-0.663-0.407-1.352-0.493-2.047c-0.226-1.837,0.625-3.184,2.27-3.712c1.61-0.521,3.08,0.123,3.809,1.769
		c0.85,1.928,1.227,4.035,1.826,6.062c0.503,1.706,0.965,3.427,1.447,5.139C23.034,37.351,23.102,37.355,23.171,37.361"/>
	<path fill-rule="evenodd" clip-rule="evenodd" fill="#FFFFFF" d="M50.629,34.17c-0.084-0.223-0.266-0.27-0.461-0.34
		c-1.517-0.57-1.957-2.021-1.031-3.447c0.43-0.657,0.92-1.269,1.377-1.903c0.086-0.223,0.179-0.443,0.347-0.614
		c0.892-1.02,1.714-2.1,2.544-3.176c0.701-0.723,1.223-1.59,1.638-2.514c0.353-0.791,0.193-1.501-0.325-1.645
		c-0.725-0.203-1.002,0.335-1.205,0.938c-0.146,0.435-0.266,0.877-0.414,1.308c-0.033,0.101-0.08,0.188-0.133,0.274
		c-0.284,0.367-0.574,0.725-0.98,0.947c-1.397,0.459-2.074,0.219-3.016-1.062c-0.709-1.716-0.064-3.246,0.568-4.777
		c0.557-0.599,1.125-1.183,1.728-1.733c0.571-0.319,1.134-0.656,1.738-0.908c1.439-0.418,2.843-0.382,4.221,0.296
		c1.728,0.852,2.815,2.243,3.214,4.243c0.111,0.699,0.076,1.4,0.039,2.101c-0.065,0.379-0.174,0.749-0.258,1.124
		c-0.246,0.61-0.534,1.201-0.82,1.793c-0.318,0.533-0.703,1.021-1.032,1.549c-0.289,0.375-0.61,0.724-0.843,1.15
		c-0.309,0.454-0.774,0.765-1.088,1.341c0.936,0.37,1.904-0.027,2.8,0.268c0.595,0.262,1.048,0.694,1.378,1.287
		c0.445,0.988,0.23,1.877-0.355,2.715c-0.888,0.934-2.003,1.013-3.134,0.868C54.957,33.979,52.795,34.104,50.629,34.17"/>
	<path fill-rule="evenodd" clip-rule="evenodd" fill="#CB7C45" d="M49.173,22.927c0.771,1.024,1.749,1.256,2.89,0.851
		c0.367-0.182,0.652-0.457,0.805-0.869h-0.006c1.092,0.532,1.236,0.971,0.639,1.98c-0.783,1.137-1.627,2.215-2.582,3.19
		c0.029-1.166-1.017-1.404-1.606-1.927c-1.394-1.223-2.81-2.485-4.569-3.105c-1.725-0.612-3.153-1.886-4.889-2.462
		c-0.125-0.044-0.299-0.078-0.339-0.2c-0.391-1.109-1.548-1.258-2.203-2.033c-0.319-0.379-0.756-0.564-1.214-0.688
		c-0.354-0.095-0.711-0.202-0.991-0.461c-0.701-0.638-1.366-1.311-2.406-1.228c-0.274,0.021-0.596-0.21-0.744-0.481
		c-0.509-0.938-1.308-1.353-2.249-1.558c-0.063-0.012-0.128-0.045-0.177-0.09c-1.503-1.424-3.503-1.96-5.076-3.267
		c-0.708-0.592-1.517-0.966-2.434-1.024c-0.801-0.048-0.99-0.705-1.167-1.369c0.029-0.311,0.306-0.377,0.475-0.551
		c1.088-0.592,2.181-1.166,3.375-1.488c-0.265,0.663-0.064,1.15,0.441,1.596c1.316,1.161,2.817,1.959,4.377,2.656
		c0.15,0.065,0.369,0.029,0.468,0.152c1.266,1.611,3.354,1.863,4.72,3.182c1.122,1.078,2.604,1.361,3.662,2.452
		c0.388,0.396,0.977,0.369,1.439,0.677c1.113,0.729,2.085,1.763,3.269,2.278c1.512,0.658,2.656,1.95,4.203,2.514
		c0.494,0.181,0.982,0.036,1.46,0.181C48.889,22.195,48.895,22.625,49.173,22.927"/>
	<path fill-rule="evenodd" clip-rule="evenodd" fill="#CA7940" d="M20.93,8.06c0.404,0.661,0.556,1.583,1.72,1.228
		c0.285-0.087,1.139,0.305,1.493,0.699c0.626,0.701,1.666,0.736,2.13,1.644c0.066,0.132,0.298,0.274,0.419,0.246
		c1.158-0.271,1.629,0.737,2.339,1.34c0.314,0.267,0.661,0.562,1.128,0.606c0.798,0.075,1.421,0.467,1.79,1.273
		c0.223,0.482,0.726,0.854,1.114,0.723c0.786-0.264,1.156,0.203,1.608,0.676c0.417,0.432,0.849,0.777,1.493,0.885
		c0.453,0.074,0.981,0.284,1.324,0.791c0.571,0.838,1.946,0.752,2.117,2.083c0.006,0.038,0.105,0.077,0.168,0.099
		c2.507,0.858,4.692,2.468,7.136,3.498c0.637,0.266,1.156,0.899,1.68,1.422c0.562,0.56,1.421,0.703,1.773,1.58
		c0.134,0.333,0.605,0.327,0.996,0.176c-0.047,0.444-0.533,0.61-0.441,1.052c-0.08,0.198-0.148,0.407-0.406,0.4
		c-1.566-1.523-3.411-2.6-5.259-3.653c-2.286-1.308-4.587-2.599-7.054-3.496c-0.146-0.053-0.264-0.195-0.396-0.299
		c-0.362-0.34-0.715-0.668-1.036-1.076c-0.599-0.763-1.534-0.96-2.434-0.941c-0.832,0.019-1.466-0.234-2.004-0.908
		c-0.317-0.402-0.702-0.747-1.186-0.931c-0.126-0.047-0.231-0.14-0.351-0.198c-0.466-0.229-0.347-1.197-1.269-0.977
		c-0.479,0.112-1.136-0.369-1.604-0.661c-1.132-0.702-2.333-1.305-3.35-2.206c-0.287-0.252-0.552-0.487-0.934-0.55
		c-1.512-0.251-2.621-1.282-3.688-2.316c-0.922-0.892-0.843-1.218,0.188-1.995c0.129-0.07,0.261-0.145,0.392-0.213
		C20.664,7.939,20.797,7.936,20.93,8.06"/>
	<path fill-rule="evenodd" clip-rule="evenodd" fill="#D59460" d="M60.225,19.996c-0.936-3.416-3.813-5.147-7.328-4.247
		c0.112-0.794,0.793-0.539,1.305-0.808c-2.502-1.422-4.826-3.053-7.26-4.484c-3.059-1.801-6.059-3.706-9.012-5.692
		c-0.249-0.167-0.592-0.323-0.517-0.694c0.093-0.467,0.51-0.376,0.825-0.361c0.455,0.024,0.923-0.111,1.367,0.09
		c0.26,0.004,0.521,0.004,0.78,0.006c0.061,0.085,0.067,0.172,0.012,0.258c-0.388,0.503,0.267,0.578,0.343,0.61
		c1.776,0.772,3.446,1.723,4.939,3.023c0.176,0.154,0.442,0.12,0.662,0.204c1.508,0.393,2.822,1.332,3.979,2.283
		c1.645,1.362,3.518,2.298,5.269,3.365c2.089,1.277,4.161,2.657,6.324,3.84c1.485,0.812,3.173,1.529,4.347,2.999
		c0.649,0.815,1.242,0.596,1.533-0.448c0.537,0.602,0.869,1.309,0.993,2.131c0.112,0.215,0.137,0.461,0.238,0.687
		c0.132,0.294,0.427,0.62,0.077,0.95c-0.31,0.286-0.669,0.095-0.92-0.08c-1.129-0.792-2.335-1.436-3.482-2.188
		c-1.396-0.915-2.828-1.764-4.264-2.649C60.359,19.215,60.602,19.671,60.225,19.996"/>
	<path fill-rule="evenodd" clip-rule="evenodd" fill="#D38F5B" d="M39.605,3.799c-0.164,0.004-0.336-0.02-0.496,0.014
		c-0.522,0.111-1.292-0.347-1.502,0.312c-0.103,0.325,0.75,0.635,1.18,0.901c1.465,0.928,2.96,1.806,4.325,2.899
		c0.503,0.403,1.081,0.57,1.615,0.858c1.614,0.873,3.182,1.832,4.669,2.95c0.719,0.537,1.492,1.027,2.304,1.379
		c1.025,0.44,1.772,1.433,2.905,1.645c0.117,0.022,0.213,0.171,0.167,0.337c-0.044,0.172-0.188,0.182-0.315,0.187
		c-0.559,0.017-1.127-0.016-1.561,0.469c-0.527,0.285-1.055,0.571-1.581,0.857c-0.127-0.22-0.011-0.384,0.112-0.541
		c0.058-0.069,0.203-0.168,0.133-0.233c-0.736-0.699-1.387-1.582-2.281-1.983c-0.793-0.355-1.589-0.722-2.278-1.228
		c-1.252-0.926-2.606-1.676-3.942-2.382c-1.848-0.974-3.396-2.44-5.306-3.327c-1.125-0.523-2.333-1.121-3.248-2.108
		c-0.206-0.222-0.587-0.45-0.223-0.866c0.247-0.037,0.495-0.014,0.742-0.021c0.396-0.052,0.811,0.123,1.19-0.122
		C37.344,3.495,38.476,3.48,39.605,3.799"/>
	<path fill-rule="evenodd" clip-rule="evenodd" fill="#CA763E" d="M31.65,18.904c-1.811-0.44-3.617-0.887-5.426-1.329
		c-0.508-0.128-1.014-0.249-1.521-0.373c-1.016-0.356-2.096-0.476-3.021-1.157c-0.469-0.347-1.084,0.019-1.64-0.045
		c-0.89-0.095-1.799,0-1.995-1.336c-0.068-0.483-0.597-0.438-1-0.454c-0.921-0.04-1.005-0.14-0.792-1.106
		c0.095-0.435-0.135-0.651-0.324-0.93c-0.312-0.459-0.547-0.922,0.035-1.354c0.533-0.655,1.214-1.047,1.987-1.278
		c0.256,0.531,0.607,0.917,1.215,0.925c0.095,0.002,0.245,0,0.276,0.08c0.337,0.806,1.25,0.889,1.664,1.404
		c0.516,0.641,1.109,0.896,1.734,1.235c0.609,0.328,1.22,0.636,1.76,1.131c0.458,0.421,1.124,0.561,1.771,0.534
		c0.338-0.017,0.74-0.017,0.891,0.32c0.456,1.006,1.58,0.969,2.172,1.668C30.104,17.634,31.267,17.789,31.65,18.904"/>
	<path fill-rule="evenodd" clip-rule="evenodd" fill="#CD7F48" d="M48.709,21.885c-1.391,0.635-2.367-0.44-3.392-1.063
		c-0.61-0.374-1.222-0.756-1.816-1.141c-0.933-0.604-2.012-0.985-2.798-1.95c-0.309-0.383-1.05-0.639-1.572-0.968
		c-1.415-0.899-3.047-1.347-4.274-2.684c-0.509-0.554-1.346-0.946-2.077-1.291c-1.031-0.491-1.942-1.042-2.82-1.874
		c-0.597-0.568-1.647-0.851-2.492-1.265c-1.232-0.605-2.31-1.423-3.224-2.506c-0.708-0.839,0.665-0.479,0.459-0.997
		c0.436-0.244,0.867-0.506,1.39-0.429c-0.037,0.517-0.37,0.479-0.693,0.471c0.119,0.193,0.38,0.306,0.463,0.575
		c0.466,1.12,1.241,1.817,2.397,1.922c0.892,0.074,1.382,0.889,2.05,1.333c0.603,0.4,1.09,0.576,1.735,0.479
		c0.129,0.069,0.228,0.178,0.294,0.314c0.069,0.369,0.057,0.807,0.605,0.733c0.165-0.025,0.344,0.036,0.449,0.169
		c0.816,1.025,2.063,0.917,3.098,1.372c0.634,0,1.111,0.282,1.533,0.81c0.533,0.667,1.355,1.078,2.054,1.303
		c1.288,0.414,2.271,1.239,3.323,2.008c0.19,0.141,0.336,0.395,0.556,0.438c1.471,0.277,2.371,1.588,3.618,2.271
		c0.305,0.166,0.514,0.231,0.809,0.028c0.184-0.127,0.4-0.469,0.632-0.039C48.709,20.529,48.941,21.247,48.709,21.885"/>
	<path fill-rule="evenodd" clip-rule="evenodd" fill="#CE834D" d="M48.709,21.885c0.014-0.717-0.027-1.438,0.207-2.129
		c-0.152-0.413-0.399-0.672-0.834-0.785c-1.755-0.46-3.209-1.556-4.673-2.621c-0.28-0.203-0.581-0.315-0.889-0.441
		c-0.897-0.378-1.742-0.85-2.404-1.624c-0.179-0.21-0.363-0.435-0.622-0.511c-1.554-0.439-2.919-1.401-4.182-2.319
		c-1.63-1.188-3.549-1.839-5.024-3.271c-0.248-0.238-0.555-0.438-0.875-0.476c-1.005-0.121-1.512-1.081-2.334-1.516
		C26.66,5.975,26.883,5.598,27.085,5.3c1.176-0.354,2.35-0.721,3.572-0.853c0.057,0.557-0.339,0.584-0.685,0.674
		c-0.194,0.022-0.391,0.048-0.614,0.102c0.571-0.004,1.021,0.157,1.176,0.818c0.058,0.243,0.253,0.459,0.5,0.459
		c1.082-0.006,1.762,0.766,2.525,1.407c0.41,0.348,0.878,0.614,1.384,0.796c0.623,0.229,1.185,0.486,1.597,1.121
		c0.307,0.477,0.966,0.484,1.45,0.732c1.099,0.562,1.879,1.598,3.025,2.102c0.74,0.323,1.489,0.801,2.114,1.311
		c1.836,1.5,4.117,2.095,5.947,3.563c0.217,0.174,0.527,0.089,0.713,0.331c0.039,0.104,0.023,0.195-0.037,0.279
		c-0.017,0.663-0.459,1.153-0.619,1.766c-0.268,1.021-0.297,2.018,0.039,3.019C48.768,22.705,48.736,22.297,48.709,21.885"/>
	<path fill-rule="evenodd" clip-rule="evenodd" fill="#D08953" d="M49.752,18.143c-0.014-0.1-0.027-0.2-0.041-0.303
		c0.109-0.474,0.085-0.825-0.481-0.957c-0.993-0.234-1.768-0.938-2.601-1.506c-0.795-0.547-1.512-1.275-2.569-1.246
		c-0.291,0.006-0.536-0.276-0.753-0.486c-1.508-1.459-3.33-2.396-5.125-3.305c-1.172-0.597-2.084-1.61-3.289-2.073
		c-1.751-0.677-2.974-2.278-4.705-2.974c-0.178-0.074-0.393-0.127-0.323-0.422c0.338,0.017,0.642-0.038,0.792-0.424
		c1.441-0.341,2.881-0.683,4.369-0.637c0.066,0.045,0.085,0.096,0.065,0.141c-0.02,0.045-0.043,0.068-0.065,0.068
		c-0.264,0.002-0.527,0.002-0.792,0.004c-0.412,0.468-1.016,0.396-1.737,0.592C33.456,5,34.28,5.227,34.726,6.062
		c0.032,0.059,0.105,0.09,0.172,0.1c1.778,0.267,2.969,1.753,4.511,2.484c1.021,0.491,1.914,1.062,2.582,2.021
		c0.235,0.339,0.605,0.371,0.953,0.486c1.03,0.353,2.085,0.677,2.853,1.581c0.135,0.16,0.285,0.338,0.49,0.328
		c1.004-0.047,1.582,0.723,2.311,1.264s1.504,1.061,2.359,1.385c0.221,0.083,0.432,0.187,0.547,0.428
		c-0.063,0.156-0.127,0.312-0.188,0.467C50.786,17.11,50.402,17.783,49.752,18.143"/>
	<path fill-rule="evenodd" clip-rule="evenodd" fill="#CA763E" d="M58.449,36.338c-0.599-0.705-1.197-1.412-1.797-2.118
		c0.916-0.276,1.894,0.067,2.809-0.319c0.24-0.104,0.639,0.138,0.574,0.414c-0.331,1.406,0.816,1.645,1.498,1.893
		c1.508,0.549,2.811,1.472,4.113,2.355c0.619,0.424,1.244,0.782,1.916,0.972c0.469,0.134,0.854,0.317,1.213,0.628
		c-0.146,0.631-0.398,1.207-0.791,1.702c-0.381,0.691-0.8,1.119-1.633,0.642c-0.383-0.215-0.887-0.122-1.347,0.079
		c-0.732,0.319-1.556,0.025-1.648-0.741c-0.158-1.324-1.138-1.413-1.95-1.707c-0.445-0.164-0.786-0.363-0.979-0.786
		C59.912,38.233,59.219,37.26,58.449,36.338"/>
	<path fill-rule="evenodd" clip-rule="evenodd" fill="#CE814A" d="M27.085,5.3c0.029,0.253-0.262,0.692,0.088,0.733
		c0.668,0.076,0.85,0.875,1.293,0.989c1.914,0.484,3.128,2.382,5.067,2.757c0.065,0.012,0.158,0.014,0.185,0.059
		c0.889,1.44,2.592,1.58,3.715,2.655c0.295,0.284,0.737,0.457,1.139,0.548c1.184,0.272,1.825,1.405,2.822,1.964
		c1.794,1.016,3.57,2.056,5.287,3.221c0.453,0.308,1.111,0.475,1.729,0.56c0.388,0.054,0.857,0.339,0.508,0.973
		c-0.545,0.582-0.83,0.892-1.777,0.197c-0.973-0.711-1.8-1.82-3.203-2.037c-0.84-0.133-1.495-1.238-2.367-1.732
		c-0.568-0.323-1.486-0.412-1.687-0.668c-0.63-0.814-1.822-0.631-2.249-1.688c-0.197-0.483-0.744-0.507-1.22-0.455
		c-1.248-1.118-2.915-1.449-4.169-2.553c-0.066-0.07-0.131-0.143-0.197-0.21c-1.44-0.895-3.013-1.554-4.36-2.604
		c-0.636-0.495-1.391-0.709-1.995-1.225c-1.123-0.892,0.311-0.692,0.397-1.065C26.424,5.58,26.754,5.439,27.085,5.3"/>
	<path fill-rule="evenodd" clip-rule="evenodd" fill="#CA7940" d="M68.775,40.162c-0.984-0.094-2.365-1.04-3.223-1.398
		c-0.693-0.287-1.064-1.342-1.996-1c-0.663-1.202-2.135-0.877-2.961-1.779c-0.158-0.178-0.349-0.426-0.539-0.44
		c-0.646-0.046-0.621-0.438-0.387-0.847c0.417-0.729-0.127-0.729-0.457-0.626c-0.854,0.257-1.711,0.063-2.56,0.148
		c-2.009-0.016-4.016-0.033-6.023-0.05c0.228-0.396,0.593-0.219,0.896-0.22c2.139-0.007,4.277-0.001,6.416,0.016
		c0.852,0.007,1.629-0.18,2.268-0.827c0.378-0.432,0.594-0.977,0.82-1.449c0.138-0.039,0.222-0.029,0.244,0.038
		c0.86,2.22,3.094,2.445,4.656,3.642c0.619,0.469,1.127,1.17,1.985,1.254c0.206,0.02,0.323,0.338,0.395,0.576
		c0.226,0.758,0.567,0.907,1.098,0.276c0.089-0.106,0.224-0.141,0.359-0.075C69.693,38.427,69.09,39.238,68.775,40.162"/>
	<path fill-rule="evenodd" clip-rule="evenodd" fill="#CF844D" d="M58.203,26.545c0.264-0.557,0.621-1.033,1.021-1.482
		c0.15-0.143,0.245-0.334,0.328-0.524c0.278-0.64,0.483-0.927,1.288-0.482c0.754,0.421,1.487,0.864,2.205,1.346
		c0.139,0.093,0.269,0.243,0.426,0.263c1.512,0.219,2.436,1.609,3.759,2.163c1.017,0.427,1.806,1.214,2.725,1.829
		c0.353-0.718-0.072-1.474,0.407-2.032c0.232,0.151,0.183,0.406,0.209,0.633c-0.002,0.354-0.004,0.705-0.004,1.06
		c0.194,0.797,0.113,1.612,0.062,2.411c-0.057,0.835-0.404,1.053-1.139,0.684c-0.785-0.394-1.553-0.844-2.328-1.267
		c-2.568-1.406-5.047-2.998-7.551-4.536C59.08,26.278,58.66,26.719,58.203,26.545"/>
	<path fill-rule="evenodd" clip-rule="evenodd" fill="#C9773F" d="M31.65,18.904c-0.464-0.367-0.811-0.931-1.507-0.879
		c-0.232,0.016-0.471-0.135-0.218-0.475c0.103-0.138,0.022-0.322-0.113-0.319c-0.785,0.009-1.163-0.979-1.979-0.898
		c-0.244,0.024-0.479-0.14-0.503-0.415c-0.078-0.846-0.541-0.785-1.183-0.806c-0.749-0.025-1.497-0.231-2.127-0.919
		c-0.471-0.515-1.255-0.7-1.906-1.025c-0.055-0.028-0.17,0.021-0.19-0.011c-0.595-0.966-1.897-1.024-2.363-2.097
		c-0.162-0.367-0.268-0.32-0.565-0.3c-0.758,0.046-1.048-0.466-1.044-1.219c0.589-0.695,1.392-0.974,2.185-1.271
		c-0.732,0.932-0.685,1.607,0.509,2.382c0.664,0.434,1.215,1.087,1.993,1.313c1.906,0.559,3.384,1.931,5.027,2.996
		c0.581,0.377,1.315,0.327,1.896,0.854c0.466,0.42,0.392-0.426,0.852-0.697c-0.355,1.836,1.315,1.759,1.967,2.67
		c0.546,0.767,1.273,0.92,2.201,0.982c0.999,0.067,2.3,0.086,2.724,1.602c0.042,0.151,0.585,0.189,0.496,0.658
		c-0.637-0.074-1.239-0.271-1.786-0.638c-0.359-0.261-0.799-0.269-1.191-0.427c-0.218-0.007-0.451,0.04-0.595-0.208
		c-0.816-0.441-1.723-0.57-2.581-0.856V18.904z"/>
	<path fill-rule="evenodd" clip-rule="evenodd" fill="#C97339" d="M15.965,10.82c-0.318,0.568-0.124,0.967,0.313,1.365
		c0.347,0.318,0.719,0.732,0.111,1.192c-0.17,0.131-0.185,0.287-0.055,0.444c0.142,0.178,0.344,0.206,0.544,0.172
		c0.874-0.156,1.623-0.148,1.506,1.17c-0.025,0.275,0.217,0.315,0.404,0.377c0.76,0.253,1.531,0.264,2.304,0.102
		c0.188-0.039,0.414-0.216,0.545-0.047c0.806,1.019,2.13,0.885,3.064,1.606c-1.653-0.25-3.325-0.398-4.955-0.771
		c-1.805-0.418-3.642-0.453-5.458-0.708c-0.977-0.144-1.953-0.288-2.945-0.244c-0.251,0.009-0.566-0.078-0.634-0.397
		c-0.065-0.308,0.247-0.365,0.42-0.508c1.317-1.107,2.633-2.217,3.949-3.325C15.341,11.029,15.623,10.853,15.965,10.82"/>
	<path fill-rule="evenodd" clip-rule="evenodd" fill="#CB7C44" d="M69.768,37.4c-0.191,0.096-0.338,0.239-0.383,0.457
		c-0.074,0.369-0.314,0.402-0.6,0.387c-0.292-0.017-0.55-0.138-0.572-0.467c-0.052-0.807-0.408-1.082-1.174-1.141
		c-0.619-0.046-0.848-0.894-1.488-1.184c-0.7-0.315-1.296-0.904-2.074-1.134c-1.195-0.354-1.85-1.342-2.434-2.792
		c0.084,1.001-0.377,1.305-0.835,1.611c0.412-0.797,0.497-1.627,0.213-2.493c-0.007-0.373-0.755-0.634-0.216-1.056
		c0.562-0.448,1.238-0.137,1.44,0.387c0.565,1.451,1.856,1.757,2.914,2.476c1.165,0.789,2.376,1.484,3.56,2.238
		c0.026,0.018,0.051,0.043,0.078,0.065c1.166,0.879,1.565,0.732,1.846-0.67c0.026-0.137,0.044-0.277,0.071-0.415
		c0.087-0.233,0.079-0.565,0.446-0.521C70.512,34.611,70.244,36.027,69.768,37.4"/>
	<path fill-rule="evenodd" clip-rule="evenodd" fill="#CD8049" d="M70.561,33.149c-0.234,0.153-0.19,0.403-0.199,0.637
		c-0.286,0.52-0.771,0.509-1.125,0.262c-0.725-0.509-1.467-0.872-2.315-1.105c-0.497-0.135-0.947-0.597-1.409-0.91
		c-2.066-1.418-4.154-2.786-6.311-4.053c-0.057-0.032-0.135-0.058-0.16-0.117c-0.389-0.868-0.888-0.575-1.402-0.158
		c-0.1,0.005-0.182-0.034-0.249-0.112c0.192-0.421,0.463-0.768,0.813-1.047c0.59-0.655,1.074-0.369,1.764-0.023
		c1.822,0.916,3.354,2.357,5.186,3.196c0.786,0.362,1.48,1.063,2.173,1.211c0.96,0.207,1.513,0.902,2.284,1.29
		c0.613,0.312,0.87,0.013,0.91-0.571c0.055-0.776,0.035-1.557,0.047-2.331c0.333,1.008,0.256,2.03,0.052,3.045
		C70.562,32.627,70.407,32.87,70.561,33.149"/>
	<path fill-rule="evenodd" clip-rule="evenodd" fill="#D69A69" d="M47.113,4.711c0.002,0.054,0.01,0.109,0.02,0.16
		c-0.215,0.286-0.545,0.199-0.926,0.317c1.215,0.228,2.057,0.966,2.866,1.759c0.271,0.267,0.564,0.457,0.918,0.592
		c0.878,0.332,1.663,0.855,2.366,1.512c0.452,0.424,1.014,0.64,1.507,0.965c1.247,0.824,2.736,1.211,3.804,2.36
		c0.346,0.374,0.82,0.435,1.21,0.675c0.608,0.379,1.558,0.448,1.446,1.591c-0.309,0.466-0.606,0.189-0.938,0.019
		c-1.908-1.002-3.781-2.102-5.601-3.246c-1.715-1.078-3.508-2.044-5.146-3.276c-0.645-0.489-1.295-1.093-2.175-1.11
		c-1.62-0.17-2.742-1.332-3.949-2.312c-0.151-0.124-0.358-0.372-0.024-0.579c0.494,0.034,0.998-0.11,1.482,0.09
		C45.053,4.161,46.055,4.641,47.113,4.711"/>
	<path fill-rule="evenodd" clip-rule="evenodd" fill="#C9753C" d="M58.449,36.338c0.876,0.623,1.393,1.552,1.884,2.509
		c0.269,0.529,0.45,1.174,1.297,0.962c0.457-0.114,0.687,0.629,1.257,0.654c0.605,0.025,0.641,0.533,0.594,1.152
		c-0.049,0.615,0.889,1.115,1.359,0.748c0.535-0.416,1.229-0.366,1.572-0.141c0.747,0.485,1.086-0.093,1.572-0.358
		c-0.059,0.804-0.676,1.27-0.999,1.914c-0.347,0.163-0.409,0.556-0.593,0.853c-0.066,0.068-0.133,0.141-0.199,0.212
		c-0.475,0.321-0.947,0.364-1.336-0.124c-0.86-1.084-2.125-1.622-3.032-2.64L58.449,36.338"/>
	<path fill-rule="evenodd" clip-rule="evenodd" fill="#C97338" d="M61.825,42.079c0.493-0.035,0.924,0.014,1.05,0.671
		c0.025,0.139,0.222,0.336,0.338,0.336c0.959-0.002,1.359,0.785,1.812,1.465c0.335,0.501,0.781,0.193,1.168,0.292
		c-0.48,1.021-1.205,1.831-1.951,2.628c-0.41,0.438-0.592,0.279-0.702-0.236C63.146,45.448,62.41,43.791,61.825,42.079"/>
	<path fill-rule="evenodd" clip-rule="evenodd" fill="#CA763E" d="M31.65,18.902c0.911,0.107,1.823,0.211,2.581,0.856
		C33.354,19.528,32.449,19.4,31.65,18.902"/>
	<path fill-rule="evenodd" clip-rule="evenodd" fill="#C97338" d="M66.393,44.631c-0.02-0.459,0.08-0.82,0.596-0.853
		C66.824,44.09,66.75,44.477,66.393,44.631"/>
	<path fill-rule="evenodd" clip-rule="evenodd" fill="#CA763E" d="M34.825,19.967c0.448-0.02,0.881,0.008,1.191,0.427
		C35.581,20.373,35.171,20.272,34.825,19.967"/>
	<path fill-rule="evenodd" clip-rule="evenodd" fill="#C9773F" d="M20.93,8.06c-0.134,0-0.267-0.001-0.401-0.001
		c0.207-0.273,0.481-0.391,0.797-0.425C21.252,7.836,21.119,7.979,20.93,8.06"/>
	<path fill-rule="evenodd" clip-rule="evenodd" fill="#D8A170" d="M51.705,6.139c2.176,1.019,4.377,1.977,6.404,3.325
		c2.34,1.559,4.529,3.306,6.312,5.58c0.189,0.876-0.361,0.558-0.686,0.446c-0.825-0.28-1.533-0.824-2.244-1.325
		c-1.71-1.199-3.654-1.953-5.319-3.218c-1.722-1.309-3.64-2.222-5.478-3.295c-1.024-0.599-2.027-1.285-2.835-2.258
		c0.308-0.285,0.575-0.253,0.854-0.095c0.654,0.144,1.311,0.29,1.966,0.434C51.002,5.928,51.453,5.746,51.705,6.139"/>
	<path fill-rule="evenodd" clip-rule="evenodd" fill="#D59765" d="M41.977,4.025c0.087,0.169,0.235,0.201,0.396,0.207
		c1.283,1.045,2.434,2.342,4.168,2.551c6.72,4.52,13.826,8.334,20.567,12.894c0.037-0.309-0.147-0.587,0.09-0.804
		c0.354,0.256,0.507,0.644,0.594,1.068c-0.04,0.408,0.487,0.975-0.133,1.199c-0.623,0.226-1.328-0.014-1.647-0.613
		c-0.369-0.695-0.923-1.032-1.533-1.233c-0.621-0.202-1.084-0.594-1.597-0.97c-1.247-0.924-2.603-1.645-3.989-2.312
		c-0.791-0.381-1.453-1.07-2.174-1.622c-0.274-0.214-0.486-0.826-0.893-0.142c-0.084,0.135-0.225,0.131-0.316-0.025
		c-0.799-1.388-2.195-2.116-3.456-2.51c-1.081-0.335-1.521-1.316-2.479-1.726c-1.117-0.472-2.119-1.345-3.232-1.928
		c-0.81-0.578-1.718-1.004-2.471-1.647c-0.797-0.679-1.672-1.106-2.614-1.422c-0.47-0.156-0.743-0.413-0.672-0.971
		C41.048,4.021,41.512,4.023,41.977,4.025"/>
	<path fill-rule="evenodd" clip-rule="evenodd" fill="#D79D6C" d="M48.715,5.3h-0.794c1.388,0.934,2.497,1.862,3.824,2.565
		c1.696,0.898,3.489,1.739,4.927,3.124c0.545,0.525,1.203,0.722,1.814,1.034c1.883,0.956,3.518,2.36,5.414,3.277
		c0.361,0.176,0.476,0.133,0.521-0.256c0.613,0.515,1.125,1.113,1.401,1.909c0.064,0.306-0.141,0.383-0.335,0.371
		c-0.9-0.054-1.916-0.124-2.481-0.855c-0.709-0.917-1.611-1.14-2.553-1.416c-0.145-0.091-0.262-0.198-0.217-0.401
		c-0.096-1.053-0.986-1.153-1.633-1.434c-0.5-0.211-0.99-0.324-1.268-0.879c-0.069-0.139-0.244-0.255-0.391-0.303
		c-1.301-0.416-2.276-1.491-3.597-1.93c-0.79-0.262-1.356-1.278-2.149-1.571c-1.86-0.686-3-2.647-4.979-3.053
		c-0.188-0.04-0.306-0.196-0.311-0.364c-0.006-0.335,0.26-0.234,0.433-0.245c0.262-0.016,0.526-0.003,0.79-0.003
		C47.697,4.855,48.226,4.998,48.715,5.3"/>
	<path fill-rule="evenodd" clip-rule="evenodd" fill="#D38F5B" d="M60.225,19.996c0.199-0.581-0.321-1.145-0.04-1.729
		c0.438,0.291,0.87,0.594,1.312,0.878c2.128,1.368,4.386,2.518,6.397,4.099c0.199,0.158,0.489,0.18,0.723,0.295
		c0.148,0.072,0.278,0.211,0.426,0.02c0.127-0.162,0.064-0.326-0.014-0.488c-0.148-0.312-0.299-0.628-0.243-1
		c0.571,0.825,0.813,1.788,0.985,2.777c0.109,0.475,0.303,0.997-0.193,1.334c-0.514,0.352-0.938,0.002-1.333-0.337
		c-0.756-0.641-1.569-1.153-2.474-1.539c-1.232-0.522-2.286-1.397-3.373-2.198c-0.3-0.22-0.596-0.432-0.923-0.611
		c-0.548-0.295-0.801-0.115-0.84,0.513c-0.022,0.104-0.073,0.199-0.134,0.285c-0.087,0.079-0.176,0.084-0.27,0.01
		C60.229,21.535,60.228,20.764,60.225,19.996"/>
	<path fill-rule="evenodd" clip-rule="evenodd" fill="#D08953" d="M60.438,22.307c0-0.073,0.001-0.141,0.002-0.212
		c1.252,0.47,2.433,1.082,3.492,1.944c0.105,0.087,0.207,0.202,0.332,0.215c1.596,0.172,2.568,1.642,4.002,2.201
		c0.602,0.238,0.974,1.129,1.83,0.879c0.096-0.017,0.179,0.005,0.252,0.076c0.005,0.072,0.009,0.145,0.014,0.212
		c0,0.354,0.036,0.714-0.008,1.056c-0.059,0.467,0.269,1.145-0.204,1.334c-0.278,0.109-0.931-0.28-1.134-0.636
		c-0.668-1.144-1.986-1.084-2.823-1.909c-0.401-0.396-1.083-0.432-1.333-1.102c-0.045-0.116-0.279-0.227-0.416-0.213
		c-1.096,0.101-1.732-0.734-2.5-1.326c-0.273-0.212-0.65-0.293-0.994-0.369c-0.328-0.079-0.693-0.053-0.619-0.631
		c-0.568,0.302-0.584,1.026-1.109,1.235c0.256-0.569,0.512-1.139,0.768-1.707C60.238,23.053,60.137,22.58,60.438,22.307"/>
	<path fill-rule="evenodd" clip-rule="evenodd" fill="#D69968" d="M60.238,14.652c0.068,0.068,0.134,0.14,0.197,0.21
		c1.004,0.596,2.005,1.183,2.978,1.843c0.835,0.568,1.767,1.46,2.978,0.938c0.427,0.291,0.645,0.74,0.808,1.234
		c-0.05,0.489,0.46,0.853,0.317,1.414c-1.734-1.355-3.68-2.235-5.404-3.485c-0.881-0.642-1.837-1.124-2.7-1.801
		c-1.122-0.878-2.38-1.536-3.662-2.138c-1.672-0.788-3.162-1.931-4.748-2.891c-1.255-0.758-2.265-1.941-3.698-2.396
		c-0.35-0.114-0.582-0.449-0.762-0.796c0.845-0.189,1.315,0.594,1.924,0.938c1.504,0.843,3.029,1.718,4.409,2.734
		c1.378,1.018,2.936,1.622,4.314,2.615C58.088,13.722,59.053,14.505,60.238,14.652"/>
	<path fill-rule="evenodd" clip-rule="evenodd" fill="#D18C57" d="M70.166,27.408c-0.43,0.831-0.979-0.078-1.451,0.115
		c-0.231-1.37-1.574-1.17-2.322-1.832c-0.648-0.57-1.537-0.901-2.301-1.3c-0.658-0.345-1.498-0.647-2.068-1.217
		c-0.481-0.485-1.238-0.429-1.582-1.08c0-0.247-0.006-0.491,0-0.74c0.016-0.493,0.187-0.562,0.635-0.389
		c1.061,0.409,1.867,1.243,2.794,1.864c0.913,0.614,1.832,1.143,2.827,1.585c0.592,0.263,1.112,0.73,1.633,1.152
		c0.336,0.271,0.6,0.733,1.092,0.5c0.514-0.243,0.297-0.79,0.35-1.22c0.271,0.459,0.333,0.981,0.391,1.504
		C70.316,26.703,70.312,27.055,70.166,27.408"/>
	<path fill-rule="evenodd" clip-rule="evenodd" fill="#D69A69" d="M66.393,17.643c-0.135,0.723-0.621,0.492-1.012,0.396
		c-0.591-0.145-1.316-0.452-1.632-0.773c-0.993-1.022-2.407-1.309-3.312-2.403c1.038,0.146,1.939,0.329,2.703,1.381
		c0.532,0.736,1.668,0.964,2.682,0.709C66.012,17.181,66.201,17.413,66.393,17.643"/>
	<path fill-rule="evenodd" clip-rule="evenodd" fill="#C66831" d="M51.705,6.139c-0.361-0.072-0.725-0.154-1.024-0.405
		c0.356-0.039,0.747,0.127,0.783-0.583c0.021-0.452,0.595-0.749,0.991-0.661c0.527,0.119,1.246-0.254,1.574,0.456
		c0.35,0.755-0.268,0.852-0.721,0.974C52.786,6.06,52.199,5.723,51.705,6.139"/>
	<path fill-rule="evenodd" clip-rule="evenodd" fill="#CF844D" d="M70.166,27.408c0-0.354-0.004-0.705-0.004-1.057
		c0.324,0.3,0.164,0.699,0.185,1.059C70.285,27.41,70.227,27.408,70.166,27.408"/>
	<path fill-rule="evenodd" clip-rule="evenodd" fill="#CD7E47" d="M57.658,27.62c0.471-0.765,0.811-1.085,1.488-0.054
		c0.366,0.562,1.221,0.917,1.854,1.212c1.33,0.608,2.275,1.903,3.771,2.202c0.558,0.11,0.698,1.189,1.521,0.999
		c0.6,1.304,2.278,0.66,2.977,1.87c0.114,0.198,0.738,0.251,1.094-0.063c-0.053,0.204-0.117,0.401-0.16,0.609
		c-0.27,1.35-0.326,1.429-0.616,1.183c-0.442-0.377-1.173,0.244-1.466-0.562c-0.059-0.159-0.309-0.247-0.479-0.353
		c-1.75-1.079-3.49-2.179-5.266-3.207c-0.348-0.199-0.609-0.312-0.618-0.771c-0.004-0.133-0.063-0.278-0.134-0.395
		c-0.284-0.474-0.693-0.821-1.215-0.602c-0.602,0.254,0.234,0.625,0.012,0.956c-0.367-0.419-0.738-0.833-1.238-1.079
		c0.217-0.34,0.535-0.361,0.779-0.342c-0.479-0.435-1.477-0.403-1.479-1.528c-0.116,0.092-0.007,0.278-0.052,0.427
		c-0.063,0.21-0.145,0.446-0.37,0.404C57.562,28.438,57.623,28.011,57.658,27.62"/>
	<path fill-rule="evenodd" clip-rule="evenodd" fill="#CD844D" d="M53.502,24.889c0.548-0.941-0.221-1.399-0.639-1.98
		c0.186-0.642,0.346-1.29,0.564-1.918c0.241-0.697,0.75-1.006,1.42-0.789c0.734,0.241,0.809,0.922,0.619,1.564
		C55.1,22.999,54.381,24.009,53.502,24.889"/>
	<path fill-rule="evenodd" clip-rule="evenodd" fill="#CB7C44" d="M57.658,27.62c0.121,0.256,0.24,0.511,0.382,0.812
		c0.331-0.318,0.143-0.831,0.579-1.081c-0.246,1.312,1.189,1.037,1.457,1.883c-0.24,0.287-0.572,0.295-0.895,0.332H55.81
		c0.529-0.898,1.036-1.452,1.581-1.974C57.479,27.602,57.568,27.611,57.658,27.62"/>
	<path fill-rule="evenodd" clip-rule="evenodd" fill="#CD844D" d="M52.867,22.908c-0.01,0.565-0.291,0.836-0.805,0.867
		C52.332,23.487,52.601,23.197,52.867,22.908"/>
	<path fill-rule="evenodd" clip-rule="evenodd" fill="#D18C57" d="M60.438,22.307c-0.103,0.371-0.091,0.801-0.449,1.048
		c0.08-0.348,0.162-0.699,0.244-1.051C60.299,22.304,60.369,22.307,60.438,22.307"/>
	<path fill-rule="evenodd" clip-rule="evenodd" fill="#D59663" d="M40.585,4.02c0.252,0.342,0.37,0.834,0.895,0.867
		c1.073,0.066,1.817,0.798,2.603,1.471c0.369,0.314,0.742,0.67,1.293,0.653c0.638-0.02,0.529,0.817,0.967,1.049
		c-0.466,0.024-0.809-0.115-1.211-0.466c-1.301-1.121-2.748-2.011-4.371-2.518c-0.468-0.146-0.472-0.846-1.055-0.851
		c0.238-0.314,0.478-0.158,0.681-0.208C40.453,4.018,40.519,4.018,40.585,4.02"/>
	<path fill-rule="evenodd" clip-rule="evenodd" fill="#D18C57" d="M51.504,16.139c-1.461-0.359-2.671-1.211-3.783-2.246
		c-0.151-0.141-0.299-0.401-0.447-0.398c-1.597,0.025-2.453-1.709-3.84-1.926c-1.343-0.215-1.965-1.134-2.732-2.046
		c-0.242-0.288-0.783-0.274-1.168-0.444c-0.822-0.354-1.629-0.846-2.183-1.531c-0.645-0.795-1.604-0.491-2.31-1.061
		c-0.244-0.199-0.595-0.043-0.774-0.639c-0.167-0.559-0.966-0.621-1.519-0.841c-0.214-0.087-0.632-0.031-0.592-0.414
		c0.045-0.407,0.433-0.328,0.721-0.364c0.454-0.053,0.907-0.135,1.359-0.207c0.391,1.125,1.476,1.284,2.273,1.809
		c1.237,0.818,2.549,1.503,3.828,2.241c0.058,0.033,0.147,0.033,0.177,0.079c0.801,1.232,2.171,1.562,3.289,2.194
		c1.825,1.032,3.439,2.481,5.463,3.144c0.842,0.273,1.337,1.176,2.026,1.746c0.261,0.217,0.518,0.389,0.825,0.539
		C52.009,16.091,51.744,16.093,51.504,16.139"/>
	<path fill-rule="evenodd" clip-rule="evenodd" fill="#CD7F48" d="M25.696,6.783c1.365,0.164,2.325,1.092,3.383,1.91
		c0.474,0.369,1.094,0.706,1.716,0.867c0.585,0.144,0.991,0.487,1.251,1.053c-1.239,0.944-2.005-0.435-2.66-0.944
		c-0.686-0.533-1.39-0.66-2.083-0.966C26.466,8.338,25.917,7.726,25.696,6.783"/>
	<path fill-rule="evenodd" clip-rule="evenodd" fill="#CD7F48" d="M32.246,10.822c0.419-0.077,0.864-0.248,1.019,0.42
		c0.104,0.435,0.487,0.466,0.784,0.531c0.985,0.217,1.804,0.686,2.366,1.602c-1.021-0.625-2.484-0.209-3.202-1.561
		c-0.03-0.057-0.192-0.093-0.266-0.061C31.843,12.189,32.077,11.479,32.246,10.822"/>
	<path fill-rule="evenodd" clip-rule="evenodd" fill="#CF854F" d="M29.864,4.871c1.169,0.77,2.624,1.04,3.468,2.401
		C33.675,7.821,34.447,7.545,35,7.956c1.548,1.153,3.106,2.47,4.858,3.084c1.564,0.547,2.477,1.869,3.822,2.597
		c0.291,0.157,0.514,0.295,0.875,0.325c1.207,0.099,1.994,1.13,2.966,1.754c0.848,0.543,1.673,1.093,2.726,1.093
		c-0.09,0.363-0.233,0.744-0.536,1.031c-0.901,0.435-1.258-0.594-1.911-0.848c-1.203-0.467-2.173-1.505-3.506-1.701
		c-0.307-0.045-0.568-0.213-0.624-0.579c-0.021-0.14-0.005-0.328-0.146-0.354c-1.324-0.219-2.133-1.487-3.371-1.875
		c-0.19-0.061-0.459-0.08-0.547-0.221c-0.762-1.198-1.902-1.706-3.151-1.962c-0.483-0.1,0.032-0.613-0.482-0.826
		c-0.769-0.315-1.522-0.758-2.315-1.011c-0.513-0.164-0.245-0.933-0.813-0.917c-0.729,0.021-1.041-1.343-1.978-0.684
		c-0.029,0.018-0.227-0.156-0.279-0.273c-0.355-0.793-0.861-1.34-1.822-1.241C29.127,4.984,29.469,4.857,29.864,4.871"/>
</g>
</svg>
