<?xml version="1.0" encoding="utf-8"?>
<!-- Generator: Adobe Illustrator 16.0.0, SVG Export Plug-In . SVG Version: 6.00 Build 0)  -->
<!DOCTYPE svg PUBLIC "-//W3C//DTD SVG 1.1//EN" "http://www.w3.org/Graphics/SVG/1.1/DTD/svg11.dtd">
<svg version="1.1" id="Capa_1" xmlns="http://www.w3.org/2000/svg" xmlns:xlink="http://www.w3.org/1999/xlink" x="0px" y="0px"
	 width="70px" height="70px" viewBox="0 0 70 70" enable-background="new 0 0 70 70" xml:space="preserve">
<path id="lozenge_1_" d="M62.45,38.206c0,0-0.548-3.847-2.23-5.542c-2.133-2.224-4.524-2.236-5.621-2.365
	c-7.849-0.564-19.626-0.564-19.626-0.564h-0.024c0,0-11.777,0-19.626,0.564c-1.098,0.129-3.488,0.141-5.621,2.365
	c-1.683,1.695-2.23,5.542-2.23,5.542s-0.561,4.521-0.561,9.04v4.237c0,4.521,0.561,9.038,0.561,9.038s0.548,3.85,2.23,5.544
	c2.133,2.225,4.937,2.153,6.186,2.387c4.489,0.428,19.074,0.562,19.074,0.562s11.79-0.019,19.638-0.583
	c1.097-0.13,3.488-0.141,5.621-2.365c1.683-1.694,2.23-5.544,2.23-5.544s0.562-4.518,0.562-9.038v-4.237
	C63.012,42.728,62.45,38.206,62.45,38.206z"/>
<path id="u_2_" d="M50.049,26.742h-3.572v-2.066c-1.353,1.551-2.5,2.333-3.75,2.333c-1.096,0-1.858-0.517-2.239-1.452
	c-0.232-0.569-0.396-1.457-0.396-2.762V7.767h3.568v14.091c0,0.796,0,1.127,0,1.314c0.084,0.526,0.309,0.721,0.762,0.721
	c0.683,0,1.301-0.595,2.056-1.66V7.767h3.572V26.742z"/>
<path id="o_2_" d="M37.46,13.967c0-2.028-0.408-3.552-1.127-4.509c-0.951-1.298-2.442-1.83-3.946-1.83
	c-1.701,0-2.995,0.532-3.945,1.83c-0.732,0.958-1.124,2.498-1.124,4.524l-0.004,6.749c0,2.015,0.35,3.409,1.08,4.359
	c0.951,1.293,2.491,1.977,3.993,1.977c1.503,0,3.069-0.684,4.021-1.977c0.72-0.95,1.052-2.344,1.052-4.359V13.967z M33.891,21.106
	c0.188,1.88-0.395,2.812-1.503,2.812s-1.69-0.932-1.502-2.812v-7.515c-0.188-1.878,0.395-2.76,1.502-2.76
	c1.109,0,1.693,0.882,1.505,2.76L33.891,21.106z"/>
<path id="y_2_" d="M23.37,16.409v10.333h-3.757V16.409c0,0-3.894-12.667-4.697-15.03h3.945l2.638,9.897l2.624-9.897h3.945
	L23.37,16.409z"/>
<path id="e_1_" fill="#FFFFFF" d="M58.317,52.689l-0.003-3.84c0-2.006-0.395-3.473-1.104-4.424c-0.954-1.284-2.31-1.964-4.015-1.964
	c-1.735,0-3.091,0.68-4.075,1.964c-0.723,0.951-1.145,2.502-1.145,4.508v6.575c0,1.995,0.465,3.393,1.187,4.33
	c0.983,1.284,2.337,1.924,4.118,1.924c1.775,0,3.173-0.672,4.113-2.034c0.414-0.603,0.681-1.284,0.796-2.039
	c0.031-0.34,0.119-1.115,0.119-2.211v-0.532h-3.569c0,1.363,0.007,2.176-0.023,2.36c-0.194,0.909-0.684,1.364-1.521,1.364
	c-1.168,0-1.66-0.872-1.649-2.605v-3.376H58.317z M51.546,47.799c0-1.756,0.481-2.235,1.617-2.235c1.128,0,1.576,0.521,1.576,2.259
	v2.05l-3.193,0.005V47.799z"/>
<path id="b_1_" fill="#FFFFFF" d="M42.549,42.432c-1.252,0-2.496,0.77-3.595,2.121l0.004-8.208h-3.381v25.176h3.381l0.006-1.891
	c1.136,1.404,2.376,2.133,3.585,2.133c1.354,0,2.344-0.725,2.796-2.121c0.228-0.795,0.377-2.021,0.377-3.757V48.37
	c0-1.778-0.228-2.993-0.455-3.749C44.814,43.215,43.903,42.432,42.549,42.432z M42.153,56.071c0,1.88-0.443,2.6-1.425,2.6
	c-0.561,0-1.205-0.288-1.774-0.857l0.004-11.393c0.57-0.562,1.21-0.857,1.771-0.857c0.981,0,1.425,0.551,1.425,2.431V56.071z"/>
<path id="u_1_" fill="#FFFFFF" d="M32.759,61.521h-3.57v-2.065c-1.353,1.551-2.5,2.334-3.75,2.334c-1.097,0-1.859-0.518-2.24-1.452
	c-0.232-0.569-0.397-1.457-0.397-2.762V42.733h3.57v13.902c0,0.797,0,1.128,0,1.315c0.083,0.527,0.306,0.72,0.761,0.72
	c0.683,0,1.302-0.594,2.057-1.658V42.733h3.57V61.521z"/>
<polygon id="T" fill="#FFFFFF" points="19.231,61.521 15.475,61.521 15.475,39.915 11.529,39.915 11.529,36.35 23.366,36.345 
	23.366,39.915 19.231,39.915 "/>
</svg>
