<?xml version="1.0" encoding="utf-8"?>
<!-- Generator: Adobe Illustrator 16.0.0, SVG Export Plug-In . SVG Version: 6.00 Build 0)  -->
<!DOCTYPE svg PUBLIC "-//W3C//DTD SVG 1.1//EN" "http://www.w3.org/Graphics/SVG/1.1/DTD/svg11.dtd">
<svg version="1.1" id="Capa_1" xmlns="http://www.w3.org/2000/svg" xmlns:xlink="http://www.w3.org/1999/xlink" x="0px" y="0px"
	 width="38px" height="38px" viewBox="0 0 38 38" enable-background="new 0 0 38 38" xml:space="preserve">
<g opacity="0.7">
	<g>
		<defs>
			<rect id="SVGID_1_" x="0.175" y="1.855" width="37.651" height="34.29"/>
		</defs>
		<clipPath id="SVGID_2_">
			<use xlink:href="#SVGID_1_"  overflow="visible"/>
		</clipPath>
		<g clip-path="url(#SVGID_2_)">
			<defs>
				<rect id="SVGID_3_" x="0.175" y="1.855" width="37.651" height="34.29"/>
			</defs>
			<clipPath id="SVGID_4_">
				<use xlink:href="#SVGID_3_"  overflow="visible"/>
			</clipPath>
			<path clip-path="url(#SVGID_4_)" fill="#86BFDF" d="M37.826,19c0,9.468-8.43,17.146-18.826,17.146
				C8.602,36.146,0.176,28.469,0.176,19C0.176,9.531,8.602,1.855,19,1.855C29.396,1.855,37.826,9.531,37.826,19"/>
		</g>
	</g>
</g>
<path fill="#F5F5F6" d="M29.001,12.111c-0.736,0.361-1.527,0.606-2.356,0.716c0.846-0.562,1.498-1.452,1.805-2.515
	c-0.793,0.521-1.672,0.9-2.605,1.104c-0.75-0.884-1.816-1.435-2.995-1.435c-2.268,0-4.104,2.034-4.104,4.544
	c0,0.356,0.035,0.703,0.107,1.036c-3.412-0.19-6.435-1.999-8.459-4.749c-0.353,0.672-0.556,1.452-0.556,2.285
	c0,1.576,0.726,2.968,1.826,3.781c-0.673-0.022-1.308-0.229-1.859-0.568v0.058c0,2.202,1.416,4.039,3.291,4.457
	c-0.344,0.104-0.708,0.16-1.08,0.16c-0.264,0-0.522-0.029-0.774-0.082c0.524,1.805,2.039,3.119,3.834,3.156
	c-1.403,1.217-3.172,1.945-5.094,1.945c-0.334,0-0.66-0.023-0.979-0.064c1.813,1.289,3.972,2.041,6.291,2.041
	c7.547,0,11.674-6.922,11.674-12.928c0-0.197-0.006-0.393-0.012-0.59C27.755,13.823,28.449,13.023,29.001,12.111"/>
</svg>
