<?xml version="1.0" encoding="UTF-8" standalone="no"?>
<svg
   xmlns:dc="http://purl.org/dc/elements/1.1/"
   xmlns:cc="http://creativecommons.org/ns#"
   xmlns:rdf="http://www.w3.org/1999/02/22-rdf-syntax-ns#"
   xmlns:svg="http://www.w3.org/2000/svg"
   xmlns="http://www.w3.org/2000/svg"
   version="1.1"
   id="svg17267"
   viewBox="0 0 32 20"
   height="20"
   width="32">
  <defs
     id="defs17269">
    <clipPath
       id="clipPath16574"
       clipPathUnits="userSpaceOnUse">
      <path
         id="path16576"
         d="m 0,4486 1280,0 L 1280,0 0,0 0,4486 Z" />
    </clipPath>
  </defs>
  <metadata
     id="metadata17272">
    <rdf:RDF>
      <cc:Work
         rdf:about="">
        <dc:format>image/svg+xml</dc:format>
        <dc:type
           rdf:resource="http://purl.org/dc/dcmitype/StillImage" />
        <dc:title></dc:title>
      </cc:Work>
    </rdf:RDF>
  </metadata>
  <g
     transform="translate(0,-1032.3622)"
     id="layer1">
    <g
       transform="matrix(1.4591218,0,0,-1.4718081,12.087365,1049.4572)"
       id="g16658">
      <path
         id="path16660"
         style="fill:#fafafa;fill-opacity:1;fill-rule:evenodd;stroke:none"
         d="M 0,0 C -0.168,0.058 -0.312,0.145 -0.504,0.17 -1.007,0.239 -1.525,0.288 -2.048,0.331 -2.248,0.349 -2.474,0.33 -2.686,0.329 -2.775,0.327 -2.872,0.298 -2.892,0.189 c -0.04,-0.233 -0.068,-0.461 -0.082,-0.684 -0.003,-0.044 0.073,-0.071 0.134,-0.064 0.153,0.02 0.331,0.092 0.472,0.096 0.472,0.007 0.924,-0.016 1.399,-0.001 0.223,0.006 0.478,0.062 0.731,0.133 C -0.026,-0.272 0.058,-0.137 0,0 M 1.765,1.886 C 1.792,1.96 1.81,2.015 1.834,2.071 1.94,2.315 2.081,2.569 2.146,2.801 2.183,2.933 2.298,3.042 2.355,3.159 2.462,3.364 2.538,3.564 2.636,3.769 2.677,3.854 2.732,3.943 2.784,4.029 2.928,4.265 3.07,4.502 3.212,4.738 3.282,4.851 3.339,4.962 3.407,5.076 3.463,5.166 3.532,5.282 3.391,5.24 3.272,5.206 3.114,5.206 3.005,5.005 2.82,5 2.626,4.979 2.456,4.988 2.3,4.996 2.167,5.037 1.979,5.073 1.854,4.734 1.742,4.442 1.641,4.154 1.495,3.744 1.354,3.333 1.215,2.924 1.108,2.615 1.005,2.306 0.91,2 0.894,1.947 0.903,1.875 0.942,1.869 1.162,1.843 1.394,1.832 1.627,1.823 1.655,1.822 1.714,1.862 1.765,1.886 m 9.378,5.443 C 10.718,7.161 10.303,6.999 9.888,6.833 9.086,6.515 8.301,6.259 7.536,6.079 7.396,6.043 7.287,5.956 7.214,5.835 6.996,5.481 6.775,5.125 6.574,4.771 6.382,4.435 6.207,4.098 6.031,3.765 5.82,3.361 5.612,2.958 5.41,2.555 5.392,2.518 5.421,2.454 5.446,2.459 5.703,2.526 5.957,2.582 6.219,2.68 6.918,2.936 7.62,3.208 8.321,3.479 c 0.226,0.09 0.455,0.186 0.685,0.292 0.132,0.059 0.253,0.14 0.325,0.281 0.271,0.525 0.55,1.052 0.83,1.578 0.144,0.269 0.293,0.537 0.448,0.806 0.172,0.299 0.356,0.596 0.534,0.893 M -4.659,3.75 c 0.002,0.063 0.004,0.102 0.009,0.141 0.131,1.22 0.222,2.422 0.208,3.578 C -4.44,7.578 -4.49,7.635 -4.626,7.608 -4.825,7.57 -5.039,7.502 -5.23,7.478 -5.837,7.403 -6.493,7.148 -7.147,6.906 -7.218,6.878 -7.286,6.846 -7.365,6.813 -7.367,6.756 -7.371,6.711 -7.371,6.667 -7.377,5.964 -7.37,5.264 -7.385,4.556 -7.395,4.085 -7.428,3.604 -7.468,3.123 c -0.009,-0.138 0.031,-0.171 0.221,-0.09 0.667,0.291 1.298,0.458 1.909,0.562 0.215,0.037 0.442,0.1 0.679,0.155 m 3.635,4.176 c 0.009,0.11 0.026,0.187 0.021,0.256 -0.035,0.898 -0.071,1.794 -0.113,2.689 -0.013,0.24 -0.053,0.429 -0.453,0.36 -0.577,-0.102 -1.097,-0.087 -1.66,-0.16 -0.428,-0.053 -0.883,-0.167 -1.322,-0.251 0.043,-1.056 0.085,-2.098 0.127,-3.158 1.172,0.203 2.31,0.291 3.4,0.264 M 9.333,9.59 C 8.763,9.436 8.216,9.272 7.683,9.146 7.097,9.009 6.526,8.913 5.944,8.788 5.57,8.708 5.524,8.678 5.324,8.332 4.76,7.355 4.208,6.382 3.646,5.404 3.56,5.257 3.595,5.213 3.741,5.238 4.082,5.291 4.417,5.338 4.758,5.39 4.799,5.397 4.846,5.415 4.889,5.425 5.156,5.492 5.424,5.558 5.69,5.626 6.128,5.739 6.569,5.854 7.006,5.969 7.136,6.004 7.256,6.068 7.331,6.202 7.495,6.494 7.653,6.784 7.826,7.076 8.282,7.841 8.745,8.604 9.207,9.37 9.244,9.432 9.278,9.495 9.333,9.59 M 1.712,1.771 C 1.66,1.685 1.612,1.615 1.579,1.549 1.134,0.652 0.687,-0.245 0.249,-1.142 0.169,-1.306 0.12,-1.466 0.077,-1.622 c -0.038,-0.142 0.028,-0.211 0.19,-0.196 0.143,0.014 0.292,0.03 0.428,0.032 0.784,0.006 1.66,0.228 2.559,0.494 0.154,0.045 0.262,0.126 0.332,0.273 C 3.787,-0.6 3.995,-0.179 4.201,0.24 4.528,0.901 4.855,1.562 5.185,2.222 5.24,2.33 5.215,2.357 5.099,2.329 4.753,2.244 4.408,2.159 4.07,2.091 3.689,2.015 3.307,1.94 2.937,1.892 2.524,1.837 2.127,1.809 1.712,1.771 M -1.483,3.893 C -2.482,3.945 -3.496,3.931 -4.623,3.714 -4.702,3.133 -4.766,2.568 -4.858,1.991 -4.939,1.493 -5.061,0.979 -5.149,0.476 c -0.053,-0.313 0.005,-0.335 0.39,-0.247 0.224,0.05 0.451,0.111 0.658,0.131 0.478,0.046 0.947,0.075 1.415,0.105 0.118,0.007 0.223,-0.005 0.381,-0.008 0.286,1.154 0.563,2.274 0.847,3.424 0.885,-0.128 1.755,-0.266 2.407,-0.68 0.056,0.178 0.082,0.34 0.125,0.506 0.11,0.439 0.24,0.881 0.338,1.314 0.082,0.367 0.119,0.714 0.192,1.078 0.081,0.384 0.18,0.772 0.263,1.157 C 1.879,7.319 1.863,7.396 1.814,7.412 0.983,7.688 0.121,7.928 -0.979,7.875 -1.07,6.581 -1.138,5.311 -1.483,3.893 m -6.801,-4.851 c 0.121,0.633 0.24,1.254 0.356,1.873 0.009,0.054 -0.018,0.095 -0.01,0.15 0.021,0.169 0.052,0.344 0.076,0.515 0.062,0.468 0.134,0.94 0.183,1.403 0.064,0.605 0.155,1.224 0.146,1.793 -0.007,1.007 -0.071,1.988 -0.134,2.966 -0.043,0.716 -0.125,1.413 -0.184,2.122 -0.007,0.094 0.016,0.206 0.026,0.312 0.263,0.083 0.504,0.174 0.729,0.226 1.137,0.269 2.276,0.545 3.4,0.783 0.508,0.107 0.987,0.146 1.468,0.194 0.957,0.099 1.843,0.08 2.704,0.021 C 1.429,11.336 2.309,11.188 2.954,10.758 3.325,10.515 3.387,10.069 3.313,9.546 3.287,9.353 3.237,9.15 3.192,8.949 3.137,8.691 3.194,8.606 3.48,8.638 c 0.355,0.038 0.737,0.123 1.081,0.143 0.803,0.047 1.696,0.29 2.544,0.437 0.567,0.098 1.181,0.302 1.781,0.47 0.516,0.146 1.035,0.282 1.562,0.473 0.503,0.183 1.018,0.419 1.529,0.655 0.483,0.223 0.969,0.475 1.454,0.713 0.065,0.033 0.132,0.052 0.216,0.086 C 13.482,11.31 13.334,11.032 13.181,10.754 12.65,9.803 12.117,8.851 11.589,7.899 11.317,7.412 11.045,6.924 10.786,6.438 10.604,6.103 10.449,5.77 10.267,5.435 10.153,5.229 9.985,5.017 9.884,4.816 9.596,4.246 9.32,3.679 9.053,3.113 8.719,2.407 8.406,1.705 8.071,1 7.979,0.803 7.843,0.599 7.723,0.397 7.627,0.235 7.483,0.104 7.295,0.026 6.665,-0.231 6.034,-0.486 5.406,-0.749 4.589,-1.091 3.815,-1.283 3.042,-1.48 2.314,-1.668 1.601,-1.795 0.91,-1.887 c -1.297,-0.176 -2.407,-0.068 -3.427,0.179 -0.729,0.174 -0.84,0.721 -0.593,1.525 0.038,0.123 0.057,0.245 0.071,0.359 0.015,0.15 -0.117,0.149 -0.271,0.136 -1.05,-0.074 -2.188,-0.368 -3.36,-0.752 -0.538,-0.178 -1.072,-0.343 -1.614,-0.518" />
    </g>
  </g>
</svg>
