<?xml version="1.0" encoding="UTF-8" standalone="no"?>
<!-- Created with Inkscape (http://www.inkscape.org/) -->

<svg
   xmlns:dc="http://purl.org/dc/elements/1.1/"
   xmlns:cc="http://creativecommons.org/ns#"
   xmlns:rdf="http://www.w3.org/1999/02/22-rdf-syntax-ns#"
   xmlns:svg="http://www.w3.org/2000/svg"
   xmlns="http://www.w3.org/2000/svg"
   xmlns:sodipodi="http://sodipodi.sourceforge.net/DTD/sodipodi-0.dtd"
   xmlns:inkscape="http://www.inkscape.org/namespaces/inkscape"
   width="30"
   height="28"
   viewBox="0 0 30 28"
   id="svg17252"
   version="1.1"
   inkscape:version="0.91 r13725"
   sodipodi:docname="icon-members.svg">
  <defs
     id="defs17254" />
  <sodipodi:namedview
     id="base"
     pagecolor="#ffffff"
     bordercolor="#666666"
     borderopacity="1.0"
     inkscape:pageopacity="0.0"
     inkscape:pageshadow="2"
     inkscape:zoom="15.839192"
     inkscape:cx="19.204992"
     inkscape:cy="8.4895714"
     inkscape:document-units="px"
     inkscape:current-layer="layer1"
     showgrid="false"
     units="px"
     inkscape:window-width="1881"
     inkscape:window-height="1056"
     inkscape:window-x="1405"
     inkscape:window-y="24"
     inkscape:window-maximized="1" />
  <metadata
     id="metadata17257">
    <rdf:RDF>
      <cc:Work
         rdf:about="">
        <dc:format>image/svg+xml</dc:format>
        <dc:type
           rdf:resource="http://purl.org/dc/dcmitype/StillImage" />
        <dc:title></dc:title>
      </cc:Work>
    </rdf:RDF>
  </metadata>
  <g
     inkscape:label="Capa 1"
     inkscape:groupmode="layer"
     id="layer1"
     transform="translate(0,-1024.3622)">
    <path
       inkscape:connector-curvature="0"
       id="path4978"
       style="fill:#ef8341;fill-opacity:1;fill-rule:evenodd;stroke:none"
       d="m 23.596437,1040.4406 c 1.73125,2.2937 2.19625,4.9225 2.0825,7.6912 -0.1,2.3825 -1.4425,3.8175 -3.89375,3.8613 -4.60625,0.084 -9.215,0.084 -13.8225004,0 -2.4375,-0.045 -3.7925,-1.505 -3.87375,-3.8863 -0.0987,-2.7675 0.385,-5.395 2.08625,-7.7 0.28875,-0.7212 1.0075,-1.0137 1.5375,-1.4937 0.265,-0.1975 0.56,-0.32 0.89125,-0.3563 0.8275,-0.036 1.4400004,0.4588 2.0787504,0.8575 2.1175,1.325 4.33375,1.8213 6.74375,0.8563 1.2525,-0.3563 2.2325,-1.275 3.48375,-1.6363 0.32625,-0.068 0.64375,-0.045 0.9525,0.081 0.62375,0.5288 1.4325,0.8813 1.73375,1.7275" />
    <path
       inkscape:connector-curvature="0"
       id="path4982"
       style="fill:#ef8341;fill-opacity:1;fill-rule:evenodd;stroke:none"
       d="m 8.9285566,1035.6432 c -0.0613,-1.3575 -0.05,-2.71 0.41125,-4.0163 -0.0163,-0.375 0.125,-0.6675 0.4525,-0.8712 0.8137504,0.075 1.1737504,-0.6188 1.7312504,-0.9825 2.065,-1.3525 4.85875,-1.305 6.92,0.1275 0.4825,0.3362 0.80125,0.9612 1.5475,0.805 0.47875,0.1562 0.67,0.53 0.7775,0.9725 0.61875,1.8187 0.98125,3.64 0.0263,5.4675 -0.8075,1.665 -2.065,2.8462 -3.85875,3.4537 -2.965,0.4113 -5.78125,0.38 -7.6125004,-2.5237 -0.47,-0.755 -0.0313,-1.6563 -0.395,-2.4325" />
    <path
       inkscape:connector-curvature="0"
       id="path4986"
       style="fill:#ef8341;fill-opacity:1;fill-rule:evenodd;stroke:none"
       d="m 21.811187,1038.8927 c -0.2925,0 -0.585,0.013 -0.87625,0.013 -1.005,0.039 -0.745,-0.6275 -0.68625,-1.18 0.51625,-0.7813 0.5775,-1.7313 0.99625,-2.55 0.23125,-2.24 2.14375,-1.6675 3.5025,-2.0225 0.43,-0.1425 0.905,0.1375 1.325,-0.1325 2.59,-0.5013 2.97875,-0.2325 3.39375,2.335 0.57375,3.5575 0.025,4.67 -2.4575,4.9975 -1.15625,0.1512 -2.2875,0.1862 -3.3125,-0.4913 -0.7425,-0.1062 -1.34125,-0.4862 -1.885,-0.965" />
    <path
       inkscape:connector-curvature="0"
       id="path4990"
       style="fill:#ef8341;fill-opacity:1;fill-rule:evenodd;stroke:none"
       d="m 8.2919366,1038.9304 c -0.11,0.1338 -0.22,0.27 -0.32875,0.4025 -0.635,0.135 -1.2275,0.4025 -1.8525,0.5613 -1.1125,0.6537 -2.30625,0.5775 -3.53,0.4412 -1.6450001,-0.18 -2.5112501,-1.02 -2.4512501,-2.6525 0.035,-0.9712 0.11375,-1.9525 0.3,-2.905 0.4225,-2.1362 0.9587501,-2.3537 3.0287501,-1.4325 0.32875,0.1475 0.73625,0.1238 1.11,0.1763 0.4325,0.195 0.9075,0.2262 1.34375,0.145 1.77375,-0.3313 2.46,0.4975 2.46375,2.1212 0.0412,0.2688 0.0838,0.5363 0.12375,0.8063 0.5475,0.3687 0.84375,0.895 0.98875,1.5212 -0.09,0.7063 -0.85375,0.4675 -1.19625,0.815" />
    <path
       inkscape:connector-curvature="0"
       id="path4994"
       style="fill:#ef8341;fill-opacity:1;fill-rule:evenodd;stroke:none"
       d="m 9.7921866,1030.7554 c 0.004,0.37 -0.0825,0.6875 -0.4525,0.8713 -0.8725,-0.1488 -1.26125,0.595 -1.84875,0.9775 -0.92625,0.2475 -1.8575,0.2225 -2.78875,0.015 -1.68375,-0.7725 -2.63125,-2.0625 -2.61375,-3.895 0.0163,-2.1775 2.07,-3.9838 4.255,-3.8363 2.14125,0.1388 3.9737504,2.2288 3.7662504,4.3263 -0.05,0.5187 -0.2100004,1.0287 -0.3175004,1.5412" />
    <path
       inkscape:connector-curvature="0"
       id="path4998"
       style="fill:#ef8341;fill-opacity:1;fill-rule:evenodd;stroke:none"
       d="m 20.450687,1031.3756 c -0.15375,-0.2238 -0.3075,-0.445 -0.46,-0.67 -0.68625,-2.1663 -0.355,-4.0113 1.75875,-5.2638 1.67125,-0.9937 3.24125,-0.67 4.64125,0.52 2.0475,1.7413 1.7125,4.1625 -0.85,6.5413 -0.16875,0.1887 -0.37125,0.3325 -0.60625,0.4325 -0.87125,0.2625 -1.74625,0.2087 -2.63,0.067 -0.86125,-0.275 -1.70375,-0.575 -1.85375,-1.6275" />
  </g>
</svg>
