<?xml version="1.0" encoding="utf-8"?>
<!-- Generator: Adobe Illustrator 16.0.0, SVG Export Plug-In . SVG Version: 6.00 Build 0)  -->
<!DOCTYPE svg PUBLIC "-//W3C//DTD SVG 1.1//EN" "http://www.w3.org/Graphics/SVG/1.1/DTD/svg11.dtd">
<svg version="1.1"
	 id="svg17267" xmlns:cc="http://creativecommons.org/ns#" xmlns:rdf="http://www.w3.org/1999/02/22-rdf-syntax-ns#" xmlns:dc="http://purl.org/dc/elements/1.1/" xmlns:svg="http://www.w3.org/2000/svg"
	 xmlns="http://www.w3.org/2000/svg" xmlns:xlink="http://www.w3.org/1999/xlink" x="0px" y="0px" width="14px" height="20px"
	 viewBox="0 0 14 20" enable-background="new 0 0 14 20" xml:space="preserve">
<g id="layer1" transform="translate(0,-1032.3622)">
	<g id="g17946" transform="matrix(1.3417673,0,0,-1.3205678,-793.74727,6303.6725)">
		<g id="g16646" transform="translate(592.5195,3977.1177)">
			<path id="path16648" fill="#EB6A24" d="M0,0h8.542c0,0.946-0.041,1.825,0.01,2.698c0.066,1.12-0.531,1.879-1.414,2.521
				C6.61,5.602,6.094,5.997,5.562,6.373c-0.607,0.43-0.598,0.832-0.001,1.275c0.784,0.58,1.646,1.107,2.293,1.802
				c1.273,1.366,0.49,3.029,0.688,4.568H0.065c-0.03-0.129-0.055-0.189-0.055-0.249c-0.006-0.817,0.045-1.639-0.025-2.451
				c-0.083-0.973,0.427-1.667,1.107-2.291c0.38-0.347,0.81-0.652,1.245-0.944c1.467-0.984,1.479-1.255,0.048-2.224
				C2.009,5.605,1.525,5.437,1.25,5.113C0.769,4.545,0.183,3.925,0.053,3.258C-0.147,2.225,0,1.135,0,0 M2.897,7.027
				C2.305,7.455,1.762,7.854,1.209,8.242c-1.159,0.811-1.908,1.813-1.822,3.23c0.023,0.407,0.042,0.82-0.006,1.224
				c-0.073,0.616-0.207,1.226-0.322,1.886h10.42c-0.111-0.752-0.373-1.503-0.298-2.223c0.221-2.157-0.737-3.654-2.702-4.7
				C6.195,7.506,5.971,7.257,5.657,7.001C6.21,6.582,6.7,6.164,7.239,5.809c1.253-0.828,2.019-1.872,1.916-3.357
				C9.13,2.076,9.113,1.694,9.159,1.322c0.076-0.615,0.207-1.225,0.324-1.885H-0.951c0.116,0.721,0.39,1.444,0.31,2.129
				c-0.255,2.196,0.726,3.713,2.704,4.793C2.346,6.515,2.57,6.762,2.897,7.027"/>
		</g>
		<g id="g16650" transform="translate(593.04,3977.4956)">
			<path id="path16652" fill="#EB6A24" d="M0-0.001c-0.561,1.562,0.321,2.318,1.614,2.94c0.772,0.37,1.451,0.904,2.101,1.318
				c0.852-0.514,1.768-1.145,2.763-1.645C7.657,2.02,7.736,1.107,7.554-0.001H0z"/>
		</g>
		<g id="g16654" transform="translate(600.0176,3987.8799)">
			<path id="path16656" fill="#EB6A24" d="M0,0c0.436-0.896-0.17-1.313-0.586-1.64c-2.362-1.844-2.937-1.844-5.286,0.006
				c-0.414,0.323-1.02,0.742-0.615,1.569C-4.335-1.027-2.191-1.188,0,0"/>
		</g>
	</g>
</g>
</svg>
