<?xml version="1.0" encoding="utf-8"?>
<!-- Generator: Adobe Illustrator 16.0.0, SVG Export Plug-In . SVG Version: 6.00 Build 0)  -->
<!DOCTYPE svg PUBLIC "-//W3C//DTD SVG 1.1//EN" "http://www.w3.org/Graphics/SVG/1.1/DTD/svg11.dtd">
<svg version="1.1" id="Capa_1" xmlns="http://www.w3.org/2000/svg" xmlns:xlink="http://www.w3.org/1999/xlink" x="0px" y="0px"
	 width="100px" height="70px" viewBox="0 0 100 70" enable-background="new 0 0 100 70" xml:space="preserve">
<g>
	<path fill-rule="evenodd" clip-rule="evenodd" fill="#5263A5" d="M49.822,45.312c-4.814,0.008-8.775-4.025-8.768-8.921
		c0.01-4.896,3.977-8.95,8.779-8.919c4.949,0.033,8.801,3.999,8.795,8.965C58.623,41.31,54.711,45.341,49.822,45.312"/>
	<g>
		<path fill-rule="evenodd" clip-rule="evenodd" fill="#5263A5" d="M4.742,37.729c0.32-0.356,0.285-0.834,0.404-1.257
			c1.125-3.95,3.637-6.562,7.422-7.912c1.115-0.397,2.301-0.55,3.498-0.547c2.256,0.007,4.512,0.003,6.766,0
			c0.311-0.002,0.619-0.057,0.643,0.43c0.139,2.826,1.33,5.172,3.248,7.212c-0.973,0.412-1.92,0.769-2.793,1.315
			c-4.404,2.764-6.684,6.736-6.695,12.018c0,0.674-0.02,1.352,0.008,2.026c0.016,0.419-0.123,0.528-0.531,0.509
			c-4.154-0.21-8.18-0.974-11.969-2.793V37.729z"/>
		<path fill-rule="evenodd" clip-rule="evenodd" fill="#5263A5" d="M93.924,48.442c-3.715,1.8-7.67,2.54-11.746,2.785
			c-0.59,0.032-0.766-0.104-0.76-0.726c0.027-2.164,0.086-4.326-0.678-6.424c-1.502-4.137-4.266-6.967-8.318-8.485
			c-0.561-0.208-0.408-0.356-0.131-0.656c1.668-1.788,2.67-3.896,2.842-6.364c0.045-0.65,0.225-0.882,0.918-0.865
			c2.273,0.056,4.555-0.007,6.832,0.033c5.244,0.101,9.678,3.845,10.797,9.068c0.057,0.259-0.01,0.575,0.244,0.777V48.442z"/>
		<path fill-rule="evenodd" clip-rule="evenodd" fill="#5263A5" d="M64.855,61.127c0,1.854-0.018,3.374,0.012,4.895
			c0.004,0.432-0.092,0.672-0.506,0.877c-2.195,1.087-4.539,1.648-6.916,2.086c-2.082,0.382-4.191,0.516-6.299,0.542
			c-2.203,0.026-4.408-0.142-6.594-0.448c-3.029-0.433-6.006-1.107-8.939-1.988c-0.586-0.176-0.812-0.425-0.801-1.09
			c0.049-2.702,0.021-5.4,0.018-8.101c-0.006-4.253,1.619-7.668,5.105-10.067c1.633-1.123,3.475-1.795,5.461-1.836
			c2.846-0.057,5.695-0.054,8.543-0.013c5.096,0.077,9.629,3.974,10.646,9.062C65.016,57.176,64.779,59.326,64.855,61.127"/>
		<path fill-rule="evenodd" clip-rule="evenodd" fill="#5263A5" d="M42.262,44.374c-1.594,0.565-3.002,1.293-4.256,2.294
			c-3.5,2.805-5.258,6.472-5.264,11.004c0,0.529,0.002,1.059,0.002,1.594c0,0.955,0,0.962-0.975,0.876
			c-3.596-0.319-7.125-0.987-10.59-2.021c-1.756-0.525-1.766-0.491-1.766-2.393c0-2.507-0.023-5.015,0.004-7.521
			c0.051-4.478,2.064-7.816,5.818-10.071c1.486-0.891,3.15-1.348,4.877-1.381c2.73-0.052,5.459-0.024,8.189-0.029
			c0.381-0.003,0.68,0.011,0.709,0.544C39.178,40.032,40.332,42.347,42.262,44.374"/>
		<path fill-rule="evenodd" clip-rule="evenodd" fill="#5263A5" d="M57.416,44.371c2-2.075,3.088-4.472,3.299-7.269
			c0.023-0.329,0.186-0.396,0.457-0.39c2.844,0.077,5.697-0.195,8.533,0.156c5.207,0.646,9.398,5.162,9.635,10.512
			c0.141,3.201,0.031,6.41,0.062,9.617c0.006,0.535-0.369,0.644-0.693,0.781c-1.896,0.82-3.857,1.443-5.893,1.813
			c-1.752,0.317-3.512,0.544-5.285,0.679c-0.459,0.033-0.568-0.081-0.559-0.529c0.047-2.022,0.045-4.051-0.551-6.01
			c-1.016-3.365-2.928-6.034-5.928-7.879C59.541,45.269,58.545,44.8,57.416,44.371"/>
		<path fill-rule="evenodd" clip-rule="evenodd" fill="#5263A5" d="M58.922,9.847c-0.025,5.396-4.25,9.7-9.52,9.689
			c-5.301-0.003-9.57-4.364-9.543-9.75c0.027-5.288,4.125-9.624,9.566-9.651C54.699,0.104,58.947,4.511,58.922,9.847"/>
		<path fill-rule="evenodd" clip-rule="evenodd" fill="#5263A5" d="M25.619,26.589c0.178-3.251,1.889-6.03,5.205-7.577
			c5.016-2.336,10.475,0.71,11.848,5.322c0.137,0.458,0.297,0.904,0.41,1.373c0.309,1.277-0.066,2.172-1.047,3.07
			c-1.541,1.417-2.449,3.283-2.826,5.38c-0.08,0.446-0.312,0.657-0.701,0.869C32.732,38.189,25.582,33.939,25.619,26.589"/>
		<path fill-rule="evenodd" clip-rule="evenodd" fill="#5263A5" d="M64.422,18.192c3.365,0.272,6.084,1.653,7.709,4.804
			c1.59,3.074,1.441,6.154-0.383,9.034c-2.287,3.607-6.584,4.953-10.545,3.464c-0.371-0.137-0.553-0.357-0.619-0.774
			c-0.477-3.106-2.02-5.557-4.533-7.364c-0.369-0.267-0.488-0.53-0.436-0.951c0.441-3.511,2.551-6.512,5.947-7.651
			C62.488,18.442,63.42,18.17,64.422,18.192"/>
		<path fill-rule="evenodd" clip-rule="evenodd" fill="#5263A5" d="M87.689,17.328c0.025,7.117-6.406,11.545-12.053,9.109
			c-0.273-0.121-0.475-0.229-0.523-0.586c-0.43-3.152-1.99-5.618-4.504-7.468c-0.354-0.261-0.5-0.504-0.449-0.942
			c0.398-3.425,2.076-5.967,5.174-7.395c3.025-1.399,5.982-1.051,8.689,0.887C86.447,12.67,87.598,15.141,87.689,17.328"/>
		<path fill-rule="evenodd" clip-rule="evenodd" fill="#5263A5" d="M10.977,18.551c-0.068-3.832,2.568-7.395,6.088-8.595
			c5.039-1.716,10.859,1.835,11.436,7.655c0.049,0.482-0.062,0.809-0.457,1.094c-2.543,1.836-4.061,4.319-4.496,7.469
			c-0.043,0.316-0.217,0.448-0.477,0.547c-2.479,0.938-4.912,0.891-7.291-0.332c-2.484-1.276-3.939-3.375-4.641-6.062
			C10.977,19.704,11.021,19.078,10.977,18.551"/>
		<path fill-rule="evenodd" clip-rule="evenodd" fill="#5263A5" d="M39.045,4.958c-0.043,0.112-0.084,0.222-0.129,0.335
			c-1.436,3.676-1.143,7.194,0.941,10.543c0.432,0.696,0.305,1.251-0.367,1.712c-0.277,0.19-0.457,0-0.646-0.092
			c-1.73-0.839-3.541-1.188-5.451-1.01c-0.979,0.089-1.912,0.339-2.812,0.729c-0.412,0.177-0.562,0.113-0.631-0.375
			c-0.451-3.187-2.051-5.642-4.689-7.399c-0.297-0.201-0.346-0.399-0.262-0.721c0.775-2.947,3.947-5.648,6.93-6
			c2-0.235,3.855,0.078,5.627,1.033c0.488,0.264,0.857,0.68,1.334,0.948C38.998,4.723,39.07,4.816,39.045,4.958"/>
		<path fill-rule="evenodd" clip-rule="evenodd" fill="#5263A5" d="M66.02,2.549c3.637,0.197,6.385,1.932,7.955,5.477
			c0.143,0.318,0.146,0.468-0.201,0.671c-3.018,1.758-4.842,4.375-5.363,7.892c-0.061,0.396-0.168,0.502-0.594,0.372
			c-2.324-0.706-4.656-0.825-6.98,0.018c-0.068,0.025-0.139,0.038-0.203,0.065c-1.041,0.417-1.35,0.291-1.912-0.709
			c-0.227-0.397,0.061-0.644,0.217-0.91c1.201-2.023,1.648-4.229,1.5-6.562c-0.064-1.009-0.184-2.025-0.607-2.951
			c-0.211-0.469-0.094-0.727,0.248-1.039C61.732,3.347,63.684,2.628,66.02,2.549"/>
	</g>
	<path fill-rule="evenodd" clip-rule="evenodd" fill="#5263A5" d="M42.945,20.545c1.279-0.461,11.666-0.461,12.934,0.019
		c-1.074,1.683-1.789,3.493-1.869,5.603c-1.162-0.475-2.314-0.801-3.523-0.867C48.697,25.2,47,25.553,45.371,26.301
		c-0.209,0.097-0.566,0.445-0.588-0.15c-0.08-1.973-0.703-3.764-1.746-5.41C43,20.681,42.977,20.608,42.945,20.545"/>
</g>
</svg>
