<?xml version="1.0" encoding="utf-8"?>
<!-- Generator: Adobe Illustrator 16.0.0, SVG Export Plug-In . SVG Version: 6.00 Build 0)  -->
<!DOCTYPE svg PUBLIC "-//W3C//DTD SVG 1.1//EN" "http://www.w3.org/Graphics/SVG/1.1/DTD/svg11.dtd">
<svg version="1.1" id="Capa_1" xmlns="http://www.w3.org/2000/svg" xmlns:xlink="http://www.w3.org/1999/xlink" x="0px" y="0px"
	 width="55px" height="55px" viewBox="0 0 55 55" enable-background="new 0 0 55 55" xml:space="preserve">
<g>
	<path fill-rule="evenodd" clip-rule="evenodd" fill="#FFFFFF" d="M25.021,47.242c-1.354,2.541-4.984,3.86-8.44,3.126
		c-2.409-0.513-3.997-1.666-4.792-4.396c-1.391-4.786-2.705-9.498-1.358-14.893c-1.109,0-2.003,0.021-2.895-0.004
		c-2.906-0.078-4.884-1.91-5.11-4.96c-0.148-2.02-0.157-4.074,0.003-6.091c0.25-3.126,2.278-4.988,5.309-5.023
		c3.647-0.042,7.304-0.18,10.94,0.022c8.849,0.492,16.498-2.771,23.584-7.963c0.996-0.73,2.001-1.463,2.918-2.298
		c1.097-0.997,2.38-1.94,3.589-0.792c1.009,0.957,1.967,2.469,2.112,3.834c0.316,2.975,0.132,6.013,0.088,9.023
		c-0.016,1.19,0.193,1.865,1.343,2.61c1.099,0.712,2.236,2.418,2.22,3.672c-0.016,1.258-1.21,2.843-2.309,3.634
		c-0.924,0.663-1.264,1.155-1.25,2.226c0.037,3.012,0.124,6.03-0.045,9.031c-0.068,1.182-0.509,2.555-1.229,3.432
		c-1.091,1.327-2.443,1.742-4.084,0.333c-5.475-4.703-11.46-8.442-18.495-9.972c-0.903-0.195-1.823-0.343-2.742-0.41
		c-1.671-0.125-3.909,1.438-3.672,3.301c0.497,3.939-0.891,8.647,3.346,11.41c0.3,0.195,0.551,0.478,0.802,0.744
		C24.945,46.938,24.971,47.105,25.021,47.242z M46.43,9.576c-0.85,0.579-1.442,0.962-2.016,1.378
		c-4.439,3.22-9.181,5.771-14.389,7.323c-1.591,0.474-3.818,0.575-4.551,1.709c-0.804,1.245-0.181,3.485-0.249,5.29
		c-0.044,1.195,0.374,1.75,1.546,1.923c4.724,0.701,9.075,2.558,13.192,5.026c2.141,1.284,4.199,2.717,6.466,4.191
		C46.43,27.42,46.43,18.704,46.43,9.576z"/>
</g>
</svg>
