<?xml version="1.0" encoding="utf-8"?>
<!-- Generator: Adobe Illustrator 16.0.0, SVG Export Plug-In . SVG Version: 6.00 Build 0)  -->
<!DOCTYPE svg PUBLIC "-//W3C//DTD SVG 1.0//EN" "http://www.w3.org/TR/2001/REC-SVG-20010904/DTD/svg10.dtd">
<svg version="1.0" id="Capa_1" xmlns="http://www.w3.org/2000/svg" xmlns:xlink="http://www.w3.org/1999/xlink" x="0px" y="0px"
	 width="40px" height="40px" viewBox="0 0 40 40" enable-background="new 0 0 40 40" xml:space="preserve">
<g>
	<circle opacity="0.8" fill="#486695" cx="19.727" cy="20.252" r="19.038"/>
</g>
<g>
	<path fill-rule="evenodd" clip-rule="evenodd" fill="#FDFDFD" d="M27.028,21.861c1.453,1.856,1.844,3.987,1.749,6.231
		c-0.084,1.929-1.212,3.092-3.27,3.127c-3.869,0.068-7.739,0.068-11.608-0.001c-2.046-0.037-3.184-1.221-3.253-3.149
		c-0.082-2.241,0.323-4.37,1.753-6.237c0.242-0.584,0.845-0.82,1.291-1.21c0.223-0.159,0.47-0.259,0.748-0.289
		c0.696-0.028,1.21,0.371,1.746,0.695c1.779,1.074,3.639,1.475,5.664,0.694c1.051-0.289,1.874-1.034,2.926-1.326
		c0.272-0.055,0.538-0.037,0.799,0.066C26.096,20.89,26.776,21.176,27.028,21.861z"/>
	<path fill-rule="evenodd" clip-rule="evenodd" fill="#FCFCFC" d="M14.711,17.975c-0.052-1.101-0.042-2.196,0.346-3.254
		c-0.013-0.303,0.105-0.541,0.379-0.707c0.684,0.062,0.986-0.502,1.454-0.797c1.733-1.094,4.08-1.056,5.809,0.105
		c0.406,0.272,0.675,0.778,1.302,0.652c0.402,0.125,0.562,0.431,0.652,0.79c0.52,1.472,0.823,2.947,0.022,4.428
		c-0.678,1.349-1.735,2.307-3.24,2.798c-2.491,0.332-4.855,0.307-6.392-2.044C14.648,19.333,15.016,18.604,14.711,17.975z"/>
	<path fill-rule="evenodd" clip-rule="evenodd" fill="#f1f1f1" d="M25.528,20.608c-0.245,0.003-0.49,0.004-0.735,0.006
		c-0.844,0.032-0.626-0.507-0.576-0.957c0.433-0.631,0.484-1.403,0.837-2.064c0.193-1.816,1.8-1.352,2.94-1.639
		c0.361-0.116,0.761,0.111,1.113-0.108c2.175-0.404,2.502-0.19,2.849,1.891c0.482,2.883,0.021,3.784-2.062,4.05
		c-0.971,0.122-1.921,0.151-2.782-0.398C26.488,21.304,25.985,20.995,25.528,20.608z"/>
	<path fill-rule="evenodd" clip-rule="evenodd" fill="#FBFBFB" d="M14.176,20.638c-0.092,0.108-0.184,0.217-0.276,0.326
		c-0.533,0.108-1.03,0.324-1.555,0.455c-0.934,0.528-1.937,0.468-2.964,0.357C8,21.631,7.272,20.949,7.322,19.626
		c0.029-0.787,0.096-1.582,0.252-2.354c0.355-1.73,0.804-1.906,2.542-1.159c0.276,0.12,0.618,0.099,0.932,0.143
		c0.363,0.158,0.762,0.184,1.129,0.117c1.489-0.268,2.066,0.404,2.069,1.719c0.034,0.218,0.069,0.435,0.103,0.653
		c0.46,0.299,0.709,0.726,0.831,1.232C15.105,20.549,14.464,20.354,14.176,20.638z"/>
	<path fill-rule="evenodd" clip-rule="evenodd" fill="#FBFBFB" d="M15.436,14.015c0.003,0.299-0.069,0.558-0.379,0.707
		c-0.733-0.121-1.06,0.482-1.552,0.79c-0.779,0.201-1.561,0.181-2.343,0.014c-1.413-0.627-2.209-1.671-2.195-3.157
		c0.015-1.764,1.738-3.225,3.573-3.108c1.798,0.114,3.337,1.807,3.163,3.505C15.661,13.187,15.527,13.599,15.436,14.015z"/>
	<path fill-rule="evenodd" clip-rule="evenodd" fill="#f1f1f1" d="M24.387,14.517c-0.13-0.181-0.259-0.362-0.386-0.542
		c-0.576-1.753-0.3-3.249,1.476-4.265c1.404-0.803,2.723-0.542,3.898,0.422c1.719,1.41,1.438,3.371-0.715,5.3
		c-0.142,0.152-0.311,0.268-0.509,0.348c-0.73,0.213-1.466,0.17-2.208,0.056C25.22,15.612,24.513,15.371,24.387,14.517z"/>
</g>
</svg>
