<?xml version="1.0" encoding="utf-8"?>
<!-- Generator: Adobe Illustrator 16.0.0, SVG Export Plug-In . SVG Version: 6.00 Build 0)  -->
<!DOCTYPE svg PUBLIC "-//W3C//DTD SVG 1.1//EN" "http://www.w3.org/Graphics/SVG/1.1/DTD/svg11.dtd">
<svg version="1.1" id="Capa_1" xmlns="http://www.w3.org/2000/svg" xmlns:xlink="http://www.w3.org/1999/xlink" x="0px" y="0px"
	 width="20px" height="20px" viewBox="0 0 20 20" enable-background="new 0 0 20 20" xml:space="preserve">
<g>
	<path fill-rule="evenodd" clip-rule="evenodd" fill="#FFFFFF" d="M3.451,0c4.37,0,8.74,0,13.11,0
		c0.091,0.034,0.179,0.085,0.272,0.101c1.876,0.308,3.162,1.799,3.163,3.688c0.004,4.172,0.005,8.344,0,12.516
		c-0.003,2.055-1.64,3.689-3.693,3.693c-4.188,0.004-8.376,0.006-12.564-0.002c-1.312-0.002-2.368-0.561-3.054-1.669
		C0.359,17.798,0.223,17.153,0,16.562C0,12.19,0,7.821,0,3.45c0.035-0.089,0.086-0.176,0.104-0.268
		c0.292-1.6,1.248-2.586,2.79-3.033C3.078,0.097,3.265,0.05,3.451,0z M10.067,18.7c1.691-0.072,3.43-0.129,5.164-0.228
		c0.953-0.054,1.578-0.616,1.76-1.563c0.391-2.047,0.324-4.104,0.105-6.166c-0.162-1.522-1.039-2.049-2.115-2.059
		c-3.312-0.029-6.625-0.027-9.938,0.002c-1.103,0.01-1.813,0.588-1.985,1.561c-0.386,2.18-0.404,4.371-0.019,6.553
		c0.193,1.098,0.804,1.625,1.915,1.686C6.642,18.579,8.33,18.63,10.067,18.7z M6.929,3.389c-0.057-0.05-0.093-0.065-0.101-0.09
		C6.692,2.827,6.557,2.354,6.427,1.882C6.215,1.106,6.034,1.017,5.157,1.28c0.057,0.182,0.108,0.367,0.172,0.547
		c0.577,1.64,1.163,3.267,1.003,5.064C6.248,7.83,6.326,7.845,7.287,7.721C7.315,7.717,7.34,7.685,7.459,7.598
		C7.029,5.4,7.96,3.36,8.576,1.27C7.647,1.05,7.547,1.105,7.341,1.884C7.21,2.374,7.073,2.862,6.929,3.389z M12.848,6.948
		c-0.024-0.252-0.064-0.473-0.065-0.692c-0.008-1.001-0.018-2.002,0.001-3.003c0.007-0.383-0.189-0.413-0.49-0.41
		c-0.298,0.002-0.496,0.021-0.488,0.412c0.021,1.215-0.014,2.43,0.026,3.643c0.01,0.287,0.154,0.705,0.366,0.816
		c0.221,0.115,0.6-0.059,0.905-0.125c0.087-0.02,0.159-0.105,0.24-0.163c0.18,0.366,0.414,0.415,1.064,0.228
		c0-1.434-0.015-2.875,0.009-4.318c0.007-0.4-0.128-0.502-0.506-0.497c-0.364,0.004-0.53,0.079-0.519,0.491
		c0.028,0.984,0.004,1.969,0.012,2.953C13.405,6.638,13.287,6.874,12.848,6.948z M11.13,5.31c0.019,0,0.036-0.001,0.055-0.002
		c-0.033-0.506-0.018-1.02-0.111-1.514c-0.127-0.676-0.698-1.061-1.366-1.008c-0.638,0.052-1.123,0.51-1.152,1.188
		C8.517,4.839,8.514,5.708,8.552,6.572C8.586,7.36,9.062,7.797,9.793,7.806c0.748,0.008,1.26-0.441,1.33-1.22
		C11.161,6.164,11.13,5.735,11.13,5.31z"/>
	<path fill-rule="evenodd" clip-rule="evenodd" fill="#FFFFFF" d="M10.375,10.364c0,2.109,0,4.166,0,6.248c0.254,0,0.479,0,0.704,0
		c0.036-0.121,0.073-0.244,0.122-0.407c0.358,0.353,0.719,0.622,1.174,0.417c0.472-0.213,0.437-0.693,0.443-1.115
		c0.013-0.82,0.009-1.641-0.002-2.46c-0.006-0.409,0.01-0.866-0.44-1.067c-0.433-0.191-0.789,0.043-1.107,0.33
		c-0.018,0.016-0.06,0.006-0.149,0.01c0-0.647,0-1.293,0-1.955C10.85,10.364,10.641,10.364,10.375,10.364z M15.327,15.104
		c-0.013,0.148-0.026,0.26-0.032,0.373c-0.015,0.305-0.146,0.511-0.476,0.5c-0.321-0.01-0.458-0.221-0.464-0.521
		c-0.006-0.325-0.001-0.65-0.001-1.059c0.59,0,1.135,0,1.701,0c0-0.506,0.029-0.933-0.006-1.354
		c-0.058-0.685-0.496-1.094-1.141-1.122c-0.729-0.031-1.229,0.322-1.286,1.05c-0.066,0.859-0.083,1.734-0.006,2.591
		c0.077,0.865,0.674,1.241,1.521,1.099c0.693-0.117,1.024-0.699,0.863-1.557C15.8,15.104,15.592,15.104,15.327,15.104z M9.521,16.62
		c0-1.576,0-3.094,0-4.631c-0.248,0-0.468,0-0.749,0c0,0.678,0,1.328-0.001,1.98c0,0.459,0.063,0.932-0.027,1.373
		c-0.05,0.24-0.341,0.568-0.563,0.604c-0.396,0.064-0.283-0.341-0.291-0.576c-0.017-0.476-0.005-0.951-0.005-1.428
		c0-0.649,0-1.299,0-1.949c-0.294,0-0.514,0-0.758,0c0,1.341-0.033,2.651,0.013,3.959c0.026,0.766,0.546,0.961,1.177,0.505
		c0.093-0.067,0.173-0.151,0.266-0.218c0.034-0.023,0.089-0.018,0.145-0.027c0.034,0.146,0.065,0.28,0.096,0.408
		C9.07,16.62,9.279,16.62,9.521,16.62z M5.856,16.614c0-0.25,0-0.445,0-0.64c0-1.313,0-2.628,0-3.941c0-0.837,0-0.837,0.841-0.899
		c0.061-0.004,0.118-0.039,0.162-0.055c0-0.247,0-0.469,0-0.699c-0.979,0-1.921,0-2.876,0c0,0.259,0,0.481,0,0.732
		c0.114,0.011,0.209,0.028,0.304,0.027c0.736-0.002,0.688-0.051,0.688,0.699c0.002,1.412,0,2.824,0.002,4.236
		c0,0.178,0.018,0.354,0.027,0.539C5.288,16.614,5.529,16.614,5.856,16.614z"/>
	<path opacity="0.8" fill-rule="evenodd" clip-rule="evenodd" fill="#C62829" d="M6.929,3.389C7.073,2.862,7.21,2.374,7.341,1.884
		C7.547,1.105,7.647,1.05,8.576,1.27C7.96,3.36,7.029,5.4,7.459,7.598C7.34,7.685,7.315,7.717,7.287,7.721
		C6.326,7.845,6.248,7.83,6.332,6.892c0.16-1.798-0.426-3.425-1.003-5.064C5.266,1.647,5.214,1.462,5.157,1.28
		c0.877-0.264,1.058-0.174,1.27,0.602c0.13,0.473,0.266,0.945,0.401,1.417C6.836,3.323,6.872,3.339,6.929,3.389z"/>
	<path opacity="0.8" fill-rule="evenodd" clip-rule="evenodd" fill="#C62829" d="M12.848,6.948c0.439-0.074,0.558-0.311,0.556-0.666
		c-0.008-0.984,0.017-1.969-0.012-2.953c-0.012-0.412,0.154-0.487,0.519-0.491c0.378-0.005,0.513,0.097,0.506,0.497
		c-0.023,1.443-0.009,2.885-0.009,4.318c-0.65,0.188-0.885,0.139-1.064-0.228c-0.081,0.058-0.153,0.144-0.24,0.163
		c-0.306,0.066-0.685,0.24-0.905,0.125c-0.212-0.111-0.356-0.529-0.366-0.816c-0.04-1.213-0.006-2.428-0.026-3.643
		c-0.008-0.391,0.19-0.41,0.488-0.412c0.301-0.003,0.497,0.027,0.49,0.41c-0.019,1.001-0.009,2.002-0.001,3.003
		C12.783,6.476,12.823,6.696,12.848,6.948z"/>
	<path opacity="0.8" fill-rule="evenodd" clip-rule="evenodd" fill="#C62829" d="M11.13,5.31c0,0.426,0.031,0.854-0.007,1.276
		c-0.07,0.778-0.582,1.228-1.33,1.22C9.062,7.797,8.586,7.36,8.552,6.572C8.514,5.708,8.517,4.839,8.555,3.974
		c0.029-0.678,0.515-1.136,1.152-1.188c0.668-0.053,1.239,0.332,1.366,1.008c0.094,0.494,0.078,1.008,0.111,1.514
		C11.166,5.309,11.148,5.31,11.13,5.31z M10.156,5.296c0-0.394,0.029-0.79-0.014-1.178C10.125,3.96,9.953,3.819,9.852,3.671
		c-0.118,0.131-0.334,0.26-0.34,0.396C9.479,4.884,9.477,5.703,9.506,6.521c0.006,0.146,0.209,0.287,0.32,0.43
		c0.11-0.158,0.295-0.308,0.315-0.478C10.189,6.085,10.156,5.688,10.156,5.296z"/>
	<path fill-rule="evenodd" clip-rule="evenodd" fill="#FFFFFF" d="M10.375,10.364c0.266,0,0.475,0,0.744,0c0,0.662,0,1.308,0,1.955
		c0.09-0.004,0.132,0.006,0.149-0.01c0.318-0.287,0.675-0.521,1.107-0.33c0.45,0.201,0.435,0.658,0.44,1.067
		c0.011,0.819,0.015,1.64,0.002,2.46c-0.007,0.422,0.028,0.902-0.443,1.115c-0.455,0.205-0.815-0.064-1.174-0.417
		c-0.049,0.163-0.086,0.286-0.122,0.407c-0.226,0-0.45,0-0.704,0C10.375,14.53,10.375,12.474,10.375,10.364z M11.125,14.278
		c0,0.394,0.013,0.789-0.004,1.182c-0.015,0.334,0.159,0.542,0.449,0.496c0.176-0.027,0.441-0.276,0.45-0.438
		c0.046-0.818,0.046-1.643-0.002-2.461C12.01,12.9,11.72,12.759,11.56,12.61c-0.145,0.162-0.385,0.308-0.415,0.488
		C11.08,13.482,11.125,13.884,11.125,14.278z"/>
	<path fill-rule="evenodd" clip-rule="evenodd" fill="#FFFFFF" d="M15.327,15.104c0.265,0,0.473,0,0.675,0
		c0.161,0.857-0.17,1.439-0.863,1.557c-0.848,0.143-1.444-0.233-1.521-1.099c-0.077-0.856-0.061-1.731,0.006-2.591
		c0.057-0.728,0.558-1.081,1.286-1.05c0.645,0.028,1.083,0.438,1.141,1.122c0.035,0.421,0.006,0.848,0.006,1.354
		c-0.566,0-1.111,0-1.701,0c0,0.408-0.005,0.733,0.001,1.059c0.006,0.301,0.143,0.512,0.464,0.521
		c0.329,0.011,0.461-0.195,0.476-0.5C15.301,15.364,15.314,15.253,15.327,15.104z M14.79,13.792
		c0.318,0.035,0.577,0.013,0.534-0.412c-0.035-0.346-0.016-0.744-0.493-0.762c-0.421-0.018-0.474,0.309-0.481,0.647
		C14.343,13.585,14.335,13.886,14.79,13.792z"/>
	<path fill-rule="evenodd" clip-rule="evenodd" fill="#FFFFFF" d="M9.521,16.62c-0.241,0-0.45,0-0.699,0
		c-0.03-0.128-0.062-0.263-0.096-0.408c-0.056,0.01-0.11,0.004-0.145,0.027c-0.093,0.066-0.173,0.15-0.266,0.218
		c-0.631,0.456-1.15,0.261-1.177-0.505c-0.046-1.308-0.013-2.618-0.013-3.959c0.244,0,0.464,0,0.758,0c0,0.65,0,1.3,0,1.949
		c0,0.477-0.012,0.952,0.005,1.428c0.008,0.235-0.105,0.641,0.291,0.576c0.223-0.035,0.514-0.363,0.563-0.604
		c0.091-0.441,0.027-0.914,0.027-1.373c0.001-0.652,0.001-1.303,0.001-1.98c0.281,0,0.501,0,0.749,0
		C9.521,13.526,9.521,15.044,9.521,16.62z"/>
	<path fill-rule="evenodd" clip-rule="evenodd" fill="#FFFFFF" d="M5.856,16.614c-0.327,0-0.568,0-0.853,0
		c-0.01-0.186-0.027-0.361-0.027-0.539c-0.002-1.412,0-2.824-0.002-4.236c0-0.75,0.049-0.701-0.688-0.699
		c-0.095,0.001-0.189-0.017-0.304-0.027c0-0.251,0-0.474,0-0.732c0.955,0,1.897,0,2.876,0c0,0.23,0,0.452,0,0.699
		c-0.044,0.016-0.102,0.051-0.162,0.055c-0.841,0.062-0.841,0.062-0.841,0.899c0,1.313,0,2.628,0,3.941
		C5.856,16.169,5.856,16.364,5.856,16.614z"/>
	<path fill-rule="evenodd" clip-rule="evenodd" fill="#FFFFFF" d="M10.156,5.296c0,0.393,0.033,0.789-0.015,1.177
		c-0.021,0.17-0.205,0.319-0.315,0.478c-0.111-0.143-0.314-0.283-0.32-0.43C9.477,5.703,9.479,4.884,9.512,4.066
		c0.006-0.136,0.222-0.265,0.34-0.396c0.102,0.148,0.273,0.289,0.291,0.447C10.186,4.506,10.156,4.902,10.156,5.296z"/>
	<path opacity="0.8" fill-rule="evenodd" clip-rule="evenodd" fill="#C62829" d="M11.125,14.278c0-0.395-0.045-0.796,0.02-1.18
		c0.03-0.181,0.271-0.326,0.415-0.488c0.16,0.148,0.45,0.29,0.459,0.447c0.048,0.818,0.048,1.643,0.002,2.461
		c-0.009,0.161-0.274,0.41-0.45,0.438c-0.29,0.046-0.464-0.162-0.449-0.496C11.138,15.067,11.125,14.672,11.125,14.278z"/>
	<path fill-rule="evenodd" clip-rule="evenodd" fill="#E5452E" d="M14.79,13.792c-0.455,0.094-0.447-0.207-0.44-0.526
		c0.008-0.339,0.061-0.665,0.481-0.647c0.478,0.018,0.458,0.416,0.493,0.762C15.367,13.805,15.108,13.827,14.79,13.792z"/>
</g>
</svg>
