<?xml version="1.0" encoding="UTF-8" standalone="no"?>
<svg
   xmlns:dc="http://purl.org/dc/elements/1.1/"
   xmlns:cc="http://creativecommons.org/ns#"
   xmlns:rdf="http://www.w3.org/1999/02/22-rdf-syntax-ns#"
   xmlns:svg="http://www.w3.org/2000/svg"
   xmlns="http://www.w3.org/2000/svg"
   version="1.1"
   id="svg17267"
   viewBox="0 0 14 20"
   height="20"
   width="14">
  <defs
     id="defs17269">
    <clipPath
       id="clipPath16574"
       clipPathUnits="userSpaceOnUse">
      <path
         id="path16576"
         d="m 0,4486 1280,0 L 1280,0 0,0 0,4486 Z" />
    </clipPath>
  </defs>
  <metadata
     id="metadata17272">
    <rdf:RDF>
      <cc:Work
         rdf:about="">
        <dc:format>image/svg+xml</dc:format>
        <dc:type
           rdf:resource="http://purl.org/dc/dcmitype/StillImage" />
        <dc:title></dc:title>
      </cc:Work>
    </rdf:RDF>
  </metadata>
  <g
     transform="translate(0,-1032.3622)"
     id="layer1">
    <g
       id="g17946"
       transform="matrix(1.3417673,0,0,-1.3205678,-793.74727,6303.6725)">
      <g
         id="g16646"
         transform="translate(592.5195,3977.1177)">
        <path
           d="M 0,0 8.542,0 C 8.542,0.946 8.5,1.825 8.552,2.699 8.618,3.819 8.021,4.578 7.138,5.22 6.61,5.602 6.094,5.997 5.562,6.373 4.955,6.803 4.963,7.205 5.561,7.648 c 0.784,0.58 1.646,1.107 2.293,1.802 1.273,1.366 0.49,3.029 0.688,4.568 l -8.477,0 C 0.035,13.889 0.01,13.829 0.01,13.769 0.004,12.952 0.055,12.13 -0.015,11.318 -0.098,10.345 0.412,9.651 1.092,9.027 1.472,8.68 1.902,8.375 2.337,8.083 3.804,7.099 3.816,6.828 2.385,5.859 2.009,5.605 1.525,5.437 1.25,5.113 0.769,4.545 0.183,3.925 0.053,3.258 -0.147,2.225 0,1.135 0,0 M 2.897,7.027 C 2.305,7.455 1.762,7.854 1.209,8.242 c -1.159,0.811 -1.908,1.813 -1.822,3.23 0.023,0.407 0.042,0.82 -0.006,1.224 -0.073,0.616 -0.207,1.226 -0.322,1.886 l 10.42,0 C 9.368,13.83 9.106,13.079 9.181,12.359 9.402,10.202 8.444,8.705 6.479,7.659 6.195,7.506 5.971,7.257 5.657,7.001 6.21,6.582 6.7,6.164 7.239,5.809 8.492,4.982 9.257,3.938 9.155,2.452 9.13,2.076 9.113,1.694 9.159,1.322 9.236,0.707 9.366,0.096 9.483,-0.563 l -10.434,0 c 0.116,0.721 0.39,1.443 0.31,2.129 -0.255,2.195 0.726,3.713 2.704,4.793 0.283,0.156 0.507,0.403 0.834,0.668"
           style="fill:#ffffff;fill-opacity:1;fill-rule:evenodd;stroke:none"
           id="path16648" />
      </g>
      <g
         id="g16650"
         transform="translate(593.04,3977.4956)">
        <path
           d="M 0,0 C -0.561,1.562 0.321,2.318 1.614,2.939 2.386,3.309 3.065,3.843 3.715,4.257 4.567,3.743 5.483,3.111 6.478,2.612 7.657,2.02 7.735,1.107 7.553,0 L 0,0 Z"
           style="fill:#ffffff;fill-opacity:1;fill-rule:evenodd;stroke:none"
           id="path16652" />
      </g>
      <g
         id="g16654"
         transform="translate(600.0176,3987.8799)">
        <path
           d="m 0,0 c 0.436,-0.896 -0.169,-1.313 -0.586,-1.64 -2.362,-1.844 -2.937,-1.844 -5.286,0.006 -0.414,0.323 -1.02,0.742 -0.615,1.569 C -4.335,-1.027 -2.191,-1.188 0,0"
           style="fill:#ffffff;fill-opacity:1;fill-rule:evenodd;stroke:none"
           id="path16656" />
      </g>
    </g>
  </g>
</svg>
