<?xml version="1.0" encoding="utf-8"?>
<!-- Generator: Adobe Illustrator 16.0.0, SVG Export Plug-In . SVG Version: 6.00 Build 0)  -->
<!DOCTYPE svg PUBLIC "-//W3C//DTD SVG 1.1//EN" "http://www.w3.org/Graphics/SVG/1.1/DTD/svg11.dtd">
<svg version="1.1" id="Capa_1" xmlns="http://www.w3.org/2000/svg" xmlns:xlink="http://www.w3.org/1999/xlink" x="0px" y="0px"
	 width="320px" height="170px" viewBox="0 0 320 170" enable-background="new 0 0 320 170" xml:space="preserve">
<text transform="matrix(1.0284 0 0 1 4.479 153.168)" fill="none" stroke="#C56831" stroke-width="20" stroke-miterlimit="10" font-family="'Pacifico'" font-size="78.3349">Sumate!</text>
<g>
	<text transform="matrix(1.0284 0 0 1 5.1279 153.168)" fill="#FFFFFF" font-family="'Pacifico'" font-size="78.3349">Sumate!</text>
</g>
<g>
	<path fill-rule="evenodd" clip-rule="evenodd" fill="#C56831" d="M187.189,30.022c2.26,4.643,3.246,9.592,3.135,14.736
		c-0.248,11.147-4.906,20.183-13.064,27.428c-1.162,1.027-1.598,2.063-1.477,3.626c0.42,5.792,1.053,11.518,3.48,16.87
		c0.074,0.16,0.088,0.344,0.131,0.527c-0.539,0.301-0.936-0.066-1.332-0.215c-6.057-2.232-11.824-5.061-17.093-8.861
		c-0.851-0.615-1.616-0.773-2.68-0.477c-5.166,1.426-10.382,2.588-15.75,2.924c-7.644,0.482-15.121-0.408-22.439-2.586
		c-1.983-0.592-3.463-0.383-5.199,0.834c-5.391,3.787-11.287,6.555-17.615,8.334c-0.29,0.08-0.625,0.389-0.881,0.049
		c-0.229-0.305,0.031-0.635,0.18-0.908c0.521-0.992,1.019-2.004,1.605-2.955c2.703-4.385,3.756-9.238,4-14.338
		c0.036-0.749-0.27-1.222-0.775-1.692c-2.077-1.936-4.26-3.774-6.161-5.875c-6.101-6.76-8.894-14.86-8.679-23.98
		c0.265-10.736,4.911-19.447,12.489-26.609c8.64-8.17,19.038-12.557,30.63-14.175c10.384-1.44,20.522-0.413,30.391,3.231
		c0.554,0.203,1.163,0.309,1.622,0.742c-0.731,0.586-1.392,0.011-2.073-0.144c-0.431-0.099-0.882-0.448-1.154,0.233
		c-0.321,0.797-1.019,0.82-1.722,0.88c-1.456,0.109-2.959-0.17-4.358,0.467c-1.456,0.122-2.825-0.446-4.253-0.559
		c-0.734-0.278-1.521-0.116-2.258-0.294c-0.902-0.287-1.831-0.123-2.746-0.169c-0.394-0.007-0.793-0.021-1.171-0.11
		c-1.56-0.301-3.104-0.213-4.657,0.02c-0.547,0.1-1.103,0.091-1.657,0.097c-2.025-0.076-3.984,0.433-5.95,0.796
		c-1.671,0.184-3.274,0.651-4.877,1.134c-0.538,0.144-1.059,0.362-1.606,0.493c-0.67,0.06-1.295,0.314-1.907,0.583
		c-1.589,0.478-3.071,1.226-4.578,1.917c-0.42,0.132-0.83,0.275-1.194,0.539c-0.211,0.142-0.431,0.267-0.668,0.364
		c-1.066,0.419-2.077,0.954-3.027,1.611c-1.026,0.48-1.957,1.125-2.883,1.791c-2.318,1.503-4.447,3.245-6.693,5.213
		c0.991,0.466,1.821,0.274,2.614,0.361c5.105,0.571,10.22,1.118,15.265,2.155c0.361,0.074,0.732,0.049,1.095,0.094
		c3.153,0.625,6.274,1.352,9.36,2.266c0.135,0.027,0.271,0.066,0.406,0.115c1.127,0.441,2.319,0.664,3.452,1.101
		c0.306,0.114,0.618,0.218,0.931,0.319c0.552,0.203,1.115,0.384,1.676,0.558c0.814,0.312,1.654,0.555,2.477,0.85
		c5.298,2.063,10.371,4.602,15.145,7.735c0.972,0.641,2.159,1.092,2.67,2.314c-0.152,1.04-0.919,1.678-1.497,2.448
		c-1.115,1.501-1.006,3.295,0.281,4.041c0.58,0.337,1.234,0.593,1.898,0.77c2.467,0.083,4.929-0.081,7.391,0.088
		c1.387,0.616,2.191,1.84,3.047,3.021c1.863,2.379,3.322,5.021,4.756,7.686c0.955,1.971,1.725,4.018,2.305,6.135
		c0.248,0.903,0.545,0.946,1.148,0.306c0.803-0.84,1.482-1.773,2.109-2.75c0.104-0.164,0.232-0.307,0.365-0.432
		c0.404-0.301,0.635-0.721,0.793-1.186c0.539-0.757,1.15-1.476,1.463-2.383c0.375-0.759,0.824-1.487,0.996-2.337
		c0.494-1.215,1.195-2.345,1.424-3.672c0.453-1.774,1.02-3.531,0.965-5.402c0.186-1.709,0.574-3.418,0.15-5.152
		c-0.084-0.448-0.115-0.897,0.113-1.315c0.602-0.296,0.381-0.853,0.412-1.339c0.119-1.813,0-3.638,0.182-5.455
		c0.072-0.788,0.172-1.482,1.203-1.544C187.365,30.877,186.621,30.155,187.189,30.022"/>
	<path fill-rule="evenodd" clip-rule="evenodd" fill="#C36631" d="M187.189,30.022c-0.08,0.544,0.137,0.988-0.738,1.391
		c-0.867,0.402-0.592,1.912-0.506,2.898c0.121,1.612-0.135,3.191-0.189,4.789c-0.025,0.797-0.346,0.034-0.529,0.047
		c-0.289-0.204-0.373-0.535-0.486-0.843c-0.045-0.125-0.074-0.253-0.094-0.385c-0.051-0.453-0.057-0.914-0.23-1.349
		c-0.211-0.633-0.346-1.291-0.545-1.929c-0.355-1.224-0.748-2.439-1.324-3.583c-0.309-0.995-0.758-1.921-1.342-2.788
		c-0.258-0.489-0.506-0.992-0.842-1.441c-0.342-0.562-0.658-1.148-1.164-1.585c-0.312-0.303-0.561-0.658-0.811-1.01
		c-0.537-0.945-1.199-1.783-2.006-2.497c-4.473-5.028-10-8.442-16.108-10.974c-0.545-0.228-1.159-0.351-1.443-0.98
		c0.149-0.715,0.747-0.553,1.206-0.606c0.451-0.056,0.928,0.021,1.35-0.166c0.424-0.191,0.595-0.478,0.123-0.813
		c-0.687-0.492-2.178-0.268-2.549,0.492c-0.358,0.721-0.855,0.895-1.542,0.873c-0.897-0.102-1.757-0.359-2.615-0.631
		c-0.704-0.29-1.491-0.316-2.177-0.675c-0.131-0.096-0.172-0.22-0.125-0.376c1.301-1.146,2.875-0.431,4.312-0.604
		c1.323-0.164,1.433-0.15,1.409-1.614c1.205,0.203,2.239,1.017,3.483,0.987l-0.023-0.01c1.256,0.657,2.523,1.289,3.864,1.733
		c5.817,2.747,10.851,6.565,15.118,11.423C183.355,22.852,185.672,26.182,187.189,30.022"/>
	<path fill-rule="evenodd" clip-rule="evenodd" fill="#C56831" d="M165.548,8.375c-1.454-0.192-2.728-0.808-3.864-1.733
		C163.066,7.008,164.326,7.654,165.548,8.375"/>
	<path fill-rule="evenodd" clip-rule="evenodd" fill="#FFFFFF" d="M119.101,51.233c0.805-2.621,1.607-5.246,2.426-7.865
		c0.662-2.1,1.275-4.221,2.029-6.291c0.787-2.173,2.321-3.217,4.385-3.217c1.926-0.003,3.483,1.076,4.224,3.262
		c1.37,4.043,2.603,8.129,3.904,12.194c0.202,0.614,0.265,1.281,0.827,1.962c0.904-3.076,1.754-6.02,2.638-8.953
		c0.608-2.023,1.042-4.097,1.942-6.021c0.824-1.772,2.255-2.573,4.122-2.519c1.848,0.055,3.268,0.933,4.104,2.654
		c0.561,1.153,0.534,2.406,0.153,3.58c-2.382,7.414-4.921,14.774-7.58,22.093c-0.502,1.381-1.312,2.602-2.554,3.432
		c-2.816,1.874-6.274,0.735-7.593-2.67c-1.266-3.271-2.293-6.65-3.428-9.978c-0.22-0.639-0.453-1.275-0.975-1.899
		c-0.796,2.476-1.588,4.953-2.371,7.433c-0.511,1.607-1.012,3.226-1.744,4.749c-0.984,2.029-2.541,3.238-4.803,3.216
		c-2.254-0.022-3.818-1.269-4.803-3.264c-1.145-2.312-1.795-4.828-2.658-7.253c-1.671-4.728-3.279-9.486-4.886-14.244
		c-0.306-0.879-0.572-1.792-0.69-2.715c-0.319-2.438,0.869-4.227,3.168-4.928c2.248-0.692,4.294,0.158,5.311,2.348
		c1.188,2.562,1.71,5.359,2.551,8.045c0.703,2.265,1.348,4.553,2.016,6.823C118.909,51.22,119.005,51.222,119.101,51.233"/>
	<path fill-rule="evenodd" clip-rule="evenodd" fill="#FFFFFF" d="M157.406,46.997c-0.114-0.298-0.376-0.359-0.643-0.453
		c-2.116-0.76-2.734-2.686-1.438-4.575c0.601-0.873,1.279-1.685,1.92-2.527c0.119-0.294,0.252-0.589,0.481-0.814
		c1.245-1.354,2.396-2.792,3.554-4.22c0.98-0.959,1.704-2.107,2.283-3.338c0.491-1.047,0.266-1.989-0.453-2.185
		c-1.012-0.265-1.398,0.447-1.685,1.25c-0.204,0.575-0.366,1.16-0.573,1.735c-0.047,0.128-0.117,0.247-0.186,0.364
		c-0.399,0.487-0.801,0.96-1.375,1.257c-1.944,0.609-2.89,0.29-4.199-1.408c-0.991-2.283-0.094-4.313,0.789-6.346
		c0.775-0.795,1.571-1.572,2.407-2.299c0.799-0.43,1.587-0.877,2.429-1.207c2.006-0.557,3.969-0.507,5.887,0.393
		c2.416,1.131,3.93,2.979,4.484,5.633c0.154,0.93,0.107,1.859,0.057,2.788c-0.094,0.503-0.24,0.996-0.361,1.492
		c-0.346,0.81-0.746,1.595-1.146,2.381c-0.441,0.706-0.973,1.355-1.436,2.056c-0.406,0.502-0.855,0.967-1.18,1.528
		c-0.43,0.604-1.08,1.015-1.511,1.777c1.303,0.493,2.653-0.032,3.901,0.354c0.826,0.352,1.463,0.925,1.924,1.712
		c0.615,1.313,0.316,2.495-0.502,3.606c-1.236,1.24-2.791,1.343-4.367,1.152C163.445,46.741,160.427,46.908,157.406,46.997"/>
	<path fill-rule="evenodd" clip-rule="evenodd" fill="#CA7B44" d="M155.375,32.068c1.078,1.36,2.439,1.667,4.031,1.126
		c0.518-0.239,0.912-0.599,1.121-1.151h-0.006c1.521,0.71,1.721,1.29,0.896,2.627c-1.099,1.51-2.277,2.941-3.607,4.239
		c0.043-1.549-1.416-1.866-2.242-2.557c-1.943-1.626-3.921-3.302-6.373-4.125c-2.406-0.814-4.401-2.504-6.821-3.267
		c-0.178-0.061-0.417-0.104-0.475-0.267c-0.544-1.475-2.158-1.668-3.072-2.698c-0.447-0.507-1.057-0.751-1.691-0.915
		c-0.498-0.125-0.994-0.269-1.381-0.611c-0.984-0.851-1.91-1.742-3.36-1.633c-0.384,0.029-0.832-0.275-1.04-0.639
		c-0.703-1.248-1.823-1.794-3.134-2.065c-0.092-0.016-0.181-0.062-0.252-0.121c-2.095-1.89-4.886-2.603-7.078-4.337
		c-0.987-0.787-2.12-1.281-3.399-1.362c-1.117-0.063-1.38-0.931-1.627-1.814c0.044-0.412,0.425-0.501,0.657-0.736
		c1.522-0.783,3.047-1.543,4.713-1.973c-0.372,0.884-0.085,1.528,0.618,2.121c1.838,1.542,3.928,2.6,6.107,3.522
		c0.207,0.09,0.514,0.042,0.654,0.202c1.765,2.142,4.677,2.48,6.58,4.225c1.573,1.437,3.635,1.811,5.11,3.257
		c0.544,0.527,1.362,0.493,2.012,0.898c1.558,0.969,2.903,2.34,4.562,3.025c2.105,0.875,3.705,2.594,5.859,3.34
		c0.688,0.241,1.373,0.044,2.037,0.241C154.978,31.096,154.984,31.666,155.375,32.068"/>
	<path fill-rule="evenodd" clip-rule="evenodd" fill="#C97A40" d="M115.97,12.332c0.568,0.875,0.781,2.097,2.401,1.628
		c0.399-0.114,1.591,0.406,2.084,0.928c0.875,0.932,2.323,0.979,2.971,2.186c0.094,0.171,0.417,0.359,0.588,0.321
		c1.61-0.354,2.272,0.981,3.263,1.778c0.441,0.359,0.922,0.747,1.575,0.808c1.11,0.098,1.978,0.618,2.501,1.691
		c0.304,0.642,1.004,1.133,1.545,0.96c1.1-0.352,1.613,0.271,2.249,0.895c0.577,0.577,1.181,1.031,2.083,1.174
		c0.635,0.104,1.363,0.381,1.848,1.057c0.794,1.107,2.711,0.994,2.953,2.76c0.008,0.055,0.144,0.106,0.23,0.134
		c3.501,1.14,6.548,3.276,9.956,4.646c0.889,0.353,1.611,1.192,2.35,1.886c0.78,0.742,1.973,0.933,2.464,2.099
		c0.192,0.441,0.85,0.434,1.395,0.233c-0.063,0.591-0.743,0.81-0.614,1.396c-0.11,0.262-0.206,0.541-0.564,0.529
		c-2.19-2.017-4.763-3.451-7.336-4.85c-3.19-1.734-6.403-3.447-9.853-4.639c-0.193-0.069-0.357-0.261-0.55-0.399
		c-0.503-0.452-0.991-0.884-1.44-1.428c-0.835-1.015-2.141-1.274-3.396-1.252c-1.156,0.027-2.045-0.309-2.797-1.202
		c-0.441-0.535-0.978-0.993-1.652-1.239c-0.171-0.059-0.319-0.183-0.49-0.262c-0.649-0.304-0.48-1.588-1.767-1.297
		c-0.669,0.15-1.587-0.493-2.241-0.874c-1.577-0.937-3.254-1.736-4.672-2.932c-0.401-0.334-0.764-0.646-1.305-0.729
		c-2.105-0.336-3.654-1.702-5.145-3.073c-1.286-1.188-1.174-1.621,0.264-2.65c0.184-0.093,0.363-0.194,0.548-0.285
		C115.599,12.167,115.788,12.164,115.97,12.332"/>
	<path fill-rule="evenodd" clip-rule="evenodd" fill="#D49261" d="M170.799,28.179c-1.311-4.536-5.324-6.837-10.227-5.644
		c0.156-1.051,1.106-0.71,1.82-1.072c-3.494-1.886-6.735-4.049-10.129-5.952c-4.267-2.394-8.456-4.92-12.575-7.559
		c-0.346-0.221-0.83-0.428-0.723-0.921c0.133-0.619,0.713-0.5,1.153-0.479c0.636,0.032,1.286-0.15,1.909,0.122
		c0.361,0.005,0.725,0.005,1.092,0.006c0.082,0.111,0.086,0.229,0.014,0.343c-0.543,0.666,0.373,0.765,0.475,0.811
		c2.478,1.028,4.808,2.284,6.897,4.015c0.242,0.205,0.615,0.156,0.915,0.271c2.107,0.519,3.944,1.766,5.554,3.03
		c2.293,1.811,4.908,3.05,7.352,4.464c2.913,1.701,5.803,3.532,8.818,5.102c2.078,1.075,4.428,2.032,6.072,3.979
		c0.898,1.083,1.73,0.79,2.135-0.593c0.75,0.798,1.211,1.738,1.387,2.83c0.158,0.285,0.191,0.611,0.33,0.91
		c0.184,0.392,0.594,0.823,0.109,1.262c-0.434,0.383-0.932,0.125-1.281-0.104c-1.574-1.051-3.258-1.908-4.857-2.907
		c-1.951-1.213-3.951-2.34-5.949-3.517C170.984,27.141,171.32,27.745,170.799,28.179"/>
	<path fill-rule="evenodd" clip-rule="evenodd" fill="#D18D5B" d="M142.028,6.674c-0.232,0.005-0.466-0.027-0.691,0.015
		c-0.729,0.149-1.804-0.454-2.098,0.416c-0.141,0.433,1.047,0.839,1.645,1.196c2.044,1.234,4.128,2.399,6.032,3.848
		c0.704,0.535,1.514,0.756,2.258,1.143c2.247,1.156,4.438,2.432,6.51,3.914c1.007,0.714,2.089,1.362,3.221,1.83
		c1.431,0.588,2.471,1.901,4.055,2.189c0.158,0.025,0.287,0.224,0.23,0.444c-0.065,0.227-0.268,0.237-0.444,0.247
		c-0.776,0.021-1.571-0.023-2.173,0.619c-0.74,0.381-1.469,0.762-2.206,1.143c-0.181-0.294-0.017-0.508,0.154-0.719
		c0.08-0.094,0.283-0.225,0.185-0.311c-1.027-0.93-1.933-2.104-3.183-2.635c-1.106-0.471-2.216-0.957-3.178-1.629
		c-1.747-1.229-3.635-2.225-5.499-3.159c-2.579-1.294-4.738-3.242-7.405-4.417c-1.567-0.699-3.252-1.493-4.528-2.805
		c-0.289-0.291-0.816-0.596-0.312-1.15c0.346-0.045,0.688-0.016,1.035-0.027c0.553-0.065,1.132,0.164,1.662-0.16
		C138.874,6.268,140.451,6.25,142.028,6.674"/>
	<path fill-rule="evenodd" clip-rule="evenodd" fill="#C9763D" d="M130.929,26.727c-2.521-0.586-5.047-1.175-7.573-1.764
		c-0.705-0.168-1.413-0.331-2.118-0.494c-1.418-0.476-2.926-0.633-4.221-1.537c-0.648-0.46-1.509,0.022-2.282-0.059
		c-1.245-0.128-2.513,0-2.784-1.777c-0.098-0.637-0.838-0.582-1.396-0.599c-1.284-0.056-1.404-0.187-1.105-1.47
		c0.133-0.578-0.19-0.865-0.451-1.238c-0.436-0.607-0.764-1.222,0.049-1.793c0.744-0.874,1.693-1.39,2.768-1.7
		c0.361,0.706,0.851,1.215,1.697,1.232c0.135,0,0.344,0,0.387,0.103c0.475,1.074,1.742,1.18,2.32,1.862
		c0.723,0.855,1.545,1.193,2.42,1.645c0.85,0.433,1.701,0.842,2.455,1.497c0.643,0.562,1.566,0.748,2.472,0.712
		c0.476-0.022,1.033-0.022,1.247,0.424c0.632,1.338,2.2,1.286,3.027,2.216C128.774,25.043,130.391,25.248,130.929,26.727"/>
	<path fill-rule="evenodd" clip-rule="evenodd" fill="#CC7D46" d="M154.727,30.684c-1.939,0.842-3.306-0.584-4.732-1.413
		c-0.849-0.494-1.703-1.003-2.533-1.513c-1.3-0.803-2.805-1.312-3.899-2.589c-0.428-0.509-1.465-0.846-2.192-1.285
		c-1.978-1.193-4.257-1.79-5.962-3.562c-0.717-0.738-1.882-1.258-2.907-1.715c-1.437-0.655-2.706-1.389-3.931-2.488
		c-0.834-0.756-2.301-1.13-3.475-1.681c-1.722-0.802-3.227-1.889-4.501-3.327c-0.987-1.111,0.929-0.637,0.644-1.323
		c0.604-0.327,1.209-0.673,1.935-0.567c-0.05,0.684-0.515,0.635-0.964,0.622c0.166,0.259,0.531,0.404,0.643,0.764
		c0.65,1.491,1.731,2.413,3.35,2.55c1.238,0.103,1.926,1.183,2.856,1.775c0.846,0.528,1.524,0.762,2.424,0.635
		c0.177,0.092,0.312,0.235,0.406,0.417c0.096,0.488,0.082,1.073,0.845,0.973c0.232-0.033,0.482,0.046,0.626,0.226
		c1.145,1.365,2.881,1.22,4.323,1.819c0.889,0,1.553,0.378,2.141,1.076c0.747,0.887,1.888,1.433,2.863,1.73
		c1.799,0.548,3.169,1.644,4.637,2.666c0.269,0.187,0.468,0.521,0.778,0.582c2.049,0.37,3.306,2.106,5.049,3.014
		c0.424,0.22,0.717,0.309,1.127,0.04c0.253-0.17,0.557-0.624,0.882-0.053C154.727,28.884,155.055,29.834,154.727,30.684"/>
	<path fill-rule="evenodd" clip-rule="evenodd" fill="#CC814A" d="M154.727,30.684c0.023-0.949-0.034-1.907,0.29-2.826
		c-0.21-0.549-0.557-0.893-1.163-1.042c-2.448-0.612-4.479-2.067-6.516-3.48c-0.395-0.271-0.816-0.419-1.244-0.587
		c-1.253-0.501-2.432-1.127-3.351-2.156c-0.257-0.276-0.508-0.576-0.87-0.677c-2.171-0.586-4.075-1.858-5.837-3.081
		c-2.275-1.578-4.949-2.44-7.011-4.342c-0.343-0.316-0.775-0.579-1.218-0.631c-1.399-0.159-2.109-1.435-3.256-2.01
		c-0.588-0.289-0.277-0.793,0.006-1.188c1.646-0.473,3.281-0.959,4.98-1.131c0.087,0.74-0.47,0.773-0.953,0.891
		c-0.267,0.037-0.545,0.065-0.853,0.138c0.796-0.003,1.423,0.21,1.64,1.09c0.08,0.32,0.351,0.607,0.695,0.607
		c1.509-0.012,2.464,1.017,3.523,1.867c0.575,0.462,1.228,0.816,1.934,1.058c0.865,0.301,1.651,0.644,2.227,1.488
		c0.43,0.632,1.348,0.645,2.021,0.969c1.534,0.748,2.621,2.125,4.22,2.792c1.036,0.431,2.077,1.062,2.952,1.74
		c2.562,1.994,5.746,2.781,8.297,4.732c0.305,0.228,0.738,0.118,0.992,0.438c0.051,0.14,0.037,0.259-0.053,0.372
		c-0.018,0.881-0.635,1.529-0.861,2.348c-0.37,1.355-0.414,2.677,0.057,4.005C154.809,31.774,154.768,31.233,154.727,30.684"/>
	<path fill-rule="evenodd" clip-rule="evenodd" fill="#CF8853" d="M156.18,25.715c-0.016-0.131-0.033-0.262-0.057-0.403
		c0.154-0.626,0.122-1.093-0.669-1.27c-1.387-0.309-2.46-1.242-3.63-1.999c-1.109-0.729-2.109-1.691-3.582-1.656
		c-0.406,0.011-0.745-0.362-1.049-0.645c-2.102-1.934-4.646-3.177-7.149-4.387c-1.641-0.794-2.909-2.136-4.594-2.748
		c-2.438-0.904-4.146-3.031-6.561-3.951c-0.25-0.098-0.544-0.167-0.449-0.562c0.467,0.025,0.889-0.049,1.107-0.561
		c2.01-0.454,4.017-0.908,6.089-0.846c0.094,0.06,0.126,0.123,0.089,0.185c-0.025,0.06-0.059,0.091-0.089,0.091
		c-0.364,0.01-0.735,0.01-1.103,0.01c-0.575,0.616-1.417,0.524-2.427,0.78c1.339,0.514,2.49,0.813,3.112,1.924
		c0.041,0.079,0.145,0.118,0.239,0.134c2.483,0.354,4.14,2.324,6.295,3.298c1.425,0.65,2.672,1.401,3.604,2.683
		c0.327,0.451,0.84,0.494,1.329,0.645c1.437,0.467,2.907,0.9,3.979,2.1c0.191,0.216,0.395,0.45,0.684,0.433
		c1.404-0.058,2.205,0.966,3.224,1.68c1.021,0.721,2.096,1.407,3.294,1.84c0.309,0.109,0.597,0.247,0.76,0.567
		c-0.084,0.206-0.177,0.413-0.261,0.618C157.625,24.344,157.087,25.238,156.18,25.715"/>
	<path fill-rule="evenodd" clip-rule="evenodd" fill="#C9763D" d="M168.318,49.872c-0.836-0.934-1.674-1.871-2.507-2.808
		c1.275-0.368,2.64,0.089,3.917-0.427c0.336-0.135,0.891,0.187,0.799,0.549c-0.457,1.871,1.146,2.184,2.094,2.515
		c2.104,0.729,3.916,1.953,5.736,3.125c0.865,0.563,1.734,1.04,2.678,1.296c0.652,0.173,1.189,0.419,1.689,0.83
		c-0.207,0.837-0.561,1.602-1.105,2.264c-0.527,0.912-1.117,1.482-2.275,0.85c-0.537-0.286-1.24-0.162-1.879,0.101
		c-1.023,0.428-2.174,0.038-2.301-0.979c-0.223-1.761-1.588-1.879-2.719-2.269c-0.625-0.22-1.104-0.481-1.371-1.044
		C170.359,52.387,169.393,51.095,168.318,49.872"/>
	<path fill-rule="evenodd" clip-rule="evenodd" fill="#CC7F49" d="M124.558,8.665c0.043,0.337-0.361,0.918,0.122,0.974
		c0.931,0.103,1.19,1.163,1.804,1.312c2.676,0.647,4.365,3.165,7.074,3.663c0.088,0.01,0.217,0.016,0.254,0.075
		c1.246,1.913,3.619,2.098,5.184,3.528c0.411,0.378,1.029,0.604,1.592,0.724c1.656,0.361,2.547,1.865,3.935,2.61
		c2.502,1.342,4.982,2.726,7.379,4.275c0.629,0.407,1.55,0.629,2.408,0.742c0.545,0.074,1.202,0.45,0.708,1.289
		c-0.759,0.773-1.154,1.185-2.477,0.265c-1.356-0.944-2.513-2.418-4.471-2.703c-1.167-0.177-2.085-1.646-3.301-2.302
		c-0.791-0.432-2.072-0.549-2.355-0.887c-0.877-1.082-2.535-0.837-3.135-2.242c-0.275-0.639-1.035-0.671-1.703-0.602
		c-1.737-1.485-4.066-1.928-5.814-3.389c-0.096-0.094-0.185-0.188-0.278-0.281c-2.009-1.187-4.203-2.059-6.076-3.457
		c-0.894-0.659-1.942-0.941-2.784-1.626c-1.57-1.187,0.428-0.919,0.555-1.413C123.636,9.036,124.101,8.851,124.558,8.665"/>
	<path fill-rule="evenodd" clip-rule="evenodd" fill="#C97A40" d="M182.725,54.952c-1.375-0.127-3.301-1.383-4.494-1.857
		c-0.971-0.385-1.488-1.783-2.789-1.326c-0.926-1.597-2.982-1.166-4.133-2.367c-0.219-0.232-0.484-0.561-0.748-0.582
		c-0.908-0.061-0.865-0.581-0.541-1.123c0.584-0.968-0.174-0.968-0.639-0.831c-1.191,0.338-2.388,0.084-3.569,0.199
		c-2.8-0.022-5.604-0.044-8.405-0.067c0.319-0.527,0.827-0.295,1.252-0.295c2.982-0.006,5.965,0,8.953,0.021
		c1.184,0.012,2.27-0.24,3.158-1.094c0.531-0.574,0.834-1.301,1.145-1.926c0.195-0.051,0.311-0.042,0.344,0.047
		c1.197,2.948,4.318,3.25,6.492,4.834c0.865,0.627,1.574,1.559,2.773,1.669c0.283,0.025,0.449,0.446,0.549,0.762
		c0.316,1.007,0.795,1.208,1.533,0.366c0.125-0.135,0.312-0.182,0.5-0.1C184.004,52.646,183.162,53.722,182.725,54.952"/>
	<path fill-rule="evenodd" clip-rule="evenodd" fill="#CD824B" d="M167.977,36.872c0.365-0.737,0.861-1.372,1.418-1.969
		c0.213-0.191,0.348-0.442,0.463-0.694c0.383-0.851,0.67-1.233,1.793-0.646c1.055,0.559,2.076,1.148,3.078,1.791
		c0.189,0.123,0.373,0.322,0.598,0.35c2.109,0.289,3.393,2.139,5.238,2.869c1.42,0.566,2.523,1.611,3.803,2.429
		c0.492-0.953-0.1-1.954,0.57-2.697c0.324,0.204,0.254,0.541,0.289,0.843c-0.002,0.467-0.004,0.934-0.01,1.404
		c0.279,1.058,0.164,2.142,0.094,3.201c-0.078,1.105-0.564,1.397-1.592,0.906c-1.094-0.523-2.166-1.119-3.246-1.682
		c-3.584-1.862-7.043-3.979-10.535-6.022C169.199,36.52,168.613,37.103,167.977,36.872"/>
	<path fill-rule="evenodd" clip-rule="evenodd" fill="#C7773F" d="M130.929,26.727c-0.646-0.486-1.131-1.235-2.1-1.168
		c-0.326,0.021-0.659-0.174-0.305-0.63c0.139-0.181,0.026-0.428-0.161-0.424c-1.094,0.012-1.625-1.298-2.761-1.191
		c-0.342,0.03-0.668-0.185-0.702-0.553c-0.113-1.121-0.754-1.042-1.649-1.069c-1.047-0.029-2.089-0.305-2.963-1.219
		c-0.663-0.683-1.755-0.932-2.666-1.362c-0.076-0.036-0.234,0.028-0.266-0.012c-0.827-1.284-2.644-1.36-3.297-2.786
		c-0.224-0.488-0.371-0.425-0.789-0.396c-1.051,0.059-1.457-0.618-1.457-1.62c0.83-0.921,1.945-1.29,3.053-1.685
		c-1.023,1.236-0.955,2.132,0.711,3.163c0.926,0.572,1.695,1.443,2.78,1.739c2.659,0.74,4.718,2.565,7.011,3.979
		c0.812,0.504,1.838,0.438,2.647,1.134c0.647,0.559,0.545-0.566,1.188-0.924c-0.491,2.436,1.837,2.335,2.749,3.544
		c0.76,1.014,1.775,1.223,3.067,1.3c1.394,0.096,3.208,0.116,3.802,2.125c0.056,0.208,0.816,0.259,0.687,0.878
		c-0.888-0.096-1.724-0.357-2.483-0.846c-0.506-0.345-1.117-0.355-1.663-0.567c-0.304-0.01-0.635,0.058-0.833-0.274
		c-1.14-0.587-2.405-0.76-3.6-1.139V26.727z"/>
	<path fill-rule="evenodd" clip-rule="evenodd" fill="#C87438" d="M109.046,15.997c-0.442,0.753-0.171,1.277,0.439,1.812
		c0.481,0.418,1.002,0.971,0.152,1.582c-0.24,0.174-0.255,0.379-0.072,0.589c0.192,0.234,0.475,0.274,0.756,0.228
		c1.217-0.205,2.268-0.196,2.102,1.557c-0.032,0.363,0.305,0.419,0.565,0.495c1.058,0.338,2.136,0.354,3.21,0.138
		c0.265-0.05,0.577-0.288,0.762-0.062c1.126,1.349,2.971,1.174,4.277,2.134c-2.304-0.332-4.639-0.528-6.91-1.028
		c-2.524-0.55-5.084-0.6-7.617-0.94c-1.366-0.186-2.727-0.379-4.117-0.317c-0.346,0.009-0.785-0.104-0.881-0.528
		c-0.088-0.41,0.346-0.484,0.584-0.673c1.842-1.473,3.679-2.948,5.519-4.416C108.178,16.271,108.571,16.039,109.046,15.997"/>
	<path fill-rule="evenodd" clip-rule="evenodd" fill="#CA7B43" d="M184.105,51.282c-0.264,0.127-0.469,0.318-0.535,0.609
		c-0.098,0.49-0.434,0.534-0.832,0.514c-0.41-0.023-0.77-0.182-0.799-0.621c-0.076-1.07-0.57-1.439-1.639-1.511
		c-0.865-0.062-1.184-1.191-2.072-1.575c-0.982-0.414-1.812-1.199-2.893-1.504c-1.674-0.471-2.586-1.782-3.402-3.709
		c0.121,1.33-0.523,1.733-1.164,2.145c0.576-1.058,0.695-2.161,0.303-3.312c-0.014-0.497-1.053-0.843-0.303-1.405
		c0.785-0.592,1.723-0.18,2.006,0.516c0.787,1.925,2.59,2.334,4.066,3.283c1.627,1.053,3.314,1.976,4.965,2.975
		c0.039,0.023,0.072,0.059,0.111,0.086c1.627,1.169,2.184,0.973,2.574-0.887c0.039-0.184,0.059-0.369,0.104-0.553
		c0.117-0.312,0.107-0.75,0.617-0.694C185.15,47.584,184.773,49.463,184.105,51.282"/>
	<path fill-rule="evenodd" clip-rule="evenodd" fill="#CC7F48" d="M185.213,45.638c-0.318,0.205-0.262,0.539-0.275,0.845
		c-0.395,0.692-1.078,0.678-1.572,0.35c-1.012-0.674-2.047-1.156-3.229-1.469c-0.693-0.178-1.324-0.788-1.971-1.203
		c-2.881-1.886-5.793-3.702-8.797-5.384c-0.082-0.043-0.189-0.077-0.229-0.157c-0.537-1.152-1.236-0.76-1.956-0.207
		c-0.139,0.001-0.255-0.049-0.345-0.148c0.263-0.559,0.643-1.022,1.137-1.393c0.818-0.871,1.5-0.489,2.455-0.031
		c2.543,1.216,4.684,3.133,7.238,4.244c1.092,0.479,2.064,1.411,3.029,1.608c1.342,0.275,2.111,1.199,3.191,1.714
		c0.855,0.413,1.213,0.014,1.268-0.759c0.076-1.029,0.049-2.066,0.059-3.097c0.473,1.339,0.361,2.697,0.078,4.044
		C185.215,44.945,185,45.268,185.213,45.638"/>
	<path fill-rule="evenodd" clip-rule="evenodd" fill="#D49869" d="M152.502,7.881c0.002,0.071,0.017,0.146,0.026,0.213
		c-0.303,0.379-0.761,0.267-1.292,0.423c1.695,0.303,2.873,1.28,4.002,2.336c0.379,0.354,0.786,0.603,1.278,0.782
		c1.225,0.445,2.323,1.138,3.298,2.008c0.637,0.568,1.415,0.852,2.105,1.283c1.742,1.094,3.82,1.607,5.306,3.134
		c0.481,0.496,1.146,0.578,1.692,0.896c0.844,0.501,2.168,0.594,2.016,2.113c-0.43,0.613-0.846,0.252-1.309,0.023
		c-2.658-1.331-5.273-2.791-7.814-4.309c-2.395-1.433-4.895-2.715-7.182-4.35c-0.898-0.649-1.804-1.451-3.031-1.479
		c-2.256-0.222-3.826-1.764-5.51-3.068c-0.209-0.162-0.502-0.493-0.033-0.769c0.69,0.045,1.395-0.144,2.069,0.116
		C149.625,7.155,151.021,7.788,152.502,7.881"/>
	<path fill-rule="evenodd" clip-rule="evenodd" fill="#C8753C" d="M168.318,49.872c1.223,0.828,1.938,2.064,2.627,3.338
		c0.375,0.695,0.629,1.554,1.807,1.274c0.641-0.153,0.961,0.834,1.752,0.866c0.844,0.036,0.896,0.712,0.832,1.53
		c-0.066,0.816,1.24,1.481,1.896,0.996c0.748-0.556,1.713-0.488,2.199-0.187c1.035,0.644,1.51-0.125,2.188-0.475
		c-0.076,1.06-0.943,1.683-1.393,2.536c-0.488,0.214-0.572,0.742-0.826,1.134c-0.096,0.092-0.184,0.187-0.279,0.28
		c-0.664,0.427-1.318,0.484-1.863-0.163c-1.203-1.439-2.967-2.156-4.227-3.506C171.453,54.955,169.887,52.414,168.318,49.872"/>
	<path fill-rule="evenodd" clip-rule="evenodd" fill="#C87437" d="M173.031,57.497c0.682-0.047,1.283,0.019,1.459,0.893
		c0.041,0.184,0.309,0.443,0.473,0.443c1.336-0.004,1.895,1.041,2.529,1.944c0.465,0.668,1.092,0.261,1.629,0.389
		c-0.672,1.354-1.684,2.432-2.723,3.488c-0.57,0.583-0.822,0.371-0.98-0.312C174.867,61.97,173.842,59.769,173.031,57.497"/>
	<path fill-rule="evenodd" clip-rule="evenodd" fill="#C9763D" d="M130.929,26.724c1.274,0.143,2.542,0.282,3.6,1.139
		C133.31,27.556,132.041,27.385,130.929,26.724"/>
	<path fill-rule="evenodd" clip-rule="evenodd" fill="#C87437" d="M179.4,60.885c-0.031-0.611,0.109-1.09,0.832-1.134
		C180.002,60.167,179.898,60.678,179.4,60.885"/>
	<path fill-rule="evenodd" clip-rule="evenodd" fill="#C9763D" d="M135.361,28.137c0.619-0.025,1.227,0.01,1.663,0.567
		C136.413,28.672,135.844,28.543,135.361,28.137"/>
	<path fill-rule="evenodd" clip-rule="evenodd" fill="#C7773F" d="M115.97,12.332c-0.185,0-0.371-0.005-0.556-0.005
		c0.288-0.359,0.671-0.521,1.114-0.565C116.426,12.032,116.237,12.223,115.97,12.332"/>
	<path fill-rule="evenodd" clip-rule="evenodd" fill="#D69E6F" d="M158.906,9.78c3.039,1.352,6.105,2.624,8.936,4.412
		c3.264,2.067,6.32,4.39,8.809,7.409c0.264,1.16-0.504,0.743-0.957,0.594c-1.154-0.369-2.141-1.094-3.133-1.757
		c-2.383-1.596-5.094-2.596-7.421-4.277c-2.401-1.734-5.077-2.947-7.64-4.371c-1.428-0.798-2.83-1.705-3.952-2.997
		c0.423-0.382,0.802-0.337,1.186-0.128c0.917,0.191,1.833,0.385,2.747,0.574C157.926,9.5,158.562,9.255,158.906,9.78"/>
	<path fill-rule="evenodd" clip-rule="evenodd" fill="#D39665" d="M145.332,6.975c0.125,0.221,0.33,0.262,0.557,0.269
		c1.787,1.394,3.4,3.114,5.814,3.391c9.376,6.002,19.291,11.067,28.693,17.119c0.055-0.409-0.203-0.782,0.127-1.067
		c0.492,0.34,0.709,0.855,0.828,1.42c-0.057,0.541,0.686,1.292-0.188,1.592c-0.869,0.301-1.852-0.022-2.301-0.814
		c-0.514-0.924-1.281-1.37-2.135-1.639c-0.873-0.268-1.514-0.789-2.229-1.29c-1.742-1.224-3.629-2.182-5.564-3.07
		c-1.102-0.507-2.024-1.421-3.033-2.149c-0.38-0.286-0.678-1.101-1.246-0.189c-0.116,0.18-0.311,0.172-0.439-0.036
		c-1.113-1.839-3.064-2.809-4.824-3.331c-1.508-0.443-2.119-1.746-3.462-2.291c-1.555-0.625-2.952-1.783-4.507-2.556
		c-1.125-0.769-2.393-1.336-3.443-2.188c-1.115-0.904-2.336-1.469-3.644-1.891c-0.658-0.205-1.043-0.548-0.947-1.289
		C144.041,6.973,144.688,6.973,145.332,6.975"/>
	<path fill-rule="evenodd" clip-rule="evenodd" fill="#D59B6B" d="M154.733,8.665h-1.106c1.939,1.24,3.488,2.475,5.336,3.406
		c2.364,1.193,4.867,2.308,6.872,4.146c0.759,0.7,1.679,0.96,2.536,1.371c2.623,1.275,4.908,3.138,7.555,4.357
		c0.5,0.232,0.662,0.175,0.721-0.339c0.854,0.68,1.572,1.476,1.957,2.527c0.09,0.41-0.197,0.513-0.469,0.495
		c-1.25-0.071-2.674-0.165-3.457-1.133c-0.994-1.221-2.248-1.514-3.568-1.882c-0.193-0.12-0.361-0.262-0.299-0.531
		c-0.135-1.4-1.375-1.533-2.279-1.902c-0.697-0.283-1.381-0.429-1.766-1.168c-0.098-0.185-0.344-0.337-0.547-0.402
		c-1.812-0.553-3.177-1.979-5.017-2.562c-1.102-0.349-1.894-1.7-2.998-2.089c-2.597-0.906-4.19-3.514-6.948-4.056
		c-0.26-0.048-0.428-0.255-0.436-0.482c-0.008-0.441,0.366-0.308,0.604-0.321c0.371-0.026,0.736-0.006,1.104-0.006
		C153.316,8.074,154.053,8.263,154.733,8.665"/>
	<path fill-rule="evenodd" clip-rule="evenodd" fill="#D18D5B" d="M170.799,28.179c0.273-0.775-0.453-1.521-0.061-2.298
		c0.607,0.386,1.213,0.787,1.834,1.167c2.969,1.817,6.115,3.341,8.92,5.44c0.277,0.209,0.686,0.24,1.008,0.391
		c0.213,0.096,0.391,0.281,0.598,0.025c0.172-0.214,0.09-0.432-0.018-0.645c-0.209-0.412-0.422-0.836-0.342-1.328
		c0.799,1.097,1.133,2.371,1.373,3.682c0.152,0.636,0.424,1.331-0.264,1.777c-0.723,0.466-1.311,0.002-1.867-0.446
		c-1.047-0.851-2.186-1.536-3.443-2.044c-1.727-0.695-3.195-1.858-4.711-2.923c-0.418-0.288-0.834-0.571-1.285-0.812
		c-0.762-0.39-1.115-0.15-1.172,0.681c-0.031,0.143-0.098,0.268-0.184,0.378c-0.127,0.109-0.248,0.112-0.381,0.015
		C170.801,30.223,170.799,29.196,170.799,28.179"/>
	<path fill-rule="evenodd" clip-rule="evenodd" fill="#CF8853" d="M171.09,31.245c0-0.094,0.002-0.186,0.002-0.281
		c1.748,0.626,3.395,1.435,4.875,2.585c0.145,0.113,0.281,0.264,0.465,0.282c2.225,0.228,3.578,2.181,5.58,2.924
		c0.844,0.312,1.359,1.497,2.553,1.165c0.131-0.021,0.252,0.009,0.348,0.103c0.01,0.096,0.018,0.192,0.025,0.277
		c0,0.476,0.055,0.95-0.012,1.405c-0.08,0.618,0.379,1.521-0.285,1.768c-0.389,0.146-1.295-0.371-1.584-0.839
		c-0.928-1.52-2.764-1.442-3.939-2.535c-0.557-0.527-1.51-0.574-1.857-1.462c-0.059-0.156-0.385-0.302-0.58-0.288
		c-1.523,0.134-2.42-0.974-3.486-1.76c-0.385-0.279-0.912-0.387-1.389-0.488c-0.459-0.102-0.969-0.074-0.865-0.84
		c-0.791,0.401-0.811,1.362-1.541,1.643c0.35-0.758,0.709-1.51,1.068-2.266C170.811,32.234,170.676,31.608,171.09,31.245"/>
	<path fill-rule="evenodd" clip-rule="evenodd" fill="#D39768" d="M170.811,21.083c0.096,0.089,0.189,0.184,0.279,0.278
		c1.398,0.793,2.797,1.571,4.154,2.446c1.162,0.75,2.463,1.942,4.154,1.244c0.598,0.385,0.9,0.985,1.125,1.637
		c-0.064,0.652,0.641,1.136,0.441,1.882c-2.42-1.797-5.127-2.968-7.539-4.629c-1.227-0.85-2.562-1.491-3.77-2.39
		c-1.561-1.167-3.32-2.039-5.106-2.84c-2.333-1.049-4.415-2.563-6.624-3.838c-1.75-1.003-3.162-2.574-5.162-3.18
		c-0.485-0.15-0.807-0.6-1.061-1.06c1.179-0.25,1.832,0.788,2.68,1.248c2.102,1.117,4.231,2.28,6.151,3.629
		c1.925,1.354,4.099,2.151,6.026,3.475C167.816,19.85,169.16,20.889,170.811,21.083"/>
	<path fill-rule="evenodd" clip-rule="evenodd" fill="#CF8956" d="M184.664,38.018c-0.598,1.103-1.367-0.104-2.023,0.151
		c-0.328-1.817-2.199-1.551-3.24-2.429c-0.906-0.757-2.15-1.196-3.209-1.725c-0.922-0.461-2.092-0.863-2.889-1.623
		c-0.672-0.639-1.725-0.564-2.211-1.43c0-0.33-0.002-0.653,0.006-0.985c0.02-0.651,0.26-0.743,0.883-0.515
		c1.479,0.546,2.605,1.651,3.898,2.479c1.275,0.812,2.561,1.519,3.945,2.104c0.822,0.346,1.551,0.965,2.277,1.528
		c0.467,0.361,0.842,0.973,1.525,0.664c0.715-0.323,0.416-1.051,0.484-1.625c0.381,0.609,0.463,1.309,0.551,1.998
		C184.873,37.083,184.865,37.547,184.664,38.018"/>
	<path fill-rule="evenodd" clip-rule="evenodd" fill="#D49869" d="M179.398,25.051c-0.188,0.961-0.861,0.653-1.41,0.528
		c-0.828-0.191-1.836-0.597-2.279-1.028c-1.379-1.357-3.357-1.736-4.619-3.19c1.451,0.19,2.711,0.438,3.77,1.833
		c0.748,0.978,2.33,1.277,3.744,0.943C178.863,24.436,179.135,24.749,179.398,25.051"/>
	<path fill-rule="evenodd" clip-rule="evenodd" fill="#C56831" d="M158.906,9.78c-0.506-0.095-1.006-0.209-1.426-0.541
		c0.5-0.049,1.04,0.169,1.09-0.77c0.032-0.608,0.828-1,1.387-0.881c0.732,0.154,1.733-0.336,2.197,0.604
		c0.48,1.004-0.378,1.131-1.012,1.294C160.415,9.67,159.596,9.225,158.906,9.78"/>
	<path fill-rule="evenodd" clip-rule="evenodd" fill="#CD824B" d="M184.664,38.018c0-0.471-0.002-0.936-0.002-1.406
		c0.451,0.402,0.223,0.932,0.25,1.41C184.83,38.018,184.746,38.018,184.664,38.018"/>
	<path fill-rule="evenodd" clip-rule="evenodd" fill="#CB7C46" d="M167.21,38.299c0.659-1.017,1.132-1.441,2.077-0.071
		c0.514,0.745,1.707,1.216,2.59,1.606c1.854,0.808,3.174,2.531,5.262,2.927c0.775,0.146,0.971,1.581,2.117,1.326
		c0.842,1.733,3.184,0.878,4.156,2.485c0.154,0.26,1.029,0.331,1.525-0.09c-0.076,0.272-0.164,0.537-0.225,0.814
		c-0.377,1.791-0.453,1.896-0.861,1.564c-0.615-0.496-1.637,0.329-2.045-0.742c-0.08-0.213-0.43-0.329-0.664-0.468
		c-2.445-1.431-4.869-2.894-7.348-4.258c-0.482-0.265-0.854-0.417-0.859-1.024c-0.002-0.175-0.094-0.37-0.191-0.526
		c-0.396-0.626-0.965-1.089-1.695-0.798c-0.842,0.338,0.33,0.831,0.02,1.272c-0.516-0.562-1.033-1.106-1.732-1.436
		c0.303-0.447,0.752-0.479,1.09-0.452c-0.67-0.575-2.062-0.536-2.062-2.03c-0.16,0.124-0.008,0.368-0.072,0.568
		c-0.088,0.275-0.203,0.593-0.518,0.536C167.08,39.386,167.166,38.818,167.21,38.299"/>
	<path fill-rule="evenodd" clip-rule="evenodd" fill="#CC814A" d="M161.418,34.669c0.762-1.248-0.308-1.855-0.896-2.627
		c0.261-0.853,0.486-1.712,0.785-2.545c0.336-0.928,1.057-1.333,1.983-1.046c1.024,0.318,1.128,1.219,0.868,2.074
		C163.642,32.164,162.637,33.501,161.418,34.669"/>
	<path fill-rule="evenodd" clip-rule="evenodd" fill="#CA7B43" d="M167.21,38.299c0.175,0.339,0.335,0.676,0.534,1.082
		c0.463-0.432,0.201-1.109,0.809-1.438c-0.342,1.743,1.664,1.376,2.033,2.501c-0.336,0.38-0.797,0.392-1.25,0.438h-4.703
		c0.738-1.193,1.447-1.926,2.207-2.618C166.967,38.272,167.087,38.289,167.21,38.299"/>
	<path fill-rule="evenodd" clip-rule="evenodd" fill="#CC814A" d="M160.527,32.042c-0.012,0.751-0.404,1.11-1.121,1.151
		C159.781,32.814,160.158,32.424,160.527,32.042"/>
	<path fill-rule="evenodd" clip-rule="evenodd" fill="#CF8956" d="M171.09,31.245c-0.143,0.493-0.127,1.064-0.623,1.393
		c0.111-0.465,0.223-0.931,0.338-1.397C170.896,31.24,170.994,31.245,171.09,31.245"/>
	<path fill-rule="evenodd" clip-rule="evenodd" fill="#D39564" d="M143.394,6.963c0.351,0.457,0.515,1.109,1.248,1.153
		c1.501,0.089,2.541,1.056,3.629,1.951c0.519,0.42,1.036,0.888,1.804,0.867c0.891-0.021,0.738,1.087,1.35,1.396
		c-0.645,0.029-1.125-0.155-1.688-0.62c-1.814-1.49-3.834-2.67-6.097-3.343c-0.656-0.194-0.658-1.125-1.473-1.132
		c0.334-0.414,0.664-0.209,0.953-0.273C143.206,6.963,143.302,6.963,143.394,6.963"/>
	<path fill-rule="evenodd" clip-rule="evenodd" fill="#CF8956" d="M158.627,23.055c-2.033-0.476-3.725-1.605-5.277-2.983
		c-0.207-0.184-0.418-0.53-0.624-0.526c-2.229,0.032-3.421-2.271-5.36-2.561c-1.874-0.279-2.731-1.503-3.813-2.712
		c-0.331-0.388-1.089-0.366-1.622-0.587c-1.151-0.477-2.276-1.129-3.051-2.034c-0.896-1.059-2.236-0.656-3.214-1.411
		c-0.348-0.268-0.838-0.058-1.088-0.851c-0.231-0.74-1.343-0.823-2.116-1.112c-0.301-0.116-0.885-0.042-0.827-0.553
		c0.062-0.538,0.606-0.434,1.004-0.483c0.637-0.071,1.264-0.176,1.896-0.269c0.546,1.488,2.062,1.701,3.171,2.393
		c1.729,1.091,3.556,1.996,5.342,2.979c0.083,0.041,0.207,0.041,0.247,0.104c1.117,1.639,3.026,2.074,4.589,2.913
		c2.547,1.372,4.799,3.297,7.623,4.174c1.172,0.361,1.866,1.56,2.828,2.319c0.363,0.285,0.723,0.516,1.148,0.713
		C159.332,22.994,158.963,22.994,158.627,23.055"/>
	<path fill-rule="evenodd" clip-rule="evenodd" fill="#CC7D47" d="M122.622,10.634c1.9,0.219,3.243,1.451,4.718,2.538
		c0.666,0.488,1.527,0.936,2.398,1.145c0.817,0.193,1.38,0.65,1.744,1.403c-1.726,1.255-2.8-0.577-3.71-1.258
		c-0.959-0.703-1.941-0.868-2.909-1.278C123.698,12.696,122.929,11.886,122.622,10.634"/>
	<path fill-rule="evenodd" clip-rule="evenodd" fill="#CC7D47" d="M131.761,15.999c0.582-0.107,1.203-0.331,1.424,0.556
		c0.139,0.58,0.678,0.618,1.088,0.705c1.377,0.287,2.518,0.91,3.303,2.128c-1.425-0.831-3.464-0.278-4.465-2.071
		c-0.045-0.075-0.269-0.127-0.375-0.082C131.2,17.813,131.526,16.868,131.761,15.999"/>
	<path fill-rule="evenodd" clip-rule="evenodd" fill="#CD824D" d="M128.437,8.094c1.631,1.021,3.66,1.379,4.842,3.189
		c0.478,0.731,1.549,0.358,2.324,0.906c2.16,1.533,4.332,3.28,6.778,4.096c2.179,0.726,3.454,2.482,5.328,3.448
		c0.41,0.208,0.721,0.392,1.227,0.432c1.681,0.13,2.781,1.499,4.132,2.329c1.187,0.721,2.335,1.45,3.803,1.45
		c-0.123,0.483-0.315,0.99-0.747,1.367c-1.258,0.581-1.752-0.786-2.664-1.123c-1.674-0.618-3.035-1.999-4.891-2.257
		c-0.434-0.064-0.797-0.285-0.871-0.771c-0.029-0.187-0.008-0.437-0.2-0.472c-1.853-0.289-2.98-1.972-4.705-2.49
		c-0.265-0.078-0.639-0.103-0.764-0.289c-1.061-1.593-2.654-2.27-4.396-2.606c-0.677-0.13,0.043-0.813-0.677-1.097
		c-1.073-0.419-2.123-1.005-3.228-1.344c-0.715-0.216-0.339-1.237-1.134-1.212c-1.018,0.023-1.454-1.787-2.759-0.911
		c-0.041,0.023-0.317-0.209-0.387-0.363c-0.494-1.055-1.201-1.778-2.546-1.646C127.413,8.247,127.884,8.074,128.437,8.094"/>
</g>
</svg>
