<svg xmlns="http://www.w3.org/2000/svg" width="240.251" height="76"><g letter-spacing="0" word-spacing="0" text-anchor="middle" font-family="RockoFLF"><path d="M25.946 27.855l5.93 20.303c.387 1.29 1.053 2.384 1.998 3.287.988.902 2.084 1.353 3.287 1.353 1.634 0 2.966-.43 3.997-1.29 1.032-.858 1.762-1.975 2.192-3.35L51.6 21.28c.128-.43.192-.86.192-1.29 0-1.116-.408-2.147-1.224-3.093-.817-.945-1.848-1.418-3.094-1.418-.988 0-1.87.3-2.643.902-.772.6-1.288 1.396-1.546 2.384L37.16 41.003 31.168 19.54c-.344-1.246-.988-2.234-1.934-2.965-.902-.73-1.998-1.096-3.287-1.096-1.29 0-2.406.365-3.35 1.095-.947.73-1.59 1.72-1.935 2.965l-5.993 21.463-6.06-22.237c-.257-.988-.794-1.783-1.61-2.384-.774-.602-1.655-.903-2.643-.903-.473 0-.967.085-1.482.257-.473.172-.924.45-1.354.838-.43.344-.773.795-1.03 1.354-.26.557-.388 1.223-.388 1.997 0 .472.064.924.193 1.353L8.48 48.158c.43 1.375 1.16 2.492 2.19 3.35 1.032.86 2.364 1.29 3.997 1.29 1.375 0 2.492-.45 3.35-1.353.904-.903 1.548-1.998 1.935-3.287l5.994-20.303M64.047 21.022c0-1.29-.473-2.384-1.418-3.287-.904-.945-2-1.418-3.288-1.418-1.247 0-2.342.473-3.288 1.418-.902.903-1.353 1.998-1.353 3.287v27.136c0 1.246.452 2.34 1.354 3.287.903.902 1.998 1.353 3.288 1.353 1.29 0 2.384-.45 3.287-1.353.944-.903 1.417-1.998 1.417-3.287V21.022M100.85 26.888c0-1.72-.323-3.266-.968-4.64-.6-1.42-1.46-2.622-2.578-3.61-1.074-.99-2.342-1.762-3.803-2.32-1.46-.56-3.007-.84-4.64-.84-1.46 0-2.77.173-3.93.517-1.16.3-2.193.688-3.095 1.16-.902.43-1.676.924-2.32 1.483-.645.558-1.16 1.052-1.547 1.482 0-1.246-.45-2.32-1.354-3.223-.902-.945-1.998-1.418-3.287-1.418-1.29 0-2.406.472-3.352 1.417-.902.903-1.353 1.977-1.353 3.223v28.038c0 1.246.45 2.34 1.353 3.287.946.902 2.063 1.353 3.352 1.353 1.29 0 2.385-.45 3.287-1.353.903-.946 1.354-2.04 1.354-3.287V29.982c0-.946.172-1.827.515-2.643.387-.817.88-1.526 1.483-2.128.6-.602 1.31-1.074 2.127-1.418.86-.387 1.74-.58 2.642-.58.946 0 1.827.193 2.643.58.817.344 1.526.816 2.127 1.418.602.602 1.074 1.31 1.418 2.127.387.815.58 1.696.58 2.642v18.176c0 1.246.45 2.34 1.354 3.287.945.902 2.062 1.353 3.35 1.353 1.29 0 2.386-.45 3.29-1.353.9-.946 1.352-2.04 1.352-3.287v-21.27M130.055 27.855l5.93 20.303c.386 1.29 1.052 2.384 1.998 3.287.988.902 2.084 1.353 3.287 1.353 1.633 0 2.965-.43 3.996-1.29 1.03-.858 1.762-1.975 2.192-3.35l8.25-26.878c.13-.43.193-.86.193-1.29 0-1.116-.407-2.147-1.224-3.093-.816-.945-1.847-1.418-3.093-1.418-.99 0-1.87.3-2.643.902-.774.6-1.29 1.396-1.547 2.384l-6.123 22.237-5.994-21.463c-.344-1.246-.99-2.234-1.934-2.965-.902-.73-1.998-1.096-3.287-1.096-1.29 0-2.406.365-3.352 1.095-.945.73-1.59 1.72-1.933 2.965l-5.995 21.463-6.058-22.237c-.258-.988-.795-1.783-1.612-2.384-.773-.602-1.654-.903-2.642-.903-.473 0-.967.085-1.483.257-.472.172-.924.45-1.353.838-.43.344-.774.795-1.032 1.354-.257.557-.386 1.223-.386 1.997 0 .472.063.924.192 1.353l8.186 26.878c.43 1.375 1.16 2.492 2.19 3.35 1.032.86 2.365 1.29 3.997 1.29 1.375 0 2.493-.45 3.352-1.353.902-.903 1.547-1.998 1.934-3.287l5.995-20.303M168.155 21.022c0-1.29-.472-2.384-1.418-3.287-.902-.945-1.998-1.418-3.287-1.418-1.246 0-2.342.473-3.287 1.418-.902.903-1.353 1.998-1.353 3.287v27.136c0 1.246.45 2.34 1.353 3.287.902.902 1.998 1.353 3.287 1.353 1.29 0 2.385-.45 3.287-1.353.946-.903 1.418-1.998 1.418-3.287V21.022M204.958 26.888c0-1.72-.323-3.266-.967-4.64-.6-1.42-1.46-2.622-2.577-3.61-1.074-.99-2.342-1.762-3.803-2.32-1.46-.56-3.008-.84-4.64-.84-1.462 0-2.772.173-3.932.517-1.16.3-2.192.688-3.094 1.16-.903.43-1.676.924-2.32 1.483-.645.558-1.16 1.052-1.547 1.482 0-1.246-.452-2.32-1.354-3.223-.902-.945-1.998-1.418-3.287-1.418-1.29 0-2.406.472-3.352 1.417-.902.903-1.353 1.977-1.353 3.223v28.038c0 1.246.452 2.34 1.354 3.287.946.902 2.063 1.353 3.352 1.353 1.29 0 2.385-.45 3.287-1.353.902-.946 1.354-2.04 1.354-3.287V29.982c0-.946.17-1.827.515-2.643.387-.817.88-1.526 1.483-2.128.6-.602 1.31-1.074 2.127-1.418.86-.387 1.74-.58 2.642-.58.946 0 1.826.193 2.643.58.816.344 1.525.816 2.127 1.418.6.602 1.074 1.31 1.418 2.127.387.815.58 1.696.58 2.642v18.176c0 1.246.45 2.34 1.353 3.287.946.902 2.063 1.353 3.352 1.353 1.29 0 2.385-.45 3.287-1.353.903-.946 1.354-2.04 1.354-3.287v-21.27M240.35 40.616c0-2.02-.557-3.63-1.675-4.834-1.074-1.246-2.427-2.234-4.06-2.964-1.633-.774-3.395-1.375-5.285-1.805-1.89-.473-3.653-.903-5.286-1.29-1.633-.43-3.008-.923-4.125-1.482-1.075-.557-1.612-1.352-1.612-2.384 0-1.246.558-2.148 1.676-2.707 1.117-.602 2.513-.903 4.19-.903.773 0 1.546.086 2.32.258.816.172 1.568.45 2.255.838.73.344 1.374.795 1.933 1.353.602.56 1.074 1.246 1.418 2.063.216.6.56 1.03 1.032 1.288.473.215.967.322 1.483.322.472 0 .945-.086 1.418-.258.515-.214.967-.472 1.353-.773.43-.345.774-.753 1.032-1.226.257-.472.386-.988.386-1.547 0-.902-.365-1.87-1.095-2.9-.69-1.074-1.677-2.063-2.966-2.965-1.246-.902-2.772-1.654-4.577-2.256-1.804-.644-3.802-.967-5.994-.967-2.148 0-4.103.28-5.865.837-1.762.56-3.287 1.332-4.576 2.32-1.246.99-2.213 2.192-2.9 3.61-.688 1.418-1.032 2.965-1.032 4.64 0 2.106.537 3.782 1.61 5.028 1.076 1.246 2.408 2.256 3.997 3.03 1.59.773 3.33 1.396 5.22 1.87 1.892.428 3.632.88 5.222 1.352 1.59.43 2.92.967 3.995 1.612 1.074.643 1.612 1.545 1.612 2.706 0 .73-.194 1.375-.58 1.933-.344.515-.817.966-1.42 1.353-.557.344-1.202.623-1.932.838-.73.173-1.46.26-2.192.26-2.234 0-4.04-.56-5.414-1.677-1.376-1.117-2.43-2.578-3.16-4.383-.257-.645-.687-1.117-1.288-1.418-.602-.3-1.268-.45-1.998-.45-1.074 0-2.084.3-3.03.9-.902.603-1.353 1.398-1.353 2.386 0 1.16.345 2.428 1.032 3.803.73 1.333 1.783 2.557 3.158 3.675 1.375 1.117 3.073 2.062 5.092 2.836 2.02.73 4.34 1.096 6.96 1.096 2.064 0 3.998-.28 5.802-.838 1.848-.558 3.438-1.375 4.77-2.45 1.375-1.116 2.45-2.47 3.223-4.06.816-1.632 1.224-3.523 1.224-5.672" style="text-align:center;line-height:60.00000238%;-inkscape-font-specification:RockoFLF Bold" font-size="64.454" font-weight="bold" fill="#f9f9f9"/><path d="M37.014 69.713c.763 0 1.386-.108 1.87-.322.493-.214.88-.46 1.16-.74.28-.28.472-.554.58-.822.107-.28.16-.478.16-.597 0-.235-.09-.418-.273-.547-.17-.14-.364-.21-.58-.21-.15 0-.29.04-.418.114-.13.075-.22.204-.274.387-.054.17-.145.338-.274.5-.118.16-.274.305-.467.434-.183.13-.403.23-.66.306-.248.075-.522.113-.823.113-.333 0-.666-.06-1-.177-.32-.13-.617-.328-.885-.596-.26-.27-.468-.618-.63-1.048-.16-.43-.24-.95-.24-1.563 0-.612.08-1.133.24-1.563.162-.44.37-.795.63-1.063.267-.27.563-.462.885-.58.333-.13.666-.194 1-.194.3 0 .574.038.82.113.26.075.48.177.662.306.193.13.35.274.467.435.13.16.22.328.274.5.054.182.145.31.274.387.13.075.268.112.42.112.214 0 .407-.064.58-.193.17-.14.257-.333.257-.58 0-.193-.077-.43-.227-.71-.15-.278-.38-.547-.693-.805-.3-.258-.687-.478-1.16-.66-.473-.194-1.03-.29-1.676-.29-.634 0-1.224.118-1.772.354-.537.226-1.005.548-1.402.967-.398.418-.71.923-.935 1.513-.225.58-.338 1.23-.338 1.95 0 .71.113 1.36.338 1.95.226.58.537 1.08.935 1.5.397.417.865.745 1.402.98.548.227 1.138.34 1.772.34M45.89 69.713c.633 0 1.218-.108 1.756-.322.547-.214 1.02-.52 1.418-.918.397-.408.71-.908.934-1.498.226-.59.34-1.268.34-2.03 0-.763-.114-1.44-.34-2.03-.225-.592-.537-1.09-.934-1.5-.398-.408-.87-.72-1.418-.934-.538-.215-1.123-.322-1.757-.323-.635 0-1.225.108-1.773.323-.537.215-1.005.526-1.402.934-.398.41-.71.908-.935 1.5-.225.59-.338 1.267-.338 2.03 0 .762.113 1.44.338 2.03.226.59.537 1.09.935 1.498.397.398.865.704 1.402.92.548.213 1.138.32 1.772.32m2.755-4.77c0 .592-.07 1.102-.21 1.532-.14.42-.333.768-.58 1.047-.236.27-.526.474-.87.614-.333.13-.698.193-1.096.193-.398 0-.77-.064-1.113-.193-.333-.14-.623-.344-.87-.613-.236-.278-.424-.627-.564-1.046-.14-.43-.21-.94-.21-1.53 0-.592.07-1.102.21-1.532.14-.43.328-.778.564-1.047.247-.28.537-.483.87-.612.344-.14.715-.21 1.112-.21.397 0 .762.07 1.095.21.344.13.634.333.87.612.247.27.44.618.58 1.047.14.43.21.94.21 1.53M55.747 60.27c-.386 0-.73.043-1.03.13-.29.074-.55.17-.774.29-.226.117-.42.246-.58.386-.15.13-.28.242-.387.338v-.29c0-.236-.08-.435-.242-.596-.16-.172-.36-.258-.596-.258s-.44.086-.612.258c-.16.16-.242.36-.242.596v7.622c0 .236.08.44.242.612.172.16.376.242.612.242s.435-.08.596-.242c.16-.172.242-.376.242-.612v-4.673c0-.344.054-.66.16-.95.108-.3.26-.56.452-.774.204-.216.45-.382.74-.5.29-.13.614-.194.968-.194.215 0 .43.032.645.097.226.064.425.16.597.29.183.118.328.274.435.467.118.183.177.392.177.63v5.606c0 .236.08.44.24.612.162.16.36.242.597.242s.435-.08.596-.242c.172-.172.258-.376.258-.612v-5.8c0-.44-.085-.828-.257-1.16-.17-.334-.402-.613-.692-.84-.29-.225-.623-.39-1-.498-.364-.12-.745-.178-1.143-.178M67.734 66.796c0-.45-.086-.827-.258-1.128-.172-.3-.403-.553-.693-.757-.28-.214-.6-.38-.967-.5-.365-.127-.735-.235-1.11-.32-.377-.097-.748-.178-1.113-.242-.366-.076-.693-.162-.983-.258-.28-.108-.505-.23-.677-.37-.172-.15-.258-.345-.258-.58 0-.313.145-.57.435-.774.3-.215.78-.323 1.434-.323.333 0 .607.027.822.08.226.044.414.114.564.21.16.097.29.22.387.37.097.15.188.33.274.533.065.15.157.263.275.338.118.065.247.097.386.097.227 0 .437-.07.63-.21.193-.15.29-.348.29-.595 0-.107-.038-.23-.113-.37-.064-.14-.15-.28-.258-.42-.108-.15-.22-.284-.34-.402-.117-.13-.23-.237-.337-.323-.27-.204-.613-.37-1.032-.5-.418-.128-.933-.192-1.546-.192-1.095 0-1.95.236-2.562.71-.612.47-.918 1.126-.918 1.964 0 .58.145 1.037.435 1.37.29.322.65.575 1.08.757.428.17.896.306 1.4.402.516.086.99.183 1.418.29.43.108.79.253 1.08.435.29.183.435.457.435.822 0 .182-.038.36-.113.53-.075.162-.193.312-.354.452-.15.13-.35.236-.596.322-.247.076-.543.113-.887.113-.752 0-1.332-.156-1.74-.467-.397-.312-.687-.698-.87-1.16-.065-.16-.156-.28-.274-.355-.12-.075-.243-.113-.372-.113-.204 0-.397.08-.58.242-.172.15-.258.35-.258.596 0 .15.07.37.21.66.14.29.365.586.677.887.322.29.73.548 1.224.774.506.215 1.124.323 1.854.323.516 0 1.01-.048 1.483-.145.473-.108.886-.274 1.24-.5.355-.236.64-.537.855-.902.214-.376.322-.833.322-1.37M76.243 65.443c.258 0 .483-.102.677-.306.193-.205.29-.505.29-.903 0-.644-.113-1.22-.34-1.724-.224-.505-.536-.93-.933-1.273-.387-.354-.85-.623-1.386-.806-.525-.18-1.095-.272-1.707-.273-.666 0-1.268.13-1.805.387-.537.247-1 .586-1.386 1.015-.376.43-.666.94-.87 1.53-.204.58-.306 1.198-.306 1.853 0 .634.097 1.24.29 1.82.204.58.494 1.09.87 1.532.387.43.86.773 1.418 1.03.56.26 1.193.388 1.902.388.698 0 1.29-.097 1.772-.29.484-.194.876-.42 1.176-.677.312-.258.538-.516.677-.773.14-.258.21-.452.21-.58 0-.215-.08-.393-.24-.532-.162-.14-.34-.21-.533-.21-.118 0-.23.028-.338.082-.11.054-.205.145-.29.274-.152.225-.302.424-.452.596-.15.16-.317.295-.5.403-.182.107-.392.188-.628.242-.237.053-.52.08-.854.08-.408 0-.758-.064-1.048-.193-.28-.14-.515-.312-.71-.516-.192-.204-.348-.424-.466-.66-.107-.248-.193-.48-.258-.693-.053-.215-.09-.398-.113-.548-.01-.16-.015-.253-.015-.274h5.898m-3.368-3.9c.462 0 .865.07 1.21.21.342.14.622.327.837.564.225.225.392.49.5.79.107.3.16.617.16.95h-5.22c0-.02.004-.097.016-.226.01-.138.043-.3.096-.482.054-.183.135-.38.242-.596.107-.215.252-.408.435-.58.194-.183.43-.333.71-.45.28-.12.618-.18 1.015-.18M82.624 60.27c-.386 0-.73.043-1.03.13-.29.074-.55.17-.774.29-.226.117-.42.246-.58.386-.15.13-.28.242-.387.338v-.29c0-.236-.08-.435-.242-.596-.16-.172-.36-.258-.595-.258-.236 0-.44.086-.612.258-.162.16-.242.36-.242.596v7.622c0 .236.08.44.243.612.17.16.376.242.612.242s.435-.08.596-.242c.162-.172.243-.376.243-.612v-4.673c0-.344.054-.66.16-.95.108-.3.26-.56.452-.774.204-.216.45-.382.74-.5.29-.13.614-.194.968-.194.215 0 .43.032.645.097.225.064.424.16.596.29.183.118.328.274.435.467.117.183.176.392.176.63v5.606c0 .236.08.44.242.612.16.16.36.242.596.242s.435-.08.596-.242c.172-.172.258-.376.258-.612v-5.8c0-.44-.086-.828-.258-1.16-.172-.334-.403-.613-.693-.84-.29-.225-.623-.39-1-.498-.364-.12-.745-.178-1.143-.178M94.61 66.796c0-.45-.085-.827-.257-1.128-.172-.3-.403-.553-.693-.757-.28-.214-.6-.38-.967-.5-.365-.127-.736-.235-1.112-.32-.375-.097-.745-.178-1.11-.242-.366-.076-.693-.162-.983-.258-.28-.108-.505-.23-.677-.37-.172-.15-.258-.345-.258-.58 0-.313.145-.57.435-.774.3-.215.78-.323 1.434-.323.334 0 .608.027.823.08.226.044.414.114.564.21.16.097.29.22.387.37.097.15.188.33.274.533.064.15.155.263.274.338.118.065.247.097.386.097.226 0 .435-.07.63-.21.192-.15.29-.348.29-.595 0-.107-.04-.23-.114-.37-.064-.14-.15-.28-.258-.42-.107-.15-.22-.284-.338-.402-.118-.13-.23-.237-.34-.323-.267-.204-.61-.37-1.03-.5-.42-.128-.934-.192-1.547-.192-1.094 0-1.948.236-2.56.71-.613.47-.92 1.126-.92 1.964 0 .58.146 1.037.436 1.37.29.322.65.575 1.08.757.43.17.896.306 1.4.402.517.086.99.183 1.42.29.43.108.79.253 1.08.435.29.183.434.457.434.822 0 .182-.038.36-.113.53-.075.162-.193.312-.354.452-.15.13-.35.236-.596.322-.248.076-.543.113-.887.113-.752 0-1.332-.156-1.74-.467-.397-.312-.688-.698-.87-1.16-.065-.16-.156-.28-.274-.355-.118-.075-.242-.113-.37-.113-.205 0-.398.08-.58.242-.173.15-.26.35-.26.596 0 .15.07.37.21.66.14.29.366.586.678.887.322.29.73.548 1.224.774.505.215 1.123.323 1.853.323.517 0 1.01-.048 1.484-.145.472-.108.886-.274 1.24-.5.355-.236.64-.537.855-.902.213-.376.32-.833.32-1.37M99.8 69.713c.634 0 1.22-.108 1.757-.322.548-.214 1.02-.52 1.418-.918.397-.408.71-.908.934-1.498.225-.59.338-1.268.338-2.03 0-.763-.113-1.44-.34-2.03-.224-.592-.536-1.09-.933-1.5-.398-.408-.87-.72-1.418-.934-.537-.215-1.123-.322-1.757-.323-.633 0-1.224.108-1.772.323-.537.215-1.004.526-1.402.934-.397.41-.71.908-.935 1.5-.224.59-.337 1.267-.337 2.03 0 .762.113 1.44.338 2.03.227.59.54 1.09.936 1.498.398.398.865.704 1.402.92.548.213 1.14.32 1.772.32m2.756-4.77c0 .592-.07 1.102-.21 1.532-.14.42-.333.768-.58 1.047-.236.27-.526.474-.87.614-.333.13-.698.193-1.096.193-.397 0-.768-.064-1.11-.193-.334-.14-.624-.344-.872-.613-.236-.278-.424-.627-.564-1.046-.14-.43-.21-.94-.21-1.53 0-.592.07-1.102.21-1.532.14-.43.328-.778.564-1.047.248-.28.538-.483.87-.612.344-.14.715-.21 1.112-.21.398 0 .763.07 1.096.21.344.13.634.333.87.612.247.27.44.618.58 1.047.14.43.21.94.21 1.53M111.25 61.124c0-.236-.082-.435-.243-.596-.16-.172-.36-.258-.596-.258s-.44.086-.612.258c-.16.16-.24.36-.24.596v11.022c0 .236.08.435.24.596.172.172.376.258.613.258s.436-.086.597-.258c.16-.16.242-.36.242-.596v-3.77l.418.418c.16.14.343.27.547.387.215.12.462.22.742.307.29.075.628.113 1.015.113.58 0 1.106-.113 1.58-.338.472-.226.874-.543 1.207-.95.343-.42.606-.914.79-1.483.182-.57.273-1.2.273-1.887s-.102-1.316-.306-1.885c-.204-.58-.484-1.074-.838-1.483-.345-.418-.753-.74-1.226-.966-.462-.227-.956-.34-1.482-.34-.322 0-.607.016-.854.05-.247.03-.473.09-.677.176-.203.075-.402.177-.595.306-.183.13-.382.285-.596.467v-.146m2.448 7.09c-.408 0-.774-.09-1.096-.274-.31-.182-.575-.424-.79-.725-.214-.3-.38-.65-.5-1.047-.106-.398-.16-.806-.16-1.225 0-.43.054-.838.16-1.224.12-.4.286-.748.5-1.05.215-.31.48-.557.79-.74.322-.183.688-.274 1.096-.274.397 0 .752.09 1.063.274.324.183.592.43.807.74.226.302.392.65.5 1.05.118.385.177.793.177 1.223 0 .42-.06.827-.177 1.225-.108.397-.274.746-.5 1.047-.215.3-.483.543-.806.725-.31.183-.665.274-1.062.274M120.564 62.752c.075-.16.156-.317.242-.468.097-.15.22-.28.37-.386.15-.108.344-.194.58-.258.237-.065.55-.097.935-.097.216 0 .436.027.662.08.225.044.43.114.612.21.183.097.333.22.45.37.12.15.18.33.18.533 0 .172-.023.327-.066.467-.032.14-.13.263-.29.37-.16.108-.403.205-.725.29-.322.076-.768.146-1.337.21-.495.054-.967.14-1.418.258-.44.12-.833.29-1.177.517-.342.225-.616.515-.82.87-.205.343-.307.773-.307 1.29 0 .45.092.837.274 1.16.183.32.42.59.71.805.3.214.633.376.998.483.376.097.747.145 1.112.145.58 0 1.128-.075 1.644-.226.527-.15.994-.445 1.403-.886v.258c0 .236.08.44.24.612.173.16.377.242.614.242.236 0 .435-.08.596-.242.16-.172.242-.376.242-.612v-6.01c0-.85-.328-1.488-.983-1.918-.645-.44-1.515-.66-2.61-.66-.58 0-1.075.053-1.483.16-.4.097-.737.232-1.016.403-.27.173-.484.372-.645.598-.162.215-.29.435-.388.66-.053.14-.08.258-.08.355 0 .247.09.44.274.58.182.14.38.21.596.21.118 0 .23-.027.338-.08.118-.066.21-.162.274-.29m4.03 2.222v1.144c0 .397-.082.73-.243 1-.15.267-.354.482-.61.643-.25.16-.528.28-.84.355-.31.064-.622.096-.934.096-.204 0-.408-.016-.612-.048-.204-.043-.387-.107-.548-.193-.16-.097-.296-.22-.403-.37-.097-.162-.145-.36-.145-.597 0-.3.065-.548.193-.74.14-.195.324-.35.55-.47.225-.128.477-.224.757-.29.28-.063.564-.117.854-.16.3-.043.586-.08.855-.113.28-.032.52-.08.725-.145l.403-.113M129.232 64.41c0-.18.027-.412.08-.69.054-.28.15-.55.29-.807.15-.258.355-.478.613-.66.258-.194.59-.29 1-.29.235 0 .434-.08.595-.242.172-.17.258-.37.258-.596 0-.236-.086-.435-.258-.596-.16-.172-.36-.258-.596-.258-.247 0-.483.054-.71.16-.214.098-.412.216-.595.356-.173.13-.318.258-.436.387-.118.13-.2.215-.242.257v-.306c0-.236-.08-.435-.242-.596-.16-.172-.36-.258-.596-.258s-.44.086-.612.258c-.16.16-.242.36-.242.596v7.622c0 .236.08.44.242.612.172.16.376.242.612.242.237 0 .435-.08.596-.242.162-.172.242-.376.242-.612V64.41M134.333 62.752c.075-.16.156-.317.242-.468.097-.15.22-.28.37-.386.15-.108.344-.194.58-.258.237-.065.548-.097.935-.097.215 0 .435.027.66.08.226.044.43.114.613.21.183.097.333.22.45.37.12.15.18.33.18.533 0 .172-.023.327-.066.467-.032.14-.13.263-.29.37-.16.108-.403.205-.725.29-.322.076-.768.146-1.337.21-.495.054-.967.14-1.418.258-.44.12-.833.29-1.177.517-.343.225-.617.515-.822.87-.204.343-.306.773-.306 1.29 0 .45.092.837.274 1.16.183.32.42.59.71.805.3.214.633.376.998.483.376.097.747.145 1.112.145.58 0 1.128-.075 1.644-.226.526-.15.993-.445 1.402-.886v.258c0 .236.08.44.24.612.173.16.377.242.614.242.236 0 .435-.08.596-.242.16-.172.242-.376.242-.612v-6.01c0-.85-.328-1.488-.983-1.918-.644-.44-1.514-.66-2.61-.66-.58 0-1.074.053-1.482.16-.398.097-.736.232-1.015.403-.27.173-.484.372-.645.598-.16.215-.29.435-.387.66-.052.14-.08.258-.08.355 0 .247.092.44.275.58.182.14.38.21.596.21.12 0 .232-.027.34-.08.117-.066.21-.162.273-.29m4.03 2.222v1.144c0 .397-.082.73-.243 1-.15.267-.355.482-.612.643-.248.16-.527.28-.838.355-.312.064-.623.096-.935.096-.204 0-.408-.016-.612-.048-.204-.043-.387-.107-.548-.193-.16-.097-.296-.22-.403-.37-.097-.162-.145-.36-.145-.597 0-.3.064-.548.193-.74.14-.195.323-.35.548-.47.226-.128.478-.224.758-.29.28-.063.564-.117.854-.16.3-.043.585-.08.854-.113.28-.032.52-.08.725-.145l.402-.113M147.378 57.724c0-.236-.08-.435-.24-.596-.163-.16-.36-.242-.598-.242-.236 0-.44.08-.612.242-.16.16-.242.36-.242.596v11.022c0 .236.08.44.242.612.172.16.376.242.612.242.237 0 .435-.08.597-.242.16-.172.24-.376.24-.612V57.724M150.557 62.752c.075-.16.156-.317.242-.468.095-.15.22-.28.37-.386.15-.108.343-.194.58-.258.236-.065.547-.097.934-.097.215 0 .435.027.66.08.226.044.43.114.613.21.182.097.333.22.45.37.12.15.178.33.178.533 0 .172-.02.327-.064.467-.03.14-.128.263-.29.37-.16.108-.402.205-.724.29-.323.076-.768.146-1.338.21-.494.054-.967.14-1.418.258-.44.12-.832.29-1.176.517-.344.225-.618.515-.822.87-.204.343-.306.773-.306 1.29 0 .45.09.837.274 1.16.183.32.42.59.71.805.3.214.633.376.998.483.376.097.747.145 1.112.145.58 0 1.128-.075 1.643-.226.527-.15.994-.445 1.402-.886v.258c0 .236.08.44.242.612.172.16.376.242.612.242s.434-.08.596-.242c.16-.172.24-.376.24-.612v-6.01c0-.85-.326-1.488-.982-1.918-.644-.44-1.514-.66-2.61-.66-.58 0-1.074.053-1.483.16-.396.097-.734.232-1.014.403-.268.173-.483.372-.644.598-.16.215-.29.435-.387.66-.054.14-.08.258-.08.355 0 .247.09.44.273.58.183.14.382.21.597.21.118 0 .23-.027.338-.08.118-.066.21-.162.274-.29m4.028 2.222v1.144c0 .397-.08.73-.24 1-.152.267-.356.482-.614.643-.246.16-.525.28-.837.355-.31.064-.623.096-.934.096-.205 0-.41-.016-.614-.048-.204-.043-.386-.107-.547-.193-.163-.097-.297-.22-.404-.37-.097-.162-.145-.36-.145-.597 0-.3.065-.548.194-.74.14-.195.322-.35.548-.47.226-.128.478-.224.757-.29.28-.063.563-.117.853-.16.3-.043.586-.08.854-.113.28-.032.52-.08.725-.145l.403-.113M163.586 62.752c.075-.16.156-.317.242-.468.097-.15.22-.28.37-.386.15-.108.344-.194.58-.258.237-.065.548-.097.935-.097.215 0 .435.027.66.08.226.044.43.114.613.21.183.097.333.22.45.37.12.15.18.33.18.533 0 .172-.023.327-.066.467-.032.14-.13.263-.29.37-.16.108-.403.205-.725.29-.322.076-.768.146-1.337.21-.495.054-.967.14-1.418.258-.44.12-.833.29-1.177.517-.344.225-.617.515-.822.87-.203.343-.305.773-.305 1.29 0 .45.092.837.274 1.16.182.32.418.59.708.805.3.214.634.376 1 .483.375.097.746.145 1.11.145.58 0 1.13-.075 1.645-.226.526-.15.993-.445 1.402-.886v.258c0 .236.08.44.24.612.173.16.377.242.614.242.235 0 .434-.08.595-.242.16-.172.24-.376.24-.612v-6.01c0-.85-.326-1.488-.98-1.918-.646-.44-1.516-.66-2.612-.66-.58 0-1.074.053-1.482.16-.397.097-.735.232-1.014.403-.27.173-.484.372-.645.598-.16.215-.29.435-.386.66-.053.14-.08.258-.08.355 0 .247.09.44.274.58.182.14.38.21.596.21.118 0 .23-.027.338-.08.118-.066.21-.162.274-.29m4.03 2.222v1.144c0 .397-.082.73-.243 1-.15.267-.355.482-.612.643-.247.16-.526.28-.837.355-.312.064-.623.096-.935.096-.204 0-.408-.016-.612-.048-.204-.043-.387-.107-.548-.193-.16-.097-.296-.22-.403-.37-.097-.162-.145-.36-.145-.597 0-.3.064-.548.193-.74.14-.195.323-.35.548-.47.227-.128.48-.224.76-.29.278-.063.563-.117.853-.16.3-.043.585-.08.854-.113.28-.032.52-.08.725-.145l.403-.113M174.703 69.713c.763 0 1.386-.108 1.87-.322.494-.214.88-.46 1.16-.74.28-.28.472-.554.58-.822.107-.28.16-.478.16-.597 0-.235-.09-.418-.273-.547-.172-.14-.365-.21-.58-.21-.15 0-.29.04-.42.114-.128.075-.22.204-.273.387-.054.17-.145.338-.274.5-.118.16-.274.305-.467.434-.183.13-.403.23-.66.306-.248.075-.522.113-.823.113-.333 0-.666-.06-1-.177-.32-.13-.616-.328-.885-.596-.258-.27-.467-.618-.628-1.048-.162-.43-.242-.95-.242-1.563 0-.612.08-1.133.242-1.563.16-.44.37-.795.628-1.063.27-.27.564-.462.886-.58.333-.13.666-.194 1-.194.3 0 .574.038.82.113.26.075.48.177.662.306.193.13.35.274.467.435.13.16.22.328.274.5.054.182.145.31.274.387.13.075.27.112.42.112.215 0 .408-.064.58-.193.172-.14.258-.333.258-.58 0-.193-.075-.43-.226-.71-.15-.278-.38-.547-.693-.805-.3-.258-.688-.478-1.16-.66-.474-.194-1.032-.29-1.677-.29-.633 0-1.224.118-1.772.354-.536.226-1.004.548-1.4.967-.4.418-.71.923-.936 1.513-.225.58-.338 1.23-.338 1.95 0 .71.113 1.36.338 1.95.226.58.537 1.08.935 1.5.396.417.864.745 1.4.98.55.227 1.14.34 1.773.34M183.578 69.713c.763 0 1.386-.108 1.87-.322.494-.214.88-.46 1.16-.74.28-.28.472-.554.58-.822.107-.28.16-.478.16-.597 0-.235-.09-.418-.273-.547-.172-.14-.365-.21-.58-.21-.15 0-.29.04-.42.114-.128.075-.22.204-.273.387-.054.17-.145.338-.274.5-.118.16-.274.305-.467.434-.182.13-.402.23-.66.306-.247.075-.52.113-.822.113-.333 0-.666-.06-1-.177-.32-.13-.616-.328-.885-.596-.258-.27-.467-.618-.628-1.048-.16-.43-.242-.95-.242-1.563 0-.612.08-1.133.242-1.563.16-.44.37-.795.628-1.063.27-.27.564-.462.886-.58.332-.13.665-.194.998-.194.3 0 .575.038.822.113.258.075.478.177.66.306.194.13.35.274.468.435.13.16.22.328.274.5.054.182.145.31.274.387.13.075.27.112.42.112.214 0 .407-.064.58-.193.17-.14.257-.333.257-.58 0-.193-.075-.43-.226-.71-.15-.278-.38-.547-.693-.805-.3-.258-.687-.478-1.16-.66-.472-.194-1.03-.29-1.676-.29-.633 0-1.224.118-1.772.354-.537.226-1.005.548-1.402.967-.397.418-.71.923-.935 1.513-.226.58-.34 1.23-.34 1.95 0 .71.114 1.36.34 1.95.225.58.537 1.08.934 1.5.397.417.865.745 1.402.98.548.227 1.14.34 1.772.34M188.2 57.837c0 .258.09.484.273.677.194.183.425.274.693.274.258 0 .478-.09.66-.274.194-.193.29-.42.29-.677 0-.268-.096-.494-.29-.677-.182-.182-.402-.274-.66-.274-.268 0-.5.092-.693.274-.182.183-.274.41-.274.677m1.804 3.287c0-.236-.08-.435-.242-.596-.16-.172-.36-.258-.596-.258s-.44.086-.612.258c-.16.16-.242.36-.242.596v7.622c0 .236.08.44.242.612.172.16.376.242.612.242.237 0 .435-.08.596-.242.162-.172.242-.376.242-.612v-7.622M195.412 69.713c.634 0 1.22-.108 1.756-.322.548-.214 1.02-.52 1.418-.918.398-.408.71-.908.935-1.498.226-.59.34-1.268.34-2.03 0-.763-.114-1.44-.34-2.03-.225-.592-.536-1.09-.934-1.5-.397-.408-.87-.72-1.418-.934-.537-.215-1.122-.322-1.756-.323-.634 0-1.225.108-1.773.323-.538.215-1.005.526-1.403.934-.397.41-.71.908-.934 1.5-.226.59-.34 1.267-.34 2.03 0 .762.114 1.44.34 2.03.225.59.537 1.09.934 1.498.398.398.865.704 1.402.92.547.213 1.138.32 1.772.32m2.755-4.77c0 .592-.07 1.102-.21 1.532-.14.42-.332.768-.58 1.047-.236.27-.526.474-.87.614-.333.13-.698.193-1.095.193-.398 0-.768-.064-1.112-.193-.333-.14-.623-.344-.87-.613-.237-.278-.425-.627-.564-1.046-.14-.43-.21-.94-.21-1.53 0-.592.07-1.102.21-1.532.14-.43.327-.778.564-1.047.247-.28.537-.483.87-.612.344-.14.714-.21 1.112-.21.397 0 .762.07 1.095.21.344.13.634.333.87.612.248.27.44.618.58 1.047.14.43.21.94.21 1.53M205.27 60.27c-.387 0-.73.043-1.03.13-.29.074-.55.17-.775.29-.225.117-.42.246-.58.386-.15.13-.28.242-.387.338v-.29c0-.236-.08-.435-.24-.596-.162-.172-.36-.258-.597-.258-.236 0-.44.086-.612.258-.16.16-.24.36-.24.596v7.622c0 .236.08.44.24.612.172.16.376.242.613.242s.436-.08.597-.242c.16-.172.24-.376.24-.612v-4.673c0-.344.055-.66.163-.95.107-.3.257-.56.45-.774.205-.216.452-.382.742-.5.29-.13.612-.194.967-.194.214 0 .43.032.643.097.226.064.425.16.597.29.182.118.327.274.435.467.118.183.177.392.177.63v5.606c0 .236.08.44.242.612.16.16.36.242.596.242s.435-.08.596-.242c.172-.172.258-.376.258-.612v-5.8c0-.44-.086-.828-.258-1.16-.172-.334-.403-.613-.693-.84-.29-.225-.623-.39-1-.498-.364-.12-.746-.178-1.143-.178" style="text-align:center;line-height:67.00000167%;-inkscape-font-specification:RockoFLF Medium" font-size="16.114" font-weight="500" fill="#f9f9f9"/><path d="M54.32 8.61c0 1.397.49 2.583 1.466 3.56 1.024.977 2.21 1.465 3.56 1.465 1.396 0 2.583-.488 3.56-1.465 1.024-.977 1.535-2.163 1.536-3.56 0-1.394-.512-2.58-1.536-3.557-.977-.977-2.164-1.465-3.56-1.466-1.35 0-2.536.49-3.56 1.466-.977.977-1.466 2.163-1.466 3.558M158.698 8.61c0 1.397.49 2.583 1.466 3.56 1.024.977 2.21 1.465 3.56 1.465 1.396 0 2.582-.488 3.56-1.465 1.023-.977 1.535-2.163 1.535-3.56 0-1.394-.513-2.58-1.536-3.557-.978-.977-2.164-1.465-3.56-1.466-1.35 0-2.536.49-3.56 1.466-.977.977-1.466 2.163-1.466 3.558" style="text-align:center;line-height:60.00000238%;-inkscape-font-specification:RockoFLF Bold" font-size="144" font-weight="bold" fill="#ff7d00"/></g></svg>