<?xml version="1.0" encoding="UTF-8" standalone="no"?>
<!-- Created with Inkscape (http://www.inkscape.org/) -->

<svg
   xmlns:dc="http://purl.org/dc/elements/1.1/"
   xmlns:cc="http://creativecommons.org/ns#"
   xmlns:rdf="http://www.w3.org/1999/02/22-rdf-syntax-ns#"
   xmlns:svg="http://www.w3.org/2000/svg"
   xmlns="http://www.w3.org/2000/svg"
   xmlns:sodipodi="http://sodipodi.sourceforge.net/DTD/sodipodi-0.dtd"
   xmlns:inkscape="http://www.inkscape.org/namespaces/inkscape"
   width="240.25125"
   height="76"
   id="svg2"
   version="1.1"
   inkscape:version="0.48.4 r9939"
   sodipodi:docname="navbar-logo.svg">
  <defs
     id="defs4" />
  <sodipodi:namedview
     id="base"
     pagecolor="#ffffff"
     bordercolor="#666666"
     borderopacity="1.0"
     inkscape:pageopacity="0.0"
     inkscape:pageshadow="2"
     inkscape:zoom="1.979899"
     inkscape:cx="137.51349"
     inkscape:cy="50.19594"
     inkscape:document-units="px"
     inkscape:current-layer="layer1"
     showgrid="false"
     inkscape:window-width="1024"
     inkscape:window-height="576"
     inkscape:window-x="0"
     inkscape:window-y="24"
     inkscape:window-maximized="1"
     fit-margin-top="0"
     fit-margin-left="0"
     fit-margin-right="0"
     fit-margin-bottom="0" />
  <metadata
     id="metadata7">
    <rdf:RDF>
      <cc:Work
         rdf:about="">
        <dc:format>image/svg+xml</dc:format>
        <dc:type
           rdf:resource="http://purl.org/dc/dcmitype/StillImage" />
        <dc:title></dc:title>
      </cc:Work>
    </rdf:RDF>
  </metadata>
  <g
     inkscape:label="Layer 1"
     inkscape:groupmode="layer"
     id="layer1"
     transform="translate(-71.919211,-279.35272)">
    <g
       id="g3197"
       transform="translate(0,-2)">
      <path
         d="m 97.865365,309.20726 5.929795,20.3031 c 0.38669,1.28908 1.05272,2.38481 1.99808,3.28716 0.98826,0.90236 2.08398,1.35354 3.28717,1.35354 1.6328,0 2.96485,-0.42969 3.99616,-1.28908 1.03123,-0.85939 1.76171,-1.9766 2.19145,-3.35162 l 8.25014,-26.87743 c 0.12886,-0.42967 0.19331,-0.85936 0.19336,-1.28909 -5e-5,-1.11717 -0.40826,-2.14844 -1.22463,-3.0938 -0.81647,-0.94529 -1.84774,-1.41796 -3.0938,-1.418 -0.98835,4e-5 -1.86922,0.30083 -2.64263,0.90236 -0.77349,0.60161 -1.28913,1.39655 -1.5469,2.38481 l -6.12315,22.23672 -5.99425,-21.46327 c -0.34379,-1.24608 -0.98833,-2.23438 -1.93363,-2.96489 -0.90239,-0.73045 -1.998108,-1.09569 -3.287165,-1.09573 -1.28911,4e-5 -2.406317,0.36528 -3.351621,1.09573 -0.945352,0.73051 -1.589894,1.71881 -1.933628,2.96489 l -5.994247,21.46327 -6.0587,-22.23672 c -0.257826,-0.98826 -0.794945,-1.7832 -1.611357,-2.38481 -0.773458,-0.60153 -1.654332,-0.90232 -2.642625,-0.90236 -0.472669,4e-5 -0.966818,0.086 -1.482448,0.25782 -0.472667,0.17192 -0.923847,0.45122 -1.353539,0.83791 -0.429697,0.34379 -0.773453,0.79497 -1.031268,1.35354 -0.257818,0.55863 -0.386727,1.22466 -0.386726,1.99808 -10e-7,0.4727 0.06445,0.92387 0.193363,1.35354 l 8.185691,26.87743 c 0.429686,1.37502 1.160167,2.49223 2.191445,3.35162 1.031256,0.85939 2.363309,1.28908 3.996164,1.28908 1.375008,0 2.492214,-0.45118 3.351622,-1.35354 0.90234,-0.90235 1.546882,-1.99808 1.933628,-3.28716 l 5.994246,-20.3031"
         style="font-size:64.45426178px;font-style:normal;font-variant:normal;font-weight:bold;font-stretch:normal;text-align:center;line-height:60.00000238%;letter-spacing:0px;word-spacing:0px;text-anchor:middle;fill:#f9f9f9;fill-opacity:1;stroke:none;font-family:RockoFLF;-inkscape-font-specification:RockoFLF Bold"
         id="path3116"
         inkscape:connector-curvature="0" />
      <path
         sodipodi:nodetypes="ccccsscscsc"
         d="m 135.96589,302.37511 c -1e-5,-1.28905 -0.47267,-2.38477 -1.41799,-3.28717 -0.90237,-0.94529 -1.99809,-1.41795 -3.28717,-1.41799 -1.24612,4e-5 -2.34184,0.4727 -3.28717,1.41799 -0.90236,0.9024 -1.35354,1.99812 -1.35354,3.28717 l 0,27.13525 c 0,1.24611 0.45118,2.34184 1.35354,3.28716 0.90236,0.90236 1.99808,1.35354 3.28717,1.35354 1.28908,0 2.3848,-0.45118 3.28717,-1.35354 0.94532,-0.90235 1.41798,-1.99808 1.41799,-3.28716 l 0,-27.13525"
         style="font-size:64.45426178px;font-style:normal;font-variant:normal;font-weight:bold;font-stretch:normal;text-align:center;line-height:60.00000238%;letter-spacing:0px;word-spacing:0px;text-anchor:middle;fill:#f9f9f9;fill-opacity:1;stroke:none;font-family:RockoFLF;-inkscape-font-specification:RockoFLF Bold"
         id="path3118"
         inkscape:connector-curvature="0" />
      <path
         d="m 172.76827,308.24045 c -3e-5,-1.71875 -0.32231,-3.26565 -0.96681,-4.64071 -0.60161,-1.41796 -1.461,-2.6211 -2.57817,-3.60944 -1.07427,-0.98826 -2.34187,-1.76171 -3.80281,-2.32035 -1.46098,-0.55857 -3.00789,-0.83787 -4.6407,-0.83791 -1.46099,4e-5 -2.77156,0.17192 -3.93171,0.51564 -1.1602,0.30082 -2.19146,0.68755 -3.09381,1.16018 -0.90237,0.42973 -1.67582,0.92387 -2.32035,1.48244 -0.64456,0.55864 -1.16019,1.05279 -1.5469,1.48245 -1e-5,-1.24608 -0.45119,-2.32032 -1.35354,-3.22271 -0.90237,-0.94529 -1.99809,-1.41796 -3.28717,-1.418 -1.28909,4e-5 -2.4063,0.47271 -3.35162,1.418 -0.90236,0.90239 -1.35354,1.97663 -1.35354,3.22271 l 0,28.03761 c 0,1.24611 0.45118,2.34184 1.35354,3.28716 0.94532,0.90236 2.06253,1.35354 3.35162,1.35354 1.28908,0 2.3848,-0.45118 3.28717,-1.35354 0.90235,-0.94532 1.35353,-2.04105 1.35354,-3.28716 l 0,-18.17611 c -1e-5,-0.9453 0.17186,-1.82618 0.51563,-2.64262 0.38671,-0.8164 0.88086,-1.52539 1.48245,-2.12699 0.60156,-0.60155 1.31055,-1.07421 2.12699,-1.418 0.85937,-0.38669 1.74025,-0.58005 2.64263,-0.58008 0.9453,3e-5 1.82618,0.19339 2.64262,0.58008 0.8164,0.34379 1.52539,0.81645 2.12699,1.418 0.60155,0.6016 1.07421,1.31059 1.41799,2.12699 0.3867,0.81644 0.58007,1.69732 0.58009,2.64262 l 0,18.17611 c -2e-5,1.24611 0.45116,2.34184 1.35354,3.28716 0.9453,0.90236 2.06251,1.35354 3.35162,1.35354 1.28906,0 2.38478,-0.45118 3.28717,-1.35354 0.90233,-0.94532 1.35351,-2.04105 1.35354,-3.28716 l 0,-21.26991"
         style="font-size:64.45426178px;font-style:normal;font-variant:normal;font-weight:bold;font-stretch:normal;text-align:center;line-height:60.00000238%;letter-spacing:0px;word-spacing:0px;text-anchor:middle;fill:#f9f9f9;fill-opacity:1;stroke:none;font-family:RockoFLF;-inkscape-font-specification:RockoFLF Bold"
         id="path3120"
         inkscape:connector-curvature="0" />
      <path
         d="m 201.97411,309.20726 5.92979,20.3031 c 0.38669,1.28908 1.05272,2.38481 1.99808,3.28716 0.98826,0.90236 2.08399,1.35354 3.28717,1.35354 1.6328,0 2.96485,-0.42969 3.99616,-1.28908 1.03123,-0.85939 1.76171,-1.9766 2.19145,-3.35162 l 8.25014,-26.87743 c 0.12886,-0.42967 0.19331,-0.85936 0.19337,-1.28909 -6e-5,-1.11717 -0.40827,-2.14844 -1.22464,-3.0938 -0.81647,-0.94529 -1.84773,-1.41796 -3.0938,-1.418 -0.98835,4e-5 -1.86922,0.30083 -2.64262,0.90236 -0.7735,0.60161 -1.28913,1.39655 -1.54691,2.38481 l -6.12315,22.23672 -5.99425,-21.46327 c -0.34379,-1.24608 -0.98833,-2.23438 -1.93363,-2.96489 -0.90238,-0.73045 -1.99811,-1.09569 -3.28716,-1.09573 -1.28911,4e-5 -2.40632,0.36528 -3.35162,1.09573 -0.94536,0.73051 -1.5899,1.71881 -1.93363,2.96489 l -5.99425,21.46327 -6.0587,-22.23672 c -0.25783,-0.98826 -0.79494,-1.7832 -1.61136,-2.38481 -0.77345,-0.60153 -1.65433,-0.90232 -2.64262,-0.90236 -0.47267,4e-5 -0.96682,0.086 -1.48245,0.25782 -0.47267,0.17192 -0.92385,0.45122 -1.35354,0.83791 -0.4297,0.34379 -0.77345,0.79497 -1.03127,1.35354 -0.25781,0.55863 -0.38672,1.22466 -0.38672,1.99808 0,0.4727 0.0644,0.92387 0.19336,1.35354 l 8.18569,26.87743 c 0.42969,1.37502 1.16017,2.49223 2.19145,3.35162 1.03125,0.85939 2.36331,1.28908 3.99616,1.28908 1.37501,0 2.49221,-0.45118 3.35162,-1.35354 0.90234,-0.90235 1.54688,-1.99808 1.93363,-3.28716 l 5.99425,-20.3031"
         style="font-size:64.45426178px;font-style:normal;font-variant:normal;font-weight:bold;font-stretch:normal;text-align:center;line-height:60.00000238%;letter-spacing:0px;word-spacing:0px;text-anchor:middle;fill:#f9f9f9;fill-opacity:1;stroke:none;font-family:RockoFLF;-inkscape-font-specification:RockoFLF Bold"
         id="path3122"
         inkscape:connector-curvature="0" />
      <path
         sodipodi:nodetypes="ccccsscscsc"
         d="m 240.07463,302.37511 c -1e-5,-1.28905 -0.47268,-2.38477 -1.41799,-3.28717 -0.90237,-0.94529 -1.99809,-1.41795 -3.28717,-1.41799 -1.24612,4e-5 -2.34184,0.4727 -3.28717,1.41799 -0.90236,0.9024 -1.35354,1.99812 -1.35354,3.28717 l 0,27.13525 c 0,1.24611 0.45118,2.34184 1.35354,3.28716 0.90236,0.90236 1.99808,1.35354 3.28717,1.35354 1.28908,0 2.3848,-0.45118 3.28717,-1.35354 0.94531,-0.90235 1.41798,-1.99808 1.41799,-3.28716 l 0,-27.13525"
         style="font-size:64.45426178px;font-style:normal;font-variant:normal;font-weight:bold;font-stretch:normal;text-align:center;line-height:60.00000238%;letter-spacing:0px;word-spacing:0px;text-anchor:middle;fill:#f9f9f9;fill-opacity:1;stroke:none;font-family:RockoFLF;-inkscape-font-specification:RockoFLF Bold"
         id="path3124"
         inkscape:connector-curvature="0" />
      <path
         d="m 276.87701,308.24045 c -3e-5,-1.71875 -0.3223,-3.26565 -0.96681,-4.64071 -0.60161,-1.41796 -1.461,-2.6211 -2.57817,-3.60944 -1.07427,-0.98826 -2.34187,-1.76171 -3.8028,-2.32035 -1.46099,-0.55857 -3.00789,-0.83787 -4.64071,-0.83791 -1.46098,4e-5 -2.77155,0.17192 -3.93171,0.51564 -1.16019,0.30082 -2.19146,0.68755 -3.0938,1.16018 -0.90238,0.42973 -1.67583,0.92387 -2.32036,1.48244 -0.64455,0.55864 -1.16019,1.05279 -1.5469,1.48245 -10e-6,-1.24608 -0.45119,-2.32032 -1.35354,-3.22271 -0.90237,-0.94529 -1.99809,-1.41796 -3.28717,-1.418 -1.28909,4e-5 -2.40629,0.47271 -3.35162,1.418 -0.90236,0.90239 -1.35354,1.97663 -1.35354,3.22271 l 0,28.03761 c 0,1.24611 0.45118,2.34184 1.35354,3.28716 0.94533,0.90236 2.06253,1.35354 3.35162,1.35354 1.28908,0 2.3848,-0.45118 3.28717,-1.35354 0.90235,-0.94532 1.35353,-2.04105 1.35354,-3.28716 l 0,-18.17611 c -10e-6,-0.9453 0.17187,-1.82618 0.51563,-2.64262 0.38672,-0.8164 0.88087,-1.52539 1.48245,-2.12699 0.60156,-0.60155 1.31056,-1.07421 2.12699,-1.418 0.85938,-0.38669 1.74025,-0.58005 2.64263,-0.58008 0.94531,3e-5 1.82618,0.19339 2.64262,0.58008 0.8164,0.34379 1.5254,0.81645 2.12699,1.418 0.60155,0.6016 1.07422,1.31059 1.418,2.12699 0.3867,0.81644 0.58006,1.69732 0.58008,2.64262 l 0,18.17611 c -2e-5,1.24611 0.45116,2.34184 1.35354,3.28716 0.94531,0.90236 2.06251,1.35354 3.35163,1.35354 1.28905,0 2.38477,-0.45118 3.28716,-1.35354 0.90233,-0.94532 1.35351,-2.04105 1.35354,-3.28716 l 0,-21.26991"
         style="font-size:64.45426178px;font-style:normal;font-variant:normal;font-weight:bold;font-stretch:normal;text-align:center;line-height:60.00000238%;letter-spacing:0px;word-spacing:0px;text-anchor:middle;fill:#f9f9f9;fill-opacity:1;stroke:none;font-family:RockoFLF;-inkscape-font-specification:RockoFLF Bold"
         id="path3126"
         inkscape:connector-curvature="0" />
      <path
         d="m 312.27046,321.96921 c -4e-5,-2.01956 -0.55864,-3.63091 -1.67581,-4.83407 -1.07427,-1.2461 -2.42781,-2.2344 -4.06062,-2.9649 -1.63287,-0.77343 -3.39462,-1.375 -5.28525,-1.80472 -1.89068,-0.47264 -3.65243,-0.90234 -5.28525,-1.28908 -1.63286,-0.42968 -3.00788,-0.92382 -4.12507,-1.48245 -1.07425,-0.55858 -1.61137,-1.35352 -1.61136,-2.38481 -1e-5,-1.24609 0.55859,-2.14845 1.67581,-2.70708 1.11719,-0.60154 2.5137,-0.90233 4.18953,-0.90236 0.77343,3e-5 1.54688,0.086 2.32035,0.25782 0.8164,0.17191 1.56837,0.45121 2.2559,0.8379 0.73046,0.34379 1.375,0.79497 1.93363,1.35354 0.60155,0.55864 1.07421,1.24615 1.41799,2.06254 0.21483,0.6016 0.55858,1.03129 1.03127,1.28909 0.47264,0.21487 0.96679,0.32229 1.48245,0.32227 0.47264,2e-5 0.9453,-0.0859 1.41799,-0.25782 0.51561,-0.21482 0.96679,-0.47264 1.35354,-0.77345 0.42967,-0.34373 0.77342,-0.75194 1.03127,-1.22463 0.25779,-0.47264 0.38669,-0.98827 0.38673,-1.5469 -4e-5,-0.90234 -0.36528,-1.86915 -1.09573,-2.90045 -0.68754,-1.0742 -1.67584,-2.0625 -2.96489,-2.96489 -1.24614,-0.90233 -2.77156,-1.65429 -4.57626,-2.2559 -1.80474,-0.64451 -3.80282,-0.96678 -5.99424,-0.96682 -2.14849,4e-5 -4.1036,0.27934 -5.86534,0.83791 -1.76176,0.55864 -3.28717,1.33209 -4.57625,2.32035 -1.24612,0.98834 -2.21294,2.19148 -2.90044,3.60944 -0.68752,1.41802 -1.03127,2.96493 -1.03127,4.64071 0,2.10553 0.53711,3.78134 1.61135,5.02743 1.07424,1.24614 2.40629,2.25592 3.99617,3.02935 1.58986,0.77347 3.33012,1.39653 5.22079,1.86918 1.89065,0.42971 3.63091,0.88089 5.2208,1.35353 1.58985,0.42971 2.9219,0.96683 3.99616,1.61136 1.07422,0.64456 1.61134,1.54691 1.61136,2.70708 -2e-5,0.73049 -0.19339,1.37503 -0.58009,1.93363 -0.34378,0.51564 -0.81644,0.96682 -1.41799,1.35354 -0.55863,0.34376 -1.20317,0.62306 -1.93363,0.8379 -0.7305,0.17189 -1.46098,0.25783 -2.19145,0.25782 -2.23443,10e-6 -4.03914,-0.5586 -5.41415,-1.67581 -1.37504,-1.1172 -2.42779,-2.57816 -3.15826,-4.38289 -0.25783,-0.64453 -0.68752,-1.11719 -1.28909,-1.41799 -0.60158,-0.30078 -1.2676,-0.45117 -1.99808,-0.45118 -1.07424,10e-6 -2.08402,0.3008 -3.02935,0.90236 -0.90236,0.60158 -1.35354,1.39652 -1.35354,2.3848 0,1.16019 0.34375,2.42779 1.03127,3.8028 0.73048,1.33206 1.78323,2.55669 3.15826,3.6739 1.37501,1.11721 3.07231,2.06253 5.09188,2.83598 2.01956,0.73049 4.33991,1.09573 6.96106,1.09573 2.06252,0 3.99615,-0.2793 5.80089,-0.83791 1.84766,-0.5586 3.43753,-1.37502 4.76961,-2.44926 1.375,-1.1172 2.44923,-2.47074 3.22272,-4.06062 0.81639,-1.63283 1.22459,-3.52349 1.22463,-5.67197"
         style="font-size:64.45426178px;font-style:normal;font-variant:normal;font-weight:bold;font-stretch:normal;text-align:center;line-height:60.00000238%;letter-spacing:0px;word-spacing:0px;text-anchor:middle;fill:#f9f9f9;fill-opacity:1;stroke:none;font-family:RockoFLF;-inkscape-font-specification:RockoFLF Bold"
         id="path3128"
         inkscape:connector-curvature="0" />
      <path
         d="m 108.93337,351.06555 c 0.7627,0 1.38576,-0.10742 1.86917,-0.32227 0.49415,-0.21484 0.88087,-0.46192 1.16018,-0.74122 0.27929,-0.2793 0.47266,-0.55323 0.58009,-0.82179 0.10741,-0.2793 0.16113,-0.47804 0.16113,-0.5962 0,-0.23633 -0.0913,-0.41895 -0.27393,-0.54787 -0.17188,-0.13964 -0.36524,-0.20947 -0.58008,-0.20947 -0.15041,0 -0.29006,0.0376 -0.41896,0.11279 -0.12891,0.0752 -0.22022,0.20411 -0.27393,0.38673 -0.0537,0.17188 -0.14503,0.33839 -0.27393,0.49952 -0.11817,0.16114 -0.27394,0.30616 -0.46729,0.43507 -0.18263,0.12891 -0.40285,0.23096 -0.66066,0.30615 -0.24708,0.0752 -0.52101,0.1128 -0.82179,0.1128 -0.33302,0 -0.66603,-0.0591 -0.99904,-0.17725 -0.32228,-0.12891 -0.61769,-0.32764 -0.88625,-0.5962 -0.25782,-0.26856 -0.46729,-0.61769 -0.62843,-1.04738 -0.16113,-0.4297 -0.2417,-0.9507 -0.2417,-1.56302 0,-0.61231 0.0806,-1.13332 0.2417,-1.56302 0.16114,-0.44043 0.37061,-0.79493 0.62843,-1.06349 0.26856,-0.26855 0.56397,-0.46192 0.88625,-0.58009 0.33301,-0.1289 0.66602,-0.19335 0.99904,-0.19336 0.30078,10e-6 0.57471,0.0376 0.82179,0.11279 0.25781,0.0752 0.47803,0.17726 0.66066,0.30616 0.19335,0.12892 0.34912,0.27394 0.46729,0.43507 0.1289,0.16114 0.22021,0.32765 0.27393,0.49952 0.0537,0.18262 0.14502,0.31153 0.27393,0.38672 0.1289,0.0752 0.26855,0.1128 0.41896,0.1128 0.21484,0 0.4082,-0.0644 0.58008,-0.19337 0.17187,-0.13964 0.25781,-0.333 0.25782,-0.58008 -1e-5,-0.19336 -0.0752,-0.42969 -0.22559,-0.709 -0.1504,-0.27929 -0.38136,-0.54785 -0.69288,-0.80568 -0.3008,-0.25781 -0.68752,-0.47803 -1.16018,-0.66066 -0.47267,-0.19335 -1.03127,-0.29003 -1.67581,-0.29004 -0.6338,1e-5 -1.22463,0.11818 -1.77249,0.3545 -0.53712,0.2256 -1.00442,0.54787 -1.40188,0.96681 -0.39747,0.41896 -0.709,0.92385 -0.93459,1.51468 -0.22559,0.58009 -0.33838,1.23001 -0.33838,1.94974 0,0.709 0.11279,1.35891 0.33838,1.94974 0.22559,0.58009 0.53712,1.07961 0.93459,1.49856 0.39746,0.41896 0.86476,0.7466 1.40188,0.98293 0.54786,0.22559 1.13869,0.33838 1.77249,0.33838"
         style="font-size:16.11356544px;font-style:normal;font-variant:normal;font-weight:500;font-stretch:normal;text-align:center;line-height:67.00000167%;letter-spacing:0px;word-spacing:0px;text-anchor:middle;fill:#f9f9f9;fill-opacity:1;stroke:none;font-family:RockoFLF;-inkscape-font-specification:RockoFLF Medium"
         id="path3130"
         inkscape:connector-curvature="0" />
      <path
         d="m 117.80842,351.06555 c 0.63379,0 1.21925,-0.10742 1.75638,-0.32227 0.54785,-0.21484 1.02052,-0.521 1.41799,-0.91847 0.39746,-0.40821 0.70899,-0.90773 0.93459,-1.49856 0.22558,-0.59083 0.33837,-1.2676 0.33838,-2.03031 -10e-6,-0.7627 -0.1128,-1.43947 -0.33838,-2.03031 -0.2256,-0.59082 -0.53713,-1.09034 -0.93459,-1.49856 -0.39747,-0.4082 -0.87014,-0.71973 -1.41799,-0.93459 -0.53713,-0.21484 -1.12259,-0.32226 -1.75638,-0.32227 -0.6338,1e-5 -1.22463,0.10743 -1.77249,0.32227 -0.53712,0.21486 -1.00442,0.52639 -1.40188,0.93459 -0.39747,0.40822 -0.709,0.90774 -0.93459,1.49856 -0.22559,0.59084 -0.33838,1.26761 -0.33838,2.03031 0,0.76271 0.11279,1.43948 0.33838,2.03031 0.22559,0.59083 0.53712,1.09035 0.93459,1.49856 0.39746,0.39747 0.86476,0.70363 1.40188,0.91847 0.54786,0.21485 1.13869,0.32227 1.77249,0.32227 m 2.75542,-4.76961 c -1e-5,0.59083 -0.0698,1.1011 -0.20948,1.53079 -0.13965,0.41895 -0.33302,0.76808 -0.58008,1.04738 -0.23634,0.26856 -0.52639,0.47267 -0.87014,0.61232 -0.33302,0.12891 -0.69826,0.19336 -1.09572,0.19336 -0.39747,0 -0.76808,-0.0645 -1.11184,-0.19336 -0.33301,-0.13965 -0.62306,-0.34376 -0.87013,-0.61232 -0.23633,-0.2793 -0.42432,-0.62843 -0.56397,-1.04738 -0.13966,-0.42969 -0.20948,-0.93996 -0.20948,-1.53079 0,-0.59083 0.0698,-1.10109 0.20948,-1.53079 0.13965,-0.42969 0.32764,-0.77881 0.56397,-1.04738 0.24707,-0.2793 0.53712,-0.4834 0.87013,-0.61232 0.34376,-0.13964 0.71437,-0.20946 1.11184,-0.20947 0.39746,10e-6 0.7627,0.0698 1.09572,0.20947 0.34375,0.12892 0.6338,0.33302 0.87014,0.61232 0.24706,0.26857 0.44043,0.61769 0.58008,1.04738 0.13965,0.4297 0.20947,0.93996 0.20948,1.53079"
         style="font-size:16.11356544px;font-style:normal;font-variant:normal;font-weight:500;font-stretch:normal;text-align:center;line-height:67.00000167%;letter-spacing:0px;word-spacing:0px;text-anchor:middle;fill:#f9f9f9;fill-opacity:1;stroke:none;font-family:RockoFLF;-inkscape-font-specification:RockoFLF Medium"
         id="path3132"
         inkscape:connector-curvature="0" />
      <path
         d="m 127.66665,341.62301 c -0.38673,0 -0.73049,0.043 -1.03127,0.1289 -0.29005,0.0752 -0.54786,0.17189 -0.77345,0.29005 -0.22559,0.11817 -0.41896,0.24708 -0.58009,0.38672 -0.15039,0.12892 -0.2793,0.24172 -0.38672,0.33839 l 0,-0.29005 c -1e-5,-0.23632 -0.0806,-0.43505 -0.24171,-0.5962 -0.16114,-0.17187 -0.35987,-0.25781 -0.5962,-0.25781 -0.23633,0 -0.44044,0.0859 -0.61232,0.25781 -0.16113,0.16115 -0.2417,0.35988 -0.2417,0.5962 l 0,7.62172 c 0,0.23633 0.0806,0.44044 0.2417,0.61232 0.17188,0.16113 0.37599,0.2417 0.61232,0.2417 0.23633,0 0.43506,-0.0806 0.5962,-0.2417 0.16114,-0.17188 0.2417,-0.37599 0.24171,-0.61232 l 0,-4.67293 c -1e-5,-0.34375 0.0537,-0.66065 0.16113,-0.9507 0.10742,-0.30078 0.25782,-0.5586 0.45118,-0.77345 0.2041,-0.21484 0.45118,-0.38135 0.74122,-0.49953 0.29005,-0.1289 0.61232,-0.19335 0.96682,-0.19336 0.21484,10e-6 0.42969,0.0322 0.64454,0.0967 0.22559,0.0645 0.42432,0.16115 0.5962,0.29005 0.18262,0.11817 0.32764,0.27394 0.43507,0.46729 0.11816,0.18263 0.17724,0.3921 0.17725,0.62843 l 0,5.60752 c -1e-5,0.23633 0.0806,0.44044 0.2417,0.61232 0.16113,0.16113 0.35986,0.2417 0.5962,0.2417 0.23633,0 0.43506,-0.0806 0.59621,-0.2417 0.17187,-0.17188 0.25781,-0.37599 0.25781,-0.61232 l 0,-5.80088 c 0,-0.44043 -0.0859,-0.82716 -0.25781,-1.16018 -0.17189,-0.333 -0.40285,-0.61231 -0.69289,-0.8379 -0.29005,-0.22559 -0.62306,-0.39209 -0.99904,-0.49953 -0.36524,-0.11815 -0.7466,-0.17724 -1.14406,-0.17724"
         style="font-size:16.11356544px;font-style:normal;font-variant:normal;font-weight:500;font-stretch:normal;text-align:center;line-height:67.00000167%;letter-spacing:0px;word-spacing:0px;text-anchor:middle;fill:#f9f9f9;fill-opacity:1;stroke:none;font-family:RockoFLF;-inkscape-font-specification:RockoFLF Medium"
         id="path3134"
         inkscape:connector-curvature="0" />
      <path
         d="m 139.65313,348.149 c -1e-5,-0.45118 -0.0859,-0.82716 -0.25782,-1.12795 -0.17188,-0.30078 -0.40285,-0.55323 -0.69288,-0.75734 -0.27931,-0.21484 -0.60158,-0.38135 -0.96682,-0.49952 -0.36524,-0.1289 -0.73585,-0.23633 -1.11183,-0.32227 -0.37599,-0.0967 -0.7466,-0.17724 -1.11184,-0.2417 -0.36524,-0.0752 -0.69288,-0.16113 -0.98293,-0.25782 -0.2793,-0.10742 -0.50489,-0.23095 -0.67677,-0.37061 -0.17188,-0.15039 -0.25781,-0.34375 -0.25781,-0.58009 0,-0.31152 0.14502,-0.56934 0.43506,-0.77345 0.30079,-0.21484 0.77882,-0.32226 1.43411,-0.32227 0.33301,10e-6 0.60694,0.0269 0.82179,0.0806 0.22559,0.043 0.41358,0.1128 0.56398,0.20947 0.16113,0.0967 0.29004,0.22023 0.38672,0.37061 0.0967,0.1504 0.18799,0.32765 0.27393,0.53175 0.0644,0.1504 0.15576,0.2632 0.27393,0.33839 0.11816,0.0645 0.24707,0.0967 0.38673,0.0967 0.22558,0 0.43506,-0.0698 0.62843,-0.20948 0.19335,-0.15039 0.29004,-0.34912 0.29004,-0.5962 0,-0.10742 -0.0376,-0.23095 -0.11279,-0.37061 -0.0645,-0.13965 -0.1504,-0.2793 -0.25782,-0.41896 -0.10743,-0.15038 -0.22022,-0.28466 -0.33838,-0.40283 -0.11818,-0.1289 -0.23097,-0.23633 -0.33839,-0.32228 -0.26856,-0.20409 -0.61232,-0.3706 -1.03127,-0.49952 -0.41895,-0.1289 -0.93459,-0.19335 -1.5469,-0.19336 -1.09572,10e-6 -1.94974,0.23634 -2.56206,0.709 -0.61231,0.47267 -0.91847,1.12795 -0.91847,1.96585 0,0.5801 0.14502,1.03665 0.43507,1.36966 0.29004,0.32227 0.64991,0.57472 1.07961,0.75733 0.42969,0.17189 0.89698,0.30617 1.40188,0.40284 0.51563,0.0859 0.98829,0.18263 1.41799,0.29005 0.42969,0.10742 0.78956,0.25245 1.07961,0.43506 0.29004,0.18263 0.43506,0.45656 0.43507,0.82179 -1e-5,0.18263 -0.0376,0.35988 -0.1128,0.53175 -0.0752,0.16114 -0.19337,0.31153 -0.3545,0.45118 -0.1504,0.12891 -0.34913,0.23634 -0.5962,0.32227 -0.24708,0.0752 -0.54249,0.1128 -0.88625,0.1128 -0.75197,0 -1.33205,-0.15576 -1.74026,-0.4673 -0.39747,-0.31152 -0.68752,-0.69825 -0.87013,-1.16017 -0.0645,-0.16113 -0.15577,-0.2793 -0.27393,-0.3545 -0.11817,-0.0752 -0.24171,-0.11279 -0.37062,-0.1128 -0.2041,1e-5 -0.39747,0.0806 -0.58008,0.24171 -0.17188,0.15039 -0.25782,0.34913 -0.25782,0.5962 0,0.1504 0.0698,0.37061 0.20947,0.66066 0.13965,0.29004 0.36524,0.58546 0.67677,0.88624 0.32227,0.29005 0.73048,0.54786 1.22464,0.77345 0.50488,0.21485 1.12257,0.32227 1.85306,0.32227 0.51562,0 1.00977,-0.0483 1.48244,-0.14502 0.47266,-0.10742 0.88624,-0.27393 1.24075,-0.49952 0.35449,-0.23633 0.63916,-0.53712 0.85402,-0.90236 0.21484,-0.37598 0.32226,-0.83253 0.32227,-1.36965"
         style="font-size:16.11356544px;font-style:normal;font-variant:normal;font-weight:500;font-stretch:normal;text-align:center;line-height:67.00000167%;letter-spacing:0px;word-spacing:0px;text-anchor:middle;fill:#f9f9f9;fill-opacity:1;stroke:none;font-family:RockoFLF;-inkscape-font-specification:RockoFLF Medium"
         id="path3136"
         inkscape:connector-curvature="0" />
      <path
         d="m 148.1621,346.79546 c 0.25781,0 0.4834,-0.10205 0.67677,-0.30616 0.19335,-0.2041 0.29003,-0.50488 0.29004,-0.90236 -1e-5,-0.64453 -0.1128,-1.21925 -0.33838,-1.72415 -0.2256,-0.50488 -0.53713,-0.92921 -0.93459,-1.27297 -0.38673,-0.35449 -0.84866,-0.62305 -1.38577,-0.80568 -0.52638,-0.18261 -1.09572,-0.27392 -1.70804,-0.27393 -0.66603,1e-5 -1.2676,0.12892 -1.80471,0.38673 -0.53713,0.24708 -0.99905,0.58546 -1.38577,1.01515 -0.37599,0.4297 -0.66603,0.93997 -0.87013,1.53079 -0.20411,0.58009 -0.30616,1.19778 -0.30616,1.85306 0,0.6338 0.0967,1.24075 0.29004,1.82083 0.20411,0.58009 0.49415,1.09036 0.87014,1.53079 0.38672,0.4297 0.85938,0.77345 1.41799,1.03127 0.5586,0.25782 1.1924,0.38672 1.9014,0.38672 0.69825,0 1.28908,-0.0967 1.77249,-0.29004 0.4834,-0.19336 0.8755,-0.41895 1.17629,-0.67677 0.31152,-0.25781 0.53711,-0.51563 0.67677,-0.77345 0.13964,-0.25782 0.20947,-0.45118 0.20948,-0.58009 -1e-5,-0.21484 -0.0806,-0.39209 -0.24171,-0.53175 -0.16114,-0.13964 -0.33839,-0.20947 -0.53174,-0.20947 -0.11818,0 -0.23097,0.0269 -0.33839,0.0806 -0.10743,0.0537 -0.20411,0.14502 -0.29004,0.27393 -0.1504,0.22559 -0.3008,0.42432 -0.45118,0.5962 -0.1504,0.16114 -0.31691,0.29541 -0.49952,0.40284 -0.18263,0.10742 -0.3921,0.18799 -0.62843,0.2417 -0.23634,0.0537 -0.52101,0.0806 -0.85402,0.0806 -0.40821,0 -0.75734,-0.0645 -1.04738,-0.19336 -0.27931,-0.13965 -0.51564,-0.31153 -0.709,-0.51564 -0.19336,-0.2041 -0.34913,-0.42432 -0.46729,-0.66065 -0.10743,-0.24708 -0.19337,-0.47804 -0.25782,-0.69289 -0.0537,-0.21484 -0.0913,-0.39746 -0.11279,-0.54786 -0.0108,-0.16113 -0.0161,-0.25244 -0.0161,-0.27393 l 5.89757,0 m -3.36774,-3.89948 c 0.46192,10e-6 0.86476,0.0698 1.20852,0.20947 0.34375,0.13966 0.62305,0.32765 0.8379,0.56398 0.22559,0.2256 0.39209,0.48878 0.49953,0.78956 0.10741,0.3008 0.16112,0.6177 0.16113,0.9507 l -5.22079,0 c -10e-6,-0.0215 0.005,-0.0967 0.0161,-0.22559 0.0107,-0.13964 0.043,-0.30078 0.0967,-0.4834 0.0537,-0.18262 0.13428,-0.38135 0.2417,-0.59621 0.10743,-0.21484 0.25245,-0.4082 0.43507,-0.58008 0.19336,-0.18262 0.42969,-0.33301 0.709,-0.45118 0.2793,-0.11816 0.61768,-0.17724 1.01515,-0.17725"
         style="font-size:16.11356544px;font-style:normal;font-variant:normal;font-weight:500;font-stretch:normal;text-align:center;line-height:67.00000167%;letter-spacing:0px;word-spacing:0px;text-anchor:middle;fill:#f9f9f9;fill-opacity:1;stroke:none;font-family:RockoFLF;-inkscape-font-specification:RockoFLF Medium"
         id="path3138"
         inkscape:connector-curvature="0" />
      <path
         d="m 154.54357,341.62301 c -0.38673,0 -0.73048,0.043 -1.03127,0.1289 -0.29004,0.0752 -0.54786,0.17189 -0.77345,0.29005 -0.22559,0.11817 -0.41895,0.24708 -0.58009,0.38672 -0.15039,0.12892 -0.2793,0.24172 -0.38672,0.33839 l 0,-0.29005 c 0,-0.23632 -0.0806,-0.43505 -0.24171,-0.5962 -0.16113,-0.17187 -0.35987,-0.25781 -0.5962,-0.25781 -0.23633,0 -0.44044,0.0859 -0.61231,0.25781 -0.16114,0.16115 -0.24171,0.35988 -0.24171,0.5962 l 0,7.62172 c 0,0.23633 0.0806,0.44044 0.24171,0.61232 0.17187,0.16113 0.37598,0.2417 0.61231,0.2417 0.23633,0 0.43507,-0.0806 0.5962,-0.2417 0.16114,-0.17188 0.24171,-0.37599 0.24171,-0.61232 l 0,-4.67293 c 0,-0.34375 0.0537,-0.66065 0.16113,-0.9507 0.10742,-0.30078 0.25782,-0.5586 0.45118,-0.77345 0.20411,-0.21484 0.45118,-0.38135 0.74123,-0.49953 0.29004,-0.1289 0.61231,-0.19335 0.96681,-0.19336 0.21484,10e-6 0.42969,0.0322 0.64454,0.0967 0.22559,0.0645 0.42432,0.16115 0.59621,0.29005 0.18261,0.11817 0.32763,0.27394 0.43506,0.46729 0.11816,0.18263 0.17725,0.3921 0.17725,0.62843 l 0,5.60752 c 0,0.23633 0.0806,0.44044 0.2417,0.61232 0.16113,0.16113 0.35987,0.2417 0.59621,0.2417 0.23632,0 0.43506,-0.0806 0.5962,-0.2417 0.17187,-0.17188 0.25781,-0.37599 0.25782,-0.61232 l 0,-5.80088 c -1e-5,-0.44043 -0.0859,-0.82716 -0.25782,-1.16018 -0.17189,-0.333 -0.40285,-0.61231 -0.69288,-0.8379 -0.29006,-0.22559 -0.62307,-0.39209 -0.99905,-0.49953 -0.36524,-0.11815 -0.7466,-0.17724 -1.14406,-0.17724"
         style="font-size:16.11356544px;font-style:normal;font-variant:normal;font-weight:500;font-stretch:normal;text-align:center;line-height:67.00000167%;letter-spacing:0px;word-spacing:0px;text-anchor:middle;fill:#f9f9f9;fill-opacity:1;stroke:none;font-family:RockoFLF;-inkscape-font-specification:RockoFLF Medium"
         id="path3140"
         inkscape:connector-curvature="0" />
      <path
         d="m 166.53005,348.149 c -10e-6,-0.45118 -0.0859,-0.82716 -0.25782,-1.12795 -0.17188,-0.30078 -0.40284,-0.55323 -0.69288,-0.75734 -0.27931,-0.21484 -0.60158,-0.38135 -0.96681,-0.49952 -0.36525,-0.1289 -0.73586,-0.23633 -1.11184,-0.32227 -0.37599,-0.0967 -0.7466,-0.17724 -1.11184,-0.2417 -0.36524,-0.0752 -0.69288,-0.16113 -0.98292,-0.25782 -0.27931,-0.10742 -0.5049,-0.23095 -0.67677,-0.37061 -0.17188,-0.15039 -0.25782,-0.34375 -0.25782,-0.58009 0,-0.31152 0.14502,-0.56934 0.43507,-0.77345 0.30078,-0.21484 0.77882,-0.32226 1.4341,-0.32227 0.33301,10e-6 0.60694,0.0269 0.8218,0.0806 0.22558,0.043 0.41357,0.1128 0.56397,0.20947 0.16113,0.0967 0.29004,0.22023 0.38673,0.37061 0.0967,0.1504 0.18798,0.32765 0.27393,0.53175 0.0644,0.1504 0.15575,0.2632 0.27393,0.33839 0.11816,0.0645 0.24707,0.0967 0.38672,0.0967 0.22559,0 0.43506,-0.0698 0.62843,-0.20948 0.19336,-0.15039 0.29004,-0.34912 0.29005,-0.5962 -1e-5,-0.10742 -0.0376,-0.23095 -0.1128,-0.37061 -0.0645,-0.13965 -0.1504,-0.2793 -0.25782,-0.41896 -0.10743,-0.15038 -0.22022,-0.28466 -0.33838,-0.40283 -0.11817,-0.1289 -0.23097,-0.23633 -0.33839,-0.32228 -0.26856,-0.20409 -0.61232,-0.3706 -1.03126,-0.49952 -0.41896,-0.1289 -0.9346,-0.19335 -1.54691,-0.19336 -1.09572,10e-6 -1.94974,0.23634 -2.56205,0.709 -0.61232,0.47267 -0.91848,1.12795 -0.91848,1.96585 0,0.5801 0.14502,1.03665 0.43507,1.36966 0.29004,0.32227 0.64991,0.57472 1.07961,0.75733 0.42969,0.17189 0.89698,0.30617 1.40188,0.40284 0.51563,0.0859 0.98829,0.18263 1.41799,0.29005 0.42969,0.10742 0.78956,0.25245 1.07961,0.43506 0.29004,0.18263 0.43506,0.45656 0.43507,0.82179 -10e-6,0.18263 -0.0376,0.35988 -0.1128,0.53175 -0.0752,0.16114 -0.19337,0.31153 -0.3545,0.45118 -0.15039,0.12891 -0.34913,0.23634 -0.5962,0.32227 -0.24708,0.0752 -0.54249,0.1128 -0.88624,0.1128 -0.75197,0 -1.33206,-0.15576 -1.74027,-0.4673 -0.39747,-0.31152 -0.68751,-0.69825 -0.87013,-1.16017 -0.0645,-0.16113 -0.15577,-0.2793 -0.27393,-0.3545 -0.11817,-0.0752 -0.24171,-0.11279 -0.37061,-0.1128 -0.20411,1e-5 -0.39747,0.0806 -0.58009,0.24171 -0.17188,0.15039 -0.25782,0.34913 -0.25782,0.5962 0,0.1504 0.0698,0.37061 0.20948,0.66066 0.13965,0.29004 0.36524,0.58546 0.67677,0.88624 0.32227,0.29005 0.73048,0.54786 1.22463,0.77345 0.50489,0.21485 1.12257,0.32227 1.85306,0.32227 0.51563,0 1.00978,-0.0483 1.48245,-0.14502 0.47265,-0.10742 0.88624,-0.27393 1.24074,-0.49952 0.35449,-0.23633 0.63916,-0.53712 0.85402,-0.90236 0.21484,-0.37598 0.32226,-0.83253 0.32227,-1.36965"
         style="font-size:16.11356544px;font-style:normal;font-variant:normal;font-weight:500;font-stretch:normal;text-align:center;line-height:67.00000167%;letter-spacing:0px;word-spacing:0px;text-anchor:middle;fill:#f9f9f9;fill-opacity:1;stroke:none;font-family:RockoFLF;-inkscape-font-specification:RockoFLF Medium"
         id="path3142"
         inkscape:connector-curvature="0" />
      <path
         d="m 171.71963,351.06555 c 0.63379,0 1.21925,-0.10742 1.75637,-0.32227 0.54786,-0.21484 1.02052,-0.521 1.418,-0.91847 0.39746,-0.40821 0.70899,-0.90773 0.93458,-1.49856 0.22559,-0.59083 0.33838,-1.2676 0.33839,-2.03031 -1e-5,-0.7627 -0.1128,-1.43947 -0.33839,-2.03031 -0.22559,-0.59082 -0.53712,-1.09034 -0.93458,-1.49856 -0.39748,-0.4082 -0.87014,-0.71973 -1.418,-0.93459 -0.53712,-0.21484 -1.12258,-0.32226 -1.75637,-0.32227 -0.63381,1e-5 -1.22464,0.10743 -1.7725,0.32227 -0.53712,0.21486 -1.00441,0.52639 -1.40188,0.93459 -0.39747,0.40822 -0.70899,0.90774 -0.93458,1.49856 -0.22559,0.59084 -0.33839,1.26761 -0.33839,2.03031 0,0.76271 0.1128,1.43948 0.33839,2.03031 0.22559,0.59083 0.53711,1.09035 0.93458,1.49856 0.39747,0.39747 0.86476,0.70363 1.40188,0.91847 0.54786,0.21485 1.13869,0.32227 1.7725,0.32227 m 2.75542,-4.76961 c -1e-5,0.59083 -0.0698,1.1011 -0.20948,1.53079 -0.13966,0.41895 -0.33302,0.76808 -0.58009,1.04738 -0.23634,0.26856 -0.52638,0.47267 -0.87013,0.61232 -0.33302,0.12891 -0.69826,0.19336 -1.09572,0.19336 -0.39748,0 -0.76809,-0.0645 -1.11184,-0.19336 -0.33302,-0.13965 -0.62306,-0.34376 -0.87013,-0.61232 -0.23634,-0.2793 -0.42433,-0.62843 -0.56398,-1.04738 -0.13965,-0.42969 -0.20948,-0.93996 -0.20947,-1.53079 -1e-5,-0.59083 0.0698,-1.10109 0.20947,-1.53079 0.13965,-0.42969 0.32764,-0.77881 0.56398,-1.04738 0.24707,-0.2793 0.53711,-0.4834 0.87013,-0.61232 0.34375,-0.13964 0.71436,-0.20946 1.11184,-0.20947 0.39746,10e-6 0.7627,0.0698 1.09572,0.20947 0.34375,0.12892 0.63379,0.33302 0.87013,0.61232 0.24707,0.26857 0.44043,0.61769 0.58009,1.04738 0.13964,0.4297 0.20947,0.93996 0.20948,1.53079"
         style="font-size:16.11356544px;font-style:normal;font-variant:normal;font-weight:500;font-stretch:normal;text-align:center;line-height:67.00000167%;letter-spacing:0px;word-spacing:0px;text-anchor:middle;fill:#f9f9f9;fill-opacity:1;stroke:none;font-family:RockoFLF;-inkscape-font-specification:RockoFLF Medium"
         id="path3144"
         inkscape:connector-curvature="0" />
      <path
         d="m 183.16781,342.47702 c 0,-0.23632 -0.0806,-0.43505 -0.2417,-0.5962 -0.16114,-0.17187 -0.35987,-0.25781 -0.5962,-0.25781 -0.23634,0 -0.44044,0.0859 -0.61232,0.25781 -0.16114,0.16115 -0.2417,0.35988 -0.2417,0.5962 l 0,11.02168 c 0,0.23633 0.0806,0.43507 0.2417,0.59621 0.17188,0.17187 0.37598,0.25781 0.61232,0.25781 0.23633,0 0.43506,-0.0859 0.5962,-0.25781 0.16113,-0.16114 0.2417,-0.35988 0.2417,-0.59621 l 0,-3.77057 c 0.12891,0.12891 0.26856,0.26856 0.41895,0.41895 0.16114,0.13965 0.34376,0.26856 0.54786,0.38673 0.21485,0.11816 0.46192,0.22022 0.74123,0.30615 0.29004,0.0752 0.62842,0.1128 1.01515,0.1128 0.58009,0 1.10646,-0.11279 1.57913,-0.33838 0.47266,-0.22559 0.8755,-0.54249 1.20852,-0.95071 0.34375,-0.41895 0.60694,-0.9131 0.78957,-1.48244 0.18261,-0.56935 0.27392,-1.19777 0.27393,-1.88529 -1e-5,-0.68751 -0.10207,-1.31594 -0.30616,-1.88529 -0.20412,-0.58008 -0.48342,-1.07423 -0.83791,-1.48245 -0.34376,-0.41894 -0.75197,-0.74121 -1.22463,-0.96681 -0.46193,-0.22558 -0.95608,-0.33838 -1.48245,-0.33838 -0.32227,0 -0.60695,0.0161 -0.85402,0.0483 -0.24707,0.0322 -0.47266,0.0913 -0.67677,0.17725 -0.2041,0.0752 -0.40284,0.17725 -0.5962,0.30615 -0.18262,0.12892 -0.38135,0.28468 -0.5962,0.4673 l 0,-0.14503 m 2.44926,7.08997 c -0.40821,0 -0.77345,-0.0913 -1.09572,-0.27393 -0.31153,-0.18262 -0.57472,-0.42432 -0.78956,-0.72511 -0.21485,-0.30078 -0.38136,-0.64991 -0.49952,-1.04738 -0.10743,-0.39746 -0.16114,-0.80567 -0.16114,-1.22463 0,-0.42969 0.0537,-0.8379 0.16114,-1.22463 0.11816,-0.39746 0.28467,-0.74659 0.49952,-1.04738 0.21484,-0.31152 0.47803,-0.5586 0.78956,-0.74123 0.32227,-0.18261 0.68751,-0.27392 1.09572,-0.27393 0.39747,10e-6 0.75196,0.0913 1.0635,0.27393 0.32226,0.18263 0.59082,0.42971 0.80568,0.74123 0.22558,0.30079 0.39209,0.64992 0.49952,1.04738 0.11816,0.38673 0.17724,0.79494 0.17725,1.22463 -10e-6,0.41896 -0.0591,0.82717 -0.17725,1.22463 -0.10743,0.39747 -0.27394,0.7466 -0.49952,1.04738 -0.21486,0.30079 -0.48342,0.54249 -0.80568,0.72511 -0.31154,0.18262 -0.66603,0.27393 -1.0635,0.27393"
         style="font-size:16.11356544px;font-style:normal;font-variant:normal;font-weight:500;font-stretch:normal;text-align:center;line-height:67.00000167%;letter-spacing:0px;word-spacing:0px;text-anchor:middle;fill:#f9f9f9;fill-opacity:1;stroke:none;font-family:RockoFLF;-inkscape-font-specification:RockoFLF Medium"
         id="path3146"
         inkscape:connector-curvature="0" />
      <path
         d="m 192.48346,344.10449 c 0.0752,-0.16112 0.15576,-0.31689 0.24171,-0.46729 0.0967,-0.15038 0.22021,-0.27929 0.37061,-0.38672 0.15039,-0.10742 0.34375,-0.19336 0.58009,-0.25782 0.23632,-0.0645 0.54785,-0.0967 0.93458,-0.0967 0.21485,10e-6 0.43506,0.0269 0.66066,0.0806 0.22558,0.043 0.42969,0.1128 0.61231,0.20947 0.18262,0.0967 0.33301,0.22023 0.45118,0.37061 0.11816,0.1504 0.17725,0.32765 0.17725,0.53175 0,0.17189 -0.0215,0.32765 -0.0645,0.46729 -0.0322,0.13966 -0.12892,0.2632 -0.29005,0.37062 -0.16114,0.10743 -0.40284,0.20411 -0.72511,0.29004 -0.32227,0.0752 -0.76808,0.14503 -1.33742,0.20948 -0.49415,0.0537 -0.96682,0.13965 -1.418,0.25781 -0.44043,0.11818 -0.83253,0.29005 -1.17629,0.51564 -0.34375,0.22559 -0.61768,0.51564 -0.82179,0.87013 -0.2041,0.34376 -0.30616,0.77345 -0.30616,1.28909 0,0.45118 0.0913,0.8379 0.27394,1.16017 0.18262,0.32228 0.41895,0.59083 0.70899,0.80568 0.30079,0.21485 0.6338,0.37598 0.99904,0.48341 0.37598,0.0967 0.7466,0.14502 1.11184,0.14502 0.58008,0 1.12794,-0.0752 1.64358,-0.22559 0.52637,-0.15039 0.99367,-0.44581 1.40188,-0.88625 l 0,0.25782 c 0,0.23633 0.0806,0.44044 0.24171,0.61232 0.17187,0.16113 0.37597,0.2417 0.61231,0.2417 0.23633,0 0.43506,-0.0806 0.5962,-0.2417 0.16113,-0.17188 0.2417,-0.37599 0.24171,-0.61232 l 0,-6.01036 c -1e-5,-0.84864 -0.32765,-1.48781 -0.98293,-1.91751 -0.64455,-0.44043 -1.51468,-0.66065 -2.6104,-0.66066 -0.58009,10e-6 -1.07424,0.0537 -1.48245,0.16114 -0.39747,0.0967 -0.73585,0.23097 -1.01515,0.40284 -0.26856,0.17188 -0.48341,0.37062 -0.64454,0.5962 -0.16114,0.21485 -0.29005,0.43507 -0.38673,0.66065 -0.0537,0.13966 -0.0806,0.25783 -0.0806,0.3545 0,0.24708 0.0913,0.44045 0.27393,0.58009 0.18262,0.13966 0.38136,0.20948 0.59621,0.20948 0.11816,0 0.23096,-0.0268 0.33838,-0.0806 0.11817,-0.0645 0.20948,-0.16113 0.27393,-0.29005 m 4.02839,2.22368 0,1.14406 c 0,0.39747 -0.0806,0.73048 -0.2417,0.99904 -0.1504,0.26856 -0.3545,0.48341 -0.61232,0.64454 -0.24708,0.16114 -0.52638,0.27931 -0.8379,0.3545 -0.31153,0.0645 -0.62306,0.0967 -0.93459,0.0967 -0.20411,0 -0.40821,-0.0161 -0.61231,-0.0483 -0.20411,-0.043 -0.38673,-0.10742 -0.54786,-0.19336 -0.16114,-0.0967 -0.29542,-0.22022 -0.40284,-0.37061 -0.0967,-0.16114 -0.14503,-0.35987 -0.14503,-0.5962 0,-0.30079 0.0645,-0.54786 0.19337,-0.74123 0.13965,-0.19336 0.32227,-0.34912 0.54786,-0.46729 0.22559,-0.12891 0.47803,-0.22559 0.75734,-0.29005 0.27929,-0.0645 0.56397,-0.11816 0.85401,-0.16113 0.30079,-0.043 0.58546,-0.0806 0.85402,-0.1128 0.2793,-0.0322 0.521,-0.0806 0.72511,-0.14502 l 0.40284,-0.11279"
         style="font-size:16.11356544px;font-style:normal;font-variant:normal;font-weight:500;font-stretch:normal;text-align:center;line-height:67.00000167%;letter-spacing:0px;word-spacing:0px;text-anchor:middle;fill:#f9f9f9;fill-opacity:1;stroke:none;font-family:RockoFLF;-inkscape-font-specification:RockoFLF Medium"
         id="path3148"
         inkscape:connector-curvature="0" />
      <path
         d="m 201.15131,345.76419 c -1e-5,-0.18261 0.0268,-0.41357 0.0806,-0.69288 0.0537,-0.2793 0.1504,-0.54786 0.29005,-0.80568 0.15039,-0.25781 0.35449,-0.47803 0.61231,-0.66066 0.25782,-0.19335 0.59083,-0.29003 0.99905,-0.29004 0.23632,10e-6 0.43506,-0.0806 0.5962,-0.2417 0.17187,-0.17187 0.25781,-0.37061 0.25781,-0.59621 0,-0.23632 -0.0859,-0.43505 -0.25781,-0.5962 -0.16114,-0.17187 -0.35988,-0.25781 -0.5962,-0.25781 -0.24708,0 -0.48342,0.0537 -0.709,0.16113 -0.21485,0.0967 -0.41359,0.21486 -0.5962,0.3545 -0.17188,0.12892 -0.31691,0.25783 -0.43507,0.38673 -0.11817,0.12891 -0.19874,0.21485 -0.2417,0.25781 l 0,-0.30616 c -1e-5,-0.23632 -0.0806,-0.43505 -0.24171,-0.5962 -0.16113,-0.17187 -0.35987,-0.25781 -0.5962,-0.25781 -0.23633,0 -0.44044,0.0859 -0.61231,0.25781 -0.16114,0.16115 -0.24171,0.35988 -0.24171,0.5962 l 0,7.62172 c 0,0.23633 0.0806,0.44044 0.24171,0.61232 0.17187,0.16113 0.37598,0.2417 0.61231,0.2417 0.23633,0 0.43507,-0.0806 0.5962,-0.2417 0.16114,-0.17188 0.2417,-0.37599 0.24171,-0.61232 l 0,-4.33455"
         style="font-size:16.11356544px;font-style:normal;font-variant:normal;font-weight:500;font-stretch:normal;text-align:center;line-height:67.00000167%;letter-spacing:0px;word-spacing:0px;text-anchor:middle;fill:#f9f9f9;fill-opacity:1;stroke:none;font-family:RockoFLF;-inkscape-font-specification:RockoFLF Medium"
         id="path3150"
         inkscape:connector-curvature="0" />
      <path
         d="m 206.25238,344.10449 c 0.0752,-0.16112 0.15576,-0.31689 0.24171,-0.46729 0.0967,-0.15038 0.22021,-0.27929 0.37061,-0.38672 0.15039,-0.10742 0.34375,-0.19336 0.58009,-0.25782 0.23633,-0.0645 0.54785,-0.0967 0.93458,-0.0967 0.21485,10e-6 0.43506,0.0269 0.66066,0.0806 0.22558,0.043 0.42969,0.1128 0.61232,0.20947 0.18261,0.0967 0.333,0.22023 0.45118,0.37061 0.11815,0.1504 0.17724,0.32765 0.17724,0.53175 0,0.17189 -0.0215,0.32765 -0.0644,0.46729 -0.0322,0.13966 -0.12891,0.2632 -0.29004,0.37062 -0.16115,0.10743 -0.40285,0.20411 -0.72511,0.29004 -0.32228,0.0752 -0.76809,0.14503 -1.33743,0.20948 -0.49415,0.0537 -0.96682,0.13965 -1.41799,0.25781 -0.44044,0.11818 -0.83254,0.29005 -1.17629,0.51564 -0.34376,0.22559 -0.61769,0.51564 -0.8218,0.87013 -0.2041,0.34376 -0.30615,0.77345 -0.30615,1.28909 0,0.45118 0.0913,0.8379 0.27393,1.16017 0.18262,0.32228 0.41895,0.59083 0.70899,0.80568 0.30079,0.21485 0.6338,0.37598 0.99904,0.48341 0.37598,0.0967 0.7466,0.14502 1.11184,0.14502 0.58008,0 1.12795,-0.0752 1.64358,-0.22559 0.52637,-0.15039 0.99367,-0.44581 1.40188,-0.88625 l 0,0.25782 c 0,0.23633 0.0806,0.44044 0.24171,0.61232 0.17187,0.16113 0.37597,0.2417 0.61231,0.2417 0.23633,0 0.43506,-0.0806 0.59621,-0.2417 0.16112,-0.17188 0.24169,-0.37599 0.2417,-0.61232 l 0,-6.01036 c -1e-5,-0.84864 -0.32765,-1.48781 -0.98293,-1.91751 -0.64455,-0.44043 -1.51468,-0.66065 -2.6104,-0.66066 -0.58009,10e-6 -1.07424,0.0537 -1.48244,0.16114 -0.39748,0.0967 -0.73586,0.23097 -1.01516,0.40284 -0.26856,0.17188 -0.48341,0.37062 -0.64454,0.5962 -0.16114,0.21485 -0.29005,0.43507 -0.38673,0.66065 -0.0537,0.13966 -0.0806,0.25783 -0.0806,0.3545 0,0.24708 0.0913,0.44045 0.27394,0.58009 0.18261,0.13966 0.38135,0.20948 0.5962,0.20948 0.11816,0 0.23096,-0.0268 0.33838,-0.0806 0.11817,-0.0645 0.20948,-0.16113 0.27393,-0.29005 m 4.02839,2.22368 0,1.14406 c 0,0.39747 -0.0806,0.73048 -0.2417,0.99904 -0.1504,0.26856 -0.3545,0.48341 -0.61231,0.64454 -0.24708,0.16114 -0.52639,0.27931 -0.83791,0.3545 -0.31153,0.0645 -0.62306,0.0967 -0.93459,0.0967 -0.20411,0 -0.40821,-0.0161 -0.61231,-0.0483 -0.20411,-0.043 -0.38673,-0.10742 -0.54786,-0.19336 -0.16114,-0.0967 -0.29542,-0.22022 -0.40284,-0.37061 -0.0967,-0.16114 -0.14503,-0.35987 -0.14502,-0.5962 -1e-5,-0.30079 0.0644,-0.54786 0.19336,-0.74123 0.13965,-0.19336 0.32227,-0.34912 0.54786,-0.46729 0.22559,-0.12891 0.47803,-0.22559 0.75734,-0.29005 0.27929,-0.0645 0.56397,-0.11816 0.85402,-0.16113 0.30078,-0.043 0.58545,-0.0806 0.85401,-0.1128 0.2793,-0.0322 0.521,-0.0806 0.72512,-0.14502 l 0.40283,-0.11279"
         style="font-size:16.11356544px;font-style:normal;font-variant:normal;font-weight:500;font-stretch:normal;text-align:center;line-height:67.00000167%;letter-spacing:0px;word-spacing:0px;text-anchor:middle;fill:#f9f9f9;fill-opacity:1;stroke:none;font-family:RockoFLF;-inkscape-font-specification:RockoFLF Medium"
         id="path3152"
         inkscape:connector-curvature="0" />
      <path
         d="m 219.29744,339.07706 c 0,-0.23632 -0.0806,-0.43505 -0.2417,-0.5962 -0.16114,-0.16112 -0.35987,-0.24169 -0.5962,-0.2417 -0.23634,10e-6 -0.44044,0.0806 -0.61232,0.2417 -0.16114,0.16115 -0.2417,0.35988 -0.2417,0.5962 l 0,11.02168 c 0,0.23633 0.0806,0.44044 0.2417,0.61232 0.17188,0.16113 0.37598,0.2417 0.61232,0.2417 0.23633,0 0.43506,-0.0806 0.5962,-0.2417 0.16113,-0.17188 0.2417,-0.37599 0.2417,-0.61232 l 0,-11.02168"
         style="font-size:16.11356544px;font-style:normal;font-variant:normal;font-weight:500;font-stretch:normal;text-align:center;line-height:67.00000167%;letter-spacing:0px;word-spacing:0px;text-anchor:middle;fill:#f9f9f9;fill-opacity:1;stroke:none;font-family:RockoFLF;-inkscape-font-specification:RockoFLF Medium"
         id="path3154"
         inkscape:connector-curvature="0" />
      <path
         d="m 222.4761,344.10449 c 0.0752,-0.16112 0.15576,-0.31689 0.2417,-0.46729 0.0967,-0.15038 0.22022,-0.27929 0.37062,-0.38672 0.15039,-0.10742 0.34375,-0.19336 0.58008,-0.25782 0.23633,-0.0645 0.54786,-0.0967 0.93459,-0.0967 0.21484,10e-6 0.43506,0.0269 0.66066,0.0806 0.22558,0.043 0.42969,0.1128 0.61231,0.20947 0.18262,0.0967 0.33301,0.22023 0.45118,0.37061 0.11816,0.1504 0.17724,0.32765 0.17725,0.53175 -1e-5,0.17189 -0.0215,0.32765 -0.0644,0.46729 -0.0322,0.13966 -0.12892,0.2632 -0.29005,0.37062 -0.16114,0.10743 -0.40284,0.20411 -0.72511,0.29004 -0.32227,0.0752 -0.76808,0.14503 -1.33742,0.20948 -0.49416,0.0537 -0.96682,0.13965 -1.418,0.25781 -0.44044,0.11818 -0.83253,0.29005 -1.17629,0.51564 -0.34376,0.22559 -0.61769,0.51564 -0.82179,0.87013 -0.20411,0.34376 -0.30616,0.77345 -0.30616,1.28909 0,0.45118 0.0913,0.8379 0.27393,1.16017 0.18262,0.32228 0.41895,0.59083 0.709,0.80568 0.30079,0.21485 0.6338,0.37598 0.99904,0.48341 0.37598,0.0967 0.74659,0.14502 1.11184,0.14502 0.58008,0 1.12794,-0.0752 1.64358,-0.22559 0.52637,-0.15039 0.99366,-0.44581 1.40188,-0.88625 l 0,0.25782 c -1e-5,0.23633 0.0806,0.44044 0.2417,0.61232 0.17188,0.16113 0.37598,0.2417 0.61232,0.2417 0.23632,0 0.43506,-0.0806 0.5962,-0.2417 0.16113,-0.17188 0.2417,-0.37599 0.24171,-0.61232 l 0,-6.01036 c -1e-5,-0.84864 -0.32765,-1.48781 -0.98293,-1.91751 -0.64455,-0.44043 -1.51468,-0.66065 -2.6104,-0.66066 -0.58009,10e-6 -1.07424,0.0537 -1.48245,0.16114 -0.39747,0.0967 -0.73585,0.23097 -1.01515,0.40284 -0.26856,0.17188 -0.48341,0.37062 -0.64454,0.5962 -0.16114,0.21485 -0.29005,0.43507 -0.38673,0.66065 -0.0537,0.13966 -0.0806,0.25783 -0.0806,0.3545 0,0.24708 0.0913,0.44045 0.27393,0.58009 0.18262,0.13966 0.38136,0.20948 0.5962,0.20948 0.11817,0 0.23096,-0.0268 0.33839,-0.0806 0.11816,-0.0645 0.20947,-0.16113 0.27393,-0.29005 m 4.02839,2.22368 0,1.14406 c -1e-5,0.39747 -0.0806,0.73048 -0.2417,0.99904 -0.1504,0.26856 -0.35451,0.48341 -0.61232,0.64454 -0.24708,0.16114 -0.52638,0.27931 -0.8379,0.3545 -0.31154,0.0645 -0.62307,0.0967 -0.93459,0.0967 -0.20411,0 -0.40821,-0.0161 -0.61232,-0.0483 -0.2041,-0.043 -0.38672,-0.10742 -0.54786,-0.19336 -0.16114,-0.0967 -0.29541,-0.22022 -0.40284,-0.37061 -0.0967,-0.16114 -0.14502,-0.35987 -0.14502,-0.5962 0,-0.30079 0.0644,-0.54786 0.19336,-0.74123 0.13965,-0.19336 0.32227,-0.34912 0.54787,-0.46729 0.22558,-0.12891 0.47803,-0.22559 0.75733,-0.29005 0.2793,-0.0645 0.56397,-0.11816 0.85402,-0.16113 0.30078,-0.043 0.58546,-0.0806 0.85402,-0.1128 0.2793,-0.0322 0.521,-0.0806 0.72511,-0.14502 l 0.40284,-0.11279"
         style="font-size:16.11356544px;font-style:normal;font-variant:normal;font-weight:500;font-stretch:normal;text-align:center;line-height:67.00000167%;letter-spacing:0px;word-spacing:0px;text-anchor:middle;fill:#f9f9f9;fill-opacity:1;stroke:none;font-family:RockoFLF;-inkscape-font-specification:RockoFLF Medium"
         id="path3156"
         inkscape:connector-curvature="0" />
      <path
         d="m 235.50543,344.10449 c 0.0752,-0.16112 0.15576,-0.31689 0.2417,-0.46729 0.0967,-0.15038 0.22022,-0.27929 0.37061,-0.38672 0.15039,-0.10742 0.34376,-0.19336 0.58009,-0.25782 0.23633,-0.0645 0.54786,-0.0967 0.93459,-0.0967 0.21484,10e-6 0.43506,0.0269 0.66065,0.0806 0.22559,0.043 0.42969,0.1128 0.61232,0.20947 0.18261,0.0967 0.33301,0.22023 0.45118,0.37061 0.11816,0.1504 0.17724,0.32765 0.17725,0.53175 -1e-5,0.17189 -0.0215,0.32765 -0.0645,0.46729 -0.0322,0.13966 -0.12891,0.2632 -0.29004,0.37062 -0.16114,0.10743 -0.40284,0.20411 -0.72511,0.29004 -0.32228,0.0752 -0.76809,0.14503 -1.33743,0.20948 -0.49415,0.0537 -0.96681,0.13965 -1.41799,0.25781 -0.44044,0.11818 -0.83254,0.29005 -1.17629,0.51564 -0.34376,0.22559 -0.61769,0.51564 -0.82179,0.87013 -0.20411,0.34376 -0.30616,0.77345 -0.30616,1.28909 0,0.45118 0.0913,0.8379 0.27393,1.16017 0.18262,0.32228 0.41895,0.59083 0.709,0.80568 0.30078,0.21485 0.6338,0.37598 0.99904,0.48341 0.37598,0.0967 0.74659,0.14502 1.11183,0.14502 0.58009,0 1.12795,-0.0752 1.64359,-0.22559 0.52637,-0.15039 0.99366,-0.44581 1.40188,-0.88625 l 0,0.25782 c -1e-5,0.23633 0.0806,0.44044 0.2417,0.61232 0.17187,0.16113 0.37598,0.2417 0.61232,0.2417 0.23632,0 0.43506,-0.0806 0.5962,-0.2417 0.16113,-0.17188 0.24169,-0.37599 0.2417,-0.61232 l 0,-6.01036 c -1e-5,-0.84864 -0.32765,-1.48781 -0.98292,-1.91751 -0.64455,-0.44043 -1.51469,-0.66065 -2.6104,-0.66066 -0.58009,10e-6 -1.07424,0.0537 -1.48245,0.16114 -0.39747,0.0967 -0.73586,0.23097 -1.01515,0.40284 -0.26857,0.17188 -0.48341,0.37062 -0.64455,0.5962 -0.16113,0.21485 -0.29004,0.43507 -0.38672,0.66065 -0.0537,0.13966 -0.0806,0.25783 -0.0806,0.3545 0,0.24708 0.0913,0.44045 0.27393,0.58009 0.18262,0.13966 0.38135,0.20948 0.5962,0.20948 0.11817,0 0.23096,-0.0268 0.33839,-0.0806 0.11816,-0.0645 0.20947,-0.16113 0.27393,-0.29005 m 4.02839,2.22368 0,1.14406 c -1e-5,0.39747 -0.0806,0.73048 -0.24171,0.99904 -0.15039,0.26856 -0.3545,0.48341 -0.61231,0.64454 -0.24708,0.16114 -0.52638,0.27931 -0.83791,0.3545 -0.31153,0.0645 -0.62306,0.0967 -0.93458,0.0967 -0.20411,0 -0.40822,-0.0161 -0.61232,-0.0483 -0.20411,-0.043 -0.38673,-0.10742 -0.54786,-0.19336 -0.16114,-0.0967 -0.29542,-0.22022 -0.40284,-0.37061 -0.0967,-0.16114 -0.14502,-0.35987 -0.14502,-0.5962 0,-0.30079 0.0644,-0.54786 0.19336,-0.74123 0.13965,-0.19336 0.32227,-0.34912 0.54786,-0.46729 0.22559,-0.12891 0.47804,-0.22559 0.75734,-0.29005 0.2793,-0.0645 0.56397,-0.11816 0.85402,-0.16113 0.30078,-0.043 0.58545,-0.0806 0.85402,-0.1128 0.27929,-0.0322 0.521,-0.0806 0.72511,-0.14502 l 0.40284,-0.11279"
         style="font-size:16.11356544px;font-style:normal;font-variant:normal;font-weight:500;font-stretch:normal;text-align:center;line-height:67.00000167%;letter-spacing:0px;word-spacing:0px;text-anchor:middle;fill:#f9f9f9;fill-opacity:1;stroke:none;font-family:RockoFLF;-inkscape-font-specification:RockoFLF Medium"
         id="path3158"
         inkscape:connector-curvature="0" />
      <path
         d="m 246.62253,351.06555 c 0.76271,0 1.38576,-0.10742 1.86918,-0.32227 0.49414,-0.21484 0.88086,-0.46192 1.16017,-0.74122 0.2793,-0.2793 0.47266,-0.55323 0.58009,-0.82179 0.10742,-0.2793 0.16113,-0.47804 0.16114,-0.5962 -1e-5,-0.23633 -0.0913,-0.41895 -0.27393,-0.54787 -0.17189,-0.13964 -0.36525,-0.20947 -0.58009,-0.20947 -0.1504,0 -0.29005,0.0376 -0.41895,0.11279 -0.12892,0.0752 -0.22023,0.20411 -0.27393,0.38673 -0.0537,0.17188 -0.14503,0.33839 -0.27393,0.49952 -0.11818,0.16114 -0.27394,0.30616 -0.4673,0.43507 -0.18262,0.12891 -0.40284,0.23096 -0.66065,0.30615 -0.24708,0.0752 -0.52101,0.1128 -0.8218,0.1128 -0.33301,0 -0.66603,-0.0591 -0.99904,-0.17725 -0.32227,-0.12891 -0.61769,-0.32764 -0.88624,-0.5962 -0.25782,-0.26856 -0.4673,-0.61769 -0.62843,-1.04738 -0.16114,-0.4297 -0.24171,-0.9507 -0.24171,-1.56302 0,-0.61231 0.0806,-1.13332 0.24171,-1.56302 0.16113,-0.44043 0.37061,-0.79493 0.62843,-1.06349 0.26855,-0.26855 0.56397,-0.46192 0.88624,-0.58009 0.33301,-0.1289 0.66603,-0.19335 0.99904,-0.19336 0.30079,10e-6 0.57472,0.0376 0.8218,0.11279 0.25781,0.0752 0.47803,0.17726 0.66065,0.30616 0.19336,0.12892 0.34912,0.27394 0.4673,0.43507 0.1289,0.16114 0.22021,0.32765 0.27393,0.49952 0.0537,0.18262 0.14501,0.31153 0.27393,0.38672 0.1289,0.0752 0.26855,0.1128 0.41895,0.1128 0.21484,0 0.4082,-0.0644 0.58009,-0.19337 0.17187,-0.13964 0.25781,-0.333 0.25781,-0.58008 0,-0.19336 -0.0752,-0.42969 -0.22559,-0.709 -0.1504,-0.27929 -0.38136,-0.54785 -0.69288,-0.80568 -0.30079,-0.25781 -0.68752,-0.47803 -1.16018,-0.66066 -0.47267,-0.19335 -1.03127,-0.29003 -1.67581,-0.29004 -0.6338,1e-5 -1.22463,0.11818 -1.77249,0.3545 -0.53712,0.2256 -1.00441,0.54787 -1.40188,0.96681 -0.39747,0.41896 -0.709,0.92385 -0.93459,1.51468 -0.22559,0.58009 -0.33838,1.23001 -0.33838,1.94974 0,0.709 0.11279,1.35891 0.33838,1.94974 0.22559,0.58009 0.53712,1.07961 0.93459,1.49856 0.39747,0.41896 0.86476,0.7466 1.40188,0.98293 0.54786,0.22559 1.13869,0.33838 1.77249,0.33838"
         style="font-size:16.11356544px;font-style:normal;font-variant:normal;font-weight:500;font-stretch:normal;text-align:center;line-height:67.00000167%;letter-spacing:0px;word-spacing:0px;text-anchor:middle;fill:#f9f9f9;fill-opacity:1;stroke:none;font-family:RockoFLF;-inkscape-font-specification:RockoFLF Medium"
         id="path3160"
         inkscape:connector-curvature="0" />
      <path
         d="m 255.49758,351.06555 c 0.7627,0 1.38576,-0.10742 1.86917,-0.32227 0.49415,-0.21484 0.88087,-0.46192 1.16018,-0.74122 0.27929,-0.2793 0.47266,-0.55323 0.58009,-0.82179 0.10741,-0.2793 0.16113,-0.47804 0.16113,-0.5962 0,-0.23633 -0.0913,-0.41895 -0.27393,-0.54787 -0.17188,-0.13964 -0.36525,-0.20947 -0.58009,-0.20947 -0.1504,0 -0.29005,0.0376 -0.41895,0.11279 -0.12891,0.0752 -0.22022,0.20411 -0.27393,0.38673 -0.0537,0.17188 -0.14503,0.33839 -0.27393,0.49952 -0.11817,0.16114 -0.27394,0.30616 -0.46729,0.43507 -0.18263,0.12891 -0.40285,0.23096 -0.66066,0.30615 -0.24708,0.0752 -0.52101,0.1128 -0.82179,0.1128 -0.33302,0 -0.66603,-0.0591 -0.99904,-0.17725 -0.32228,-0.12891 -0.61769,-0.32764 -0.88625,-0.5962 -0.25782,-0.26856 -0.46729,-0.61769 -0.62843,-1.04738 -0.16113,-0.4297 -0.2417,-0.9507 -0.2417,-1.56302 0,-0.61231 0.0806,-1.13332 0.2417,-1.56302 0.16114,-0.44043 0.37061,-0.79493 0.62843,-1.06349 0.26856,-0.26855 0.56397,-0.46192 0.88625,-0.58009 0.33301,-0.1289 0.66602,-0.19335 0.99904,-0.19336 0.30078,10e-6 0.57471,0.0376 0.82179,0.11279 0.25781,0.0752 0.47803,0.17726 0.66066,0.30616 0.19335,0.12892 0.34912,0.27394 0.46729,0.43507 0.1289,0.16114 0.22021,0.32765 0.27393,0.49952 0.0537,0.18262 0.14502,0.31153 0.27393,0.38672 0.1289,0.0752 0.26855,0.1128 0.41895,0.1128 0.21484,0 0.40821,-0.0644 0.58009,-0.19337 0.17187,-0.13964 0.25781,-0.333 0.25782,-0.58008 -1e-5,-0.19336 -0.0752,-0.42969 -0.22559,-0.709 -0.1504,-0.27929 -0.38136,-0.54785 -0.69288,-0.80568 -0.3008,-0.25781 -0.68752,-0.47803 -1.16018,-0.66066 -0.47267,-0.19335 -1.03127,-0.29003 -1.67581,-0.29004 -0.6338,1e-5 -1.22464,0.11818 -1.77249,0.3545 -0.53712,0.2256 -1.00442,0.54787 -1.40188,0.96681 -0.39747,0.41896 -0.709,0.92385 -0.93459,1.51468 -0.22559,0.58009 -0.33838,1.23001 -0.33838,1.94974 0,0.709 0.11279,1.35891 0.33838,1.94974 0.22559,0.58009 0.53712,1.07961 0.93459,1.49856 0.39746,0.41896 0.86476,0.7466 1.40188,0.98293 0.54785,0.22559 1.13869,0.33838 1.77249,0.33838"
         style="font-size:16.11356544px;font-style:normal;font-variant:normal;font-weight:500;font-stretch:normal;text-align:center;line-height:67.00000167%;letter-spacing:0px;word-spacing:0px;text-anchor:middle;fill:#f9f9f9;fill-opacity:1;stroke:none;font-family:RockoFLF;-inkscape-font-specification:RockoFLF Medium"
         id="path3162"
         inkscape:connector-curvature="0" />
      <path
         d="m 260.11864,339.18986 c 0,0.25783 0.0913,0.48342 0.27393,0.67677 0.19337,0.18263 0.42433,0.27394 0.69289,0.27393 0.25781,1e-5 0.47803,-0.0913 0.66065,-0.27393 0.19336,-0.19335 0.29005,-0.41894 0.29005,-0.67677 0,-0.26855 -0.0967,-0.49414 -0.29005,-0.67677 -0.18262,-0.18261 -0.40284,-0.27392 -0.66065,-0.27393 -0.26856,10e-6 -0.49952,0.0913 -0.69289,0.27393 -0.18262,0.18263 -0.27393,0.40822 -0.27393,0.67677 m 1.80472,3.28716 c 0,-0.23632 -0.0806,-0.43505 -0.2417,-0.5962 -0.16114,-0.17187 -0.35987,-0.25781 -0.5962,-0.25781 -0.23634,0 -0.44044,0.0859 -0.61232,0.25781 -0.16113,0.16115 -0.2417,0.35988 -0.2417,0.5962 l 0,7.62172 c 0,0.23633 0.0806,0.44044 0.2417,0.61232 0.17188,0.16113 0.37598,0.2417 0.61232,0.2417 0.23633,0 0.43506,-0.0806 0.5962,-0.2417 0.16113,-0.17188 0.2417,-0.37599 0.2417,-0.61232 l 0,-7.62172"
         style="font-size:16.11356544px;font-style:normal;font-variant:normal;font-weight:500;font-stretch:normal;text-align:center;line-height:67.00000167%;letter-spacing:0px;word-spacing:0px;text-anchor:middle;fill:#f9f9f9;fill-opacity:1;stroke:none;font-family:RockoFLF;-inkscape-font-specification:RockoFLF Medium"
         id="path3164"
         inkscape:connector-curvature="0" />
      <path
         d="m 267.33097,351.06555 c 0.63379,0 1.21925,-0.10742 1.75638,-0.32227 0.54785,-0.21484 1.02052,-0.521 1.41799,-0.91847 0.39746,-0.40821 0.70899,-0.90773 0.93459,-1.49856 0.22558,-0.59083 0.33837,-1.2676 0.33838,-2.03031 -10e-6,-0.7627 -0.1128,-1.43947 -0.33838,-2.03031 -0.2256,-0.59082 -0.53713,-1.09034 -0.93459,-1.49856 -0.39747,-0.4082 -0.87014,-0.71973 -1.41799,-0.93459 -0.53713,-0.21484 -1.12259,-0.32226 -1.75638,-0.32227 -0.63381,1e-5 -1.22464,0.10743 -1.77249,0.32227 -0.53712,0.21486 -1.00442,0.52639 -1.40188,0.93459 -0.39747,0.40822 -0.709,0.90774 -0.93459,1.49856 -0.22559,0.59084 -0.33839,1.26761 -0.33839,2.03031 0,0.76271 0.1128,1.43948 0.33839,2.03031 0.22559,0.59083 0.53712,1.09035 0.93459,1.49856 0.39746,0.39747 0.86476,0.70363 1.40188,0.91847 0.54785,0.21485 1.13868,0.32227 1.77249,0.32227 m 2.75542,-4.76961 c -10e-6,0.59083 -0.0698,1.1011 -0.20948,1.53079 -0.13966,0.41895 -0.33302,0.76808 -0.58009,1.04738 -0.23634,0.26856 -0.52638,0.47267 -0.87013,0.61232 -0.33302,0.12891 -0.69826,0.19336 -1.09572,0.19336 -0.39747,0 -0.76809,-0.0645 -1.11184,-0.19336 -0.33301,-0.13965 -0.62306,-0.34376 -0.87013,-0.61232 -0.23633,-0.2793 -0.42433,-0.62843 -0.56397,-1.04738 -0.13966,-0.42969 -0.20948,-0.93996 -0.20948,-1.53079 0,-0.59083 0.0698,-1.10109 0.20948,-1.53079 0.13964,-0.42969 0.32764,-0.77881 0.56397,-1.04738 0.24707,-0.2793 0.53712,-0.4834 0.87013,-0.61232 0.34375,-0.13964 0.71437,-0.20946 1.11184,-0.20947 0.39746,10e-6 0.7627,0.0698 1.09572,0.20947 0.34375,0.12892 0.63379,0.33302 0.87013,0.61232 0.24707,0.26857 0.44043,0.61769 0.58009,1.04738 0.13965,0.4297 0.20947,0.93996 0.20948,1.53079"
         style="font-size:16.11356544px;font-style:normal;font-variant:normal;font-weight:500;font-stretch:normal;text-align:center;line-height:67.00000167%;letter-spacing:0px;word-spacing:0px;text-anchor:middle;fill:#f9f9f9;fill-opacity:1;stroke:none;font-family:RockoFLF;-inkscape-font-specification:RockoFLF Medium"
         id="path3166"
         inkscape:connector-curvature="0" />
      <path
         d="m 277.18921,341.62301 c -0.38674,0 -0.73049,0.043 -1.03127,0.1289 -0.29005,0.0752 -0.54787,0.17189 -0.77345,0.29005 -0.2256,0.11817 -0.41896,0.24708 -0.58009,0.38672 -0.1504,0.12892 -0.27931,0.24172 -0.38673,0.33839 l 0,-0.29005 c 0,-0.23632 -0.0806,-0.43505 -0.2417,-0.5962 -0.16114,-0.17187 -0.35987,-0.25781 -0.5962,-0.25781 -0.23634,0 -0.44044,0.0859 -0.61232,0.25781 -0.16114,0.16115 -0.2417,0.35988 -0.2417,0.5962 l 0,7.62172 c 0,0.23633 0.0806,0.44044 0.2417,0.61232 0.17188,0.16113 0.37598,0.2417 0.61232,0.2417 0.23633,0 0.43506,-0.0806 0.5962,-0.2417 0.16113,-0.17188 0.2417,-0.37599 0.2417,-0.61232 l 0,-4.67293 c 0,-0.34375 0.0537,-0.66065 0.16114,-0.9507 0.10742,-0.30078 0.25781,-0.5586 0.45118,-0.77345 0.2041,-0.21484 0.45117,-0.38135 0.74122,-0.49953 0.29004,-0.1289 0.61231,-0.19335 0.96682,-0.19336 0.21484,10e-6 0.42969,0.0322 0.64454,0.0967 0.22558,0.0645 0.42432,0.16115 0.5962,0.29005 0.18261,0.11817 0.32764,0.27394 0.43507,0.46729 0.11816,0.18263 0.17724,0.3921 0.17725,0.62843 l 0,5.60752 c -1e-5,0.23633 0.0806,0.44044 0.2417,0.61232 0.16113,0.16113 0.35986,0.2417 0.5962,0.2417 0.23633,0 0.43506,-0.0806 0.5962,-0.2417 0.17187,-0.17188 0.25781,-0.37599 0.25782,-0.61232 l 0,-5.80088 c -10e-6,-0.44043 -0.0859,-0.82716 -0.25782,-1.16018 -0.17188,-0.333 -0.40284,-0.61231 -0.69288,-0.8379 -0.29005,-0.22559 -0.62307,-0.39209 -0.99904,-0.49953 -0.36525,-0.11815 -0.7466,-0.17724 -1.14406,-0.17724"
         style="font-size:16.11356544px;font-style:normal;font-variant:normal;font-weight:500;font-stretch:normal;text-align:center;line-height:67.00000167%;letter-spacing:0px;word-spacing:0px;text-anchor:middle;fill:#f9f9f9;fill-opacity:1;stroke:none;font-family:RockoFLF;-inkscape-font-specification:RockoFLF Medium"
         id="path3168"
         inkscape:connector-curvature="0" />
      <path
         sodipodi:nodetypes="ccccccccc"
         d="m 126.23934,289.96394 c 0,1.39555 0.48863,2.58172 1.46586,3.55851 1.02377,0.97689 2.2104,1.46533 3.55992,1.46527 1.39605,6e-5 2.58269,-0.48838 3.55994,-1.46527 1.02375,-0.97679 1.53565,-2.16296 1.53566,-3.55851 -10e-6,-1.39543 -0.51191,-2.5816 -1.53566,-3.55851 -0.97725,-0.97678 -2.16389,-1.4652 -3.55994,-1.46526 -1.34952,6e-5 -2.53615,0.48848 -3.55992,1.46526 -0.97723,0.97691 -1.46586,2.16308 -1.46586,3.55851"
         style="font-size:144px;font-style:normal;font-variant:normal;font-weight:bold;font-stretch:normal;text-align:center;line-height:60.00000238%;letter-spacing:0px;word-spacing:0px;text-anchor:middle;fill:#ff7d00;fill-opacity:1;stroke:none;font-family:RockoFLF;-inkscape-font-specification:RockoFLF Bold"
         id="path3022"
         inkscape:connector-curvature="0" />
      <path
         sodipodi:nodetypes="ccccccccc"
         d="m 230.61721,289.96394 c 0,1.39555 0.48863,2.58172 1.46586,3.55851 1.02377,0.97689 2.2104,1.46533 3.55992,1.46527 1.39605,6e-5 2.58269,-0.48838 3.55994,-1.46527 1.02375,-0.97679 1.53565,-2.16296 1.53566,-3.55851 -10e-6,-1.39543 -0.51191,-2.5816 -1.53566,-3.55851 -0.97725,-0.97678 -2.16389,-1.4652 -3.55994,-1.46526 -1.34952,6e-5 -2.53615,0.48848 -3.55992,1.46526 -0.97723,0.97691 -1.46586,2.16308 -1.46586,3.55851"
         style="font-size:144px;font-style:normal;font-variant:normal;font-weight:bold;font-stretch:normal;text-align:center;line-height:60.00000238%;letter-spacing:0px;word-spacing:0px;text-anchor:middle;fill:#ff7d00;fill-opacity:1;stroke:none;font-family:RockoFLF;-inkscape-font-specification:RockoFLF Bold"
         id="path3022-6"
         inkscape:connector-curvature="0" />
    </g>
  </g>
</svg>
